<svg viewBox="233.899 241.133 32.101 32" xmlns="http://www.w3.org/2000/svg"><g fill="none" fill-rule="evenodd" transform="translate(234 241.133)"><circle cx="16" cy="16" r="16" fill="#627EEA"/><g fill="#FFF" fill-rule="nonzero"><path fill-opacity=".602" d="M16.498 4v8.87l7.497 3.35z"/><path d="M16.498 4 9 16.22l7.498-3.35z"/><path fill-opacity=".602" d="M16.498 21.968v6.027L24 17.616z"/><path d="M16.498 27.995v-6.028L9 17.616z"/><path fill-opacity=".2" d="m16.498 20.573 7.497-4.353-7.497-3.348z"/><path fill-opacity=".602" d="m9 16.22 7.498 4.353v-7.701z"/></g></g><rect style="fill:#f3ba2f" x="234" y="263.573" width="32" height="9.56" rx="4.8" ry="4.8"/><path d="M239.471 270.632h-.43v-4.46h.41c.1 0 .204-.003.31-.01l.33-.02c.12-.007.257-.01.41-.01.367 0 .667.043.9.13.234.093.404.22.51.38.107.167.16.36.16.58 0 .147-.023.293-.07.44a.899.899 0 0 1-.22.36.771.771 0 0 1-.38.22c.174.013.334.07.48.17.14.093.25.217.33.37.087.153.13.323.13.51 0 .267-.053.503-.16.71-.113.213-.3.377-.56.49-.266.12-.633.18-1.1.18-.186 0-.38-.003-.58-.01l-.47-.03Zm.43-3.87v1.28c.04.007.087.01.14.01.06.007.12.01.18.01H240.531c.22 0 .394-.06.52-.18.127-.113.19-.3.19-.56 0-.207-.073-.36-.22-.46-.153-.093-.366-.14-.64-.14a1.55 1.55 0 0 0-.15.01c-.066 0-.133.003-.2.01-.066 0-.11.007-.13.02Zm0 1.89v1.37a.67.67 0 0 0 .16.04l.24.02h.24c.294 0 .52-.057.68-.17.16-.107.24-.3.24-.58 0-.24-.073-.417-.22-.53-.146-.113-.38-.17-.7-.17h-.35c-.06 0-.116.003-.17.01a.605.605 0 0 0-.12.01Zm6.064 1.98h-2.87v-4.46h2.68v.65h-1.82v1.2h1.37v.64h-1.37v1.3h2.01v.67Zm1.591 0h-.86v-4.46h.36c.186 0 .376-.007.57-.02.186-.02.383-.03.59-.03.34 0 .63.053.87.16.246.1.433.26.56.48.133.22.2.51.2.87 0 .5-.15.89-.45 1.17-.307.273-.744.41-1.31.41h-.32a2.701 2.701 0 0 0-.21-.01v1.43Zm0-3.85v1.78l.25.02c.086.007.17.01.25.01.166 0 .323-.027.47-.08a.757.757 0 0 0 .34-.29c.086-.14.13-.337.13-.59 0-.307-.08-.537-.24-.69-.16-.153-.397-.223-.71-.21-.08.007-.164.01-.25.01-.08.007-.16.02-.24.04Zm5.512 2.21h-2.49v-.65h2.49v.65Zm3.908 1.64h-2.94l-.12-.39a8.94 8.94 0 0 0 .53-.39c.187-.153.37-.317.55-.49.174-.18.33-.37.47-.57.147-.193.264-.393.35-.6.08-.207.12-.407.12-.6 0-.253-.063-.447-.19-.58-.12-.133-.293-.2-.52-.2-.193 0-.38.04-.56.12-.18.073-.32.163-.42.27l-.31-.48c.074-.087.18-.173.32-.26.134-.093.294-.17.48-.23.194-.067.414-.1.66-.1.334 0 .607.063.82.19.207.127.357.297.45.51.1.207.15.437.15.69 0 .3-.073.597-.22.89-.146.293-.35.577-.61.85a5.338 5.338 0 0 1-.88.74l1.87-.06v.69Zm2.365.05c-.307 0-.57-.063-.79-.19a1.579 1.579 0 0 1-.52-.53 2.27 2.27 0 0 1-.3-.75c-.06-.28-.09-.573-.09-.88.007-.453.09-.843.25-1.17.153-.333.363-.59.63-.77.267-.18.563-.27.89-.27.313 0 .577.06.79.18.213.113.383.273.51.48a2.3 2.3 0 0 1 .29.72c.053.273.08.563.08.87-.007.46-.083.863-.23 1.21-.147.347-.35.617-.61.81-.26.193-.56.29-.9.29Zm.02-.68c.273.007.48-.123.62-.39s.21-.67.21-1.21c0-.32-.03-.6-.09-.84-.053-.24-.14-.427-.26-.56a.624.624 0 0 0-.47-.2c-.267 0-.473.127-.62.38-.14.253-.21.63-.21 1.13 0 .313.03.597.09.85s.15.457.27.61c.12.147.273.223.46.23Z" style="fill:#fff;paint-order:fill;text-transform:uppercase;white-space:pre"/></svg>