<svg width="419" height="419" viewBox="0 0 419 419" fill="none" xmlns="http://www.w3.org/2000/svg">
<path d="M190.14 238.99C183.09 242.99 176.68 247.88 171 253.67C163.14 261.67 156.94 271.13 152.51 281.7C150.13 287.35 148.4 293.22 147.27 299.28C139.42 299.17 131.43 297.6 123.29 294.53C121.17 293.74 119.05 292.84 116.91 291.84C106.26 286.87 96.6 280.11 87.9301 271.57C79.28 263.05 72.22 252.99 66.73 241.42C61.2701 229.83 58.54 217.44 58.54 204.25V91.52L87.8401 109.63L117.64 91.23V204.25C117.64 208.93 118.83 213.39 121.23 217.66C123.61 221.9 126.45 225.64 129.75 228.77C133.02 231.93 136.34 234.39 139.72 236.23C143.13 238.07 145.91 238.99 148.1 238.99H190.14Z" fill="url(#paint0_linear_306_15)"/>
<path d="M221.5 304.84C218.5 307.87 217.01 311.65 217.01 316.11C217.01 320.35 218.5 324.03 221.5 327.06C224.47 330.11 228.07 331.63 232.23 331.63H354.34L295.22 391.97H232.23C222.09 391.97 212.47 389.97 203.44 386.02C194.36 382.05 186.46 376.64 179.7 369.72C172.91 362.83 167.59 354.74 163.72 345.5C159.83 336.25 157.88 326.47 157.88 316.11C157.88 305.54 159.83 295.64 163.72 286.4C167.59 277.15 172.91 269.07 179.7 262.18C186.46 255.29 194.35 249.85 203.44 245.88C212.47 241.93 222.09 239.93 232.23 239.93H286.27C290.46 239.93 294.03 238.42 297.03 235.36C300 232.33 301.49 228.66 301.49 224.41C301.49 219.95 300 216.16 297.03 213.14C294.03 210.09 290.46 208.57 286.27 208.57H148.76V148.23H286.28C296.44 148.23 306.04 150.23 315.1 154.18C324.16 158.15 332.05 163.59 338.84 170.48C345.6 177.4 350.92 185.46 354.82 194.7C358.69 203.95 360.63 213.84 360.63 224.41C360.63 234.76 358.68 244.55 354.82 253.8C350.93 263.05 345.6 271.13 338.84 278.02C332.05 284.94 324.16 290.35 315.1 294.32C306.04 298.27 296.45 300.27 286.28 300.27H232.24C228.07 300.27 224.48 301.79 221.5 304.84Z" fill="url(#paint1_linear_306_15)"/>
<path d="M190.14 238.99C183.09 242.99 176.68 247.88 171 253.67C163.14 261.67 156.94 271.13 152.51 281.7C150.13 287.35 148.4 293.22 147.27 299.28C139.42 299.17 131.43 297.6 123.29 294.53C126.73 279.88 134.73 255.38 151.85 238.99H190.14Z" fill="url(#paint2_linear_306_15)"/>
<path d="M117.79 80.36L87.6201 66.03V28.9399V28L117.79 80.36Z" fill="url(#paint3_linear_306_15)"/>
<path d="M87.84 28.22V29.1699V66.25L58 80.22L87.84 28.22Z" fill="url(#paint4_linear_306_15)"/>
<path d="M87.8401 65.48V98.63L117.79 80.36L87.8401 65.48Z" fill="url(#paint5_linear_306_15)"/>
<path d="M87.95 65.34V98.49L58 80.22L87.95 65.34Z" fill="url(#paint6_linear_306_15)"/>
<defs>
<linearGradient id="paint0_linear_306_15" x1="-1.14624" y1="121.529" x2="255.406" y2="273.805" gradientUnits="userSpaceOnUse">
<stop offset="0.004587" stop-color="#142E77"/>
<stop offset="0.5183" stop-color="#1F7CB6"/>
<stop offset="1" stop-color="#3CEDFC"/>
</linearGradient>
<linearGradient id="paint1_linear_306_15" x1="1.48139" y1="117.102" x2="258.033" y2="269.378" gradientUnits="userSpaceOnUse">
<stop offset="0.004587" stop-color="#142E77"/>
<stop offset="0.5183" stop-color="#1F7CB6"/>
<stop offset="1" stop-color="#3CEDFC"/>
</linearGradient>
<linearGradient id="paint2_linear_306_15" x1="177.311" y1="278.101" x2="138.621" y2="256.79" gradientUnits="userSpaceOnUse">
<stop offset="1e-05" stop-color="#0A207A"/>
<stop offset="1" stop-color="#2865C3" stop-opacity="0"/>
</linearGradient>
<linearGradient id="paint3_linear_306_15" x1="70.6219" y1="36.9206" x2="142.328" y2="79.4818" gradientUnits="userSpaceOnUse">
<stop offset="0.004587" stop-color="#142E77"/>
<stop offset="0.5183" stop-color="#1F7CB6"/>
<stop offset="1" stop-color="#3CEDFC"/>
</linearGradient>
<linearGradient id="paint4_linear_306_15" x1="104.765" y1="37.1934" x2="33.6907" y2="79.3795" gradientUnits="userSpaceOnUse">
<stop offset="0.004587" stop-color="#142E77"/>
<stop offset="0.5183" stop-color="#1F7CB6"/>
<stop offset="1" stop-color="#3CEDFC"/>
</linearGradient>
<linearGradient id="paint5_linear_306_15" x1="75.7209" y1="73.4093" x2="121.127" y2="100.36" gradientUnits="userSpaceOnUse">
<stop offset="0.004587" stop-color="#142E77"/>
<stop offset="0.5183" stop-color="#1F7CB6"/>
<stop offset="1" stop-color="#3CEDFC"/>
</linearGradient>
<linearGradient id="paint6_linear_306_15" x1="100.068" y1="73.2756" x2="54.6615" y2="100.226" gradientUnits="userSpaceOnUse">
<stop offset="0.004587" stop-color="#142E77"/>
<stop offset="0.5183" stop-color="#1F7CB6"/>
<stop offset="1" stop-color="#3CEDFC"/>
</linearGradient>
</defs>
</svg>