<?xml version="1.0" encoding="UTF-8"?>
<svg xmlns="http://www.w3.org/2000/svg" xmlns:xlink="http://www.w3.org/1999/xlink" width="48" height="48" viewBox="0 0 48 48" version="1.1">
<g id="surface1">
<path style=" stroke:none;fill-rule:nonzero;fill:rgb(45.490196%,36.470589%,87.450981%);fill-opacity:1;" d="M 47.039062 30.867188 C 44.503906 39.609375 37.230469 46.164062 28.273438 47.777344 L 28.273438 40.949219 C 29.894531 40.332031 31.351562 39.351562 32.535156 38.085938 C 33.191406 37.382812 33.753906 36.59375 34.207031 35.738281 C 35.070312 34.117188 35.515625 32.304688 35.503906 30.464844 C 35.503906 24.429688 31.148438 22.015625 27.058594 20.226562 L 24.992188 19.308594 C 22.777344 18.316406 21.085938 17.433594 21.085938 15.925781 C 21.085938 13.835938 22.910156 12.714844 24.628906 12.714844 C 26.457031 12.714844 27.496094 13.386719 28.589844 15.289062 L 29.441406 16.761719 L 34.910156 13.253906 L 34.195312 11.929688 C 32.941406 9.539062 30.824219 7.714844 28.273438 6.828125 L 28.273438 0.566406 C 28.804688 0.65625 29.332031 0.773438 29.863281 0.910156 C 29.914062 0.921875 29.972656 0.933594 30.03125 0.945312 C 30.089844 0.957031 30.148438 0.972656 30.207031 0.992188 C 30.226562 0.992188 30.242188 1 30.257812 1.003906 C 30.402344 1.042969 30.550781 1.078125 30.699219 1.121094 C 43.425781 4.824219 50.742188 18.140625 47.039062 30.867188 Z M 47.039062 30.867188 "/>
<path style=" stroke:none;fill-rule:nonzero;fill:rgb(18.039216%,71.372551%,91.764706%);fill-opacity:1;" d="M 28.792969 30.796875 C 28.792969 33.546875 26.308594 35.246094 24.011719 35.246094 C 21.253906 35.246094 19.679688 32.96875 19.375 30.855469 L 19.113281 29.019531 L 12.5 30.882812 L 12.796875 32.363281 C 13.746094 37.027344 16.929688 40.378906 21.257812 41.390625 L 21.257812 48 C 20.082031 47.863281 18.921875 47.640625 17.78125 47.332031 C 17.617188 47.292969 17.460938 47.246094 17.300781 47.203125 C 7.058594 44.21875 0.0117188 34.835938 0 24.167969 L 0 1.109375 C 0 0.585938 0.425781 0.164062 0.945312 0.164062 L 21.253906 0.164062 L 21.253906 6.765625 C 18.878906 7.453125 16.855469 9.023438 15.59375 11.152344 C 14.785156 12.566406 14.363281 14.171875 14.375 15.800781 L 14.375 15.929688 C 14.4375 21.316406 18.394531 23.566406 22.132812 25.257812 L 24 26.070312 L 24.15625 26.140625 C 27.117188 27.496094 28.792969 28.382812 28.792969 30.796875 Z M 28.792969 30.796875 "/>
<path style=" stroke:none;fill-rule:nonzero;fill:rgb(100%,100%,100%);fill-opacity:1;" d="M 35.503906 30.464844 C 35.515625 32.304688 35.070312 34.117188 34.207031 35.738281 C 33.753906 36.59375 33.191406 37.382812 32.535156 38.085938 C 31.351562 39.351562 29.894531 40.332031 28.273438 40.949219 L 28.277344 47.808594 L 26.359375 47.980469 C 26.359375 47.980469 22.246094 48.101562 21.265625 47.980469 L 21.253906 41.390625 C 16.929688 40.378906 13.742188 37.023438 12.796875 32.359375 L 12.496094 30.882812 L 19.113281 29.019531 L 19.371094 30.855469 C 19.679688 32.96875 21.253906 35.246094 24.011719 35.246094 C 26.308594 35.246094 28.792969 33.546875 28.792969 30.796875 C 28.792969 28.386719 27.117188 27.496094 24.15625 26.140625 L 24 26.070312 L 22.132812 25.257812 C 18.394531 23.566406 14.4375 21.316406 14.375 15.929688 L 14.375 15.800781 C 14.363281 14.171875 14.785156 12.566406 15.59375 11.152344 C 16.855469 9.023438 18.878906 7.453125 21.253906 6.765625 L 21.253906 0.15625 C 25.582031 0.121094 25.914062 0.144531 28.273438 0.558594 L 28.273438 6.832031 C 30.824219 7.714844 32.941406 9.539062 34.195312 11.929688 L 34.90625 13.253906 L 29.441406 16.761719 L 28.589844 15.289062 C 27.496094 13.386719 26.457031 12.710938 24.628906 12.710938 C 22.910156 12.710938 21.085938 13.835938 21.085938 15.921875 C 21.085938 17.433594 22.78125 18.316406 24.992188 19.308594 L 27.058594 20.226562 C 31.148438 22.015625 35.503906 24.429688 35.503906 30.464844 Z M 35.503906 30.464844 "/>
</g>
</svg>
