<svg width="60" height="60" fill="none" xmlns="http://www.w3.org/2000/svg"><path fill="#FED955" d="M15 25h-5v-5h5zM15 35h-5v-5h5zM15 30h-5v-5h5zM15 40h-5v-5h5zM35 15h-5v-5h5zM35 45h-5v5h5zM40 15h-5v-5h5z"/><path fill="#9695F8" d="M45 15h-5v-5h5zM15 15h5v-5h-5zM45 45h5v-5h-5zM15 45h-5v-5h5zM40 10h-5V5h5z"/><path fill="#5552FD" d="M40 5h-5V0h5zM40 60h-5v-5h5z"/><path fill="#9695F8" d="M40 55h-5v-5h5zM30 10h-5V5h5z"/><path fill="#5552FD" d="M30 5h-5V0h5zM30 60h-5v-5h5z"/><path fill="#9695F8" d="M30 55h-5v-5h5zM35 10h-5V5h5z"/><path fill="#5552FD" d="M35 5h-5V0h5zM35 60h-5v-5h5z"/><path fill="#9695F8" d="M35 55h-5v-5h5zM25 10h-5V5h5z"/><path fill="#5552FD" d="M25 5h-5V0h5zM25 60h-5v-5h5z"/><path fill="#9695F8" d="M25 55h-5v-5h5zM50 20h-5v-5h5zM10 20h5v-5h-5zM40 50h5v-5h-5zM20 50h-5v-5h5zM55 25h-5v-5h5zM10 25H5v-5h5z"/><path fill="#5552FD" d="M5 25H0v-5h5zM10 20H5v-5h5zM50 20h5v-5h-5zM45 55h-5v-5h5zM5 45v-5h5v5zM15 15h-5v-5h5zM45 15h5v-5h-5zM50 50h-5v-5h5zM10 50v-5h5v5zM20 10h-5V5h5zM40 10h5V5h-5zM55 45h-5v-5h5zM15 55v-5h5v5zM60 25h-5v-5h5z"/><path fill="#9695F8" d="M55 30h-5v-5h5zM10 30H5v-5h5z"/><path fill="#5552FD" d="M5 30H0v-5h5zM60 30h-5v-5h5z"/><path fill="#9695F8" d="M55 35h-5v-5h5zM10 35H5v-5h5z"/><path fill="#5552FD" d="M5 35H0v-5h5zM60 35h-5v-5h5z"/><path fill="#9695F8" d="M55 40h-5v-5h5zM10 40H5v-5h5z"/><path fill="#5552FD" d="M5 40H0v-5h5zM60 40h-5v-5h5z"/><path fill="#FED955" d="M40 45h-5v5h5zM35 25h-5v-5h5zM35 35h-5v-5h5zM35 40h-5v-5h5zM35 20h-5v-5h5zM35 40h-5v5h5zM25 35h-5v-5h5zM25 30h-5v-5h5zM25 40h-5v-5h5zM25 20h-5v-5h5zM25 40h-5v5h5zM40 35h-5v-5h5zM40 30h-5v-5h5zM40 40h-5v-5h5zM40 20h-5v-5h5zM40 40h-5v5h5zM30 15h-5v-5h5zM30 45h-5v5h5zM25 15h-5v-5h5zM25 45h-5v5h5zM30 25h-5v-5h5zM30 35h-5v-5h5z"/><path fill="#5552FD" d="M25 25h-5v-5h5zM35 30h-5v-5h5zM45 25h-5v-5h5zM45 35h-5v-5h5zM45 30h-5v-5h5zM45 40h-5v-5h5zM45 20h-5v-5h5zM45 40h-5v5h5zM20 25h-5v-5h5zM20 35h-5v-5h5zM20 30h-5v-5h5zM20 40h-5v-5h5zM20 20h-5v-5h5zM20 40h-5v5h5zM40 25h-5v-5h5zM30 30h-5v-5h5z"/><path fill="#FED955" d="M30 40h-5v-5h5zM30 20h-5v-5h5zM30 40h-5v5h5zM50 25h-5v-5h5zM50 35h-5v-5h5zM50 30h-5v-5h5zM50 40h-5v-5h5z"/></svg>