<svg width="82" height="82" viewBox="0 0 82 82" fill="none" xmlns="http://www.w3.org/2000/svg">
<circle cx="41" cy="41" r="39.5" fill="#06FC99" stroke="#06FC99" stroke-width="3"/>
<rect x="27" y="21" width="5" height="5" fill="#161616"/>
<rect x="32" y="27" width="5" height="8" fill="#161616"/>
<rect x="37" y="34" width="5" height="8" fill="#161616"/>
<rect x="49" y="36" width="5" height="2" fill="#161616"/>
<rect x="54" y="34" width="5" height="2" fill="#161616"/>
<rect x="59" y="32" width="5" height="2" fill="#161616"/>
<rect x="44" y="38" width="5" height="2" fill="#161616"/>
<rect x="39" y="40" width="5" height="2" fill="#161616"/>
<rect x="34" y="42" width="5" height="2" fill="#161616"/>
<rect x="29" y="44" width="5" height="2" fill="#161616"/>
<rect x="24" y="46" width="5" height="2" fill="#161616"/>
<rect x="19" y="48" width="5" height="2" fill="#161616"/>
<rect x="42" y="39" width="5" height="8" fill="#161616"/>
<rect x="47" y="46" width="5" height="8" fill="#161616"/>
<rect x="52" y="46" width="5" height="5" fill="#161616"/>
<rect x="52" y="21" width="5" height="5" fill="#161616"/>
<rect x="27" y="26" width="5" height="5" fill="#161616"/>
<rect x="52" y="26" width="5" height="5" fill="#161616"/>
<rect x="27" y="31" width="5" height="5" fill="#161616"/>
<rect x="52" y="31" width="5" height="5" fill="#161616"/>
<rect x="27" y="36" width="5" height="5" fill="#161616"/>
<rect x="52" y="36" width="5" height="5" fill="#161616"/>
<rect x="27" y="41" width="5" height="5" fill="#161616"/>
<rect x="52" y="41" width="5" height="5" fill="#161616"/>
<rect x="27" y="46" width="5" height="5" fill="#161616"/>
<rect x="52" y="46" width="5" height="5" fill="#161616"/>
<rect x="27" y="51" width="5" height="5" fill="#161616"/>
<rect x="52" y="51" width="5" height="5" fill="#161616"/>
<rect x="27" y="56" width="5" height="5" fill="#161616"/>
<rect x="52" y="56" width="5" height="5" fill="#161616"/>
</svg>
