<svg width="40" height="43" viewBox="0 0 40 43" fill="none" xmlns="http://www.w3.org/2000/svg">
<path d="M13.7774 34.3663V42.4852H16.8005V31.3438L13.7874 34.353L13.7774 34.3663Z" fill="url(#paint0_linear_389_795)"/>
<path d="M0 17.5694V29.9691L2.95655 32.9251L3.02314 32.9917V14.5469L0.00998835 17.5594L0 17.5694Z" fill="url(#paint1_linear_389_795)"/>
<path d="M11.8527 20.1393H14.9425L17.899 17.1867L17.9656 17.1201H8.82959L11.8427 20.1293L11.8527 20.1393Z" fill="url(#paint2_linear_389_795)"/>
<path d="M13.8606 3.31226L10.9041 6.26822L10.8375 6.33146H29.1628L26.1529 3.32224L26.1396 3.31226H13.8606Z" fill="url(#paint3_linear_389_795)"/>
<path d="M21.5649 31.2839H18.4386V42.4853H21.5649V31.2839Z" fill="url(#paint4_linear_389_795)"/>
<path d="M14.5629 0H10.2879L7.52775 2.75956L7.51776 2.76955V7.04371L14.4963 0.0665757L14.5629 0Z" fill="url(#paint5_linear_389_795)"/>
<path d="M7.04512 7.5166H2.7701L0.00998835 10.2728L0 10.2862V14.5603L6.97853 7.58318L7.04512 7.5166Z" fill="url(#paint6_linear_389_795)"/>
<path d="M23.2031 31.3438V42.4852H26.2229V34.3663L23.2664 31.4103L23.2031 31.3438Z" fill="url(#paint7_linear_389_795)"/>
<path d="M36.9769 14.5469V32.9917L39.99 29.9825L40 29.9691V17.5694L37.0435 14.6135L36.9769 14.5469Z" fill="url(#paint8_linear_389_795)"/>
<path d="M25.0474 20.1293L25.0574 20.1393H28.1471L31.1037 17.1867L31.1702 17.1201H22.0342L25.0474 20.1293Z" fill="url(#paint9_linear_389_795)"/>
<path d="M21.5649 17.1201H18.4386V24.5067H21.5649V17.1201Z" fill="url(#paint10_linear_389_795)"/>
<path d="M30.9904 8.16211H9.00939L4.67112 12.4962L4.66113 12.5095V21.8301L7.61768 24.7861L7.68427 24.8526V13.7611L10.2613 11.1846H29.7386L32.3155 13.7611V24.8526L35.3287 21.8434L35.3387 21.8301V12.5095L31.0037 8.1721L30.9904 8.16211Z" fill="url(#paint11_linear_389_795)"/>
<path d="M4.66113 28.0783V34.6293L7.61768 37.5853L7.68427 37.6519V25.0591L4.67112 28.0683L4.66113 28.0783Z" fill="url(#paint12_linear_389_795)"/>
<path d="M32.3156 25.0591V37.6519L35.3288 34.6427L35.3388 34.6293V28.0783L32.3822 25.1223L32.3156 25.0591Z" fill="url(#paint13_linear_389_795)"/>
<path d="M24.5914 25.9814H15.4087L9.22929 32.1597L9.2193 32.1697V39.1867L12.1759 42.1427L12.2424 42.2093V33.4213L16.6606 29.004H23.3395L27.7577 33.4213V42.2093L30.7708 39.2L30.7808 39.1867V32.1697L24.6047 25.9914L24.5914 25.9814Z" fill="url(#paint14_linear_389_795)"/>
<path d="M32.482 7.04371V2.76955L29.7252 0.00998635L29.7152 0H25.4402L32.4154 6.97713L32.482 7.04371Z" fill="url(#paint15_linear_389_795)"/>
<path d="M37.243 7.52659L37.2297 7.5166H32.9547L39.9333 14.4937L39.9998 14.5603V10.2862L37.243 7.52659Z" fill="url(#paint16_linear_389_795)"/>
<defs>
<linearGradient id="paint0_linear_389_795" x1="15.289" y1="49.1294" x2="15.289" y2="-7.50316" gradientUnits="userSpaceOnUse">
<stop stop-color="#4FCE0D"/>
<stop offset="1" stop-color="#4FEA0D"/>
</linearGradient>
<linearGradient id="paint1_linear_389_795" x1="1.51157" y1="49.1296" x2="1.51157" y2="-7.503" gradientUnits="userSpaceOnUse">
<stop stop-color="#4FCE0D"/>
<stop offset="1" stop-color="#4FCE0D"/>
</linearGradient>
<linearGradient id="paint2_linear_389_795" x1="376.463" y1="462.725" x2="376.463" y2="-50.9328" gradientUnits="userSpaceOnUse">
<stop stop-color="#4FCE0D"/>
<stop offset="1" stop-color="#4FCE0D"/>
</linearGradient>
<linearGradient id="paint3_linear_389_795" x1="1111.64" y1="448.917" x2="1111.64" y2="-64.7407" gradientUnits="userSpaceOnUse">
<stop stop-color="#4FCE0D"/>
<stop offset="1" stop-color="#4FCE0D"/>
</linearGradient>
<linearGradient id="paint4_linear_389_795" x1="206.238" y1="1684.49" x2="206.238" y2="-221.195" gradientUnits="userSpaceOnUse">
<stop stop-color="#4FCE0D"/>
<stop offset="1" stop-color="#4FCE0D"/>
</linearGradient>
<linearGradient id="paint5_linear_389_795" x1="241.134" y1="1039.58" x2="241.134" y2="-158.765" gradientUnits="userSpaceOnUse">
<stop stop-color="#4FCE0D"/>
<stop offset="1" stop-color="#4FCE0D"/>
</linearGradient>
<linearGradient id="paint6_linear_389_795" x1="74.5373" y1="1047.1" x2="74.5373" y2="-151.249" gradientUnits="userSpaceOnUse">
<stop stop-color="#4FCE0D"/>
<stop offset="1" stop-color="#4FCE0D"/>
</linearGradient>
<linearGradient id="paint7_linear_389_795" x1="247.333" y1="1675.71" x2="247.333" y2="-219.784" gradientUnits="userSpaceOnUse">
<stop stop-color="#4FCE0D"/>
<stop offset="1" stop-color="#4FCE0D"/>
</linearGradient>
<linearGradient id="paint8_linear_389_795" x1="386.453" y1="2736.82" x2="386.453" y2="-401.199" gradientUnits="userSpaceOnUse">
<stop stop-color="#4FCE0D"/>
<stop offset="1" stop-color="#4FCE0D"/>
</linearGradient>
<linearGradient id="paint9_linear_389_795" x1="752.001" y1="462.725" x2="752.001" y2="-50.9328" gradientUnits="userSpaceOnUse">
<stop stop-color="#4FCE0D"/>
<stop offset="1" stop-color="#4FCE0D"/>
</linearGradient>
<linearGradient id="paint10_linear_389_795" x1="206.238" y1="1107.3" x2="206.238" y2="-149.373" gradientUnits="userSpaceOnUse">
<stop stop-color="#4FCE0D"/>
<stop offset="1" stop-color="#4FCE0D"/>
</linearGradient>
<linearGradient id="paint11_linear_389_795" x1="1847.46" y1="2471.52" x2="1847.46" y2="-368.042" gradientUnits="userSpaceOnUse">
<stop stop-color="#4FCE0D"/>
<stop offset="1" stop-color="#4FCE0D"/>
</linearGradient>
<linearGradient id="paint12_linear_389_795" x1="60.7102" y1="1883.63" x2="60.7102" y2="-258.783" gradientUnits="userSpaceOnUse">
<stop stop-color="#4FCE0D"/>
<stop offset="1" stop-color="#4FCE0D"/>
</linearGradient>
<linearGradient id="paint13_linear_389_795" x1="339.467" y1="1883.63" x2="339.467" y2="-258.783" gradientUnits="userSpaceOnUse">
<stop stop-color="#4FCE0D"/>
<stop offset="1" stop-color="#4FCE0D"/>
</linearGradient>
<linearGradient id="paint14_linear_389_795" x1="1304.42" y1="2421.05" x2="1304.42" y2="-339.794" gradientUnits="userSpaceOnUse">
<stop stop-color="#4FCE0D"/>
<stop offset="1" stop-color="#4FCE0D"/>
</linearGradient>
<linearGradient id="paint15_linear_389_795" x1="637.935" y1="1039.58" x2="637.935" y2="-158.765" gradientUnits="userSpaceOnUse">
<stop stop-color="#4FCE0D"/>
<stop offset="1" stop-color="#4FCE0D"/>
</linearGradient>
<linearGradient id="paint16_linear_389_795" x1="804.819" y1="1047.1" x2="804.819" y2="-151.249" gradientUnits="userSpaceOnUse">
<stop stop-color="#4FCE0D"/>
<stop offset="1" stop-color="#4FCE0D"/>
</linearGradient>
</defs>
</svg>
