<svg width="48" height="48" viewBox="0 0 48 48" fill="none" xmlns="http://www.w3.org/2000/svg">
<path d="M24 0C10.7457 0 0 10.7457 0 24C0 37.2553 10.7457 48 24 48C37.2553 48 48 37.2553 48 24C48 10.7457 37.2553 0 24 0Z" fill="#F7F8EF"/>
<path d="M23.9159 4.71606C13.3128 4.71606 4.71594 13.3129 4.71594 23.9161C4.71594 34.5203 13.3128 43.1161 23.9159 43.1161C34.5202 43.1161 43.1159 34.5203 43.1159 23.9161C43.1159 13.3129 34.5202 4.71606 23.9159 4.71606Z" fill="#011023"/>
<path d="M20.5554 28L20.4171 27.9309L28.0554 12.6553H28.2277L20.5554 28Z" fill="#F7F8EF"/>
<path d="M22.734 27.9958L22.5968 27.9266L30.2319 12.6553H30.4042L22.734 27.9958Z" fill="#F7F8EF"/>
<path d="M21.2819 27.999L21.1436 27.9298L28.7808 12.6553H28.9532L21.2819 27.999Z" fill="#F7F8EF"/>
<path d="M22.0085 27.9968L21.8702 27.9277L29.5063 12.6553H29.6787L22.0085 27.9968Z" fill="#F7F8EF"/>
<path d="M19.8298 28.0021L19.6915 27.933L27.3298 12.6553H27.5032L19.8298 28.0021Z" fill="#F7F8EF"/>
<path d="M38.9363 12.6553H39.1097L31.4491 27.9755L31.3118 27.9064L38.9363 12.6553Z" fill="#F7F8EF"/>
<path d="M16.9246 28.0085L16.7863 27.9394L24.4277 12.6553H24.6011L16.9246 28.0085Z" fill="#F7F8EF"/>
<path d="M18.3766 28.0053L18.2394 27.9362L25.8787 12.6553H26.0521L18.3766 28.0053Z" fill="#F7F8EF"/>
<path d="M17.6511 28.0064L17.5128 27.9383L25.1532 12.6553H25.3266L17.6511 28.0064Z" fill="#F7F8EF"/>
<path d="M19.1032 28.0032L18.9649 27.9351L26.6043 12.6553H26.7777L19.1032 28.0032Z" fill="#F7F8EF"/>
<path d="M27.0915 27.9851L26.9543 27.916L34.5841 12.6553H34.7564L27.0915 27.9851Z" fill="#F7F8EF"/>
<path d="M27.8181 27.9841L27.6798 27.9149L35.3096 12.6553H35.4819L27.8181 27.9841Z" fill="#F7F8EF"/>
<path d="M28.5447 27.9819L28.4064 27.9128L36.0352 12.6553H36.2075L28.5447 27.9819Z" fill="#F7F8EF"/>
<path d="M23.4606 27.9936L23.3223 27.9245L30.9574 12.6553H31.1298L23.4606 27.9936Z" fill="#F7F8EF"/>
<path d="M30.7234 27.9777L30.5851 27.9085L38.2117 12.6553H38.384L30.7234 27.9777Z" fill="#F7F8EF"/>
<path d="M29.9968 27.9787L29.8585 27.9096L37.4862 12.6553H37.6585L29.9968 27.9787Z" fill="#F7F8EF"/>
<path d="M29.2703 27.9809L29.132 27.9117L36.7607 12.6553H36.933L29.2703 27.9809Z" fill="#F7F8EF"/>
<path d="M24.9128 27.9904L24.7756 27.9213L32.4075 12.6553H32.5809L24.9128 27.9904Z" fill="#F7F8EF"/>
<path d="M24.1872 27.9926L24.0489 27.9234L31.6819 12.6553H31.8553L24.1872 27.9926Z" fill="#F7F8EF"/>
<path d="M26.366 27.9872L26.2277 27.9181L33.8586 12.6553H34.0309L26.366 27.9872Z" fill="#F7F8EF"/>
<path d="M25.6395 27.9883L25.5012 27.9202L33.1331 12.6553H33.3065L25.6395 27.9883Z" fill="#F7F8EF"/>
<path d="M23.7893 43.2958L8.46906 12.6553H23.7893L31.4488 27.9755L23.7893 43.2958Z" fill="#F7F8EF"/>
</svg>
