<svg fill="none" height="48" viewBox="0 0 48 48" width="48" xmlns="http://www.w3.org/2000/svg" xmlns:xlink="http://www.w3.org/1999/xlink"><linearGradient id="a" gradientUnits="userSpaceOnUse" x1="48" x2="0" y1="0" y2="48"><stop offset="0" stop-color="#6cfbbb"/><stop offset="1" stop-color="#05b3e6"/></linearGradient><rect fill="url(#a)" height="48" rx="24" width="48"/><path d="m30.8315 33.9999c-1.7647 0-3.2002-1.4355-3.2002-3.2002v-5.8917c2.9138-.2253 5.0218-.8425 6.4004-1.8503v7.742c0 1.7647-1.4356 3.2002-3.2002 3.2002zm-3.2002-16.7998c0-1.7646 1.4355-3.2002 3.2002-3.2002 1.7646 0 3.2002 1.4356 3.2002 3.2002v1.9333c-.0313.6799-.1788 1.3784-.7774 1.9798-.7006.7029-2.2518 1.4961-5.623 1.781zm-7.2206 13.5996c0 1.7647-1.4356 3.2002-3.2003 3.2002s-3.2002-1.4355-3.2002-3.2002v-1.7941c.0321-.6535.1891-1.3662.836-2.0174.7277-.7337 2.2788-1.558 5.5645-1.8663zm-3.2003-16.7998c1.7647 0 3.2003 1.4356 3.2003 3.2002v5.9096c-2.892.2482-5.0016.9068-6.4005 1.9786v-7.8882c0-1.7646 1.4355-3.2002 3.2002-3.2002zm18.8261 4.3399-.0048-.3399v-.7998c0-2.8671-2.333-5.2001-5.2002-5.2001s-5.2002 2.333-5.2002 5.2001v5.7902c-.5056.0102-2.6923.0074-3.2207.0195v-5.8097c0-2.8671-2.333-5.2001-5.2002-5.2001s-5.2002 2.333-5.2002 5.2001v11.7062c-.0163.3176-.0095.6014-.0039.8349l.0039.2588v.7997c0 2.8672 2.333 5.2003 5.2002 5.2003s5.2002-2.3331 5.2002-5.2003v-5.7861c.511-.0125 2.6986-.0087 3.2207-.0179v5.804c0 2.8672 2.333 5.2003 5.2002 5.2003s5.2002-2.3331 5.2002-5.2003v-11.558c.0166-.3344.0106-.6406.0048-.9019z" fill="#fff"/></svg>