<svg fill="none" height="48" viewBox="0 0 48 48" width="48" xmlns="http://www.w3.org/2000/svg"><rect fill="#1d0e2d" height="48" rx="24" width="48"/><path d="m27.1761 9.71997c-2.7635.00108-5.4134 1.09983-7.3669 3.05443-1.9535 1.9547-3.0506 4.6053-3.05 7.3688v.0217.017c.0075.1309.0648.254.1601.344.0954.09.2217.1399.3528.1397h19.8079c.1311.0002.2573-.0498.3527-.1397.0954-.09.1526-.2131.16-.344l.0009-.017c0-.0074 0-.0144 0-.0217.0006-2.7636-1.0966-5.4143-3.0502-7.3689-1.9536-1.9547-4.6037-3.05338-7.3673-3.05433z" fill="#53cbc8"/><g fill="#e1147b"><path d="m9.86228 31.7809c-.0001.1254-.03736.2479-.10708.3521-.06971.1041-.16873.1853-.28457.2332-.11583.0479-.24326.0604-.3662.0359-.12293-.0245-.23584-.0849-.32445-.1736-.08862-.0886-.14896-.2016-.1734-.3245-.02443-.1229-.01187-.2504.0361-.3662s.12919-.2148.23341-.2844c.10422-.0697.22674-.1069.35209-.1069.0833 0 .16579.0164.24274.0483.07696.0319.14687.0786.20576.1375s.10558.1289.13743.2059c.03185.0769.04822.1594.04817.2427z"/><path d="m36.391 28.2714h-21.2539c-.1082.0002-.2144.0284-.3084.0818-.094.0535-.1725.1305-.2278.2234s-.0856.1985-.0879.3066.0234.215.0748.3101c.0034.0067.007.0133.0105.0198.0536.099.1329.1817.2296.2393.0968.0576.2073.0879.3199.0877h21.233c.1125.0002.2231-.0302.3198-.0877.0967-.0576.1761-.1403.2296-.2393l.0105-.0198c.0514-.0952.0771-.2021.0748-.3102-.0024-.1081-.0327-.2138-.0881-.3067s-.134-.1698-.228-.2232c-.094-.0535-.2003-.0817-.3084-.0818z"/><path d="m39.215 22.521h-24.0785c-.085.0002-.169.0177-.247.0515s-.1483.0831-.2066.1449c-.0584.0618-.1035.1349-.1326.2147-.0292.0799-.0417.1648-.037.2497 0 .0066 0 .0132.001.0199.009.1591.0786.3088.1946.4182.1159.1094.2694.1701.4288.1698h24.0773c.1594.0003.3128-.0605.4288-.1699.1159-.1093.1856-.259.1946-.4181 0-.0067 0-.0133.001-.0199.0048-.085-.0079-.17-.0371-.2499-.0292-.08-.0744-.1531-.1329-.2149-.0584-.0619-.1289-.1112-.207-.1449-.0781-.0336-.1623-.0511-.2474-.0511z"/><path d="m30.1491 36.8969h-10.8516c-.1408 0-.2774.0476-.3878.135-.1103.0875-.1879.2096-.2201.3467-.0323.137-.0173.2809.0425.4084.0598.1274.1609.2309.2869.2937l.0398.0199c.0864.043.1817.0652.2783.065h10.7719c.0966.0002.1919-.022.2784-.065l.0396-.0199c.126-.0628.227-.1662.2868-.2936s.0749-.2713.0427-.4083-.1096-.2591-.2199-.3466c-.1102-.0875-.2468-.1352-.3875-.1353z"/><path d="m36.7788 34.0217h-10.8513c-.1407.0002-.2772.0479-.3874.1354s-.1876.2095-.2198.3465c-.0322.1369-.0172.2807.0424.4081.0597.1274.1607.2309.2865.2938l.0396.0199c.0866.0429.1819.0651.2785.0648h10.7712c.0965.0003.1919-.0219.2784-.0648l.0396-.0199c.1258-.0628.2267-.1663.2864-.2937.0597-.1273.0747-.271.0426-.408-.0321-.1369-.1095-.259-.2196-.3465s-.2465-.1353-.3871-.1356z"/><path d="m21.9823 32.2154-.0184-.0197c-.0827-.0891-.1375-.2004-.1579-.3202-.0204-.1199-.0053-.243.0433-.3544s.1287-.2062.2304-.2728.2206-.102.3422-.102h17.612c.1215 0 .2405.0354.3422.102s.1818.1614.2304.2728.0636.2345.0433.3544c-.0204.1198-.0752.2311-.1579.3202l-.0184.0197c-.0586.0628-.1295.1129-.2082.1472-.0788.0343-.1637.0522-.2496.0524h-17.5756c-.0859-.0002-.1708-.0181-.2496-.0524-.0787-.0343-.1496-.0844-.2082-.1472z"/><path d="m11.4926 31.1465h8.4103c.1406.0002.2771.048.3873.1354.1102.0875.1876.2095.2198.3465.0322.1369.0173.2807-.0424.4081s-.1606.231-.2865.2939l-.0396.0199c-.0864.0429-.1817.0652-.2783.0649h-8.33c-.0966.0003-.1919-.022-.2784-.0649l-.0396-.0199c-.1258-.0629-.2267-.1664-.2864-.2937s-.0747-.271-.0426-.4079.1094-.259.2194-.3465c.1101-.0875.2464-.1354.387-.1358z"/><path d="m13.5063 23.1553c-.0001.1253-.0373.2478-.107.352s-.1687.1854-.2846.2334c-.1158.0479-.2432.0604-.3662.0359-.1229-.0244-.2359-.0848-.3245-.1735-.0886-.0886-.149-.2016-.1734-.3245-.0245-.123-.0119-.2504.036-.3662.048-.1159.1292-.2148.2334-.2845.1043-.0697.2268-.1069.3522-.1069.0833 0 .1657.0164.2427.0483.0769.0319.1468.0786.2057.1375s.1056.1288.1374.2058c.0319.0769.0483.1594.0483.2427z"/><path d="m28.4511 26.2018c.0017-.0064.0034-.0132.0053-.0197.0248-.0925.0279-.1895.0092-.2834s-.0587-.1823-.1171-.2583c-.0583-.0759-.1333-.1375-.2192-.1798-.086-.0423-.1805-.0643-.2762-.0642h-17.6148c-.0957-.0001-.1903.0218-.2762.0641-.08593.0424-.16098.1039-.21931.1799-.05834.0759-.09839.1643-.11708.2583-.0187.0939-.01551.1909.0093.2834.0017.0065.00357.0133.00544.0197.03572.1327.11412.2499.2231.3336s.24245.1292.37985.1295h17.6046c.1374-.0003.2709-.0458.3799-.1295s.1874-.2009.2232-.3336z"/><path d="m8.6077 26.0305c-.00007.1254-.0373.2479-.107.3521-.06969.1042-.16873.1854-.28457.2333-.11584.048-.24329.0605-.36624.036s-.23587-.0849-.3245-.1736c-.08862-.0887-.14896-.2016-.17339-.3246-.02443-.1229-.01186-.2504.03613-.3662s.12924-.2148.23348-.2844c.10424-.0697.2268-.1069.35216-.1069.16816.0001.3294.067.44827.1859.11888.119.18566.2802.18566.4484z"/><path d="m13.5063 28.9057c-.0001.1254-.0373.2479-.107.3521s-.1687.1854-.2846.2333c-.1158.0479-.2432.0605-.3662.036-.1229-.0245-.2359-.0849-.3245-.1735-.0886-.0887-.149-.2016-.1734-.3246-.0245-.1229-.0119-.2504.036-.3662.048-.1158.1292-.2148.2334-.2845.1043-.0696.2268-.1068.3522-.1069.1682.0001.3294.0669.4484.1859.1189.1189.1857.2802.1857.4484z"/><path d="m24.2972 34.6561c-.0001.1254-.0373.2479-.107.3521s-.1687.1854-.2846.2333c-.1158.048-.2432.0605-.3662.036-.1229-.0245-.2359-.0849-.3245-.1735-.0886-.0887-.149-.2016-.1734-.3246-.0245-.1229-.0119-.2504.036-.3662.048-.1158.1292-.2148.2334-.2845.1043-.0696.2268-.1068.3522-.1068.0832 0 .1657.0164.2427.0482.0769.0319.1468.0786.2057.1375s.1056.1289.1374.2058c.0319.077.0483.1594.0483.2427z"/><path d="m17.6668 37.5313c-.0001.1254-.0373.2479-.107.3521s-.1687.1854-.2846.2333c-.1158.048-.2433.0605-.3662.036-.123-.0245-.2359-.0849-.3245-.1736s-.149-.2016-.1734-.3246c-.0245-.1229-.0119-.2504.0361-.3662s.1293-.2148.2335-.2844c.1042-.0697.2268-.1069.3522-.1069.0832.0001.1657.0165.2426.0484s.1468.0786.2057.1375.1055.1288.1374.2057c.0318.077.0482.1594.0482.2427z"/></g></svg>