<svg width="186" height="44" viewBox="0 0 186 44" fill="none" xmlns="http://www.w3.org/2000/svg">
<g clip-path="url(#clip0_2400_549)">
<circle cx="18" cy="18" r="18" fill="url(#paint0_linear_2400_549)"/>
<circle cx="18" cy="18" r="16.5" fill="#101018"/>
<path d="M23.6762 21.0933C23.6762 18.0436 21.8464 16.998 18.1866 16.5623C15.5725 16.2137 15.0497 15.5167 15.0497 14.2967C15.0497 13.0766 15.9211 12.2926 17.6638 12.2926C19.2323 12.2926 20.1037 12.8154 20.5393 14.1225C20.6265 14.3839 20.8879 14.5581 21.1493 14.5581H22.5434C22.892 14.5581 23.1534 14.2967 23.1534 13.9483V13.861C22.8048 11.944 21.2363 10.4627 19.2323 10.2885V8.19723C19.2323 7.84862 18.9709 7.58721 18.5352 7.5H17.2282C16.8796 7.5 16.6182 7.76141 16.531 8.19723V10.2013C13.9169 10.5499 12.2614 12.2926 12.2614 14.4711C12.2614 17.3466 14.0041 18.4792 17.6638 18.915C20.1037 19.3507 20.8879 19.8735 20.8879 21.2677C20.8879 22.662 19.6679 23.6204 18.0124 23.6204C15.7467 23.6204 14.9625 22.6618 14.7011 21.3547C14.6141 21.0063 14.3527 20.8319 14.0913 20.8319H12.6098C12.2614 20.8319 12 21.0933 12 21.4419V21.5291C12.3484 23.7074 13.7427 25.2759 16.6182 25.7117V27.803C16.6182 28.1514 16.8796 28.4128 17.3152 28.5H18.6222C18.9709 28.5 19.2323 28.2386 19.3195 27.803V25.7117C21.9336 25.2759 23.6762 23.446 23.6762 21.0933V21.0933Z" fill="url(#paint1_radial_2400_549)"/>
</g>
<g clip-path="url(#clip1_2400_549)">
<path d="M48 36C57.9751 36 66 27.9751 66 18C66 8.02494 57.9751 0 48 0C38.0249 0 30 8.02494 30 18C30 27.9751 38.0249 36 48 36Z" fill="#2775CA"/>
<path d="M52.95 20.8499C52.95 18.225 51.375 17.325 48.225 16.95C45.975 16.65 45.525 16.05 45.525 14.9999C45.525 13.9498 46.2751 13.275 47.775 13.275C49.125 13.275 49.8751 13.725 50.25 14.85C50.3251 15.075 50.5501 15.2249 50.7751 15.2249H51.975C52.275 15.2249 52.5 14.9999 52.5 14.7V14.625C52.2 12.9749 50.85 11.7 49.125 11.55V9.75002C49.125 9.44996 48.9 9.22496 48.5251 9.1499H47.4001C47.1 9.1499 46.875 9.3749 46.8 9.75002V11.475C44.55 11.775 43.1251 13.275 43.1251 15.15C43.1251 17.625 44.625 18.5999 47.775 18.975C49.8751 19.35 50.5501 19.8 50.5501 21C50.5501 22.2001 49.5 23.025 48.0751 23.025C46.125 23.025 45.45 22.1999 45.225 21.0749C45.1501 20.775 44.9251 20.6249 44.7001 20.6249H43.425C43.1251 20.6249 42.9001 20.8499 42.9001 21.15V21.225C43.2 23.0999 44.4 24.4499 46.875 24.825V26.625C46.875 26.9249 47.1 27.1499 47.475 27.225H48.6C48.9 27.225 49.125 27 49.2001 26.625V24.825C51.4501 24.4499 52.95 22.8749 52.95 20.8499V20.8499Z" fill="white"/>
<path d="M44.175 28.7249C38.325 26.625 35.3249 20.1 37.5001 14.3249C38.6251 11.1749 41.1001 8.77494 44.175 7.64994C44.4751 7.5 44.625 7.275 44.625 6.89988V5.84994C44.625 5.54988 44.4751 5.32488 44.175 5.25C44.0999 5.25 43.95 5.25 43.8749 5.32488C36.75 7.57488 32.8499 15.15 35.0999 22.2749C36.4499 26.4749 39.675 29.6999 43.8749 31.0499C44.175 31.1999 44.4751 31.0499 44.5499 30.7499C44.625 30.675 44.625 30.5999 44.625 30.45V29.3999C44.625 29.1749 44.4 28.875 44.175 28.7249ZM52.1251 5.32488C51.825 5.17494 51.5249 5.32488 51.4501 5.62494C51.375 5.7 51.375 5.77488 51.375 5.925V6.97494C51.375 7.275 51.6 7.57488 51.825 7.725C57.675 9.82488 60.6751 16.3499 58.4999 22.125C57.3749 25.275 54.8999 27.6749 51.825 28.7999C51.5249 28.9499 51.375 29.1749 51.375 29.55V30.5999C51.375 30.9 51.5249 31.125 51.825 31.1999C51.9001 31.1999 52.05 31.1999 52.1251 31.125C59.25 28.875 63.1501 21.2999 60.9001 14.1749C59.5501 9.89994 56.2499 6.67488 52.1251 5.32488V5.32488Z" fill="white"/>
</g>
<path fill-rule="evenodd" clip-rule="evenodd" d="M66.5917 4.65381L60.0276 18.4416C60.0026 18.4929 59.9947 18.5508 60.005 18.6069C60.0153 18.6631 60.0433 18.7144 60.0849 18.7534L77.8128 35.7411C77.8632 35.7894 77.9303 35.8164 78 35.8164C78.0698 35.8164 78.1369 35.7894 78.1872 35.7411L95.9152 18.7545C95.9567 18.7154 95.9847 18.6641 95.995 18.608C96.0053 18.5519 95.9974 18.494 95.9724 18.4427L89.4084 4.65487C89.3872 4.60856 89.3531 4.56934 89.3102 4.54188C89.2674 4.51442 89.2175 4.49989 89.1666 4.50002H66.8356C66.7844 4.49938 66.7342 4.51357 66.6909 4.54085C66.6476 4.56814 66.6131 4.60737 66.5917 4.65381V4.65381Z" fill="#50AF95"/>
<path fill-rule="evenodd" clip-rule="evenodd" d="M80.2776 19.8576C80.1504 19.8671 79.4928 19.9063 78.026 19.9063C76.8593 19.9063 76.031 19.8713 75.7404 19.8576C71.2318 19.6592 67.8665 18.8744 67.8665 17.9347C67.8665 16.995 71.2318 16.2112 75.7404 16.0097V19.0759C76.0352 19.0971 76.8795 19.147 78.0461 19.147C79.4461 19.147 80.1472 19.0886 80.2734 19.077V16.0118C84.7725 16.2123 88.1303 16.9971 88.1303 17.9347C88.1303 18.8723 84.7735 19.6571 80.2734 19.8565L80.2776 19.8576ZM80.2776 15.6947V12.9509H86.5564V8.76685H69.4616V12.9509H75.7393V15.6936C70.6368 15.928 66.7995 16.9388 66.7995 18.15C66.7995 19.3612 70.6368 20.3709 75.7393 20.6063V29.3987H80.2766V20.6032C85.3675 20.3688 89.1983 19.3591 89.1983 18.1489C89.1983 16.9388 85.3706 15.9291 80.2766 15.6936L80.2776 15.6947Z" fill="white"/>
<g clip-path="url(#clip2_2400_549)">
<circle cx="138" cy="18" r="18" fill="url(#paint2_linear_2400_549)"/>
<circle cx="138" cy="18" r="16.5" fill="#101018"/>
<path fill-rule="evenodd" clip-rule="evenodd" d="M138.002 4.50033C138.101 4.49545 138.198 4.54445 138.252 4.63194L146.553 18.0416C146.593 18.1058 146.605 18.1834 146.586 18.2566C146.568 18.3299 146.52 18.3924 146.455 18.4299L138.154 23.1799C138.107 23.2068 138.054 23.2189 138.002 23.2164C137.95 23.2189 137.897 23.2068 137.85 23.1799L129.549 18.4299C129.483 18.3924 129.436 18.3299 129.417 18.2566C129.399 18.1834 129.411 18.1058 129.45 18.0416L137.751 4.63194C137.806 4.54445 137.902 4.49545 138.002 4.50033ZM146.428 19.6005C146.517 19.6977 146.525 19.8436 146.448 19.9504L138.242 31.3839C138.186 31.462 138.095 31.5042 138.002 31.4997C137.909 31.5042 137.818 31.462 137.762 31.3839L129.555 19.9504C129.478 19.8436 129.487 19.6977 129.575 19.6005C129.664 19.5032 129.808 19.4812 129.922 19.5476L138.002 24.2725L146.082 19.5476C146.195 19.4812 146.34 19.5032 146.428 19.6005Z" fill="#1B1B29"/>
<path d="M137.71 30.3558L130.771 20.6895L137.71 24.7469V30.3558Z" fill="#D68FFF"/>
<path d="M138.294 30.3558V24.7469L145.232 20.6895L138.294 30.3558Z" fill="#F655F6"/>
<path d="M137.71 22.4579L130.301 18.2184L137.71 14.9009V22.4579Z" fill="#9975FF"/>
<path d="M138.294 22.4579V14.9009L145.703 18.2184L138.294 22.4579Z" fill="#F655F6"/>
<path d="M137.71 14.2907L130.402 17.5631L137.71 5.75757V14.2907Z" fill="#D68FFF"/>
<path d="M138.294 14.2907V5.75757L145.602 17.5631L138.294 14.2907Z" fill="#AC8FFF"/>
</g>
<g clip-path="url(#clip3_2400_549)">
<circle cx="168" cy="18" r="17.25" fill="white" stroke="#919191" stroke-width="1.5"/>
<path fill-rule="evenodd" clip-rule="evenodd" d="M167.798 3.00037C167.908 2.99494 168.016 3.04939 168.076 3.1466L177.299 18.0462C177.344 18.1176 177.357 18.2038 177.336 18.2852C177.316 18.3665 177.263 18.436 177.19 18.4777L167.967 23.7555C167.914 23.7853 167.856 23.7988 167.798 23.796C167.74 23.7988 167.681 23.7853 167.629 23.7555L158.406 18.4777C158.333 18.436 158.28 18.3665 158.259 18.2852C158.239 18.2038 158.252 18.1176 158.296 18.0462L167.52 3.1466C167.58 3.04939 167.687 2.99494 167.798 3.00037ZM177.16 19.7783C177.259 19.8863 177.268 20.0484 177.183 20.1671L168.064 32.871C168.002 32.9577 167.901 33.0047 167.798 32.9996C167.695 33.0047 167.594 32.9577 167.531 32.871L158.413 20.1671C158.327 20.0484 158.337 19.8863 158.435 19.7783C158.534 19.6703 158.694 19.6458 158.82 19.7195L167.798 24.9695L176.775 19.7195C176.902 19.6458 177.062 19.6703 177.16 19.7783Z" fill="white"/>
<path d="M167.473 31.7286L159.764 20.9883L167.473 25.4966V31.7286Z" fill="#959190"/>
<path d="M168.122 31.7286V25.4966L175.832 20.9883L168.122 31.7286Z" fill="#3B3735"/>
<path d="M167.473 22.9533L159.241 18.2428L167.473 14.5566V22.9533Z" fill="#403C3A"/>
<path d="M168.122 22.9533V14.5566L176.354 18.2428L168.122 22.9533Z" fill="#1F1D19"/>
<path d="M167.473 13.8784L159.353 17.5145L167.473 4.39722V13.8784Z" fill="#959190"/>
<path d="M168.122 13.8785V4.39722L176.242 17.5145L168.122 13.8785Z" fill="#3B3735"/>
</g>
<defs>
<linearGradient id="paint0_linear_2400_549" x1="0" y1="0" x2="36" y2="36" gradientUnits="userSpaceOnUse">
<stop stop-color="#FF00FF"/>
<stop offset="1" stop-color="#7344F3"/>
</linearGradient>
<radialGradient id="paint1_radial_2400_549" cx="0" cy="0" r="1" gradientUnits="userSpaceOnUse" gradientTransform="translate(-1.96634 28.0607) scale(29.1505 73.8856)">
<stop stop-color="#FF0099"/>
<stop offset="1" stop-color="#AC8FFF"/>
</radialGradient>
<linearGradient id="paint2_linear_2400_549" x1="120" y1="0" x2="156" y2="36" gradientUnits="userSpaceOnUse">
<stop stop-color="#FF00FF"/>
<stop offset="1" stop-color="#7344F3"/>
</linearGradient>
<clipPath id="clip0_2400_549">
<rect width="36" height="36" fill="white"/>
</clipPath>
<clipPath id="clip1_2400_549">
<rect width="36" height="36" fill="white" transform="translate(30)"/>
</clipPath>
<clipPath id="clip2_2400_549">
<rect x="120" width="36" height="36" rx="18" fill="white"/>
</clipPath>
<clipPath id="clip3_2400_549">
<rect width="36" height="36" fill="white" transform="translate(150)"/>
</clipPath>
</defs>
</svg>
