<svg fill="none" height="156" viewBox="0 0 156 156" width="156" xmlns="http://www.w3.org/2000/svg" xmlns:xlink="http://www.w3.org/1999/xlink"><linearGradient id="a" gradientUnits="userSpaceOnUse" x1="77.539" x2="77.539" y1=".929" y2="154.929"><stop offset="0" stop-color="#99b998"/><stop offset="1" stop-color="#fdceaa"/></linearGradient><path d="m77.5391 154.929c42.5259 0 76.9999-34.474 76.9999-77.0004 0-42.5259-34.474-77.000011-76.9999-77.000011-42.526 0-77.000038 34.474111-77.000038 77.000011 0 42.5264 34.474038 77.0004 77.000038 77.0004z" fill="url(#a)" stroke="#000" stroke-width=".962"/><path d="m25.5645 64.122 51.975-51.6434 51.9745 51.6434-25.503 25.3409-25.9719-25.8059-.4666-.4637-.468.4637-25.9875 25.8216z" fill="#fff6f0" stroke="#000" stroke-width="1.925"/><path d="m37.0524 97.5898h20.4197v5.8212h-14.3215v7.391h13.7671v5.821h-13.7671v7.485h14.8759v5.821h-20.9741zm50.2779 0v21.1592c0 3.695-.9856 6.591-2.9567 8.685-1.9403 2.094-4.8354 3.141-8.6853 3.141s-6.7603-1.047-8.7315-3.141c-1.9403-2.094-2.9105-4.99-2.9105-8.685v-21.1592h6.0982v21.1592c0 1.909.4466 3.403 1.3398 4.481.8931 1.078 2.2945 1.617 4.204 1.617s3.3109-.539 4.2041-1.617c.8931-1.078 1.3397-2.572 1.3397-4.481v-21.1592zm27.5947 32.3392h-6.098v-9.702c0-.739-.201-1.34-.601-1.802-.37-.462-1.001-.693-1.894-.693h-7.0223v12.197h-6.0981v-32.3392h12.3814c1.663 0 3.126.2309 4.389.6929 1.262.462 2.309 1.1088 3.141 1.9403.862.801 1.509 1.74 1.94 2.818.462 1.078.693 2.233.693 3.465v1.109c0 1.324-.354 2.571-1.062 3.742-.709 1.139-1.802 2.017-3.28 2.633v.832c1.078.123 1.925.539 2.541 1.247.646.708.97 1.602.97 2.68zm-15.6153-18.018h5.8213c1.478 0 2.602-.339 3.372-1.016.77-.709 1.155-1.694 1.155-2.957v-.554c0-1.078-.385-2.002-1.155-2.772-.77-.801-1.894-1.201-3.372-1.201h-5.8213z" fill="#2a363a"/></svg>