<svg fill="none" height="48" viewBox="0 0 48 48" width="48" xmlns="http://www.w3.org/2000/svg"><rect fill="#f9a606" height="48" rx="24" width="48"/><path clip-rule="evenodd" d="m15.1156 12.9175h8.9659c5.4536 0 9.5876 2.9313 11.1256 7.1968h2.7929v2.5781h-2.2048c.0432.4073.0652.8224.0652 1.2441v.0633c0 .4748-.0279.9414-.0824 1.3985h2.222v2.5781h-2.8461c-1.5784 4.2062-5.6804 7.1095-11.0724 7.1095h-8.9659v-7.1095h-3.1156v-2.5781h3.1156v-2.7059h-3.1156v-2.5781h3.1156zm2.5065 15.0589v4.7968h6.4594c3.9861 0 6.9475-1.9211 8.326-4.7968zm15.5533-2.5781h-15.5533v-2.7059h15.5573c.0577.4258.0871.8623.0871 1.3074v.0634c0 .4553-.0308.9011-.0911 1.3351zm-9.0939-10.1719c4.0044 0 6.9747 1.9719 8.345 4.8879h-14.8044v-4.8879z" fill="#fff" fill-rule="evenodd"/></svg>