<svg width="48" height="48" viewBox="0 0 48 48" fill="none" xmlns="http://www.w3.org/2000/svg">
<rect width="48" height="48" rx="24" fill="#F9A606"/>
<path fill-rule="evenodd" clip-rule="evenodd" d="M15.1156 12.9175H24.0815C29.5351 12.9175 33.6691 15.8488 35.2071 20.1143H38V22.6924H35.7952C35.8384 23.0997 35.8604 23.5148 35.8604 23.9365V23.9998C35.8604 24.4746 35.8325 24.9412 35.778 25.3983H38V27.9764H35.1539C33.5755 32.1826 29.4735 35.0859 24.0815 35.0859H15.1156V27.9764H12V25.3983H15.1156V22.6924H12V20.1143H15.1156V12.9175ZM17.6221 27.9764V32.7732H24.0815C28.0676 32.7732 31.029 30.8521 32.4075 27.9764H17.6221ZM33.1754 25.3983H17.6221V22.6924H33.1794C33.2371 23.1182 33.2665 23.5547 33.2665 23.9998V24.0632C33.2665 24.5185 33.2357 24.9643 33.1754 25.3983ZM24.0815 15.2264C28.0859 15.2264 31.0562 17.1983 32.4265 20.1143H17.6221V15.2264H24.0815Z" fill="white"/>
</svg>
