<svg fill="none" height="48" viewBox="0 0 48 48" width="48" xmlns="http://www.w3.org/2000/svg" xmlns:xlink="http://www.w3.org/1999/xlink"><clipPath id="a"><path d="m4 4h40v40h-40z"/></clipPath><rect fill="#222" height="48" rx="24" width="48"/><g clip-path="url(#a)"><path clip-rule="evenodd" d="m23.9971 4.00049c.1475-.00723.2908.06536.371.19498l12.2977 19.86613c.0589.0951.0766.2101.0491.3186s-.0979.2011-.195.2567l-12.2978 7.0371c-.0695.0397-.1477.0577-.225.054-.0773.0037-.1555-.0143-.225-.054l-12.2978-7.0371c-.0971-.0556-.1675-.1482-.195-.2567s-.0098-.2235.0491-.3186l12.2977-19.86613c.0803-.12962.2236-.20221.371-.19498zm12.4834 22.37051c.1312.1441.1438.3602.0302.5185l-12.1582 16.9385c-.0831.1157-.2179.1782-.3554.1715-.1375.0067-.2723-.0558-.3553-.1715l-12.1583-16.9385c-.1136-.1583-.101-.3744.0301-.5185.1312-.144.3452-.1767.5134-.0783l11.9701 7 11.9701-7c.1681-.0984.3822-.0657.5133.0783z" fill="#1616b4" fill-rule="evenodd"/><path d="m23.5644 42.3049-10.2791-14.3205 10.2791 6.0111z" fill="#f0cdc2"/><path d="m24.4299 42.3049v-8.3094l10.279-6.0111z" fill="#c9b3f5"/><path d="m23.5644 30.6043-10.9759-6.2806 10.9759-4.9149z" fill="#88aaf1"/><path d="m24.4298 30.6043v-11.1955l10.9759 4.9149z" fill="#c9b3f5"/><path d="m23.5644 18.5046-10.8266 4.848 10.8266-17.48962z" fill="#f0cdc2"/><path d="m24.4299 18.5046v-12.64162l10.8265 17.48962z" fill="#b8faf6"/></g></svg>