<svg fill="none" height="48" viewBox="0 0 48 48" width="48" xmlns="http://www.w3.org/2000/svg"><circle cx="24" cy="24" fill="#fff" r="24"/><circle cx="24" cy="24" fill="#101018" r="22.5"/><path d="m35.9721 24c0-2.435-.7316-4.7007-1.9847-6.5939l3.717-3.717-3.3427-3.3426-3.7068 3.7067c-1.9033-1.2785-4.1928-2.0252-6.6532-2.0252-2.4351 0-4.7008.7315-6.594 1.9846l-3.7186-3.7169-3.3427 3.3426 3.7068 3.7068c-1.2785 1.9034-2.0253 4.1928-2.0253 6.6532 0 2.4351.7316 4.7008 1.9847 6.594l-3.717 3.7186 3.3427 3.3427 3.7068-3.7068c1.9033 1.2785 4.1928 2.0253 6.6532 2.0253 2.4351 0 4.7008-.7315 6.594-1.9846l3.7186 3.7186 3.3427-3.3427-3.7068-3.7068c1.2785-1.9067 2.0253-4.1961 2.0253-6.6566zm-19.2146 0c0-3.9946 3.2496-7.2442 7.2442-7.2442s7.2442 3.2496 7.2442 7.2442c0 3.9947-3.2496 7.2442-7.2442 7.2442s-7.2442-3.2495-7.2442-7.2442z" fill="#fff"/></svg>