<svg fill="none" height="478" viewBox="0 0 601 478" width="601" xmlns="http://www.w3.org/2000/svg" xmlns:xlink="http://www.w3.org/1999/xlink"><filter id="a" color-interpolation-filters="sRGB" filterUnits="userSpaceOnUse" height="708" width="708" x="-54" y="-29"><feFlood flood-opacity="0" result="BackgroundImageFix"/><feBlend in="SourceGraphic" in2="BackgroundImageFix" mode="normal" result="shape"/><feGaussianBlur result="effect1_foregroundBlur" stdDeviation="65"/></filter><mask id="b" height="478" maskUnits="userSpaceOnUse" width="601" x="0" y="0"><path d="m0 0h601v478h-601z" fill="#c4c4c4"/></mask><g mask="url(#b)"><ellipse cx="299.5" cy="349" fill="#3f0" rx="299.5" ry="336"/><g filter="url(#a)"><circle cx="300" cy="325" fill="#58c182" r="224"/></g></g><path d="m457.5 381.5c0 7.599-4.264 14.904-12.123 21.612-7.857 6.706-19.256 12.768-33.385 17.869-28.253 10.2-67.318 16.519-110.492 16.519s-82.239-6.319-110.492-16.519c-14.129-5.101-25.528-11.163-33.385-17.869-7.859-6.708-12.123-14.013-12.123-21.612s4.264-14.904 12.123-21.612c7.857-6.706 19.256-12.768 33.385-17.869 28.253-10.2 67.318-16.519 110.492-16.519s82.239 6.319 110.492 16.519c14.129 5.101 25.528 11.163 33.385 17.869 7.859 6.708 12.123 14.013 12.123 21.612z" stroke="#141413"/><path d="m405.5 381.5c0 4.974-2.808 9.78-8.036 14.215-5.225 4.434-12.816 8.449-22.24 11.831-18.844 6.762-44.909 10.954-73.724 10.954s-54.88-4.192-73.724-10.954c-9.424-3.382-17.015-7.397-22.24-11.831-5.228-4.435-8.036-9.241-8.036-14.215s2.808-9.78 8.036-14.215c5.225-4.434 12.816-8.449 22.24-11.831 18.844-6.762 44.909-10.954 73.724-10.954s54.88 4.192 73.724 10.954c9.424 3.382 17.015 7.397 22.24 11.831 5.228 4.435 8.036 9.241 8.036 14.215z" stroke="#141413"/><circle cx="301.5" cy="267.5" fill="#141413" r="128.5"/><circle cx="301.5" cy="267.5" fill="#2d2d2d" r="111.5"/><g clip-rule="evenodd" fill="#3f0" fill-rule="evenodd"><path d="m259.842 212.961h73.776c5.797 0 10.54 4.742 10.54 10.539s-4.743 10.539-10.54 10.539h-73.776zm4.216 16.863h69.56c3.469 0 6.324-2.856 6.324-6.324s-2.855-6.324-6.324-6.324h-69.56z"/><path d="m276.705 276.344c0-2.345 1.888-4.245 4.216-4.245h21.079c3.468 0 6.324-2.875 6.324-6.368 0-3.492-2.856-6.368-6.324-6.368h-37.942v53.064c0 3.492 2.855 6.367 6.324 6.367 3.468 0 6.323-2.875 6.323-6.367zm4.216 0h21.079c5.797 0 10.539-4.776 10.539-10.613s-4.742-10.613-10.539-10.613h-42.158v57.309c0 5.837 4.743 10.612 10.54 10.612 5.796 0 10.539-4.775 10.539-10.612z"/><path d="m391 268c0 49.153-39.847 89-89 89s-89-39.847-89-89 39.847-89 89-89 89 39.847 89 89zm-89 84.762c46.813 0 84.762-37.949 84.762-84.762s-37.949-84.762-84.762-84.762-84.762 37.949-84.762 84.762 37.949 84.762 84.762 84.762z"/></g></svg>