<svg fill="none" height="48" viewBox="0 0 48 48" width="48" xmlns="http://www.w3.org/2000/svg" xmlns:xlink="http://www.w3.org/1999/xlink"><filter id="a" color-interpolation-filters="sRGB" filterUnits="userSpaceOnUse" height="10" width="10" x="37.3" y="12.8"><feFlood flood-opacity="0" result="BackgroundImageFix"/><feBlend in="SourceGraphic" in2="BackgroundImageFix" mode="normal" result="shape"/><feColorMatrix in="SourceAlpha" result="hardAlpha" type="matrix" values="0 0 0 0 0 0 0 0 0 0 0 0 0 0 0 0 0 0 127 0"/><feOffset/><feGaussianBlur stdDeviation=".5"/><feComposite in2="hardAlpha" k2="-1" k3="1" operator="arithmetic"/><feColorMatrix type="matrix" values="0 0 0 0 1 0 0 0 0 1 0 0 0 0 1 0 0 0 1 0"/><feBlend in2="shape" mode="normal" result="effect1_innerShadow_1807_1986"/></filter><filter id="b" color-interpolation-filters="sRGB" filterUnits="userSpaceOnUse" height="7.8" width="7.8" x="36.5" y="0"><feFlood flood-opacity="0" result="BackgroundImageFix"/><feBlend in="SourceGraphic" in2="BackgroundImageFix" mode="normal" result="shape"/><feColorMatrix in="SourceAlpha" result="hardAlpha" type="matrix" values="0 0 0 0 0 0 0 0 0 0 0 0 0 0 0 0 0 0 127 0"/><feOffset/><feGaussianBlur stdDeviation=".5"/><feComposite in2="hardAlpha" k2="-1" k3="1" operator="arithmetic"/><feColorMatrix type="matrix" values="0 0 0 0 1 0 0 0 0 1 0 0 0 0 1 0 0 0 1 0"/><feBlend in2="shape" mode="normal" result="effect1_innerShadow_1807_1986"/></filter><filter id="c" color-interpolation-filters="sRGB" filterUnits="userSpaceOnUse" height="7.6" width="7.6" x="25" y="3.8"><feFlood flood-opacity="0" result="BackgroundImageFix"/><feBlend in="SourceGraphic" in2="BackgroundImageFix" mode="normal" result="shape"/><feColorMatrix in="SourceAlpha" result="hardAlpha" type="matrix" values="0 0 0 0 0 0 0 0 0 0 0 0 0 0 0 0 0 0 127 0"/><feOffset/><feGaussianBlur stdDeviation=".5"/><feComposite in2="hardAlpha" k2="-1" k3="1" operator="arithmetic"/><feColorMatrix type="matrix" values="0 0 0 0 1 0 0 0 0 1 0 0 0 0 1 0 0 0 1 0"/><feBlend in2="shape" mode="normal" result="effect1_innerShadow_1807_1986"/></filter><filter id="d" color-interpolation-filters="sRGB" filterUnits="userSpaceOnUse" height="40.5" width="41" x="1" y="7.5"><feFlood flood-opacity="0" result="BackgroundImageFix"/><feBlend in="SourceGraphic" in2="BackgroundImageFix" mode="normal" result="shape"/><feColorMatrix in="SourceAlpha" result="hardAlpha" type="matrix" values="0 0 0 0 0 0 0 0 0 0 0 0 0 0 0 0 0 0 127 0"/><feOffset/><feGaussianBlur stdDeviation="1"/><feComposite in2="hardAlpha" k2="-1" k3="1" operator="arithmetic"/><feColorMatrix type="matrix" values="0 0 0 0 0 0 0 0 0 0.99987 0 0 0 0 0.99987 0 0 0 1 0"/><feBlend in2="shape" mode="normal" result="effect1_innerShadow_1807_1986"/></filter><linearGradient id="e" gradientUnits="userSpaceOnUse" x1="42.3" x2="42.3" y1="12.8" y2="22.8"><stop offset="0" stop-color="#26ade2"/><stop offset="1" stop-color="#48f8ff"/></linearGradient><linearGradient id="f"><stop offset="0" stop-color="#cffbff"/><stop offset="1" stop-color="#fdffff"/></linearGradient><linearGradient id="g" gradientUnits="userSpaceOnUse" x1="40.4" x2="40.4" xlink:href="#f" y1="0" y2="7.8"/><linearGradient id="h" gradientUnits="userSpaceOnUse" x1="28.8" x2="28.8" xlink:href="#f" y1="3.8" y2="11.4"/><linearGradient id="i" gradientUnits="userSpaceOnUse" x1="33" x2="21.5" y1="33" y2="48"><stop offset="0" stop-color="#24aae1"/><stop offset=".772" stop-color="#48f8ff"/></linearGradient><radialGradient id="j" cx="0" cy="0" gradientTransform="matrix(0 7 -11.6667 0 21 7.5)" gradientUnits="userSpaceOnUse" r="1"><stop offset="0" stop-color="#fff"/><stop offset=".95" stop-color="#fff" stop-opacity=".1"/><stop offset="1" stop-color="#fff" stop-opacity="0"/></radialGradient><linearGradient id="k" gradientUnits="userSpaceOnUse" x1="24" x2="21.5" y1="38.5" y2="48"><stop offset="0" stop-color="#fff" stop-opacity="0"/><stop offset="1" stop-color="#fff" stop-opacity=".8"/></linearGradient><linearGradient id="l" gradientUnits="userSpaceOnUse" x1="6.5" x2="24" y1="35.5" y2="21"><stop offset="0" stop-color="#57ffff" stop-opacity="0"/><stop offset=".353" stop-color="#57ffff" stop-opacity=".4"/><stop offset="1" stop-color="#57ffff" stop-opacity="0"/></linearGradient><linearGradient id="m" gradientUnits="userSpaceOnUse" x1="6.5" x2="24" y1="35.5" y2="21"><stop offset="0" stop-color="#57ffff" stop-opacity="0"/><stop offset=".353" stop-color="#57ffff" stop-opacity=".4"/><stop offset="1" stop-color="#25aae1" stop-opacity="0"/></linearGradient><g filter="url(#a)"><path d="m37.3 12.8h10v10h-10z" fill="url(#e)"/></g><g filter="url(#b)"><path d="m36.5 0h7.8v7.8h-7.8z" fill="url(#g)"/></g><g filter="url(#c)"><path d="m25 3.80005h7.6v7.6h-7.6z" fill="url(#h)"/></g><g filter="url(#d)"><path d="m41.9999 27.5002c0 11.3219-9.1782 20.5-20.5 20.5-11.3219 0-20.500022-9.1781-20.500022-20.5 0-11.3218 8.000122-16.5 10.500122-19.99996h9.9999v9.99976h10.0001v10.0002z" fill="url(#i)"/><path d="m41.9999 27.5002c0 11.3219-9.1782 20.5-20.5 20.5-11.3219 0-20.500022-9.1781-20.500022-20.5 0-11.3218 8.000122-16.5 10.500122-19.99996h9.9999v9.99976h10.0001v10.0002z" fill="url(#j)"/><path d="m41.9999 27.5002c0 11.3219-9.1782 20.5-20.5 20.5-11.3219 0-20.500022-9.1781-20.500022-20.5 0-11.3218 8.000122-16.5 10.500122-19.99996h9.9999v9.99976h10.0001v10.0002z" fill="url(#k)"/></g><path d="m41.9999 27.501c0 11.3218-9.1782 20.5-20.5 20.5-11.3219 0-20.500022-9.1782-20.500022-20.5 3.500122 0 17.000122 21.499 30.500122 14.499s9-14.499 10.4999-14.499z" fill="#fff" opacity=".3"/><path d="m39 27.7908c0 9.5047-7.835 17.2099-17.5 17.2099s-17.5-7.7052-17.5-17.2099c0-4.7907.5-4.7907.5-4.7907 2.5 0 5-3.0001 13.5-3.0001s3.5 13.5 21 7.7908z" fill="url(#l)" opacity=".25"/><path d="m38.9999 27.7908c0 9.5047 6.165 11.2092-3.5 11.2092s-31.9999-7.5-31-15.9999c3.49988 0 5-3.0001 13.5-3.0001s3.5 13.5 21 7.7908z" fill="url(#m)" opacity=".25"/></svg>