<svg fill="none" height="48" viewBox="0 0 48 48" width="48" xmlns="http://www.w3.org/2000/svg" xmlns:xlink="http://www.w3.org/1999/xlink"><linearGradient id="a" gradientUnits="userSpaceOnUse" x1="14.927" x2="41.697" y1="19.964" y2="-6.804"><stop offset="0" stop-color="#ff2f00"/><stop offset=".13" stop-color="#ff3f00"/><stop offset=".38" stop-color="#ff6700"/><stop offset=".59" stop-color="#ff8c00"/></linearGradient><linearGradient id="b" gradientUnits="userSpaceOnUse" x1="37.529" x2="37.529" y1="37.594" y2="6.846"><stop offset=".2" stop-color="#f00048"/><stop offset=".79" stop-color="#ff8c00"/></linearGradient><linearGradient id="c" gradientUnits="userSpaceOnUse" x1="-.107" x2="24.343" y1="33.648" y2="9.199"><stop offset=".09" stop-color="#850000"/><stop offset=".25" stop-color="#a90e00"/><stop offset=".45" stop-color="#ce1c00"/><stop offset=".64" stop-color="#e92700"/><stop offset=".8" stop-color="#f92d00"/><stop offset=".93" stop-color="#ff2f00"/></linearGradient><linearGradient id="d" gradientUnits="userSpaceOnUse" x1="11.154" x2="34.215" y1="46.787" y2="33.473"><stop offset=".07" stop-color="#850000"/><stop offset=".88" stop-color="#d30168"/></linearGradient><path d="m39.3793 5.5513c-4.0886-3.41847-9.2025-5.372401-14.5289-5.5513l-12.239 32.3192z" fill="url(#a)"/><path d="m42.4316 8.60999-15.3738 15.37381 15.3717 15.3717c3.5988-4.3142 5.5701-9.7542 5.5705-15.3724s-1.9702-11.0584-5.5684-15.37311z" fill="url(#b)"/><path d="m18.8344 3.69031-18.7852597 18.78319c-.3872413 6.0389 1.5250597 12.0007 5.3527297 16.6877z" fill="url(#c)"/><path d="m24.0034 27.0383-15.37382 15.3759c4.31482 3.5978 9.75482 5.5682 15.37272 5.5682 5.618 0 11.0579-1.9704 15.3728-5.5682z" fill="url(#d)"/></svg>
