<svg height="48" viewBox="0 0 48 48" width="48" xmlns="http://www.w3.org/2000/svg"><circle cx="24" cy="24" fill="#00d2ff" r="24"/><path d="m40.1968 22.802c0-.057-1.0391-.7207-1.5856-1.0669-.2362-.1482-.4554-.3217-.6538-.5174-.4093-.4045-1.0909-1.1117-1.312-1.5469-.1424-.2781-.0838-.7786.0269-1.256.192-.8384.0467-1.7187-.4048-2.4509l-.711-1.1578c-.3271-.5281-.5904-1.0934-.7837-1.6838-.2458-.7586-.6733-1.4458-1.2451-2.0016-1.1568-1.12833-4.3584-1.68384-7.018-1.77248-.1643-.0496-.3314-.08935-.5004-.11904-1.184-.2016-2.4474-.52736-3.5808-.31584-1.6826.31328-3.3837.84064-4.6535 2.14176-.256.2627-.656.3866-.9318.6355-.5469.4935-1.2832.4935-1.769 1.0413-.2845.32-.416 1.3635-1.1616 1.7619-1.2333.6608-2.1459 1.3888-2.4448 1.76-.2259.2794-.4009.6061-.6208.8915-.224.2928-1.28669.7885-1.59549 1.0986s-.72288 1.0646-.53696 1.9562c.01728.0812.032.1484.04256.2028.1216.4532.45216 1.2746.37568 1.6512-.08896.4458-1.23584 3.769 1.32671 4.6548.5334.1846.7594.544.8176 1.0912.0451.4083.1664.8272.3792 1.278.2333.4919.6925.7594.7299.792.1546.1364.8739.8871.9331.9965.9092 1.6803.6538 2.52 2.394 3.0909.447.1475.8763.3443 1.28.5869.4917.296 1.0185.5293 1.568.695.016.0045.0403.0131.0688.0234.3865-.9341.7785-1.8202 1.1692-2.6541-3.1324-3.2122-2.3088-6.8109-2.0083-7.776.0089-.0286.0248-.0545.0463-.0754s.0479-.0361.0767-.0442c.0289-.0081.0593-.0088.0885-.0021s.0563.0206.0788.0404c.6572.576 2.656 2.6538 2.4214 6.4045.6912-1.3805 1.3635-2.5946 1.9776-3.631-2.2605-3.8311-.576-7.1892-.0451-8.0746.0156-.0261.0376-.0478.0638-.0632.0263-.0153.056-.0238.0864-.0246.0304-.0009.0605.006.0875.0199.0271.0139.0502.0344.0672.0596.4608.6841 1.713 2.927.9376 6.1584.5623-.8595 1.0186-1.4957 1.3168-1.8951.8077-5.3414 4.8416-7.094 5.9018-7.4656.0284-.0101.0589-.0129.0887-.0081.0298.0047.0579.017.0817.0355s.0426.0427.0546.0703c.012.0277.0168.0579.014.0879-.0979 1.1047-.7788 5.3581-5.4579 7.5424-.5622.7408-1.104 1.5207-1.6221 2.3207 1.7892-1.3965 4.2967-2.0547 6.3799-1.5491.0294.0067.0567.0207.0793.0406.0227.0199.04.0451.0505.0734s.0137.0588.0095.0886c-.0042.0299-.0158.0582-.0337.0825-.5991.7929-2.9815 3.4675-7.4688 2.8547-.7584 1.2784-1.4535 2.5738-2.0704 3.8128 1.9376-1.4662 4.7693-2.0278 6.9664-1.2896.0292.0094.0557.026.0768.0482.0212.0223.0365.0495.0445.0791.0079.0297.0083.0609.0011.0907-.0072.0299-.0218.0575-.0424.0802-.6823.736-3.3095 3.1447-7.6288 2.1882-.4048.8557-1.0087 2.2627-1.3034 2.9581-.1014.239-.1949.48-.2777.7267-.192.5664-.448 1.273-.7556 1.9798-.0432.1008-.0653.2096-.0648.3191.0005.1097.0235.2182.0677.3187s.1085.1907.1891.2653c.0805.0742.1755.1315.2791.1677 3.4085 1.2169 7.1092 1.3542 10.5984.3926.1153-.0326.2218-.0909.3114-.1702.0897-.0797.1602-.1783.2063-.289.0727-.1725.1444-.3357.1444-.3357s1.5065-3.4995 1.728-5.024c.0873-.5993.2614-1.0489.4409-1.376.1178-.2137.288-.3939.4944-.5238.2067-.1299.4429-.2051.6867-.2183 1.1482-.0608 3.593-.2211 4.4823-.503 1.1821-.3754.6694-2.528.6061-2.7603-.0634-.2323.5686-.7715.6988-1.0864.1303-.3149-.32-.4227-.5033-.768-.1834-.3453.456-.5943.5472-.9079s-.208-.6585-.3293-.8905-.1677-.5223-.1677-.5223.864-.6332 1.3242-1.0329c.4601-.3997.3741-.729.3731-.8067"/></svg>