<svg style="fill-rule:nonzero;clip-rule:evenodd;stroke-linecap:round;stroke-linejoin:round" xmlns="http://www.w3.org/2000/svg" xml:space="preserve" xmlns:vectornator="http://vectornator.io" viewBox="0 0 378 436"><defs><radialGradient cx="189" r="194.5" id="a" gradientUnits="userSpaceOnUse" gradientTransform="matrix(.97172 0 0 .9754 5.344 5.365)" cy="218"><stop stop-color="#00a2e9" offset="0"/><stop stop-color="#f0f" offset="0"/><stop stop-color="#734ce2" offset="1"/></radialGradient><radialGradient cx="189" r="194.5" id="b" gradientUnits="userSpaceOnUse" gradientTransform="matrix(.97172 0 0 .9754 5.344 5.365)" cy="218"><stop stop-color="#00a2e9" offset="0"/><stop stop-color="#f0f" offset="0"/><stop stop-color="#734ce2" offset="1"/></radialGradient><radialGradient cx="189" r="194.5" id="c" gradientUnits="userSpaceOnUse" gradientTransform="matrix(.97172 0 0 .9754 5.344 5.365)" cy="218"><stop stop-color="#00a2e9" offset="0"/><stop stop-color="#f0f" offset="0"/><stop stop-color="#734ce2" offset="1"/></radialGradient><radialGradient cx="189" r="194.5" id="d" gradientUnits="userSpaceOnUse" gradientTransform="matrix(.97172 0 0 .9754 5.344 5.365)" cy="218"><stop stop-color="#00a2e9" offset="0"/><stop stop-color="#f0f" offset="0"/><stop stop-color="#734ce2" offset="1"/></radialGradient><radialGradient cx="189" r="194.5" id="e" gradientUnits="userSpaceOnUse" gradientTransform="matrix(.97172 0 0 .9754 5.344 5.365)" cy="218"><stop stop-color="#00a2e9" offset="0"/><stop stop-color="#f0f" offset="0"/><stop stop-color="#734ce2" offset="1"/></radialGradient><radialGradient cx="189" r="194.5" id="f" gradientUnits="userSpaceOnUse" gradientTransform="matrix(.97172 0 0 .9754 5.344 5.365)" cy="218"><stop stop-color="#00a2e9" offset="0"/><stop stop-color="#f0f" offset="0"/><stop stop-color="#734ce2" offset="1"/></radialGradient><radialGradient cx="189" r="194.5" id="g" gradientUnits="userSpaceOnUse" gradientTransform="matrix(.97172 0 0 .9754 5.344 5.365)" cy="218"><stop stop-color="#00a2e9" offset="0"/><stop stop-color="#f0f" offset="0"/><stop stop-color="#734ce2" offset="1"/></radialGradient><radialGradient cx="189" r="194.5" id="h" gradientUnits="userSpaceOnUse" gradientTransform="matrix(.97172 0 0 .9754 5.344 5.365)" cy="218"><stop stop-color="#00a2e9" offset="0"/><stop stop-color="#f0f" offset="0"/><stop stop-color="#734ce2" offset="1"/></radialGradient><radialGradient cx="189" r="194.5" id="i" gradientUnits="userSpaceOnUse" gradientTransform="matrix(.97172 0 0 .9754 5.344 5.365)" cy="218"><stop stop-color="#00a2e9" offset="0"/><stop stop-color="#f0f" offset="0"/><stop stop-color="#734ce2" offset="1"/></radialGradient><radialGradient cx="189" r="194.5" id="j" gradientUnits="userSpaceOnUse" gradientTransform="matrix(.97172 0 0 .9754 5.344 5.365)" cy="218"><stop stop-color="#00a2e9" offset="0"/><stop stop-color="#f0f" offset="0"/><stop stop-color="#734ce2" offset="1"/></radialGradient><radialGradient cx="189" r="194.5" id="k" gradientUnits="userSpaceOnUse" gradientTransform="matrix(.97172 0 0 .9754 5.344 5.365)" cy="218"><stop stop-color="#00a2e9" offset="0"/><stop stop-color="#f0f" offset="0"/><stop stop-color="#734ce2" offset="1"/></radialGradient><radialGradient cx="189" r="194.5" id="l" gradientUnits="userSpaceOnUse" gradientTransform="matrix(.97172 0 0 .9754 5.344 5.365)" cy="218"><stop stop-color="#00a2e9" offset="0"/><stop stop-color="#f0f" offset="0"/><stop stop-color="#734ce2" offset="1"/></radialGradient><radialGradient cx="189" r="194.5" id="m" gradientUnits="userSpaceOnUse" gradientTransform="matrix(.97172 0 0 .9754 5.344 5.365)" cy="218"><stop stop-color="#00a2e9" offset="0"/><stop stop-color="#f0f" offset="0"/><stop stop-color="#734ce2" offset="1"/></radialGradient><radialGradient cx="189" r="194.5" id="n" gradientUnits="userSpaceOnUse" gradientTransform="matrix(.97172 0 0 .9754 5.344 5.365)" cy="218"><stop stop-color="#00a2e9" offset="0"/><stop stop-color="#f0f" offset="0"/><stop stop-color="#734ce2" offset="1"/></radialGradient><radialGradient cx="189" r="194.5" id="o" gradientUnits="userSpaceOnUse" gradientTransform="matrix(.97172 0 0 .9754 5.344 5.365)" cy="218"><stop stop-color="#00a2e9" offset="0"/><stop stop-color="#f0f" offset="0"/><stop stop-color="#734ce2" offset="1"/></radialGradient><radialGradient cx="189" r="194.5" id="p" gradientUnits="userSpaceOnUse" gradientTransform="matrix(.97172 0 0 .9754 5.344 5.365)" cy="218"><stop stop-color="#00a2e9" offset="0"/><stop stop-color="#f0f" offset="0"/><stop stop-color="#734ce2" offset="1"/></radialGradient><radialGradient cx="189" r="194.5" id="q" gradientUnits="userSpaceOnUse" gradientTransform="matrix(.97172 0 0 .9754 5.344 5.365)" cy="218"><stop stop-color="#00a2e9" offset="0"/><stop stop-color="#f0f" offset="0"/><stop stop-color="#734ce2" offset="1"/></radialGradient><radialGradient cx="189" r="194.5" id="r" gradientUnits="userSpaceOnUse" gradientTransform="matrix(.97172 0 0 .9754 5.344 5.365)" cy="218"><stop stop-color="#00a2e9" offset="0"/><stop stop-color="#f0f" offset="0"/><stop stop-color="#734ce2" offset="1"/></radialGradient><radialGradient cx="189" r="194.5" id="s" gradientUnits="userSpaceOnUse" gradientTransform="matrix(.97172 0 0 .9754 5.344 5.365)" cy="218"><stop stop-color="#00a2e9" offset="0"/><stop stop-color="#f0f" offset="0"/><stop stop-color="#734ce2" offset="1"/></radialGradient><radialGradient cx="189" r="194.5" id="t" gradientUnits="userSpaceOnUse" gradientTransform="matrix(.97172 0 0 .9754 5.344 5.365)" cy="218"><stop stop-color="#00a2e9" offset="0"/><stop stop-color="#f0f" offset="0"/><stop stop-color="#734ce2" offset="1"/></radialGradient><radialGradient cx="189" r="194.5" id="u" gradientUnits="userSpaceOnUse" gradientTransform="matrix(.97172 0 0 .9754 5.344 5.365)" cy="218"><stop stop-color="#00a2e9" offset="0"/><stop stop-color="#f0f" offset="0"/><stop stop-color="#734ce2" offset="1"/></radialGradient><radialGradient cx="189" r="194.5" id="v" gradientUnits="userSpaceOnUse" gradientTransform="matrix(.97172 0 0 .9754 5.344 5.365)" cy="218"><stop stop-color="#00a2e9" offset="0"/><stop stop-color="#f0f" offset="0"/><stop stop-color="#734ce2" offset="1"/></radialGradient><radialGradient cx="189" r="194.5" id="w" gradientUnits="userSpaceOnUse" gradientTransform="matrix(.97172 0 0 .9754 5.344 5.365)" cy="218"><stop stop-color="#00a2e9" offset="0"/><stop stop-color="#f0f" offset="0"/><stop stop-color="#734ce2" offset="1"/></radialGradient><radialGradient cx="189" r="194.5" id="x" gradientUnits="userSpaceOnUse" gradientTransform="matrix(.97172 0 0 .9754 5.344 5.365)" cy="218"><stop stop-color="#00a2e9" offset="0"/><stop stop-color="#f0f" offset="0"/><stop stop-color="#734ce2" offset="1"/></radialGradient><radialGradient cx="189" r="194.5" id="y" gradientUnits="userSpaceOnUse" gradientTransform="matrix(.97172 0 0 .9754 5.344 5.365)" cy="218"><stop stop-color="#00a2e9" offset="0"/><stop stop-color="#f0f" offset="0"/><stop stop-color="#734ce2" offset="1"/></radialGradient><radialGradient cx="189" r="194.5" id="z" gradientUnits="userSpaceOnUse" gradientTransform="matrix(.97172 0 0 .9754 5.344 5.365)" cy="218"><stop stop-color="#00a2e9" offset="0"/><stop stop-color="#f0f" offset="0"/><stop stop-color="#734ce2" offset="1"/></radialGradient><radialGradient cx="189" r="194.5" id="A" gradientUnits="userSpaceOnUse" gradientTransform="matrix(.97172 0 0 .9754 5.344 5.365)" cy="218"><stop stop-color="#00a2e9" offset="0"/><stop stop-color="#f0f" offset="0"/><stop stop-color="#734ce2" offset="1"/></radialGradient><radialGradient cx="189" r="194.5" id="B" gradientUnits="userSpaceOnUse" gradientTransform="matrix(.97172 0 0 .9754 5.344 5.365)" cy="218"><stop stop-color="#00a2e9" offset="0"/><stop stop-color="#f0f" offset="0"/><stop stop-color="#734ce2" offset="1"/></radialGradient><radialGradient cx="189" r="194.5" id="C" gradientUnits="userSpaceOnUse" gradientTransform="matrix(.97172 0 0 .9754 5.344 5.365)" cy="218"><stop stop-color="#00a2e9" offset="0"/><stop stop-color="#f0f" offset="0"/><stop stop-color="#734ce2" offset="1"/></radialGradient><radialGradient cx="189" r="194.5" id="D" gradientUnits="userSpaceOnUse" gradientTransform="matrix(.97172 0 0 .9754 5.344 5.365)" cy="218"><stop stop-color="#00a2e9" offset="0"/><stop stop-color="#f0f" offset="0"/><stop stop-color="#734ce2" offset="1"/></radialGradient><radialGradient cx="189" r="194.5" id="E" gradientUnits="userSpaceOnUse" gradientTransform="matrix(.97172 0 0 .9754 5.344 5.365)" cy="218"><stop stop-color="#00a2e9" offset="0"/><stop stop-color="#f0f" offset="0"/><stop stop-color="#734ce2" offset="1"/></radialGradient><radialGradient cx="189" r="194.5" id="F" gradientUnits="userSpaceOnUse" gradientTransform="matrix(.97172 0 0 .9754 5.344 5.365)" cy="218"><stop stop-color="#00a2e9" offset="0"/><stop stop-color="#f0f" offset="0"/><stop stop-color="#734ce2" offset="1"/></radialGradient><radialGradient cx="189" r="194.5" id="G" gradientUnits="userSpaceOnUse" gradientTransform="matrix(.97172 0 0 .9754 5.344 5.365)" cy="218"><stop stop-color="#00a2e9" offset="0"/><stop stop-color="#f0f" offset="0"/><stop stop-color="#734ce2" offset="1"/></radialGradient><radialGradient cx="189" r="194.5" id="H" gradientUnits="userSpaceOnUse" gradientTransform="matrix(.97172 0 0 .9754 5.344 5.365)" cy="218"><stop stop-color="#00a2e9" offset="0"/><stop stop-color="#f0f" offset="0"/><stop stop-color="#734ce2" offset="1"/></radialGradient><radialGradient cx="189" r="194.5" id="I" gradientUnits="userSpaceOnUse" gradientTransform="matrix(.97172 0 0 .9754 5.344 5.365)" cy="218"><stop stop-color="#00a2e9" offset="0"/><stop stop-color="#f0f" offset="0"/><stop stop-color="#734ce2" offset="1"/></radialGradient><radialGradient cx="189" r="194.5" id="J" gradientUnits="userSpaceOnUse" gradientTransform="matrix(.97172 0 0 .9754 5.344 5.365)" cy="218"><stop stop-color="#00a2e9" offset="0"/><stop stop-color="#f0f" offset="0"/><stop stop-color="#734ce2" offset="1"/></radialGradient><radialGradient cx="189" r="194.5" id="K" gradientUnits="userSpaceOnUse" gradientTransform="matrix(.97172 0 0 .9754 5.344 5.365)" cy="218"><stop stop-color="#00a2e9" offset="0"/><stop stop-color="#f0f" offset="0"/><stop stop-color="#734ce2" offset="1"/></radialGradient><radialGradient cx="189" r="194.5" id="L" gradientUnits="userSpaceOnUse" gradientTransform="matrix(.97172 0 0 .9754 5.344 5.365)" cy="218"><stop stop-color="#00a2e9" offset="0"/><stop stop-color="#f0f" offset="0"/><stop stop-color="#734ce2" offset="1"/></radialGradient><radialGradient cx="189" r="194.5" id="M" gradientUnits="userSpaceOnUse" gradientTransform="matrix(.97172 0 0 .9754 5.344 5.365)" cy="218"><stop stop-color="#00a2e9" offset="0"/><stop stop-color="#f0f" offset="0"/><stop stop-color="#734ce2" offset="1"/></radialGradient><radialGradient cx="189" r="194.5" id="N" gradientUnits="userSpaceOnUse" gradientTransform="matrix(.97172 0 0 .9754 5.344 5.365)" cy="218"><stop stop-color="#00a2e9" offset="0"/><stop stop-color="#f0f" offset="0"/><stop stop-color="#734ce2" offset="1"/></radialGradient><radialGradient cx="189" r="194.5" id="O" gradientUnits="userSpaceOnUse" gradientTransform="matrix(.97172 0 0 .9754 5.344 5.365)" cy="218"><stop stop-color="#00a2e9" offset="0"/><stop stop-color="#f0f" offset="0"/><stop stop-color="#734ce2" offset="1"/></radialGradient><radialGradient cx="189" r="194.5" id="P" gradientUnits="userSpaceOnUse" gradientTransform="matrix(.97172 0 0 .9754 5.344 5.365)" cy="218"><stop stop-color="#00a2e9" offset="0"/><stop stop-color="#f0f" offset="0"/><stop stop-color="#734ce2" offset="1"/></radialGradient><radialGradient cx="189" r="194.5" id="Q" gradientUnits="userSpaceOnUse" gradientTransform="matrix(.97172 0 0 .9754 5.344 5.365)" cy="218"><stop stop-color="#00a2e9" offset="0"/><stop stop-color="#f0f" offset="0"/><stop stop-color="#734ce2" offset="1"/></radialGradient><radialGradient cx="189" r="194.5" id="R" gradientUnits="userSpaceOnUse" gradientTransform="matrix(.97172 0 0 .9754 5.344 5.365)" cy="218"><stop stop-color="#00a2e9" offset="0"/><stop stop-color="#f0f" offset="0"/><stop stop-color="#734ce2" offset="1"/></radialGradient><radialGradient cx="189" r="194.5" id="S" gradientUnits="userSpaceOnUse" gradientTransform="matrix(.97172 0 0 .9754 5.344 5.365)" cy="218"><stop stop-color="#00a2e9" offset="0"/><stop stop-color="#f0f" offset="0"/><stop stop-color="#734ce2" offset="1"/></radialGradient><radialGradient cx="189" r="194.5" id="T" gradientUnits="userSpaceOnUse" gradientTransform="matrix(.97172 0 0 .9754 5.344 5.365)" cy="218"><stop stop-color="#00a2e9" offset="0"/><stop stop-color="#f0f" offset="0"/><stop stop-color="#734ce2" offset="1"/></radialGradient><radialGradient cx="189" r="194.5" id="U" gradientUnits="userSpaceOnUse" gradientTransform="matrix(.97172 0 0 .9754 5.344 5.365)" cy="218"><stop stop-color="#00a2e9" offset="0"/><stop stop-color="#f0f" offset="0"/><stop stop-color="#734ce2" offset="1"/></radialGradient><radialGradient cx="189" r="194.5" id="V" gradientUnits="userSpaceOnUse" gradientTransform="matrix(.97172 0 0 .9754 5.344 5.365)" cy="218"><stop stop-color="#00a2e9" offset="0"/><stop stop-color="#f0f" offset="0"/><stop stop-color="#734ce2" offset="1"/></radialGradient><radialGradient cx="189" r="194.5" id="W" gradientUnits="userSpaceOnUse" gradientTransform="matrix(.97172 0 0 .9754 5.344 5.365)" cy="218"><stop stop-color="#00a2e9" offset="0"/><stop stop-color="#f0f" offset="0"/><stop stop-color="#734ce2" offset="1"/></radialGradient><radialGradient cx="189" r="194.5" id="X" gradientUnits="userSpaceOnUse" gradientTransform="matrix(.97172 0 0 .9754 5.344 5.365)" cy="218"><stop stop-color="#00a2e9" offset="0"/><stop stop-color="#f0f" offset="0"/><stop stop-color="#734ce2" offset="1"/></radialGradient><radialGradient cx="189" r="194.5" id="Y" gradientUnits="userSpaceOnUse" gradientTransform="matrix(.97172 0 0 .9754 5.344 5.365)" cy="218"><stop stop-color="#00a2e9" offset="0"/><stop stop-color="#f0f" offset="0"/><stop stop-color="#734ce2" offset="1"/></radialGradient><radialGradient cx="189" r="194.5" id="Z" gradientUnits="userSpaceOnUse" gradientTransform="matrix(.97172 0 0 .9754 5.344 5.365)" cy="218"><stop stop-color="#00a2e9" offset="0"/><stop stop-color="#f0f" offset="0"/><stop stop-color="#734ce2" offset="1"/></radialGradient></defs><g vectornator:layerName="Untitled"><path d="M188.514 0c-10.733 0-19.434 8.734-19.434 19.508s8.701 19.508 19.434 19.508 19.435-8.734 19.435-19.508S199.247 0 188.514 0Z" fill="url(#a)" vectornator:blendMode="Color"/><path d="M188.514 10.73c4.83 0 8.746 3.93 8.746 8.778 0 4.848-3.916 8.778-8.746 8.778s-8.745-3.93-8.745-8.778c0-4.848 3.915-8.779 8.745-8.779Z" fill="url(#b)" vectornator:blendMode="Color"/><path d="M104.946 51.696c-10.733 0-19.434 8.734-19.434 19.508 0 10.773 8.7 19.507 19.434 19.507 10.733 0 19.434-8.734 19.434-19.507 0-10.774-8.701-19.508-19.434-19.508Z" fill="url(#c)" vectornator:blendMode="Color"/><path d="M274.026 52.671c-10.734 0-19.435 8.734-19.435 19.508s8.701 19.508 19.435 19.508c10.733 0 19.434-8.734 19.434-19.508s-8.701-19.508-19.434-19.508Z" fill="url(#d)" vectornator:blendMode="Color"/><path d="M104.946 62.425c4.83 0 8.746 3.93 8.746 8.779 0 4.848-3.916 8.778-8.746 8.778s-8.745-3.93-8.745-8.778c0-4.849 3.915-8.779 8.745-8.779Z" fill="url(#e)" vectornator:blendMode="Color"/><path d="M274.026 63.4c4.83 0 8.745 3.93 8.745 8.779 0 4.848-3.915 8.778-8.745 8.778-4.83 0-8.746-3.93-8.746-8.778 0-4.848 3.916-8.779 8.746-8.779Z" fill="url(#f)" vectornator:blendMode="Color"/><path d="M188.514 96.564c-12.343 0-22.349 10.044-22.349 22.434s10.006 22.434 22.349 22.434c12.344 0 22.35-10.044 22.35-22.434s-10.006-22.434-22.35-22.434Z" fill="url(#g)" vectornator:blendMode="Color"/><path d="M19.434 99.49C8.701 99.49 0 108.224 0 118.998s8.701 19.508 19.434 19.508c10.734 0 19.435-8.734 19.435-19.508S30.168 99.49 19.434 99.49Z" fill="url(#h)" vectornator:blendMode="Color"/><path d="M358.566 99.49c-10.734 0-19.435 8.734-19.435 19.508s8.701 19.508 19.435 19.508c10.733 0 19.434-8.734 19.434-19.508s-8.701-19.508-19.434-19.508Z" fill="url(#i)" vectornator:blendMode="Color"/><path d="M188.514 107.293c6.44 0 11.661 5.24 11.661 11.705 0 6.464-5.221 11.704-11.661 11.704-6.44 0-11.661-5.24-11.661-11.704 0-6.465 5.221-11.705 11.661-11.705Z" fill="url(#j)" vectornator:blendMode="Color"/><path d="M19.434 110.219c4.83 0 8.746 3.931 8.746 8.779s-3.916 8.778-8.746 8.778-8.745-3.93-8.745-8.778c0-4.848 3.915-8.779 8.745-8.779Z" fill="url(#k)" vectornator:blendMode="Color"/><path d="M358.566 110.219c4.829 0 8.745 3.931 8.745 8.779s-3.916 8.778-8.745 8.778c-4.83 0-8.746-3.93-8.746-8.778 0-4.848 3.916-8.779 8.746-8.779Z" fill="url(#l)" vectornator:blendMode="Color"/><path d="M102.031 145.333c-12.344 0-22.35 10.044-22.35 22.434s10.007 22.434 22.35 22.434c12.343 0 22.349-10.044 22.349-22.434s-10.006-22.434-22.349-22.434Z" fill="url(#m)" vectornator:blendMode="Color"/><path d="M274.026 145.333c-12.344 0-22.35 10.044-22.35 22.434s10.006 22.434 22.35 22.434c12.343 0 22.349-10.044 22.349-22.434s-10.006-22.434-22.349-22.434Z" fill="url(#n)" vectornator:blendMode="Color"/><path d="M102.031 156.063c6.44 0 11.661 5.24 11.661 11.704 0 6.465-5.221 11.705-11.661 11.705-6.44 0-11.66-5.24-11.66-11.705 0-6.464 5.22-11.704 11.66-11.704Z" fill="url(#o)" vectornator:blendMode="Color"/><path d="M274.026 156.063c6.44 0 11.66 5.24 11.66 11.704 0 6.465-5.22 11.705-11.66 11.705s-11.661-5.24-11.661-11.705c0-6.464 5.221-11.704 11.661-11.704Z" fill="url(#p)" vectornator:blendMode="Color"/><path d="M189.486 190.201c-15.026 0-27.208 12.228-27.208 27.311s12.182 27.311 27.208 27.311c15.026 0 27.208-12.228 27.208-27.311s-12.182-27.311-27.208-27.311Z" fill="url(#q)" vectornator:blendMode="Color"/><path d="M19.434 198.004C8.701 198.004 0 206.739 0 217.512c0 10.774 8.701 19.508 19.434 19.508 10.734 0 19.435-8.734 19.435-19.508 0-10.773-8.701-19.508-19.435-19.508Z" fill="url(#r)" vectornator:blendMode="Color"/><path d="M358.566 198.004c-10.734 0-19.435 8.735-19.435 19.508 0 10.774 8.701 19.508 19.435 19.508 10.733 0 19.434-8.734 19.434-19.508 0-10.773-8.701-19.508-19.434-19.508Z" fill="url(#s)" vectornator:blendMode="Color"/><path d="M189.486 200.931c9.123 0 16.519 7.424 16.519 16.581 0 9.158-7.396 16.582-16.519 16.582-9.123 0-16.519-7.424-16.519-16.582 0-9.157 7.396-16.581 16.519-16.581Z" fill="url(#t)" vectornator:blendMode="Color"/><path d="M19.434 208.734c4.83 0 8.746 3.93 8.746 8.778 0 4.848-3.916 8.779-8.746 8.779s-8.745-3.931-8.745-8.779 3.915-8.778 8.745-8.778Z" fill="url(#u)" vectornator:blendMode="Color"/><path d="M358.566 208.734c4.829 0 8.745 3.93 8.745 8.778 0 4.848-3.916 8.779-8.745 8.779-4.83 0-8.746-3.931-8.746-8.779s3.916-8.778 8.746-8.778Z" fill="url(#v)" vectornator:blendMode="Color"/><path d="M104.946 243.848c-12.343 0-22.35 10.044-22.35 22.434s10.007 22.434 22.35 22.434c12.343 0 22.35-10.044 22.35-22.434s-10.007-22.434-22.35-22.434Z" fill="url(#w)" vectornator:blendMode="Color"/><path d="M274.026 243.848c-12.344 0-22.35 10.044-22.35 22.434s10.006 22.434 22.35 22.434c12.343 0 22.349-10.044 22.349-22.434s-10.006-22.434-22.349-22.434Z" fill="url(#x)" vectornator:blendMode="Color"/><path d="M104.946 254.577c6.44 0 11.661 5.241 11.661 11.705s-5.221 11.705-11.661 11.705c-6.44 0-11.66-5.241-11.66-11.705s5.22-11.705 11.66-11.705Z" fill="url(#y)" vectornator:blendMode="Color"/><path d="M274.026 254.577c6.44 0 11.66 5.241 11.66 11.705s-5.22 11.705-11.66 11.705-11.661-5.241-11.661-11.705 5.221-11.705 11.661-11.705Z" fill="url(#z)" vectornator:blendMode="Color"/><path d="M188.514 292.617c-12.343 0-22.349 10.044-22.349 22.434s10.006 22.434 22.349 22.434c12.344 0 22.35-10.044 22.35-22.434s-10.006-22.434-22.35-22.434Z" fill="url(#A)" vectornator:blendMode="Color"/><path d="M19.434 296.519C8.701 296.519 0 305.253 0 316.027s8.701 19.508 19.434 19.508c10.734 0 19.435-8.734 19.435-19.508s-8.701-19.508-19.435-19.508Z" fill="url(#B)" vectornator:blendMode="Color"/><path d="M358.566 296.519c-10.734 0-19.435 8.734-19.435 19.508s8.701 19.508 19.435 19.508c10.733 0 19.434-8.734 19.434-19.508s-8.701-19.508-19.434-19.508Z" fill="url(#C)" vectornator:blendMode="Color"/><path d="M188.514 303.347c6.44 0 11.661 5.24 11.661 11.704 0 6.465-5.221 11.705-11.661 11.705-6.44 0-11.661-5.24-11.661-11.705 0-6.464 5.221-11.704 11.661-11.704Z" fill="url(#D)" vectornator:blendMode="Color"/><path d="M19.434 307.248c4.83 0 8.746 3.931 8.746 8.779s-3.916 8.778-8.746 8.778-8.745-3.93-8.745-8.778c0-4.848 3.915-8.779 8.745-8.779Z" fill="url(#E)" vectornator:blendMode="Color"/><path d="M358.566 307.248c4.829 0 8.745 3.931 8.745 8.779s-3.916 8.778-8.745 8.778c-4.83 0-8.746-3.93-8.746-8.778 0-4.848 3.916-8.779 8.746-8.779Z" fill="url(#F)" vectornator:blendMode="Color"/><path d="M104.946 345.289c-10.733 0-19.434 8.734-19.434 19.507 0 10.774 8.7 19.508 19.434 19.508 10.733 0 19.434-8.734 19.434-19.508 0-10.773-8.701-19.507-19.434-19.507Z" fill="url(#G)" vectornator:blendMode="Color"/><path d="M274.026 346.264c-10.734 0-19.435 8.734-19.435 19.508s8.701 19.508 19.435 19.508c10.733 0 19.434-8.734 19.434-19.508s-8.701-19.508-19.434-19.508Z" fill="url(#H)" vectornator:blendMode="Color"/><path d="M104.946 356.018c4.83 0 8.746 3.93 8.746 8.778 0 4.849-3.916 8.779-8.746 8.779s-8.745-3.93-8.745-8.779c0-4.848 3.915-8.778 8.745-8.778Z" fill="url(#I)" vectornator:blendMode="Color"/><path d="M274.026 356.993c4.83 0 8.745 3.931 8.745 8.779s-3.915 8.778-8.745 8.778c-4.83 0-8.746-3.93-8.746-8.778 0-4.848 3.916-8.779 8.746-8.779Z" fill="url(#J)" vectornator:blendMode="Color"/><path d="M188.514 396.984c-10.733 0-19.434 8.734-19.434 19.508S177.781 436 188.514 436s19.435-8.734 19.435-19.508-8.702-19.508-19.435-19.508Z" fill="url(#K)" vectornator:blendMode="Color"/><path d="M188.514 407.714c4.83 0 8.746 3.93 8.746 8.778 0 4.848-3.916 8.779-8.746 8.779s-8.745-3.931-8.745-8.779 3.915-8.778 8.745-8.778Z" fill="url(#L)" vectornator:blendMode="Color"/><path d="m110.473 65.168-5.74 9.053 69.964 44.868 5.74-9.053-69.964-44.868Z" fill="url(#M)" vectornator:blendMode="Color"/><path d="M91.767 68.978 27.633 108.97l5.649 9.113 64.133-39.99-5.648-9.115Z" fill="url(#N)" vectornator:blendMode="Color"/><path d="m259.966 71.844-68.992 41.942 5.557 9.174 68.992-41.941-5.557-9.175Z" fill="url(#O)" vectornator:blendMode="Color"/><path d="m351.308 115.736-68.992 41.942 5.557 9.175 68.992-41.942-5.557-9.175Z" fill="url(#P)" vectornator:blendMode="Color"/><path d="m273.57 160.604-68.992 41.942 5.557 9.175 68.992-41.942-5.557-9.175Z" fill="url(#Q)" vectornator:blendMode="Color"/><path d="m110.473 163.683-5.74 9.053 69.964 44.868 5.74-9.053-69.964-44.868Z" fill="url(#R)" vectornator:blendMode="Color"/><path d="m91.767 168.468-64.134 39.991 5.649 9.114 64.133-39.991-5.648-9.114Z" fill="url(#S)" vectornator:blendMode="Color"/><path d="m352.28 215.226-68.993 41.942 5.557 9.175 68.993-41.942-5.557-9.175Z" fill="url(#T)" vectornator:blendMode="Color"/><path d="m177.37 219.128-68.993 41.942 5.557 9.174 68.993-41.941-5.557-9.175Z" fill="url(#U)" vectornator:blendMode="Color"/><path d="m209.588 224.157-5.739 9.053 69.964 44.868 5.739-9.053-69.964-44.868Z" fill="url(#V)" vectornator:blendMode="Color"/><path d="m91.767 266.983-64.134 39.991 5.649 9.114 64.133-39.991-5.648-9.114Z" fill="url(#W)" vectornator:blendMode="Color"/><path d="m182.228 312.765-68.992 41.942 5.557 9.175 68.992-41.942-5.557-9.175Z" fill="url(#X)" vectornator:blendMode="Color"/><path d="m199.871 312.918-5.739 9.053 69.964 44.868 5.739-9.053-69.964-44.868Z" fill="url(#Y)" vectornator:blendMode="Color"/><path d="m345.478 315.692-68.993 41.941 5.557 9.175 68.993-41.942-5.557-9.174Z" fill="url(#Z)" vectornator:blendMode="Color"/></g></svg>