<svg fill="none" height="48" viewBox="0 0 48 48" width="48" xmlns="http://www.w3.org/2000/svg" xmlns:xlink="http://www.w3.org/1999/xlink"><linearGradient id="a" gradientUnits="userSpaceOnUse" x1="0" x2="48" y1="0" y2="48"><stop offset="0" stop-color="#f0f"/><stop offset="1" stop-color="#7344f3"/></linearGradient><clipPath id="b"><rect height="48" rx="24" width="48"/></clipPath><g clip-path="url(#b)"><circle cx="24" cy="24" fill="url(#a)" r="24"/><circle cx="24" cy="24" fill="#101018" r="22"/><path clip-rule="evenodd" d="m24.0024 6.00044c.1327-.00651.2617.05883.3339.17548l11.0679 17.87948c.053.0857.069.1892.0442.2868s-.0881.181-.1755.231l-11.068 6.3334c-.0626.0358-.1329.052-.2025.0486-.0696.0034-.14-.0128-.2026-.0486l-11.0679-6.3334c-.0874-.05-.1508-.1334-.1755-.231-.0248-.0976-.0088-.2011.0442-.2868l11.0679-17.87948c.0722-.11665.2012-.18199.3339-.17548zm11.2351 20.13346c.118.1297.1293.3242.0271.4666l-10.9424 15.2447c-.0747.1041-.1961.1604-.3198.1544-.1237.006-.2451-.0503-.3198-.1544l-10.9425-15.2447c-.1022-.1424-.0909-.3369.0272-.4666.118-.1296.3106-.159.462-.0705l10.7731 6.3 10.773-6.3c.1514-.0885.344-.0591.4621.0705z" fill="#1b1b29" fill-rule="evenodd"/><path d="m23.6129 40.4744-9.2511-12.8885 9.2511 5.41z" fill="#d68fff"/><path d="m24.3919 40.4744v-7.4785l9.2511-5.41z" fill="#f655f6"/><path d="m23.6129 29.9439-9.8782-5.6526 9.8782-4.4234z" fill="#9975ff"/><path d="m24.3918 29.9439v-10.076l9.8783 4.4234z" fill="#f655f6"/><path d="m23.613 19.0542-9.7439 4.3633 9.7439-15.74074z" fill="#d68fff"/><path d="m24.3919 19.0542v-11.37744l9.7439 15.74074z" fill="#ac8fff"/></g></svg>