<svg fill="none" height="48" viewBox="0 0 48 48" width="48" xmlns="http://www.w3.org/2000/svg" xmlns:xlink="http://www.w3.org/1999/xlink"><linearGradient id="a" gradientUnits="userSpaceOnUse" x1="0" x2="48" y1="0" y2="48"><stop offset="0" stop-color="#f0f"/><stop offset="1" stop-color="#7344f3"/></linearGradient><clipPath id="b"><path d="m0 0h48v48h-48z"/></clipPath><g clip-path="url(#b)"><circle cx="24" cy="24" fill="url(#a)" r="24"/><circle cx="24" cy="24" fill="#101018" r="22"/><path d="m31.5683 28.1244c0-4.0663-2.4398-5.4605-7.3194-6.0413-3.4855-.4649-4.1826-1.3942-4.1826-3.021 0-1.6267 1.1619-2.672 3.4855-2.672 2.0912 0 3.2532.697 3.834 2.4398.1162.3485.4648.5808.8133.5808h1.8588c.4648 0 .8133-.3486.8133-.8131v-.1163c-.4648-2.5561-2.5561-4.5311-5.2282-4.7633v-2.7884c0-.4648-.3485-.8134-.9293-.92966h-1.7428c-.4648 0-.8133.34856-.9296.92966v2.6721c-3.4855.4648-5.6927 2.7884-5.6927 5.693 0 3.834 2.3235 5.3442 7.2032 5.9253 3.2532.5808 4.2988 1.2779 4.2988 3.1369s-1.6267 3.1369-3.834 3.1369c-3.0209 0-4.0666-1.2782-4.4151-3.0209-.116-.4645-.4646-.6971-.8131-.6971h-1.9753c-.4645 0-.8131.3486-.8131.8134v.1163c.4646 2.9043 2.3236 4.9956 6.1576 5.5767v2.7884c0 .4645.3485.8131.9293.9293h1.7428c.4648 0 .8133-.3485.9296-.9293v-2.7884c3.4855-.5811 5.809-3.0209 5.809-6.1578z" fill="#f0f"/></g></svg>