<svg fill="none" height="48" viewBox="0 0 48 48" width="48" xmlns="http://www.w3.org/2000/svg" xmlns:xlink="http://www.w3.org/1999/xlink"><clipPath id="a"><path d="m6.5 6.5h35v35h-35z"/></clipPath><rect fill="#000" height="48" rx="24" width="48"/><g clip-path="url(#a)" fill="#fff"><path d="m6.5 26.5154v-.076c.03683-.1063.06579-.2153.08663-.3259.3237-2.8298.64767-5.6591.97188-8.4879.01594-.1741.07724-.341.17781-.484 1.11044-1.4134 2.22949-2.8194 3.35718-4.2181.1038-.1199.2467-.1993.4035-.2242 1.2426-.1484 2.487-.2839 3.7332-.4065.4647-.0399.9156-.178 1.323-.405 1.2675-.712 2.5539-1.3914 3.8275-2.09349.0826-.05371.1785-.08342.2769-.08584.0985-.00241.1957.02257.2809.07216 1.8594.91797 3.7234 1.82367 5.5866 2.73557.12.0593.2355.1277.4559.2454l-1.5198 1.4757c.1079.0289.1763.054.247.0654 1.7356.2766 3.4749.5319 5.2052.8358 1.8769.3275 3.7994.5274 5.481 1.5342 1.2355.7401 2.4316 1.5471 3.6588 2.2994.5798.3549.7986.8739.7599 1.5038-.0631 1.0844-.1436 2.1695-.2629 3.25-.1087.9765-.3557 1.9157-.9879 2.7113-.057.0722-.057.215-.0387.3176.5937 3.3521 1.1894 6.7031 1.7872 10.0532.0866.4924.1276.9931.1892 1.4901h-4.557c.228-.2622.4354-.5448.6839-.7804.209-.1953.2416-.3465.1117-.614-1.2893-2.6499-2.5666-5.3049-3.8321-7.965-.1519-.3131-.3146-.3746-.6405-.3268-1.4377.2113-2.88.3921-4.3207.5836-2.117.2817-4.2343.5633-6.3518.845-.2386.0312-.4058.1087-.5274.3496-1.3333 2.6347-2.6755 5.2692-4.0266 7.9034h-4.6307c.0368-.1307.0854-.2579.1452-.3799.3974-.6618.8077-1.3161 1.2059-1.9757.0933-.1502.1673-.3115.2203-.4802.9965-3.3997 1.9866-6.8012 2.9704-10.2044.0155-.0797.0133-.1619-.0064-.2406-.0197-.0788-.0564-.1523-.1076-.2154-.5532-.5737-1.1246-1.1307-1.7074-1.6717-.0595-.0478-.1281-.0829-.2017-.103-.0736-.0202-.1506-.0249-.2261-.014-1.3868.2865-2.7675.5995-4.1543.886-.2378.0486-.3039.1641-.3328.3746-.1459 1.1687-.304 2.3351-.4461 3.5038-.0136.114 0 .2721.0699.3496.4423.5007.9035.9878 1.3853 1.503l1.6429-1.5767c.1816 1.2294.3503 2.3738.5273 3.5714-.8928.1702-1.7568.3366-2.6231.4962-.0758.0013-.1512-.0121-.2219-.0395-.5159-.1254-1.038-.2325-1.544-.3883-.19712-.0634-.36831-.1889-.48788-.3579-.56763-.8838-1.10335-1.7873-1.65882-2.6794-.44605-.715-.90197-1.4255-1.3579-2.136z"/><path d="m30.2622 38.2936c.2317-.3868.443-.788.7029-1.1542.1985-.2762.2994-.6107.2864-.9506-.0136-1.7706 0-3.5418-.0121-5.3131 0-.2599.076-.4202.2979-.554.4186-.2553.8229-.5319 1.2614-.8214.0843.1277.1519.228.218.3344.7493 1.2606 1.5031 2.5189 2.2379 3.7879.0942.1721.1347.3685.1162.5639-.1474 1.3678-.3161 2.7355-.4779 4.1071z"/><path d="m21.3039 38.2936c.2113-.133.4119-.2895.6368-.3928.2394-.1095.304-.228.2234-.4932-.3039-1.0046-.5884-2.0139-.8533-3.0281-.0481-.1882-.0337-.3869.041-.5661.4103-.8683.8394-1.7275 1.2872-2.5775.0944-.167.2457-.2943.4263-.3587.5654-.1732 1.1452-.3001 1.7774-.4597.0691.3039.1406.5919.1983.8807.4433 2.2188.8845 4.4379 1.3237 6.6573.0155.1121.0242.225.0259.3381z"/></g></svg>