<svg fill="none" height="48" viewBox="0 0 48 48" width="48" xmlns="http://www.w3.org/2000/svg" xmlns:xlink="http://www.w3.org/1999/xlink"><clipPath id="a"><path d="m0 0h48v48h-48z"/></clipPath><g clip-path="url(#a)"><path d="m24 48c13.3001 0 24-10.6999 24-24s-10.6999-24-24-24-24 10.6999-24 24 10.6999 24 24 24z" fill="#2775ca"/><g fill="#fff"><path d="m30.6 27.7999c0-3.4999-2.1-4.6999-6.3-5.1998-3-.4001-3.6-1.2-3.6-2.6002s1.0001-2.2999 3-2.2999c1.8 0 2.8001.6 3.3 2.1.1001.3.4001.4999.7001.4999h1.5998c.4001 0 .7001-.3.7001-.6998v-.1001c-.4001-2.2001-2.2001-3.9-4.5-4.0999v-2.4c0-.4001-.3-.7001-.7999-.8002h-1.5c-.4001 0-.7001.3-.8002.8002v2.2999c-3 .4001-4.8998 2.4-4.8998 4.9001 0 3.3 1.9999 4.5998 6.1999 5.1 2.8001.4999 3.7001 1.0999 3.7001 2.7 0 1.6-1.4002 2.7-3.3 2.7-2.6002 0-3.5002-1.1002-3.8002-2.6002-.0998-.3998-.3998-.6-.6998-.6h-1.7002c-.3998 0-.6998.3-.6998.7001v.1001c.3998 2.4998 1.9999 4.2998 5.2999 4.8v2.4c0 .3998.3.6998.7999.7999h1.5c.4001 0 .7001-.3.8002-.7999v-2.4c3-.5002 4.9999-2.6002 4.9999-5.3002z"/><path d="m18.9 38.2999c-7.8-2.7998-11.80008-11.4998-8.8999-19.2 1.5-4.2 4.8-7.3999 8.8999-8.8999.4001-.1999.6-.49994.6-1.0001v-1.39992c0-.40008-.1999-.70008-.6-.79992-.1001 0-.3 0-.4001.09984-9.4999 3-14.69998 13.1002-11.69998 22.6001 1.8 5.5999 6.10008 9.9 11.69998 11.7.4001.1999.8002 0 .9-.4001.1001-.0998.1001-.1999.1001-.3998v-1.4002c0-.3-.3-.6998-.6-.9zm10.6001-31.2c-.4001-.19992-.8002 0-.9.40008-.1001.10008-.1001.19992-.1001.40008v1.39992c0 .40008.3.79992.6 1.00012 7.8 2.7998 11.8001 11.4998 8.8999 19.2-1.5 4.2-4.8 7.3999-8.8999 8.8999-.4001.1999-.6.4999-.6 1.0001v1.3999c0 .4001.1999.7001.6.7999.1001 0 .3 0 .4001-.0998 9.4999-3 14.7-13.1002 11.7-22.6001-1.8-5.7-6.2002-10.0001-11.7-11.8001z"/></g></g></svg>