<svg fill="none" height="48" viewBox="0 0 48 48" width="48" xmlns="http://www.w3.org/2000/svg"><path d="m24 0c-13.2543 0-24 10.7457-24 24 0 13.2553 10.7457 24 24 24 13.2553 0 24-10.7447 24-24 0-13.2543-10.7447-24-24-24z" fill="#f7f8ef"/><path d="m23.9159 4.71606c-10.6031 0-19.19996 8.59684-19.19996 19.20004 0 10.6042 8.59686 19.2 19.19996 19.2 10.6043 0 19.2-8.5958 19.2-19.2 0-10.6032-8.5957-19.20004-19.2-19.20004z" fill="#011023"/><g fill="#f7f8ef"><path d="m20.5554 28-.1383-.0691 7.6383-15.2756h.1723z"/><path d="m22.734 27.9958-.1372-.0692 7.6351-15.2713h.1723z"/><path d="m21.2819 27.999-.1383-.0692 7.6372-15.2745h.1724z"/><path d="m22.0085 27.9968-.1383-.0691 7.6361-15.2724h.1724z"/><path d="m19.8298 28.0021-.1383-.0691 7.6383-15.2777h.1734z"/><path d="m38.9363 12.6553h.1734l-7.6606 15.3202-.1373-.0691z"/><path d="m16.9246 28.0085-.1383-.0691 7.6414-15.2841h.1734z"/><path d="m18.3766 28.0053-.1372-.0691 7.6393-15.2809h.1734z"/><path d="m17.6511 28.0064-.1383-.0681 7.6404-15.283h.1734z"/><path d="m19.1032 28.0032-.1383-.0681 7.6394-15.2798h.1734z"/><path d="m27.0915 27.9851-.1372-.0691 7.6298-15.2607h.1723z"/><path d="m27.8181 27.9841-.1383-.0692 7.6298-15.2596h.1723z"/><path d="m28.5447 27.9819-.1383-.0691 7.6288-15.2575h.1723z"/><path d="m23.4606 27.9936-.1383-.0691 7.6351-15.2692h.1724z"/><path d="m30.7234 27.9777-.1383-.0692 7.6266-15.2532h.1723z"/><path d="m29.9968 27.9787-.1383-.0691 7.6277-15.2543h.1723z"/><path d="m29.2703 27.9809-.1383-.0692 7.6287-15.2564h.1723z"/><path d="m24.9128 27.9904-.1372-.0691 7.6319-15.266h.1734z"/><path d="m24.1872 27.9926-.1383-.0692 7.633-15.2681h.1734z"/><path d="m26.366 27.9872-.1383-.0691 7.6309-15.2628h.1723z"/><path d="m25.6395 27.9883-.1383-.0681 7.6319-15.2649h.1734z"/><path d="m23.7893 43.2958-15.32024-30.6405h15.32024l7.6595 15.3202z"/></g></svg>