<svg fill="none" height="48" viewBox="0 0 48 48" width="48" xmlns="http://www.w3.org/2000/svg"><rect fill="#282138" height="48" rx="24" width="48"/><g fill="#fcfcfd"><path clip-rule="evenodd" d="m28.0848 20.677c0 2.6556-4.1423 2.3334-5.4564 2.3334v-4.6784c1.3164 0 5.4564-.4166 5.4564 2.345zm1.0816 7.2628c0 2.9019-4.9616 2.5705-6.5426 2.5705v-5.1387c1.581 0 6.5426-.4603 6.5426 2.5797m3.2678-8.3099c-.2647-2.7846-2.6488-3.7051-5.6658-3.995v-3.8178h-2.3174v3.7418c-.6144 0-1.2403 0-1.864.023v-3.7648h-2.3289v3.8408h-4.7245v2.4992s1.7214-.03 1.696 0c.3107-.0342.6225.0537.8694.2453.247.1915.4097.4716.4539.781v10.5192c-.0065.1082-.0342.2141-.0817.3116-.0475.0976-.1138.1847-.195.2566-.0812.0718-.1759.1269-.2785.1621s-.2111.0497-.3193.0429c.0299.0276-1.6961 0-1.6961 0l-.4602 2.7914h4.7061v3.9122h2.3312v-3.8546h1.8617v3.8293h2.3312v-3.8593c3.9375-.2301 6.6737-1.2127 7.0281-4.9063.2785-2.9755-1.1161-4.3011-3.346-4.8326 1.3554-.6904 2.2069-1.9078 2.0044-3.9329" fill-rule="evenodd"/><g fill-opacity=".8"><path d="m11.3499 9.96454c2.363-2.13754 5.2315-3.63784 8.335-4.35936 3.1035-.72153 6.3397-.64049 9.4032.23547l.267.07594c.1335.03913.2646.08055.3958.12427.1887.05984.3774.12427.5615.19101l.1841.06674c.2509.09205.5017.191.7479.29456l.03.01381c1.9629.84392 3.7869 1.97978 5.4103 3.36906l1.0263-1.10921c-.1381-.13808-.2807-.26465-.4211-.39582-3.5535-3.07833-8.0632-4.83146-12.7629-4.96155-.2508 0-.5017 0-.7525 0h-.0529c-1.5243.02111-3.042.20628-4.5266.55231l-.3038.07364-.2531.06673c-1.4794.39665-2.9092.95945-4.262 1.67763-1.4813.79529-2.8299 1.81623-3.9973 3.02618z"/><path d="m10.0497 11.2556-1.12765-.9873c-7.64943 8.0177-6.53562 21.0636 0 27.2816l1.15065-.8998c-3.18122-3.4621-4.94829-7.9915-4.95212-12.6932-.00383-4.7018 1.75584-9.234 4.93142-12.7013z"/><path d="m39.5589 10.7676c-.1772-.1841-.3567-.3659-.5431-.5385l-.9872 1.0816c5.7992 6.5886 7.0235 17.0479.1818 25.1l.9619 1.1622c3.2869-3.6694 5.1371-8.4029 5.2099-13.3286.0727-4.9258-1.637-9.7119-4.8141-13.4767z"/><path d="m36.7583 37.9503c-.6674.4994-1.3302.9573-1.9953 1.3808-2.4134 1.7057-5.1963 2.816-8.1212 3.2402-1.4964.2386-3.0183.2742-4.5243.1058-3.7931-.3678-7.384-1.8835-10.2936-4.3448-.1518-.1104-.3014-.2186-.4602-.3337l-1.0609.9505c3.712 3.6659 8.8001 5.4287 13.8076 5.4264h.3314.053c4.658-.1215 9.1332-1.838 12.6777-4.8626.1611-.1519.3245-.3015.4786-.4603z"/></g><path d="m23.9908 1.61089c4.4289-.00182 8.7589 1.30997 12.4422 3.76941 3.6833 2.45945 6.5544 5.9561 8.2501 10.0475 1.6957 4.0915 2.1398 8.5939 1.2763 12.9378-.8636 4.344-2.9962 8.3342-6.1279 11.4659s-7.1219 5.2643-11.4659 6.1278c-4.3439.8636-8.8463.4195-12.9378-1.2762-4.0914-1.6957-7.58804-4.5668-10.04749-8.2501s-3.77123-8.0133-3.76941-12.4422c.00913-5.9327 2.36994-11.6198 6.56501-15.8149 4.19509-4.19507 9.88219-6.55588 15.81489-6.56501m0-1.61088823c-4.7468.00182094-9.3864 1.41117823-13.3321 4.04983823-3.9458 2.63867-7.0205 6.38816-8.83532 10.77426-1.81482036 4.3861-2.288249 9.2119-1.360418 13.8671.927828 4.6552 3.215248 8.9307 6.572998 12.2859 3.35774 3.3551 7.63504 5.6393 12.29094 6.5635 4.6559.9243 9.4813.4472 13.866-1.371s8.1318-4.8958 10.7675-8.8436c2.6356-3.9478 4.0414-8.5885 4.0396-13.3352-.0012-3.1517-.6232-6.2724-1.8304-9.1837-1.2072-2.9114-2.9761-5.55642-5.2055-7.78417-2.2295-2.22775-4.8759-3.99456-7.7882-5.19956-2.9123-1.204996-6.0334-1.8245773-9.1851-1.82336823z"/></g></svg>