<svg fill="none" height="48" viewBox="0 0 48 48" width="48" xmlns="http://www.w3.org/2000/svg" xmlns:xlink="http://www.w3.org/1999/xlink"><clipPath id="a"><path d="m0 0h48v48h-48z"/></clipPath><g clip-path="url(#a)"><circle cx="24" cy="24" fill="#fff" r="24"/><path clip-rule="evenodd" d="m23.7305 4.00049c.1474-.00723.2907.06536.3709.19498l12.2977 19.86613c.0589.0951.0767.2101.0491.3186-.0275.1085-.0978.2011-.195.2567l-12.2977 7.0371c-.0695.0397-.1477.0577-.2251.054-.0773.0037-.1555-.0143-.225-.054l-12.2977-7.0371c-.0971-.0556-.1675-.1482-.195-.2567s-.0098-.2235.0491-.3186l12.2977-19.86613c.0802-.12962.2235-.20221.371-.19498zm12.4834 22.37051c.1311.1441.1437.3602.0301.5185l-12.1582 16.9385c-.083.1157-.2179.1782-.3553.1715-.1375.0067-.2724-.0558-.3554-.1715l-12.1583-16.9385c-.1136-.1583-.101-.3744.0302-.5185.1311-.144.3452-.1767.5133-.0783l11.9702 7 11.97-7c.1682-.0984.3822-.0657.5134.0783z" fill="#fff" fill-rule="evenodd"/><path d="m23.2977 42.3049-10.2791-14.3205 10.2791 6.0111z" fill="#959190"/><path d="m24.1632 42.3049v-8.3095l10.279-6.011z" fill="#3b3735"/><path d="m23.2977 30.6043-10.9758-6.2806 10.9758-4.9149z" fill="#403c3a"/><path d="m24.1632 30.6043v-11.1955l10.9759 4.9149z" fill="#1f1d19"/><path d="m23.2977 18.5047-10.8265 4.848 10.8265-17.48966z" fill="#959190"/><path d="m24.1632 18.5047v-12.64166l10.8266 17.48966z" fill="#3b3735"/></g></svg>