<svg width="24" height="25" viewBox="0 0 24 25" fill="none" xmlns="http://www.w3.org/2000/svg">
<path d="M24 12.5C24 19.1274 18.6274 24.5 12 24.5C5.37258 24.5 0 19.1274 0 12.5C0 5.87258 5.37258 0.5 12 0.5C18.6274 0.5 24 5.87258 24 12.5Z" fill="black"/>
<path fill-rule="evenodd" clip-rule="evenodd" d="M12 22.25C17.3848 22.25 21.75 17.8848 21.75 12.5C21.75 7.11522 17.3848 2.75 12 2.75C6.61522 2.75 2.25 7.11522 2.25 12.5C2.25 17.8848 6.61522 22.25 12 22.25ZM12 24.5C18.6274 24.5 24 19.1274 24 12.5C24 5.87258 18.6274 0.5 12 0.5C5.37258 0.5 0 5.87258 0 12.5C0 19.1274 5.37258 24.5 12 24.5Z" fill="white"/>
<path fill-rule="evenodd" clip-rule="evenodd" d="M0 12.5C0 11.8787 0.50368 11.375 1.125 11.375H22.875C23.4963 11.375 24 11.8787 24 12.5C24 13.1213 23.4963 13.625 22.875 13.625H1.125C0.50368 13.625 0 13.1213 0 12.5Z" fill="white"/>
<path fill-rule="evenodd" clip-rule="evenodd" d="M12.375 8C9.88972 8 7.875 10.0147 7.875 12.5C7.875 14.9853 9.88972 17 12.375 17H20.6248C20.6248 17 20.625 17 20.625 18.125C20.625 19.25 20.625 19.25 20.6249 19.25H12.375C8.64708 19.25 5.625 16.2279 5.625 12.5C5.625 8.77208 8.64708 5.75 12.375 5.75H20.6247C20.6248 5.75 20.625 5.75 20.625 6.875C20.625 8 20.625 8 20.6249 8H12.375Z" fill="white"/>
</svg>
