<svg fill="none" height="48" viewBox="0 0 48 48" width="48" xmlns="http://www.w3.org/2000/svg"><circle cx="24" cy="24" fill="#e84142" r="24"/><path clip-rule="evenodd" d="m17.2024 33.5508h-4.6559c-.9784 0-1.4617 0-1.7563-.1885-.3183-.2065-.5128-.5484-.5363-.9258-.0177-.3477.2239-.7724.7072-1.6214l11.496-20.2712c.4892-.86082.7367-1.29122 1.049-1.4504.336-.17097.7367-.17097 1.0727 0 .3123.15918.5599.58958 1.049 1.4504l2.3633 4.1271.0121.0211c.5283.9234.7962 1.3917.9132 1.8832.1297.5387.1297 1.1004 0 1.6391-.1178.4952-.3831.9669-.9194 1.9044l-6.0385 10.6786-.0157.0274c-.5318.9311-.8013 1.403-1.1748 1.759-.4067.3892-.8959.672-1.4322.8315-.4892.1355-1.0372.1355-2.1334.1355zm11.7576 0h6.6714c.9842 0 1.4794 0 1.7742-.1943.3182-.2064.5185-.5545.5364-.9315.0169-.3366-.2195-.7447-.6827-1.5443-.016-.0273-.0319-.055-.0482-.0831l-3.3418-5.719-.038-.0644c-.4696-.7944-.7066-1.1956-1.0111-1.3506-.1651-.0843-.3479-.1283-.5333-.1283s-.3682.044-.5333.1283c-.3065.1592-.554.5778-1.0432 1.4209l-3.3298 5.719-.0115.0196c-.4874.8418-.731 1.2625-.7134 1.6076.0235.3774.218.7251.5362.9316.2889.1885.7839.1885 1.7681.1885z" fill="#fff" fill-rule="evenodd"/></svg>