<svg fill="none" height="48" viewBox="0 0 48 48" width="48" xmlns="http://www.w3.org/2000/svg" xmlns:xlink="http://www.w3.org/1999/xlink"><linearGradient id="a" gradientUnits="userSpaceOnUse" x1="24" x2="24" y1="0" y2="48"><stop offset="0" stop-color="#7a929c"/><stop offset="1" stop-color="#c8d3cb"/></linearGradient><clipPath id="b"><path d="m0 0h48v48h-48z"/></clipPath><clipPath id="c"><path d="m13 13h22v22h-22z"/></clipPath><g clip-path="url(#b)"><circle cx="24" cy="24" fill="url(#a)" r="24"/><circle cx="24" cy="24" fill="#fff" r="21"/><g clip-path="url(#c)"><path clip-rule="evenodd" d="m26.3378 33.5287.0001 1.0853h8.5601v-3.0455h-4.2272c2.5433-1.902 4.1773-4.8587 4.1773-8.179 0-5.738-4.8797-10.3895-10.8992-10.3895-6.0194 0-10.8991 4.6515-10.8991 10.3895 0 3.3203 1.634 6.277 4.1774 8.179h-4.2272v3.0455h8.5601v-.0491l-.0001-4.0443c-3.1189-.969-5.3749-3.7844-5.3749-7.1065 0-4.1238 3.476-7.4667 7.7638-7.4667s7.7638 3.3429 7.7638 7.4667c0 3.3221-2.256 6.1375-5.3749 7.1065z" fill="#708b96" fill-rule="evenodd"/></g></g></svg>