<svg fill="none" height="48" viewBox="0 0 48 48" width="48" xmlns="http://www.w3.org/2000/svg" xmlns:xlink="http://www.w3.org/1999/xlink"><linearGradient id="a"><stop offset=".005" stop-color="#142e77"/><stop offset=".518" stop-color="#1f7cb6"/><stop offset="1" stop-color="#3cedfc"/></linearGradient><linearGradient id="b" gradientUnits="userSpaceOnUse" x1="6" x2="28.556" xlink:href="#a" y1="16.223" y2="29.611"/><linearGradient id="c" gradientUnits="userSpaceOnUse" x1="6.231" x2="28.787" xlink:href="#a" y1="15.834" y2="29.222"/><linearGradient id="d" gradientUnits="userSpaceOnUse" x1="21.69" x2="18.288" y1="29.989" y2="28.115"><stop offset="0" stop-color="#0a207a"/><stop offset="1" stop-color="#2865c3" stop-opacity="0"/></linearGradient><linearGradient id="e" gradientUnits="userSpaceOnUse" x1="12.31" x2="18.614" xlink:href="#a" y1="8.784" y2="12.526"/><linearGradient id="f" gradientUnits="userSpaceOnUse" x1="15.312" x2="9.063" xlink:href="#a" y1="8.808" y2="12.517"/><linearGradient id="g" gradientUnits="userSpaceOnUse" x1="12.758" x2="16.75" xlink:href="#a" y1="11.992" y2="14.362"/><linearGradient id="h" gradientUnits="userSpaceOnUse" x1="14.899" x2="10.906" xlink:href="#a" y1="11.981" y2="14.35"/><rect fill="#0e0e34" height="46.5" rx="23.25" width="46.5" x=".75" y=".75"/><path d="m22.8176 26.5501c-.6198.3517-1.1834.7816-1.6828 1.2907-.691.7033-1.2361 1.5351-1.6256 2.4644-.2092.4967-.3613 1.0128-.4607 1.5456-.6901-.0097-1.3926-.1477-2.1083-.4176-.1864-.0695-.3728-.1486-.5609-.2365-.9363-.437-1.7856-1.0313-2.5479-1.7822-.7605-.749-1.3812-1.6335-1.8639-2.6507-.48-1.019-.72-2.1083-.72-3.268v-9.9111l2.576 1.5922 2.62-1.6177v9.9366c0 .4115.1046.8036.3156 1.179.2093.3728.4589.7016.7491.9768.2875.2778.5794.4941.8765.6559.2998.1618.5443.2426.7368.2426z" fill="url(#b)"/><path d="m25.5748 32.3396c-.2638.2664-.3948.5987-.3948.9908 0 .3728.131.6963.3948.9627.2611.2682.5776.4018.9434.4018h10.7358l-5.1978 5.3051h-5.538c-.8915 0-1.7373-.1759-2.5312-.5231-.7983-.3491-1.4929-.8247-2.0872-1.4331-.597-.6058-1.0647-1.3171-1.405-2.1294-.342-.8133-.5134-1.6731-.5134-2.584 0-.9293.1714-1.7997.5134-2.6121.3403-.8132.808-1.5236 1.405-2.1294.5943-.6057 1.288-1.084 2.0872-1.433.7939-.3473 1.6397-.5232 2.5312-.5232h4.7511c.3684 0 .6823-.1327.946-.4017.2612-.2664.3921-.5891.3921-.9628 0-.3921-.1309-.7253-.3921-.9908-.2637-.2682-.5776-.4018-.946-.4018h-12.0897v-5.305h12.0906c.8933 0 1.7373.1758 2.5338.5231.7966.349 1.4903.8273 2.0872 1.4331.5944.6084 1.0621 1.317 1.405 2.1294.3402.8132.5108 1.6827.5108 2.612 0 .91-.1715 1.7707-.5108 2.584-.342.8132-.8106 1.5236-1.405 2.1294-.5969.6084-1.2906 1.084-2.0872 1.4331-.7965.3473-1.6397.5231-2.5338.5231h-4.7512c-.3666 0-.6822.1336-.9442.4018z" fill="url(#c)"/><path d="m22.8176 26.5502c-.6198.3517-1.1834.7816-1.6828 1.2907-.691.7033-1.2361 1.5351-1.6256 2.4644-.2092.4967-.3613 1.0128-.4607 1.5456-.6901-.0097-1.3926-.1477-2.1083-.4176.3025-1.2881 1.0058-3.4421 2.511-4.8831z" fill="url(#d)"/><path d="m16.4567 12.6034-2.6526-1.2598v-3.26096-.08264z" fill="url(#e)"/><path d="m13.8235 8.01947v.08351 3.26002l-2.6235 1.2283z" fill="url(#f)"/><path d="m13.8235 11.2952v2.9145l2.6332-1.6062z" fill="url(#g)"/><path d="m13.8332 11.2831v2.9145l-2.6332-1.6063z" fill="url(#h)"/><rect height="46.5" rx="23.25" stroke="#3afcfd" stroke-width="1.5" width="46.5" x=".75" y=".75"/></svg>