<svg fill="none" height="48" viewBox="0 0 48 48" width="48" xmlns="http://www.w3.org/2000/svg" xmlns:xlink="http://www.w3.org/1999/xlink"><linearGradient id="a" gradientUnits="userSpaceOnUse" x1="0" x2="48" y1="0" y2="48"><stop offset="0" stop-color="#7946c5"/><stop offset="1" stop-color="#4a0da8"/></linearGradient><rect fill="url(#a)" height="48" rx="24" width="48"/><path d="m23.6584 5.76001c-1.7932 0-3.5689.35321-5.2256 1.03946-1.6567.68624-3.162 1.69209-4.43 2.96011s-2.2738 2.77332-2.96 4.43012c-.6862 1.6567-1.0394 3.4324-1.0393 5.2256.0003.8627.0813 1.7235.242 2.5711l1.764-1.2082c3.1012-2.1269 8.132-2.1269 11.2324 0l1.851 1.2677 1.0032.6895c2.7953 1.9152 7.3236 1.9152 10.1162 0l.8231-.5636c.4065-1.9846.3667-4.0347-.1166-6.002s-1.398-3.8026-2.6779-5.3728c-1.2799-1.57033-2.8929-2.83636-4.7223-3.70649s-3.8295-1.32259-5.8553-1.32461z" fill="#f2b705"/><g fill="#53cbc8"><path d="m31.3319 27.6176c-2.0573 0-4.0246-.5582-5.5058-1.5734l-2.8519-1.9545c-1.3653-.9386-3.1988-1.4554-5.1579-1.4554s-3.7932.513-5.1585 1.4554l-1.844 1.2625c-.0867.0603-.1846.1028-.2878.1251-.1033.0223-.2099.0239-.3138.0048-.1039-.019-.203-.0585-.29163-.116-.08859-.0576-.16493-.1321-.22461-.2192-.05969-.0872-.10154-.1853-.12316-.2887s-.02257-.21-.0028-.3138.05987-.2026.11799-.2908.13312-.1641.22067-.2232l1.84304-1.2625c1.6303-1.1186 3.7827-1.7334 6.0638-1.7334s4.4331.6148 6.0635 1.7334l2.8519 1.9545c1.3848.8475 2.9768 1.296 4.6004 1.296 1.6235 0 3.2155-.4485 4.6003-1.296l1.083-.741c.0867-.0613.1848-.1048.2884-.1279.1037-.023.2109-.0253.3154-.0065.1045.0187.2042.0581.2934.1157.0892.0577.166.1325.226.2201s.102.1863.1235.2903.0221.2112.0017.3154c-.0203.1043-.0611.2034-.1201.2917s-.135.164-.2235.2226l-1.083.741c-1.4879 1.0186-3.447 1.5738-5.5045 1.5738z"/><path d="m17.7566 33.3522v-7.7153c-.006-.1623.0009-.3248.0205-.486.024-.2123.1254-.4083.2848-.5506.1593-.1423.3655-.2208.5792-.2207.207.0056.4046.0875.5551.2298.1504.1423.2431.3351.2602.5415.0327.2678.0421.538.0281.8075v15.3825c-.0462.57-.4034.9464-.8845.9362-.481-.0103-.8284-.4011-.8305-.9797v-5.1271z"/><path d="m16.1342 29.4692v3.834c0 .656-.35 1.0904-.8459 1.0748s-.8717-.4575-.874-1.083v-7.6648c0-.6714.391-1.1244.9-1.0984.509.0261.8129.4321.8153 1.103.0071 1.2783.0046 2.5562.0046 3.8344z"/><path d="m21.1154 29.464v-2.6949c0-.6249.3316-1.0285.8254-1.0285s.874.4165.8797 1.0051c.0186 1.8345.0186 3.6681 0 5.5009 0 .6247-.3681.9999-.874.9952-.506-.0048-.8301-.3889-.836-1.0287v-2.7517z"/><path d="m11.0708 30.0245v-2.6955c0-.6245.3318-1.0283.8254-1.0283s.874.4165.8799 1.0051c.0168 1.8345.0168 3.6682 0 5.5009 0 .6247-.3707 1-.874.995-.5033-.0049-.8305-.3889-.836-1.0286v-2.751z"/><path d="m25.3017 27.7307h.0025c.2244.0001.4396.0893.5983.248.1586.1587.2478.374.2478.5984v1.4657c-.0001.2243-.0893.4395-.2479.5982-.1587.1586-.3738.2478-.5982.2478h-.0025c-.2244 0-.4397-.0891-.5984-.2478-.1587-.1586-.2479-.3738-.248-.5982v-1.4657c0-.2245.0892-.4397.2479-.5985.1588-.1587.374-.2479.5985-.2479z"/><path d="m28.6552 29.0141h.0025c.2244.0001.4396.0893.5983.2481.1586.1587.2477.3739.2477.5984v8.2207c0 .1111-.0218.2211-.0644.3237-.0425.1027-.1048.1959-.1834.2745-.0785.0785-.1718.1408-.2745.1833-.1026.0425-.2126.0644-.3237.0644h-.0025c-.1111 0-.2211-.0219-.3237-.0644-.1027-.0425-.1959-.1048-.2745-.1833-.0785-.0786-.1408-.1719-.1833-.2745s-.0644-.2126-.0644-.3237v-8.2207c0-.2245.0891-.4397.2477-.5984.1586-.1588.3738-.248.5982-.2481z"/><path d="m31.9851 29.3327h.0025c.2244 0 .4396.0891.5984.2478.1587.1586.2479.3738.248.5983v6.9868c0 .1112-.022.2212-.0645.3238-.0426.1026-.105.1959-.1836.2744s-.1719.1408-.2745.1833c-.1027.0424-.2127.0643-.3238.0642h-.0025c-.1111.0001-.2211-.0218-.3237-.0642-.1027-.0425-.1959-.1048-.2745-.1833-.0785-.0786-.1408-.1718-.1833-.2744-.0425-.1027-.0644-.2127-.0644-.3238v-6.9866c0-.1111.0218-.2212.0643-.3239.0425-.1026.1048-.1959.1833-.2745.0786-.0786.1719-.1409.2745-.1835.1027-.0425.2127-.0644.3238-.0644z"/><path d="m35.3616 28.5357h.0025c.2244 0 .4396.0891.5983.2478.1586.1587.2478.3739.2478.5983v3.0136c-.0001.2243-.0892.4395-.2479.5982-.1587.1586-.3738.2478-.5982.2478h-.0025c-.1111 0-.2211-.0219-.3237-.0644-.1027-.0425-.1959-.1048-.2745-.1834-.0785-.0786-.1408-.1718-.1833-.2745-.0425-.1026-.0644-.2126-.0644-.3237v-3.0134c0-.1112.0218-.2212.0643-.3239.0425-.1026.1048-.1959.1834-.2745.0785-.0786.1718-.1409.2744-.1835.1027-.0425.2127-.0644.3238-.0644z"/></g></svg>