<svg fill="none" height="48" viewBox="0 0 48 48" width="48" xmlns="http://www.w3.org/2000/svg" xmlns:xlink="http://www.w3.org/1999/xlink"><clipPath id="a"><path d="m0 0h48v48h-48z"/></clipPath><g clip-path="url(#a)"><path clip-rule="evenodd" d="m.100006 24c0-13.1996 10.700394-23.9000244 23.899994-23.9000244s23.9 10.7004244 23.9 23.9000244-10.7004 23.9-23.9 23.9-23.899994-10.7004-23.899994-23.9z" fill="#06fc99" fill-rule="evenodd"/><g fill="#161616"><path d="m30.238 12.6583h2.8355v2.8355h-2.8355z"/><path d="m21.7318 16.0607h-2.8354v4.5367h2.8354z"/><path d="m24.5673 20.0304h-2.8355v4.5367h1.134l1.7013.0001v2.8354h2.8355v-3.9697h1.1343v-1.1341h1.7011v4.5366h2.8355v-5.6707h-1.7013-1.1342-1.7013l.0002 1.1341-2.8355-.0001v.5671h-1.1341z"/><path d="m31.3722 21.1647 2.8354-.0001v-1.1342h-1.1341v-4.5366h-2.8355v5.6709z"/><path d="m34.2076 18.8964h2.8355v1.1341l-2.8355-.0001z"/><path d="m22.8658 24.5671h-2.8354v1.1342h2.8354z"/><path d="m18.8961 26.8356h1.1344l-.0001-1.1343-1.1343.0001v-13.0431h-2.8354v14.1771h-1.7011v1.1342h1.7011v7.3722h2.8354z"/><path d="m11.5242 27.9696h2.8354v1.1342h-2.8354z"/><path d="m27.4027 26.8354h2.8353 2.8355v2.8355 5.6709h-2.8355v-3.9696h-2.8353z"/></g></g></svg>