<svg fill="none" height="48" viewBox="0 0 48 48" width="48" xmlns="http://www.w3.org/2000/svg"><path d="m24 48c13.2548 0 24-10.7452 24-24s-10.7452-24-24-24-24 10.7452-24 24 10.7452 24 24 24z" fill="#ff0420"/><g fill="#fff"><path d="m16.9971 30.3647c-1.2487.0533-2.4809-.3006-3.5111-1.0084-.445-.3399-.8006-.7831-1.0358-1.2913-.2353-.5082-.3432-1.066-.3145-1.6253.0055-.3258.0356-.6508.0901-.9722.1561-.8655.3781-1.9038.6661-3.1149.8163-3.3009 2.9228-4.9514 6.3195-4.9514.8514-.014 1.6967.1453 2.4846.4682.6994.2741 1.3011.7505 1.7284 1.3684.4308.6366.651 1.3924.6295 2.1608-.0062.3198-.0363.6387-.0901.954-.1802 1.0684-.3962 2.1067-.648 3.1149-.4197 1.6444-1.1459 2.8747-2.1785 3.6909-1.0316.8042-2.4117 1.2063-4.1402 1.2063zm.2522-2.5928c.6236.0173 1.232-.194 1.7107-.5941.529-.4798.8889-1.1176 1.0261-1.8185.2762-1.1278.486-2.1121.6295-2.9528.0483-.2552.0724-.5145.072-.7742 0-1.0925-.5701-1.6386-1.7103-1.6383-.6287-.0151-1.2419.1957-1.7284.5941-.5193.4848-.8722 1.1212-1.0084 1.8184-.2161.8042-.4321 1.7885-.648 2.9528-.0489.2491-.073.5024-.072.7562 0 1.1043.5763 1.6564 1.7288 1.6564z"/><path d="m24.8833 30.1849c-.0572.0033-.1144-.0063-.1674-.0281s-.1004-.0552-.1387-.0978c-.0599-.0968-.0793-.2133-.0539-.3242l2.4846-11.7034c.022-.1291.0923-.245.1967-.3242.0965-.0796.2172-.124.3423-.1259h4.7894c1.1275-.0553 2.2453.2335 3.2049.8282.3946.2585.715.6152.9297 1.0352.2147.4199.3163.8886.2947 1.3597-.0017.3152-.038.6292-.1082.9364-.1985 1.2131-.848 2.3064-1.8185 3.061-.9002.6602-2.1365.9903-3.7089.9903h-2.4303l-.8282 3.9431c-.0221.1291-.0924.245-.1967.3242-.0964.0795-.217.1239-.342.1259zm6.3737-6.8782c.4718.0104.9338-.1351 1.3145-.4139.3917-.2876.6615-.7115.7562-1.1882.0335-.1782.0515-.3589.0539-.5402.0103-.1464-.0118-.2933-.0647-.4303-.0529-.1369-.1353-.2605-.2414-.3621-.3004-.2219-.6724-.3245-1.0442-.288h-2.1604l-.6841 3.2227z"/></g></svg>