<svg fill="none" height="48" viewBox="0 0 48 48" width="48" xmlns="http://www.w3.org/2000/svg"><rect fill="#c44536" height="48" rx="24" width="48"/><path d="m22.3091 31.9125c.0378-8.0875.0378-8.0875-.3877-8.1551-1.783-.2832-2.9208-.7092-4.1852-1.567-1.6988-1.1525-2.7535-2.7251-3.1775-4.7374-.2911-1.3818-.1893-2.5795.368-4.3301.5714-1.7946.5883-2.4036.0947-3.39794l-.3765-.75853 1.5122-.54382c1.7173-.61754 1.6882-.62327 2.1333.41985.4397 1.03028.3944 2.57924-.1238 4.23664-.5205 1.6648-.6312 2.4505-.4922 3.4884.2699 2.0117 1.5198 3.3114 3.7293 3.8773 1.1936.3058 4.1981.3026 5.259-.0058 1.0696-.3107 2.1018-.91 2.6299-1.5273 1.1792-1.3784 1.392-3.1546.6647-5.5483-.6608-2.174-.6253-4.04228.096-5.05194.2155-.30168.2155-.30168 1.4213.03921 2.1931.62005 2.0371.49709 1.5918 1.25395-.5178.88008-.5019 1.59528.0813 3.67428.6657 2.3732.6051 3.8405-.2387 5.7848-.5884 1.3555-1.9815 2.796-3.3676 3.4817-1.0856.5373-2.9478 1.1517-3.4902 1.1517-.6307 0-.6949.0807-.5914.7437.0519.3323.0975 3.9691.1015 8.0818l.0072 7.4774h-1.6487-1.6484zm-7.6818 3.9797v-1.5404h2.9785 2.9784v1.5404 1.5404h-2.9784-2.9785zm12.6433 0v-1.5404h2.9784 2.9784v1.5404 1.5404h-2.9784-2.9784zm-12.6433-5.0064v-1.5404h2.9785 2.9784v1.5404 1.5404h-2.9784-2.9785zm12.6433 0v-1.5404h2.9784 2.9784v1.5404 1.5404h-2.9784-2.9784zm-12.6433-5.0064v-1.5404h2.9785 2.9784v1.5404 1.5404h-2.9784-2.9785zm12.6433 0v-1.5404h2.9784 2.9784v1.5404 1.5404h-2.9784-2.9784zm-2.0506-7.0924c-.3443-.7236-.8074-1.8529-1.029-2.5096l-.4028-1.1937-.2072.8087c-.248.9684-1.6512 4.0852-1.8344 4.0746-.0711-.0041-.7156-.3075-1.4324-.674l-1.3032-.6664 1.7288-3.4308 1.7287-3.4307 1.3425-.0032 1.3426-.0031 1.7357 3.4141c.9545 1.8778 1.7181 3.4301 1.6966 3.4498-.0886.0815-2.6176 1.48-2.6761 1.48-.0351 0-.3455-.592-.6898-1.3157z" fill="#fff"/></svg>