<svg fill="none" height="48" viewBox="0 0 48 48" width="48" xmlns="http://www.w3.org/2000/svg" xmlns:xlink="http://www.w3.org/1999/xlink"><linearGradient id="a" gradientUnits="userSpaceOnUse" x1="0" x2="48" y1="0" y2="48"><stop offset=".143" stop-color="#d94f9d"/><stop offset=".856" stop-color="#ffc384"/></linearGradient><g fill="url(#a)"><path d="m41.9985 24.2354c-.0556 4.3388-1.6464 8.3075-4.254 11.3879l-16.8344-16.8344c.4338-.5787.8001-1.192 1.0988-1.8291z"/><path d="m41.7426 20.9498c-.6073-3.5582-2.259-6.7603-4.6284-9.2795l-14.1327.2053c.0437.737.01 1.4777-.101 2.2089z"/><path d="m24 6c3.4966 0 6.7603.99698 9.5224 2.72218l-11.1619.16212c-.3379-.92334-.8097-1.80873-1.4155-2.62612.993-.16975 2.0137-.25818 3.055-.25818z"/><path d="m14.0846 22.8805 6.8653 18.8621c-3.5615-.6078-6.7661-2.262-9.2864-4.6349l.2111-14.1262c.7373.0437 1.4784.0101 2.21-.101z"/><path d="m8.88353 22.3603-.16665 11.1536c-1.72194-2.7603-2.71688-6.0209-2.71688-9.5139 0-1.0413.08842-2.062.25817-3.0549.81716.6056 1.7023 1.0773 2.62536 1.4152z"/><path d="m35.6232 37.7446c-3.0804 2.6076-7.049 4.1983-11.3877 4.2539l-7.2756-19.9895c.637-.2988 1.2502-.665 1.8288-1.0988z"/><path d="m17.729 7.12248c-4.8965 1.82007-8.78651 5.71002-10.60655 10.60662l.07424.0743c2.92891 2.9289 7.67771 2.9289 10.60661 0 2.9289-2.929 2.9289-7.6777 0-10.60665z"/><path clip-rule="evenodd" d="m24 48c13.2548 0 24-10.7452 24-24s-10.7452-24-24-24-24 10.7452-24 24 10.7452 24 24 24zm21-24c0 11.598-9.402 21-21 21s-21-9.402-21-21 9.402-21 21-21 21 9.402 21 21z" fill-rule="evenodd"/></g></svg>