<svg fill="none" height="48" viewBox="0 0 48 48" width="48" xmlns="http://www.w3.org/2000/svg" xmlns:xlink="http://www.w3.org/1999/xlink"><linearGradient id="a" gradientUnits="userSpaceOnUse" x1="4.4" x2="40.4" y1="24" y2="24"><stop offset="0" stop-color="#4ff684"/><stop offset="1" stop-color="#6adeef"/></linearGradient><clipPath id="b"><path d="m4.40002 6h36v36h-36z"/></clipPath><rect fill="#000" height="48" rx="24" width="48"/><g clip-path="url(#b)"><path d="m33.3523 41.0748h-11.7429c-.3222 0-.6248-.1721-.7883-.448-.1636-.276-.1668-.6218-.0098-.901l2.0067-3.5615h-5.5214c-.2731 0-.5267-.1461-.6608-.3815l-2.288-3.7709-2.0902 3.5809c-.1554.2679-.4449.4335-.7556.4335-.0016 0-.0033 0-.0049 0-.3124-.0016-.6035-.1721-.7556-.4415l-6.22961-10.9737c-.1521-.2678-.14883-.6006.00818-.8652l6.22963-10.5386c.1554-.2629.4416-.4269.749-.4285h.0049c.3043 0 .5904.1607.7491.4188l2.0084 3.3051 2.3613-3.9191c.1339-.235.3825-.3813.6529-.3843h5.6687l-2.2714-4.16318c-.126-.23097-.1214-.51117.0122-.73786.1324-.22469.3722-.36418.633-.36814l.0087-.00013h12.1096c.2695 0 .5191.14184.657.37337l6.1937 10.71384c.1504.2614.1504.5845-.0017.8458-.1521.2614-.435.4221-.7376.4221h-4.3962l2.5857 4.3115c.201.3336.1982.7943.0198 1.1406.0028-.0049-.0027.0052 0 0l-2.5319 4.3397h4.2147c.3271 0 .6313.1753.7932.4577.1619.2825.1586.6315-.0082.9107l-6.0873 10.1847c-.1636.2744-.4645.4448-.785.4448zm-10.7894-1.461h10.4721l5.4249-9.0759h-4.0871l-3.0584 5.2384c-.1406.2386-.4023.388-.682.388h-6.1266zm2.7673-4.9121h4.9097l2.4304-4.1655h-4.9948zm-6.7776 0h5.0897l2.9096-5.1622c.1619-.2857.4661-.4643.7964-.4643h6.174l2.4304-4.1654h-11.5303zm-3.3576-4.1395 2.064 3.4431 5.891-9.8243-5.891-9.8243-2.136 3.5631 3.5343 5.8147c.1652.2711.1684.6088.0082.8831zm-9.23406-6.3731 5.54766 9.7723 1.9772-3.3878-3.56695-5.9478c-.16356-.2744-.16356-.6137 0-.888l3.48525-5.8131-1.8939-3.12zm5.40696-.0081 2.9651 4.9429 2.8818-4.9364-2.9455-4.8456zm13.0562-.7306h11.5122l-2.4974-4.1653h-6.1769c-.2744 0-.5278-.1468-.6643-.3848l-2.8573-5.2417h-5.1878zm9.8522-5.6263h4.2032l-5.4527-9.43313h-10.4852l2.0754 3.80833h5.7505c.3303 0 .6395.1753.8079.4561zm-6.5927 0h4.8804l-2.4974-4.1655h-4.6514z" fill="url(#a)"/></g></svg>