<svg fill="none" height="48" viewBox="0 0 48 48" width="48" xmlns="http://www.w3.org/2000/svg"><g clip-rule="evenodd" fill-rule="evenodd"><path d="m8.78886 6.20508-8.7520848 18.38372c-.03330416.0684-.04385805.1457-.03011823.2205.01373983.0748.05105253.1432.10648203.1953l23.637261 22.6502c.0672.0644.1566.1003.2496.1003s.1825-.0359.2496-.1003l23.6373-22.6488c.0554-.0521.0927-.1205.1065-.1953.0137-.0748.0031-.1521-.0302-.2204l-8.752-18.38381c-.0283-.06174-.0737-.11404-.1309-.15065-.0572-.03662-.1237-.05599-.1916-.05581h-29.77459c-.06822-.00085-.13523.01806-.19294.05444s-.10366.08869-.13231.15061z" fill="#50af95"/><path d="m27.0368 26.4767c-.1697.0127-1.0464.0651-3.0022.0651-1.5555 0-2.66-.0467-3.0474-.0651-6.0115-.2644-10.4986-1.3109-10.4986-2.5638 0-1.253 4.4871-2.298 10.4986-2.5667v4.0883c.3931.0283 1.5188.0947 3.0743.0947 1.8667 0 2.8014-.0777 2.9697-.0933v-4.0869c5.9987.2673 10.4759 1.3138 10.4759 2.5639s-4.4757 2.2965-10.4759 2.5624zm0-5.5505v-3.6583h8.3717v-5.5788h-22.793v5.5788h8.3703v3.6569c-6.8034.3125-11.91979 1.6602-11.91979 3.2751 0 1.615 5.11639 2.9612 11.91979 3.2752v11.7232h6.0496v-11.7275c6.7879-.3125 11.8957-1.6587 11.8957-3.2723 0-1.6135-5.1036-2.9598-11.8957-3.2737z" fill="#fff"/></g></svg>