<?xml version="1.0" encoding="UTF-8" standalone="no"?>
<!DOCTYPE svg PUBLIC "-//W3C//DTD SVG 1.1//EN"
 "http://www.w3.org/Graphics/SVG/1.1/DTD/svg11.dtd">
<!-- Generated by graphviz version 5.0.0 (20220707.1540)
 -->
<!-- Title: UmlClassDiagram Pages: 1 -->
<svg width="670pt" height="718pt"
 viewBox="0.00 0.00 669.75 718.40" xmlns="http://www.w3.org/2000/svg" xmlns:xlink="http://www.w3.org/1999/xlink">
<g id="graph0" class="graph" transform="scale(1 1) rotate(0) translate(4 714.4)">
<title>UmlClassDiagram</title>
<polygon fill="white" stroke="transparent" points="-4,4 -4,-714.4 665.75,-714.4 665.75,4 -4,4"/>
<!-- 42 -->
<g id="node1" class="node">
<title>42</title>
<polygon fill="#f2f2f2" stroke="black" points="0,-365.3 0,-423.7 153.25,-423.7 153.25,-365.3 0,-365.3"/>
<text text-anchor="middle" x="76.62" y="-407.1" font-family="Times,serif" font-size="14.00">&lt;&lt;Abstract&gt;&gt;</text>
<text text-anchor="middle" x="76.62" y="-390.3" font-family="Times,serif" font-size="14.00">MultiCallable</text>
<text text-anchor="middle" x="76.62" y="-373.5" font-family="Times,serif" font-size="14.00">flattened/Destination.sol</text>
</g>
<!-- 45 -->
<g id="node2" class="node">
<title>45</title>
<polygon fill="#f2f2f2" stroke="black" points="171,-365.3 171,-423.7 324.25,-423.7 324.25,-365.3 171,-365.3"/>
<text text-anchor="middle" x="247.62" y="-407.1" font-family="Times,serif" font-size="14.00">&lt;&lt;Abstract&gt;&gt;</text>
<text text-anchor="middle" x="247.62" y="-390.3" font-family="Times,serif" font-size="14.00">Versioned</text>
<text text-anchor="middle" x="247.62" y="-373.5" font-family="Times,serif" font-size="14.00">flattened/Destination.sol</text>
</g>
<!-- 48 -->
<g id="node3" class="node">
<title>48</title>
<polygon fill="#f2f2f2" stroke="black" points="335,-651.5 335,-709.9 488.25,-709.9 488.25,-651.5 335,-651.5"/>
<text text-anchor="middle" x="411.62" y="-693.3" font-family="Times,serif" font-size="14.00">&lt;&lt;Abstract&gt;&gt;</text>
<text text-anchor="middle" x="411.62" y="-676.5" font-family="Times,serif" font-size="14.00">Initializable</text>
<text text-anchor="middle" x="411.62" y="-659.7" font-family="Times,serif" font-size="14.00">flattened/Destination.sol</text>
</g>
<!-- 49 -->
<g id="node4" class="node">
<title>49</title>
<polygon fill="#f2f2f2" stroke="black" points="388,-556.1 388,-614.5 541.25,-614.5 541.25,-556.1 388,-556.1"/>
<text text-anchor="middle" x="464.62" y="-597.9" font-family="Times,serif" font-size="14.00">&lt;&lt;Abstract&gt;&gt;</text>
<text text-anchor="middle" x="464.62" y="-581.1" font-family="Times,serif" font-size="14.00">ContextUpgradeable</text>
<text text-anchor="middle" x="464.62" y="-564.3" font-family="Times,serif" font-size="14.00">flattened/Destination.sol</text>
</g>
<!-- 49&#45;&gt;48 -->
<g id="edge1" class="edge">
<title>49&#45;&gt;48</title>
<path fill="none" stroke="black" d="M448.58,-614.58C446.67,-617.93 444.69,-621.43 442.66,-625"/>
<polygon fill="none" stroke="black" points="433.47,-619.92 427.8,-651.2 451.73,-630.29 433.47,-619.92"/>
</g>
<!-- 50 -->
<g id="node5" class="node">
<title>50</title>
<polygon fill="#f2f2f2" stroke="black" points="351,-460.7 351,-519.1 504.25,-519.1 504.25,-460.7 351,-460.7"/>
<text text-anchor="middle" x="427.62" y="-502.5" font-family="Times,serif" font-size="14.00">&lt;&lt;Abstract&gt;&gt;</text>
<text text-anchor="middle" x="427.62" y="-485.7" font-family="Times,serif" font-size="14.00">OwnableUpgradeable</text>
<text text-anchor="middle" x="427.62" y="-468.9" font-family="Times,serif" font-size="14.00">flattened/Destination.sol</text>
</g>
<!-- 50&#45;&gt;48 -->
<g id="edge2" class="edge">
<title>50&#45;&gt;48</title>
<path fill="none" stroke="black" d="M399.95,-519.14C391.4,-529.7 383.06,-542.38 378.62,-555.6 370.22,-580.63 372.45,-589.33 378.62,-615 379.33,-617.93 380.19,-620.88 381.17,-623.81"/>
<polygon fill="none" stroke="black" points="371.59,-628.11 393.43,-651.21 390.76,-619.53 371.59,-628.11"/>
</g>
<!-- 50&#45;&gt;49 -->
<g id="edge3" class="edge">
<title>50&#45;&gt;49</title>
<path fill="none" stroke="black" d="M438.82,-519.18C439.94,-521.99 441.09,-524.9 442.27,-527.87"/>
<polygon fill="none" stroke="black" points="432.52,-531.77 453.33,-555.8 452.04,-524.04 432.52,-531.77"/>
</g>
<!-- 51 -->
<g id="node6" class="node">
<title>51</title>
<polygon fill="#f2f2f2" stroke="black" points="342.65,-365.3 342.65,-423.7 512.6,-423.7 512.6,-365.3 342.65,-365.3"/>
<text text-anchor="middle" x="427.62" y="-407.1" font-family="Times,serif" font-size="14.00">&lt;&lt;Abstract&gt;&gt;</text>
<text text-anchor="middle" x="427.62" y="-390.3" font-family="Times,serif" font-size="14.00">Ownable2StepUpgradeable</text>
<text text-anchor="middle" x="427.62" y="-373.5" font-family="Times,serif" font-size="14.00">flattened/Destination.sol</text>
</g>
<!-- 51&#45;&gt;48 -->
<g id="edge4" class="edge">
<title>51&#45;&gt;48</title>
<path fill="none" stroke="black" d="M374.16,-423.85C361.14,-433.52 348.88,-445.66 341.62,-460.2 314.71,-514.12 343.72,-580.6 372.15,-626.18"/>
<polygon fill="none" stroke="black" points="363.58,-632.25 389.05,-651.25 380.99,-620.51 363.58,-632.25"/>
</g>
<!-- 51&#45;&gt;50 -->
<g id="edge5" class="edge">
<title>51&#45;&gt;50</title>
<path fill="none" stroke="black" d="M427.62,-423.78C427.62,-425.86 427.62,-428 427.62,-430.18"/>
<polygon fill="none" stroke="black" points="417.12,-430.4 427.62,-460.4 438.12,-430.4 417.12,-430.4"/>
</g>
<!-- 52 -->
<g id="node7" class="node">
<title>52</title>
<polygon fill="#f2f2f2" stroke="black" points="174,-269.9 174,-328.3 327.25,-328.3 327.25,-269.9 174,-269.9"/>
<text text-anchor="middle" x="250.62" y="-311.7" font-family="Times,serif" font-size="14.00">&lt;&lt;Abstract&gt;&gt;</text>
<text text-anchor="middle" x="250.62" y="-294.9" font-family="Times,serif" font-size="14.00">MessagingBase</text>
<text text-anchor="middle" x="250.62" y="-278.1" font-family="Times,serif" font-size="14.00">flattened/Destination.sol</text>
</g>
<!-- 52&#45;&gt;42 -->
<g id="edge6" class="edge">
<title>52&#45;&gt;42</title>
<path fill="none" stroke="black" d="M197.94,-328.38C184.72,-335.48 170.23,-343.25 156.02,-350.88"/>
<polygon fill="none" stroke="black" points="150.89,-341.72 129.42,-365.16 160.82,-360.22 150.89,-341.72"/>
</g>
<!-- 52&#45;&gt;45 -->
<g id="edge7" class="edge">
<title>52&#45;&gt;45</title>
<path fill="none" stroke="black" d="M249.71,-328.38C249.65,-330.46 249.58,-332.6 249.51,-334.78"/>
<polygon fill="none" stroke="black" points="239.01,-334.68 248.54,-365 260,-335.35 239.01,-334.68"/>
</g>
<!-- 52&#45;&gt;51 -->
<g id="edge8" class="edge">
<title>52&#45;&gt;51</title>
<path fill="none" stroke="black" d="M304.21,-328.38C317.75,-335.52 332.59,-343.35 347.14,-351.03"/>
<polygon fill="none" stroke="black" points="342.48,-360.44 373.91,-365.16 352.28,-341.87 342.48,-360.44"/>
</g>
<!-- 53 -->
<g id="node8" class="node">
<title>53</title>
<polygon fill="#f2f2f2" stroke="black" points="197,-174.5 197,-232.9 350.25,-232.9 350.25,-174.5 197,-174.5"/>
<text text-anchor="middle" x="273.62" y="-216.3" font-family="Times,serif" font-size="14.00">&lt;&lt;Abstract&gt;&gt;</text>
<text text-anchor="middle" x="273.62" y="-199.5" font-family="Times,serif" font-size="14.00">AgentSecured</text>
<text text-anchor="middle" x="273.62" y="-182.7" font-family="Times,serif" font-size="14.00">flattened/Destination.sol</text>
</g>
<!-- 53&#45;&gt;52 -->
<g id="edge9" class="edge">
<title>53&#45;&gt;52</title>
<path fill="none" stroke="black" d="M266.66,-232.98C266.08,-235.33 265.48,-237.76 264.87,-240.24"/>
<polygon fill="none" stroke="black" points="254.62,-237.96 257.64,-269.6 275.01,-242.98 254.62,-237.96"/>
</g>
<!-- 54 -->
<g id="node9" class="node">
<title>54</title>
<polygon fill="#f2f2f2" stroke="black" points="209,-79.1 209,-137.5 362.25,-137.5 362.25,-79.1 209,-79.1"/>
<text text-anchor="middle" x="285.62" y="-120.9" font-family="Times,serif" font-size="14.00">&lt;&lt;Abstract&gt;&gt;</text>
<text text-anchor="middle" x="285.62" y="-104.1" font-family="Times,serif" font-size="14.00">DestinationEvents</text>
<text text-anchor="middle" x="285.62" y="-87.3" font-family="Times,serif" font-size="14.00">flattened/Destination.sol</text>
</g>
<!-- 70 -->
<g id="node10" class="node">
<title>70</title>
<polygon fill="#f2f2f2" stroke="black" points="380,-174.5 380,-232.9 533.25,-232.9 533.25,-174.5 380,-174.5"/>
<text text-anchor="middle" x="456.62" y="-216.3" font-family="Times,serif" font-size="14.00">&lt;&lt;Abstract&gt;&gt;</text>
<text text-anchor="middle" x="456.62" y="-199.5" font-family="Times,serif" font-size="14.00">ExecutionHubEvents</text>
<text text-anchor="middle" x="456.62" y="-182.7" font-family="Times,serif" font-size="14.00">flattened/Destination.sol</text>
</g>
<!-- 75 -->
<g id="node11" class="node">
<title>75</title>
<polygon fill="#f2f2f2" stroke="black" points="475.5,-269.9 475.5,-328.3 661.75,-328.3 661.75,-269.9 475.5,-269.9"/>
<text text-anchor="middle" x="568.62" y="-311.7" font-family="Times,serif" font-size="14.00">&lt;&lt;Abstract&gt;&gt;</text>
<text text-anchor="middle" x="568.62" y="-294.9" font-family="Times,serif" font-size="14.00">ReentrancyGuardUpgradeable</text>
<text text-anchor="middle" x="568.62" y="-278.1" font-family="Times,serif" font-size="14.00">flattened/Destination.sol</text>
</g>
<!-- 75&#45;&gt;48 -->
<g id="edge10" class="edge">
<title>75&#45;&gt;48</title>
<path fill="none" stroke="black" d="M575.85,-328.34C589.2,-387.38 611.19,-525.73 550.62,-615 541.64,-628.24 529.21,-638.83 515.46,-647.28"/>
<polygon fill="none" stroke="black" points="510.49,-638.03 488.37,-660.85 519.9,-656.8 510.49,-638.03"/>
</g>
<!-- 76 -->
<g id="node12" class="node">
<title>76</title>
<polygon fill="#f2f2f2" stroke="black" points="380,-79.1 380,-137.5 533.25,-137.5 533.25,-79.1 380,-79.1"/>
<text text-anchor="middle" x="456.62" y="-120.9" font-family="Times,serif" font-size="14.00">&lt;&lt;Abstract&gt;&gt;</text>
<text text-anchor="middle" x="456.62" y="-104.1" font-family="Times,serif" font-size="14.00">ExecutionHub</text>
<text text-anchor="middle" x="456.62" y="-87.3" font-family="Times,serif" font-size="14.00">flattened/Destination.sol</text>
</g>
<!-- 76&#45;&gt;53 -->
<g id="edge11" class="edge">
<title>76&#45;&gt;53</title>
<path fill="none" stroke="black" d="M401.22,-137.58C386.95,-144.86 371.29,-152.85 355.97,-160.67"/>
<polygon fill="none" stroke="black" points="351.1,-151.37 329.15,-174.36 360.65,-170.07 351.1,-151.37"/>
</g>
<!-- 76&#45;&gt;70 -->
<g id="edge13" class="edge">
<title>76&#45;&gt;70</title>
<path fill="none" stroke="black" d="M456.62,-137.58C456.62,-139.66 456.62,-141.8 456.62,-143.98"/>
<polygon fill="none" stroke="black" points="446.12,-144.2 456.62,-174.2 467.12,-144.2 446.12,-144.2"/>
</g>
<!-- 76&#45;&gt;75 -->
<g id="edge12" class="edge">
<title>76&#45;&gt;75</title>
<path fill="none" stroke="black" d="M506.83,-137.73C520.3,-147.6 533.6,-159.81 542.62,-174 555.01,-193.48 561.61,-217.83 565.08,-239.79"/>
<polygon fill="none" stroke="black" points="554.67,-241.14 568.28,-269.86 575.55,-238.92 554.67,-241.14"/>
</g>
<!-- 79 -->
<g id="node13" class="node">
<title>79</title>
<polygon fill="#f2f2f2" stroke="black" points="294,-0.5 294,-42.1 447.25,-42.1 447.25,-0.5 294,-0.5"/>
<text text-anchor="middle" x="370.62" y="-25.5" font-family="Times,serif" font-size="14.00">Destination</text>
<text text-anchor="middle" x="370.62" y="-8.7" font-family="Times,serif" font-size="14.00">flattened/Destination.sol</text>
</g>
<!-- 79&#45;&gt;54 -->
<g id="edge15" class="edge">
<title>79&#45;&gt;54</title>
<path fill="none" stroke="black" d="M350.48,-42.44C345.8,-47.13 340.61,-52.32 335.26,-57.66"/>
<polygon fill="none" stroke="black" points="327.77,-50.3 313.98,-78.94 342.62,-65.15 327.77,-50.3"/>
</g>
<!-- 79&#45;&gt;76 -->
<g id="edge14" class="edge">
<title>79&#45;&gt;76</title>
<path fill="none" stroke="black" d="M391,-42.44C395.74,-47.13 400.99,-52.32 406.4,-57.66"/>
<polygon fill="none" stroke="black" points="399.21,-65.32 427.93,-78.94 413.97,-50.38 399.21,-65.32"/>
</g>
</g>
</svg>
