<?xml version="1.0" encoding="utf-8"?>
<!-- Generator: Adobe Illustrator 25.3.0, SVG Export Plug-In . SVG Version: 6.00 Build 0)  -->
<svg version="1.1" id="Layer_1" xmlns="http://www.w3.org/2000/svg" xmlns:xlink="http://www.w3.org/1999/xlink" x="0px" y="0px"
	 viewBox="0 0 700 700" style="enable-background:new 0 0 700 700;" xml:space="preserve">
<style type="text/css">
	.st0{fill:#2ADACC;}
</style>
<g>
	<path class="st0" d="M699.9,342.8C695.9,147.9,533.3-6.5,337.8,0.2C146.9,6.8-4.1,166.6,0.1,357.6c3.1,141.1,89.3,261,210.9,313.7
		c17.3-21.9,31.6-61.3,38.8-83.3c7.2-17.9,14.7-35.4,22.6-52.4c35.6,12.4,83.3,0.6,109.3-27.7l1-1.1l-0.1-0.1
		c-31.6-13.8-75.2-6.7-103.9,15.6c9.8-20.3,20.1-39.9,31-58.8c34.9,14,83.1,4.5,110.4-22.6l1.1-1.1l-0.1-0.1
		c-30.5-15.1-73.4-10.3-103.2,9.7c10.8-18,22.1-35.3,33.8-51.9c36.2,11.3,83.9-2.6,108.8-32.3l1-1.2l-0.1,0
		c-29.5-11.4-68.2-4.7-95.8,14.6c1-1.3,1.9-2.6,2.9-3.9c7-9.2,14.2-18.1,21.6-26.8c42.7-12.1,80.9-55.7,86.9-100.7l0.2-1.8l-0.2,0
		c-44.2,8.8-85.1,52.3-93.3,98.3c-7,8.4-13.9,16.9-20.7,25.7c11-30,9.1-66.4-7-91.5l-0.1-0.1l-1,1.2c-24.4,30.7-28.2,80.8-9.4,114
		c-11.1,15.7-21.8,32-32.1,49c6.5-34-4.4-73.5-28.3-95.8l-0.1-0.1l-0.6,1.4c-15.8,35.5-7.3,84.4,18.7,112
		c-10.3,17.8-20,36.3-29.4,55.4c5.7-35.3-7-76.3-32.3-98.4l-0.1-0.1l-0.6,1.5c-14.4,37.2-3.3,87.6,24.6,114.6
		c-6.1,13.1-11.9,26.4-17.6,40c-1.4-1.4-3.1-2.5-5.1-3.1c-7.3-2.1-17.4-6-28.4-12.6c-7.3-4.4-15.1-8-23.2-10.6
		c-31.6-10.4-26.9-25.6-43.4-56.1c-1.1-2-14.1-15.6-16.9-18.1c-0.7-0.6-9-5.4-13.2-14.4c-3.9-8.2-6.1-15.8-6.9-23.2
		c-1.1-9.9-5.2-16.4-14.8-19.8c-46.5-16.1-25.7-76.3-24-84.4c1.4-6.8-4.6-21.7-6.8-30c-0.2-1-0.5-2.2-0.8-3.7
		c-3.4-16.2,4.2-29.9,9.7-35.5c5.6-5.6,24.8-14.6,28.9-19.9c4-5.2,7.2-11.1,11.3-16.2c5.4-6.7,22-19.9,44.3-31.9
		c13.5-7.2,15.9-26.2,21.1-32c8.8-9.9,22.2-9.9,32.1-18.9c5-4.5,12.3-6.8,16.9-11.5c23-23.6,53.9-33.1,84.4-38.8
		c20.6-3.8,43.5,2.1,64.9,5.7c3.2,0.5,6.2,1.3,9.1,2.2c48.2,1.6,106.3,11.7,127.3,32.1c13.1,12.8,19.5,26.7,22.6,36.3
		c3.5,10.7,8.3,20.9,14.2,30.5l12.9,21c8.2,13.3,10.8,29.3,7.3,44.4c-2,8.6-3.1,17.7-0.5,22.8c4,7.9,16.4,20.7,23.8,28
		c3.6,3.6,7.6,6.7,11.8,9.4c9.9,6.3,28.7,18.3,28.8,19.3c0,1.4,1.6,7.4-6.8,14.6c-8.3,7.2-24,18.7-24,18.7s0.8,5.3,3,9.5
		c2.2,4.2,7.6,10.4,6,16.1c-1.7,5.7-13.2,10.2-9.9,16.5c3.3,6.3,11.5,8.2,9.1,14c-2.4,5.7-13.8,15.5-12.7,19.7
		c1.1,4.2,10.4,43.3-11,50.1c-16.1,5.1-60.5,8-81.3,9.1c-9,0.5-17.1,5.6-21.4,13.5c-3.3,5.9-6.4,14.1-8,24.9
		c-4,27.6-31.4,91.1-31.4,91.1s-0.8,1.6-2.1,4.3c-2.4,5.7-5.8,14.7-5.3,18.3c0.3,2.4,3.5,7,8.2,12.6c3.7,4.5,9.9,6.2,15.4,4.3
		C603.5,633.4,703.1,499,699.9,342.8z"/>
</g>
</svg>