<svg style="fill-rule:nonzero;clip-rule:evenodd;stroke-linecap:round;stroke-linejoin:round" xmlns="http://www.w3.org/2000/svg" xml:space="preserve" xmlns:vectornator="http://vectornator.io" viewBox="0 0 378 436"><g vectornator:layerName="Untitled"><path d="M262 369.5c0-8.008 6.492-14.5 14.5-14.5s14.5 6.492 14.5 14.5-6.492 14.5-14.5 14.5-14.5-6.492-14.5-14.5ZM88 368.5c0-8.008 6.492-14.5 14.5-14.5s14.5 6.492 14.5 14.5-6.492 14.5-14.5 14.5S88 376.508 88 368.5ZM174 421.5c0-8.008 6.492-14.5 14.5-14.5s14.5 6.492 14.5 14.5-6.492 14.5-14.5 14.5-14.5-6.492-14.5-14.5ZM0 318.5c0-8.008 6.492-14.5 14.5-14.5S29 310.492 29 318.5 22.508 333 14.5 333 0 326.508 0 318.5ZM0 217.5c0-8.008 6.492-14.5 14.5-14.5S29 209.492 29 217.5 22.508 232 14.5 232 0 225.508 0 217.5ZM0 116.5c0-8.008 6.492-14.5 14.5-14.5S29 108.492 29 116.5 22.508 131 14.5 131 0 124.508 0 116.5ZM174 14.5C174 6.492 180.492 0 188.5 0S203 6.492 203 14.5 196.508 29 188.5 29 174 22.508 174 14.5ZM85 267.5c0-9.665 7.835-17.5 17.5-17.5s17.5 7.835 17.5 17.5-7.835 17.5-17.5 17.5S85 277.165 85 267.5ZM171 317.5c0-9.665 7.835-17.5 17.5-17.5s17.5 7.835 17.5 17.5-7.835 17.5-17.5 17.5-17.5-7.835-17.5-17.5ZM259 267.5c0-9.665 7.835-17.5 17.5-17.5s17.5 7.835 17.5 17.5-7.835 17.5-17.5 17.5-17.5-7.835-17.5-17.5ZM259 166.5c0-9.665 7.835-17.5 17.5-17.5s17.5 7.835 17.5 17.5-7.835 17.5-17.5 17.5-17.5-7.835-17.5-17.5ZM82 166.5c0-9.665 7.835-17.5 17.5-17.5s17.5 7.835 17.5 17.5-7.835 17.5-17.5 17.5S82 176.165 82 166.5ZM171 116.5c0-9.665 7.835-17.5 17.5-17.5s17.5 7.835 17.5 17.5-7.835 17.5-17.5 17.5-17.5-7.835-17.5-17.5ZM167 217.5c0-12.426 10.074-22.5 22.5-22.5s22.5 10.074 22.5 22.5-10.074 22.5-22.5 22.5-22.5-10.074-22.5-22.5ZM88 67.5c0-8.008 6.492-14.5 14.5-14.5S117 59.492 117 67.5 110.508 82 102.5 82 88 75.508 88 67.5ZM262 68.5c0-8.008 6.492-14.5 14.5-14.5S291 60.492 291 68.5 284.508 83 276.5 83 262 76.508 262 68.5ZM349 116.5c0-8.008 6.492-14.5 14.5-14.5s14.5 6.492 14.5 14.5-6.492 14.5-14.5 14.5-14.5-6.492-14.5-14.5ZM349 217.5c0-8.008 6.492-14.5 14.5-14.5s14.5 6.492 14.5 14.5-6.492 14.5-14.5 14.5-14.5-6.492-14.5-14.5ZM349 318.5c0-8.008 6.492-14.5 14.5-14.5s14.5 6.492 14.5 14.5-6.492 14.5-14.5 14.5-14.5-6.492-14.5-14.5Z" fill="#734ce2"/><path stroke="#734ce2" stroke-width="12" d="m25.834 313.903 66-41M25.834 212.903l66-41M108.892 266.868l71-43M281.892 365.868l71-43M207.892 206.868l71-43M287.892 160.868l71-43M193.892 115.868l71-43M113.892 362.868l71-43M288.892 262.868l71-43M105.23 65.944l72 46M105.23 166.944l72 46M207.23 228.944l72 46M197.23 319.944l72 46M25.834 110.903l66-41" fill="none" stroke-linecap="butt" stroke-linejoin="miter"/></g></svg>