<svg fill="none" height="48" viewBox="0 0 48 48" width="48" xmlns="http://www.w3.org/2000/svg" xmlns:xlink="http://www.w3.org/1999/xlink"><clipPath id="a"><path d="m0 0h48v48h-48z"/></clipPath><g clip-path="url(#a)"><path d="m47.2819 29.8057c-3.2058 12.8573-16.2295 20.682-29.0898 17.4758-12.85484-3.2054-20.6804-16.2285-17.473255-29.0848 3.204325-12.85864 16.228155-20.68391 29.084355-17.478538 12.8593 3.205368 20.6844 16.229938 17.4783 29.087738l.0003-.0002z" fill="#f7931a"/><path d="m34.5841 20.5806c.4777-3.1939-1.9541-4.9107-5.2795-6.056l1.0788-4.3264-2.6339-.65621-1.0502 4.21251c-.6924-.1727-1.4035-.3354-2.1103-.4967l1.0578-4.2403-2.6323-.65623-1.0793 4.32493c-.573-.1304-1.1358-.2593-1.6819-.3952l.0031-.0136-3.6322-.9069-.7007 2.8129s1.9542.4478 1.913.4754c1.0666.2662 1.2594.9722 1.2274 1.5317l-2.9558 11.8523c-.1304.324-.4612.8103-1.2069.6256.0264.0383-1.9144-.4777-1.9144-.4777l-1.3077 3.0147 3.4276.8543c.6377.1599 1.2625.3272 1.8779.4845l-1.0899 4.376 2.6308.6562 1.0794-4.3295c.7187.1951 1.4162.375 2.099.5447l-1.0757 4.3091 2.634.6562 1.0898-4.3678c4.4914.85 7.8685.5073 9.29-3.5547 1.1454-3.2703-.057-5.1567-2.4199-6.3868 1.721-.3969 3.0173-1.5287 3.3629-3.8666zm-6.0178 8.4376c-.814 3.2704-6.3209 1.5025-8.1064 1.0592l1.4464-5.7974c1.7853.4456 7.5105 1.3276 6.66 4.7382zm.8145-8.485c-.7425 2.9748-5.326 1.4635-6.8128 1.0929l1.3113-5.258c1.4869.3706 6.2748 1.0623 5.5015 4.1651z" fill="#fff"/></g></svg>