<svg fill="none" height="48" viewBox="0 0 48 48" width="48" xmlns="http://www.w3.org/2000/svg" xmlns:xlink="http://www.w3.org/1999/xlink"><linearGradient id="a" gradientUnits="userSpaceOnUse" x1="19.079" x2="44.269" y1="1.935" y2="17.758"><stop offset=".339" stop-color="#ff7301"/><stop offset=".948" stop-color="#ffdd01"/></linearGradient><linearGradient id="b" gradientUnits="userSpaceOnUse" x1="31.473" x2="45.754" y1="6.133" y2="17.597"><stop offset="0" stop-color="#ff8101"/><stop offset="1" stop-color="#ffe601"/></linearGradient><linearGradient id="c" gradientUnits="userSpaceOnUse" x1="1.489" x2="-3.523" y1="22.589" y2="37.103"><stop offset="0" stop-color="#ff9100"/><stop offset=".314" stop-color="#d4ff23"/><stop offset=".49" stop-color="#87ff70"/><stop offset=".688" stop-color="#1cffdb"/><stop offset="1" stop-color="#00beff"/></linearGradient><linearGradient id="d" gradientUnits="userSpaceOnUse" x1="23.28" x2="30.782" y1="2.074" y2="5.228"><stop offset="0" stop-color="#ff4e00"/><stop offset="1" stop-color="#ff7300"/></linearGradient><linearGradient id="e" gradientUnits="userSpaceOnUse" x1="19.993" x2="26.495" y1="5.185" y2="6.087"><stop offset="0" stop-color="#fa0f00"/><stop offset="1" stop-color="#ff6e01"/></linearGradient><linearGradient id="f" gradientUnits="userSpaceOnUse" x1="9.269" x2="13.685" y1="6.259" y2="17.991"><stop offset="0" stop-color="#a80000"/><stop offset="1" stop-color="#fa0f01"/></linearGradient><linearGradient id="g" gradientUnits="userSpaceOnUse" x1="33.019" x2="36.08" y1="21.682" y2="33.542"><stop offset="0" stop-color="#ffe600"/><stop offset=".469" stop-color="#7aff7d"/><stop offset=".891" stop-color="#1cffdb"/><stop offset="1" stop-color="#00dcfe"/></linearGradient><linearGradient id="h" gradientUnits="userSpaceOnUse" x1="30.302" x2="29.075" y1="16.955" y2="22.676"><stop offset="0" stop-color="#f1fc06"/><stop offset=".469" stop-color="#7aff7d"/><stop offset="1" stop-color="#1cffdb"/></linearGradient><linearGradient id="i" gradientUnits="userSpaceOnUse" x1="23.943" x2="33.682" y1="11.81" y2="23.162"><stop offset="0" stop-color="#ffc100"/><stop offset="1" stop-color="#f1fc06"/></linearGradient><linearGradient id="j" gradientUnits="userSpaceOnUse" x1="43.446" x2="43.446" y1="16.97" y2="19.933"><stop offset="0" stop-color="#ffd701"/><stop offset="1" stop-color="#ffe601"/></linearGradient><linearGradient id="k" gradientUnits="userSpaceOnUse" x1="9.231" x2="13.455" y1="22.979" y2="43.32"><stop offset="0" stop-color="#ffa300"/><stop offset=".214" stop-color="#deff19"/><stop offset=".464" stop-color="#a4ff53"/><stop offset=".688" stop-color="#36ffc1"/><stop offset=".865" stop-color="#00a0ff"/><stop offset=".974" stop-color="#0064ff"/></linearGradient><linearGradient id="l" gradientUnits="userSpaceOnUse" x1="7.769" x2="23.62" y1="23.48" y2="24.559"><stop offset="0" stop-color="#ff8a01"/><stop offset="1" stop-color="#ffdb00"/></linearGradient><linearGradient id="m" gradientUnits="userSpaceOnUse" x1="15.334" x2="15.145" y1="28.847" y2="20.573"><stop offset="0" stop-color="#dffd18"/><stop offset="1" stop-color="#fdad12"/></linearGradient><linearGradient id="n" gradientUnits="userSpaceOnUse" x1="20.073" x2="14.298" y1="40.445" y2="46.054"><stop offset="0" stop-color="#14f3e6"/><stop offset="1" stop-color="#0040ff"/></linearGradient><linearGradient id="o" gradientUnits="userSpaceOnUse" x1="7.176" x2="13.071" y1="37.923" y2="41.701"><stop offset="0" stop-color="#09d3f3"/><stop offset="1" stop-color="#0001fc" stop-opacity="0"/></linearGradient><linearGradient id="p" gradientUnits="userSpaceOnUse" x1="19.545" x2="23.782" y1="25.095" y2="42.618"><stop offset="0" stop-color="#ff9100"/><stop offset=".314" stop-color="#d4ff23"/><stop offset=".49" stop-color="#87ff70"/><stop offset=".688" stop-color="#1cffdb"/><stop offset="1" stop-color="#00d8ff"/></linearGradient><linearGradient id="q" gradientUnits="userSpaceOnUse" x1="6.827" x2="8.661" y1="22.822" y2="25.973"><stop offset="0" stop-color="#ff4e01"/><stop offset="1" stop-color="#f4bb0c"/></linearGradient><path d="m46.6473 24.3866c-2.7297 7.0509-14.3937 9.1086-26.0527 4.5954-10.98943-4.2531-21.125004-21.62782-7.421-27.3853 4.8657-1.093891 11.0855-.55579 17.3053 1.85179 11.6589 4.512 18.8968 13.88721 16.1684 20.93811z" fill="url(#a)"/><path d="m33.1655 6.1794c-2.683-.49263-2.8598 2.95958-2.4922 4.8884 7.1495 2.8232 9.5431 7.0257 9.72 7.291 3.2665-2.7802 6.5911.3259 6.888 2.6993-.355-7.7027-10.4653-14.2067-14.1158-14.8787z" fill="url(#b)"/><path d="m6.26904 36.917c-1.87453-5.7701-.15411-10.8505.94105-12.6694-.98274-4.5537-2.82568-13.6977-2.88379-13.6409-3.23621 11.3861-.31074 22.4249 1.62442 26.496z" fill="url(#c)"/><path d="m4.04582 11.9746c.27032-2.17512 1.63453-4.79112 2.50232-5.99997l15.49386-4.67873c15.8767 2.63242 12.1731 9.0758.3916 7.96674-3.629-.34106-1.8783 3.03156-1.6648 6.14906.9827 6.6189-.5116 7.3895-2.8181 10.805-.811-1.6661-2.6059-4.8252-5.808-5.04-2.56298-.1705-5.05267 3.0746-5.59456 4.2695-.14274-.1276-.624-2.2888-.89684-3.1768-1.42105-2.9634-2.08926-6.3941-1.60421-10.2948z" fill="url(#d)"/><path d="m5.76643 11.8509c-.44589-1.92888-.18568-3.65309 0-4.2733.44464-1.69263 2.66653-5.28758 7.99827-6.12632 5.3318-.837471 10.1053-.13137 11.8257.79958 1.6346 1.09768.9285 4.43369-2.3949 3.49263-4.8392-1.39705-5.5882.44842-5.1891 2.99369 1.0775 5.62862.4485 9.39792 0 10.57772 0 0-1.4475 3.6429-2.645 2.496-2.0463-2.0464-3.9411-1.6472-6.03791-1.099-1.67621.4396-2.18021-.7478-2.22316-1.397-.25895-1.6838-.88674-5.5339-1.3339-7.464z" fill="url(#e)"/><path d="m10.4565 2.44801c-3.8021 1.81137-2.42779 8.89139-1.24295 12.39159 1.29225-.8084 5.24845-.4863 6.45975.8059-1.8088-10.27202 2.467-14.3836 3.7592-14.30275 0 0-2.1234-.22737-3.6-.10232-1.7709.10105-3.6783.39789-5.376 1.20758z" fill="url(#f)"/><path d="m40.5688 18.2122c-3.0063 3.3524-12.8299 4.7255-17.3646 4.9933.9448 4.5347.0871 11.4391-.4598 14.3242 5.8446-1.8468 18.0076-5.6362 19.896-6.0215 2.3608-.4825 5.2509-4.1912 4.7697-9.5874-.4813-5.3949-4.9137-5.7322-6.8413-3.7086z" fill="url(#g)"/><path d="m20.9141 14.2358c-.7137.3007 1.6232 6.1352 2.3786 9.0531 11.7347-.8779 15.6442-3.7882 15.6922-3.7882-6.5798-5.4518-17.1777-5.6413-18.0708-5.2649z" fill="url(#h)"/><path d="m40.4186 18.4079c-1.7482-6.5773-18.0632-10.14318-19.7368-8.98739-1.0005.68969-.5925 3.35749 0 4.86059 8.0867-.792 15.6707 3.1617 18.2235 5.1853.4017-.0947 1.3643-.8236 1.5133-1.0585z" fill="url(#i)"/><path d="m43.0458 19.7683c-3.4068.648-3.1225-.7806-2.5554-1.5751 1.8063-2.2143 4.8973-.9221 6.2173 0 .1996.2551-.2552.9284-3.6619 1.5751z" fill="url(#j)"/><path d="m13.4549 43.3213c3.951-.3103 6.7655-5.5086 6.2864-11.6108-.4792-6.1021-4.0706-10.7974-8.0216-10.4871-3.95108.3102-6.76558 5.5085-6.2864 11.6107.47918 6.1021 4.07058 10.7974 8.0216 10.4872z" fill="url(#k)"/><path d="m11.5896 26.1991c-2.3874.4421-4.36045-.307-5.04761-.7364.65053-1.3137 2.34948-4.1659 5.56421-4.3857 2.904-.1983 4.7621 2.1461 5.5983 3.9158-1.2164-.0986-3.7263.7642-6.1137 1.2063z" fill="url(#l)"/><path d="m11.5896 26.1991c-2.3874.4421-4.36045-.307-5.04761-.7364.65053-1.3137 2.34948-4.1659 5.56421-4.3857 2.904-.1983 4.7621 2.1461 5.5983 3.9158-1.2164-.0986-3.7263.7642-6.1137 1.2063z" fill="url(#m)" fill-opacity=".5"/><path d="m15.1995 46.5298c4.0888.0909 6.6909-5.275 7.4804-7.9693l-3.8716-.3006c-.3512 1.5663-2.1373 4.5827-5.4935 4.9667-3.5646.408-6.2185-4.0737-7.0446-6.3284-.09258.0907-.20701.156-.33221.1895 1.0901 3.3852 4.14821 9.3297 9.26151 9.4421z" fill="url(#n)"/><path d="m15.1995 46.5298c4.0888.0909 6.6909-5.275 7.4804-7.9693l-3.8716-.3006c-.3512 1.5663-2.1373 4.5827-5.4935 4.9667-3.5646.408-6.2185-4.0737-7.0446-6.3284-.09258.0907-.20701.156-.33221.1895 1.0901 3.3852 4.14821 9.3297 9.26151 9.4421z" fill="url(#o)"/><path d="m20.1726 12.7491c1.8392 5.933-.4736 11.112-2.0059 13.1141 2.4026 5.5882.6619 11.0993.6619 12.6657 0 1.5675 3.3436 1.1494 3.8653 0 1.9288-5.9836 1.8215-16.5904-2.52-25.7811z" fill="url(#p)"/><path d="m7.83159 25.9731-1.22905-.5002c.34105-1.0624 2.03242-4.2203 5.43786-4.3933-1.0774.3095-3.73639 2.8143-4.20755 4.8935z" fill="url(#q)"/><path d="m12.3246 26.0817c-2.55159.6795-4.8417-.0695-5.6678-.528-.69726 1.2669-.97895 2.7158-1.03326 3.2816 3.54315 1.0649 9.96636-1.1936 12.73646-2.4555l-.6443-1.3769c-.7326.0758-2.8395.3992-5.3911 1.0788z" fill="#f4ba0c" opacity=".3"/></svg>