<svg fill="none" height="60" width="60" xmlns="http://www.w3.org/2000/svg"><path d="m15 25h-5v-5h5zm0 10h-5v-5h5zm0-5h-5v-5h5zm0 10h-5v-5h5zm20-25h-5v-5h5zm0 30h-5v5h5zm5-30h-5v-5h5z" fill="#fed955"/><path d="m45 15h-5v-5h5zm-30 0h5v-5h-5zm30 30h5v-5h-5zm-30 0h-5v-5h5zm25-35h-5v-5h5z" fill="#9695f8"/><path d="m40 5h-5v-5h5zm0 55h-5v-5h5z" fill="#5552fd"/><path d="m40 55h-5v-5h5zm-10-45h-5v-5h5z" fill="#9695f8"/><path d="m30 5h-5v-5h5zm0 55h-5v-5h5z" fill="#5552fd"/><path d="m30 55h-5v-5h5zm5-45h-5v-5h5z" fill="#9695f8"/><path d="m35 5h-5v-5h5zm0 55h-5v-5h5z" fill="#5552fd"/><path d="m35 55h-5v-5h5zm-10-45h-5v-5h5z" fill="#9695f8"/><path d="m25 5h-5v-5h5zm0 55h-5v-5h5z" fill="#5552fd"/><path d="m25 55h-5v-5h5zm25-35h-5v-5h5zm-40 0h5v-5h-5zm30 30h5v-5h-5zm-20 0h-5v-5h5zm35-25h-5v-5h5zm-45 0h-5v-5h5z" fill="#9695f8"/><path d="m5 25h-5v-5h5zm5-5h-5v-5h5zm40 0h5v-5h-5zm-5 35h-5v-5h5zm-40-10v-5h5v5zm10-30h-5v-5h5zm30 0h5v-5h-5zm5 35h-5v-5h5zm-40 0v-5h5v5zm10-40h-5v-5h5zm20 0h5v-5h-5zm15 35h-5v-5h5zm-40 10v-5h5v5zm45-30h-5v-5h5z" fill="#5552fd"/><path d="m55 30h-5v-5h5zm-45 0h-5v-5h5z" fill="#9695f8"/><path d="m5 30h-5v-5h5zm55 0h-5v-5h5z" fill="#5552fd"/><path d="m55 35h-5v-5h5zm-45 0h-5v-5h5z" fill="#9695f8"/><path d="m5 35h-5v-5h5zm55 0h-5v-5h5z" fill="#5552fd"/><path d="m55 40h-5v-5h5zm-45 0h-5v-5h5z" fill="#9695f8"/><path d="m5 40h-5v-5h5zm55 0h-5v-5h5z" fill="#5552fd"/><path d="m40 45h-5v5h5zm-5-20h-5v-5h5zm0 10h-5v-5h5zm0 5h-5v-5h5zm0-20h-5v-5h5zm0 20h-5v5h5zm-10-5h-5v-5h5zm0-5h-5v-5h5zm0 10h-5v-5h5zm0-20h-5v-5h5zm0 20h-5v5h5zm15-5h-5v-5h5zm0-5h-5v-5h5zm0 10h-5v-5h5zm0-20h-5v-5h5zm0 20h-5v5h5zm-10-25h-5v-5h5zm0 30h-5v5h5zm-5-30h-5v-5h5zm0 30h-5v5h5zm5-20h-5v-5h5zm0 10h-5v-5h5z" fill="#fed955"/><path d="m25 25h-5v-5h5zm10 5h-5v-5h5zm10-5h-5v-5h5zm0 10h-5v-5h5zm0-5h-5v-5h5zm0 10h-5v-5h5zm0-20h-5v-5h5zm0 20h-5v5h5zm-25-15h-5v-5h5zm0 10h-5v-5h5zm0-5h-5v-5h5zm0 10h-5v-5h5zm0-20h-5v-5h5zm0 20h-5v5h5zm20-15h-5v-5h5zm-10 5h-5v-5h5z" fill="#5552fd"/><path d="m30 40h-5v-5h5zm0-20h-5v-5h5zm0 20h-5v5h5zm20-15h-5v-5h5zm0 10h-5v-5h5zm0-5h-5v-5h5zm0 10h-5v-5h5z" fill="#fed955"/></svg>