<svg fill="none" height="48" viewBox="0 0 48 48" width="48" xmlns="http://www.w3.org/2000/svg" xmlns:xlink="http://www.w3.org/1999/xlink"><linearGradient id="a" gradientUnits="userSpaceOnUse" x1="20.677" x2="20.677" y1="43.691" y2="3.702"><stop offset="0" stop-color="#4fce0d"/><stop offset="1" stop-color="#4fea0d"/></linearGradient><linearGradient id="b"><stop offset="0" stop-color="#4fce0d"/><stop offset="1" stop-color="#4fce0d"/></linearGradient><linearGradient id="c" gradientUnits="userSpaceOnUse" x1="10.949" x2="10.949" xlink:href="#b" y1="43.692" y2="3.702"/><linearGradient id="d" gradientUnits="userSpaceOnUse" x1="275.712" x2="275.712" xlink:href="#b" y1="335.742" y2="-26.965"/><linearGradient id="e" gradientUnits="userSpaceOnUse" x1="794.839" x2="794.839" xlink:href="#b" y1="325.992" y2="-36.715"/><linearGradient id="f" gradientUnits="userSpaceOnUse" x1="155.511" x2="155.511" xlink:href="#b" y1="1198.46" y2="-147.191"/><linearGradient id="g" gradientUnits="userSpaceOnUse" x1="180.152" x2="180.152" xlink:href="#b" y1="743.074" y2="-103.108"/><linearGradient id="h" gradientUnits="userSpaceOnUse" x1="62.514" x2="62.514" xlink:href="#b" y1="748.384" y2="-97.801"/><linearGradient id="i" gradientUnits="userSpaceOnUse" x1="184.529" x2="184.529" xlink:href="#b" y1="1192.26" y2="-146.195"/><linearGradient id="j" gradientUnits="userSpaceOnUse" x1="282.766" x2="282.766" xlink:href="#b" y1="1941.54" y2="-274.297"/><linearGradient id="k" gradientUnits="userSpaceOnUse" x1="540.889" x2="540.889" xlink:href="#b" y1="335.742" y2="-26.965"/><linearGradient id="l" gradientUnits="userSpaceOnUse" x1="155.511" x2="155.511" xlink:href="#b" y1="790.893" y2="-96.476"/><linearGradient id="m" gradientUnits="userSpaceOnUse" x1="1314.42" x2="1314.42" xlink:href="#b" y1="1754.2" y2="-250.884"/><linearGradient id="n" gradientUnits="userSpaceOnUse" x1="52.75" x2="52.75" xlink:href="#b" y1="1339.08" y2="-173.734"/><linearGradient id="o" gradientUnits="userSpaceOnUse" x1="249.588" x2="249.588" xlink:href="#b" y1="1339.08" y2="-173.734"/><linearGradient id="p" gradientUnits="userSpaceOnUse" x1="930.966" x2="930.966" xlink:href="#b" y1="1718.57" y2="-230.937"/><linearGradient id="q" gradientUnits="userSpaceOnUse" x1="460.343" x2="460.343" xlink:href="#b" y1="743.074" y2="-103.108"/><linearGradient id="r" gradientUnits="userSpaceOnUse" x1="578.185" x2="578.185" xlink:href="#b" y1="748.384" y2="-97.801"/><rect fill="#111" height="48" rx="24" width="48"/><path d="m19.6098 33.2668v5.733h2.1347v-7.8672l-2.1276 2.1248z" fill="url(#a)"/><path d="m9.88126 21.4062v8.7557l2.08774 2.0873.047.0471v-13.0244l-2.12769 2.1272z" fill="url(#c)"/><path d="m18.2508 23.2209h2.1817l2.0877-2.0849.047-.0471h-6.4511l2.1276 2.1249z" fill="url(#d)"/><path d="m19.6686 11.3389-2.0877 2.0872-.047.0447h12.94l-2.1254-2.1249-.0094-.007z" fill="url(#e)"/><path d="m25.1088 31.0905h-2.2076v7.9096h2.2076z" fill="url(#f)"/><path d="m20.1645 9h-3.0187l-1.949 1.9486-.007.0071v3.018l4.9277-4.92669z" fill="url(#g)"/><path d="m14.856 14.3076h-3.0187l-1.94899 1.9462-.00705.0095v3.0181l4.92774-4.9268z" fill="url(#h)"/><path d="m26.2656 31.1326v7.8672h2.1323v-5.733l-2.0876-2.0873z" fill="url(#i)"/><path d="m35.9916 19.2719v13.0244l2.1277-2.1249.007-.0095v-8.7557l-2.0876-2.0873z" fill="url(#j)"/><path d="m27.5679 23.2138.007.0071h2.1817l2.0878-2.0849.0469-.0471h-6.4511z" fill="url(#k)"/><path d="m25.1088 21.0889h-2.2076v5.2159h2.2076z" fill="url(#l)"/><path d="m31.7644 14.7635h-15.5214l-3.0633 3.0605-.0071.0094v6.5815l2.0877 2.0873.047.0469v-7.832l1.8197-1.8193h13.7535l1.8196 1.8193v7.832l2.1277-2.1248.007-.0094v-6.5815l-3.061-3.0628z" fill="url(#m)"/><path d="m13.1726 28.8268v4.6258l2.0877 2.0873.047.047v-8.8921l-2.1276 2.1249z" fill="url(#n)"/><path d="m32.7002 26.6948v8.8921l2.1277-2.1248.007-.0095v-4.6258l-2.0877-2.0873z" fill="url(#o)"/><path d="m27.2459 27.3461h-6.4842l-4.3634 4.3626-.0071.0071v4.9549l2.0878 2.0873.0469.047v-6.2054l3.1198-3.1192h4.7162l3.1198 3.1192v6.2054l2.1276-2.1249.0071-.0094v-4.9549l-4.3611-4.3627z" fill="url(#p)"/><path d="m32.8176 13.9737v-3.018l-1.9466-1.94865-.0071-.00705h-3.0187l4.9254 4.9267z" fill="url(#q)"/><path d="m36.1795 14.3147-.0094-.0071h-3.0187l4.9278 4.9267.047.0471v-3.0181z" fill="url(#r)"/></svg>