<svg width="48" height="48" viewBox="0 0 48 48" fill="none" xmlns="http://www.w3.org/2000/svg">
<g clip-path="url(#clip0_1275_22888)">
<path fill-rule="evenodd" clip-rule="evenodd" d="M0.100006 24C0.100006 10.8004 10.8004 0.0999756 24 0.0999756C37.1996 0.0999756 47.9 10.8004 47.9 24C47.9 37.1996 37.1996 47.9 24 47.9C10.8004 47.9 0.100006 37.1996 0.100006 24Z" fill="#06FC99"/>
<path d="M30.238 12.6583H33.0735V15.4938H30.238V12.6583Z" fill="#161616"/>
<path d="M21.7318 16.0607H18.8964V20.5974H21.7318V16.0607Z" fill="#161616"/>
<path d="M24.5673 20.0304H21.7318V24.5671H22.8658L24.5671 24.5672V27.4026H27.4026V23.4329H28.5369V22.2988H30.238V26.8354H33.0735V21.1647H31.3722H30.238H28.5367L28.5369 22.2988L25.7014 22.2987V22.8658H24.5673V20.0304Z" fill="#161616"/>
<path d="M31.3722 21.1647L34.2076 21.1646V20.0304H33.0735V15.4938H30.238V21.1647H31.3722Z" fill="#161616"/>
<path d="M34.2076 18.8964H37.0431V20.0305L34.2076 20.0304L34.2076 18.8964Z" fill="#161616"/>
<path d="M22.8658 24.5671L20.0304 24.5671V25.7013H22.8658L22.8658 24.5671Z" fill="#161616"/>
<path d="M18.8961 26.8356H20.0305L20.0304 25.7013L18.8961 25.7014V12.6583H16.0607V26.8354H14.3596V27.9696H16.0607V35.3418H18.8961V26.8356Z" fill="#161616"/>
<path d="M11.5242 27.9696L14.3596 27.9696L14.3596 29.1038H11.5242V27.9696Z" fill="#161616"/>
<path d="M27.4027 26.8354L30.238 26.8354H33.0735V29.6709V35.3418H30.238V31.3722H27.4027V26.8354Z" fill="#161616"/>
</g>
<defs>
<clipPath id="clip0_1275_22888">
<rect width="48" height="48" fill="white"/>
</clipPath>
</defs>
</svg>
