<svg xmlns="http://www.w3.org/2000/svg" width="42" height="42" fill="none"><g clip-path="url(#a)"><mask id="c" width="42" height="42" x="0" y="0" maskUnits="userSpaceOnUse" style="mask-type:alpha"><circle cx="21" cy="21" r="21" fill="url(#b)"/></mask><g mask="url(#c)"><circle cx="21" cy="21" r="21" fill="#34EDB3"/><circle cx="21" cy="21" r="18.2" fill="#fff"/></g><circle cx="21" cy="21" r="16.1" fill="#06061B"/><circle cx="21" cy="21" r="16.1" fill="#06061B"/><path fill="#fff" d="M20.461 28.266a6.563 6.563 0 0 1-1.974-.462 5.49 5.49 0 0 1-1.596-1.029 4.933 4.933 0 0 1-1.07-1.449 4.236 4.236 0 0 1-.42-1.785h2.582c.028.686.266 1.26.714 1.722.462.448 1.05.707 1.764.777v-4.158l-.987-.147c-1.134-.154-2.037-.581-2.709-1.281-.658-.7-.987-1.589-.987-2.667 0-.56.126-1.085.378-1.575a4.278 4.278 0 0 1 1.03-1.323 5.295 5.295 0 0 1 1.49-.945 6.069 6.069 0 0 1 1.785-.441V11.55h1.533v1.995c.63.084 1.211.252 1.743.504a4.8 4.8 0 0 1 1.386.924c.392.378.7.812.924 1.302.238.49.371 1.015.4 1.575h-2.584a1.98 1.98 0 0 0-.567-1.302 2.57 2.57 0 0 0-1.302-.777v3.843l.714.105a6.077 6.077 0 0 1 1.512.441c.476.21.89.483 1.24.819.363.336.643.742.84 1.218.21.462.314.987.314 1.575a4.11 4.11 0 0 1-1.323 3.066 5.206 5.206 0 0 1-1.47.945 6.366 6.366 0 0 1-1.827.462v2.163h-1.533v-2.142Zm1.533-2.247c.658-.112 1.17-.35 1.533-.714.364-.378.546-.854.546-1.428 0-.532-.175-.924-.525-1.176a2.802 2.802 0 0 0-1.197-.525l-.357-.063v3.906Zm-1.533-10.311a2.964 2.964 0 0 0-1.512.651c-.406.336-.609.791-.609 1.365 0 .49.133.861.4 1.113.28.238.643.392 1.091.462l.63.105v-3.696Z"/></g><defs><linearGradient id="b" x1="21" x2="21" y1="0" y2="61.409" gradientUnits="userSpaceOnUse"><stop stop-color="#08021E"/><stop offset="1" stop-color="#1F0777"/></linearGradient><clipPath id="a"><path fill="#fff" d="M0 0h42v42H0z"/></clipPath></defs></svg>
