<svg width="256" height="256" viewBox="0 0 256 256" fill="none" xmlns="http://www.w3.org/2000/svg">
<path fill-rule="evenodd" clip-rule="evenodd" d="M35.0685 0H220.932C240.299 0 256 15.7007 256 35.0685V220.931C256 240.299 240.299 256 220.932 256H35.0685C15.7007 256 0 240.299 0 220.931V35.0685C0 15.7007 15.7007 0 35.0685 0ZM128.085 33.5763C124.13 33.5763 120.245 34.6163 116.818 36.5919L116.808 36.5981L55.3734 71.6974L55.3507 71.7104C52.4712 73.3756 50.0025 75.6529 48.1142 78.3727C47.7323 78.7155 47.3971 79.1234 47.1262 79.5917C46.8859 80.0072 46.712 80.4429 46.6012 80.8865C44.9537 84.0767 44.0892 87.6192 44.0866 91.2199V91.2235V161.445V161.448C44.0895 165.402 45.1316 169.286 47.1086 172.71C49.0856 176.134 51.9279 178.978 55.3507 180.958L55.3732 180.971L116.808 216.073L116.819 216.08C119.412 217.575 122.269 218.535 125.22 218.913C126.031 219.479 127.018 219.812 128.082 219.812C129.145 219.812 130.131 219.48 130.941 218.914C133.896 218.537 136.756 217.577 139.352 216.08L139.363 216.073L200.787 180.97L200.807 180.959C204.232 178.982 207.077 176.138 209.056 172.714C211.036 169.29 212.08 165.405 212.084 161.45V161.445V91.2235V91.2199C212.082 87.6006 211.208 84.0402 209.544 80.8372C209.433 80.4105 209.263 79.9917 209.032 79.5915C208.769 79.1376 208.446 78.7404 208.078 78.4043C206.187 75.6705 203.711 73.382 200.82 71.7104L200.797 71.6974L139.363 36.5981L139.353 36.5924C135.927 34.6165 132.041 33.5763 128.085 33.5763ZM133.082 208.058C133.519 207.868 133.947 207.653 134.363 207.413L134.382 207.402L195.807 172.299L195.814 172.295C197.717 171.194 199.298 169.613 200.399 167.709C201.501 165.803 202.082 163.641 202.084 161.439V91.2271C202.084 90.6338 202.041 90.0434 201.958 89.4601L133.082 129.306V208.058ZM123.082 129.305L54.2119 89.4668C54.1293 90.0473 54.0871 90.6349 54.0866 91.2253V161.443C54.0885 163.643 54.6686 165.804 55.7688 167.71C56.8673 169.613 58.4459 171.194 60.3467 172.295L60.3567 172.301L121.788 207.402L121.808 207.413C122.221 207.652 122.647 207.866 123.082 208.055V129.305ZM128.082 120.645L196.715 80.9405C196.427 80.7396 196.13 80.5505 195.825 80.3736L195.814 80.3672L134.383 45.2696L134.363 45.2584C132.454 44.1564 130.289 43.5763 128.085 43.5763C125.882 43.5763 123.716 44.1564 121.808 45.2584L121.788 45.2696L60.3567 80.3672L60.3462 80.3733C60.0389 80.5514 59.7401 80.742 59.4504 80.9444L128.082 120.645Z" fill="#001F68"/>
</svg>
