<svg width="256" height="256" viewBox="0 0 256 256" fill="none" xmlns="http://www.w3.org/2000/svg">
<path d="M53.1977 121.677C53.1979 120.246 53.4804 118.828 54.0289 117.507C54.5775 116.185 55.3812 114.985 56.394 113.975C57.4068 112.965 58.6087 112.166 59.9307 111.622C61.2527 111.079 62.6687 110.803 64.0976 110.81L82.1684 110.869C85.0497 110.869 87.813 112.016 89.8504 114.057C91.8878 116.098 93.0325 118.867 93.0325 121.753V190.217C95.0677 189.613 97.6725 188.968 100.539 188.292C102.525 187.824 104.294 186.698 105.561 185.096C106.828 183.493 107.517 181.51 107.518 179.466V94.5476C107.518 91.6606 108.662 88.8919 110.7 86.8503C112.737 84.8088 115.5 83.6616 118.382 83.661H136.508C139.389 83.6616 142.152 84.8088 144.19 86.8503C146.227 88.8919 147.372 91.6606 147.372 94.5476V173.365C147.372 173.365 151.906 171.527 156.321 169.659C157.961 168.964 159.361 167.8 160.345 166.313C161.33 164.826 161.856 163.082 161.857 161.298V67.3354C161.857 64.449 163.001 61.6808 165.038 59.6397C167.075 57.5985 169.838 56.4515 172.719 56.4509H190.826C193.705 56.4537 196.466 57.6017 198.501 59.6427C200.536 61.6836 201.679 64.4505 201.679 67.3354V144.71C217.377 133.312 233.286 119.602 245.911 103.118C247.743 100.725 248.955 97.9156 249.44 94.9394C249.924 91.9632 249.665 88.9132 248.687 86.0615C242.843 69.2163 233.553 53.7789 221.412 40.7371C209.271 27.6954 194.547 17.3365 178.181 10.3233C161.814 3.31011 144.167 -0.202913 126.368 0.0090513C108.569 0.221016 91.0102 4.15329 74.8151 11.5542C58.6199 18.9552 44.1452 29.6618 32.3172 42.989C20.4891 56.3162 11.5682 71.9705 6.12535 88.9501C0.682463 105.93 -1.16254 123.861 0.708388 141.596C2.57932 159.331 8.12498 176.479 16.9905 191.943C18.5351 194.611 20.8075 196.782 23.5408 198.201C26.2741 199.619 29.3547 200.227 32.4208 199.952C35.846 199.65 40.1106 199.223 45.1809 198.627C47.3876 198.376 49.4249 197.32 50.9048 195.661C52.3847 194.001 53.2038 191.855 53.2061 189.63V121.677" fill="#12161C"/>
<path d="M52.8125 231.475C71.8983 245.386 94.4531 253.735 117.982 255.601C141.51 257.466 165.095 252.773 186.126 242.043C207.158 231.312 224.817 214.961 237.149 194.8C249.482 174.638 256.007 151.452 256.002 127.805C256.002 124.847 255.865 121.935 255.669 119.032C208.925 188.879 122.616 221.533 52.8125 231.475Z" fill="#D64F49"/>
</svg>
