<svg fill="none" height="48" viewBox="0 0 48 48" width="48" xmlns="http://www.w3.org/2000/svg" xmlns:xlink="http://www.w3.org/1999/xlink"><linearGradient id="a" gradientUnits="userSpaceOnUse" x1="48" x2="0" y1="0" y2="48"><stop offset="0" stop-color="#95e141"/><stop offset="1" stop-color="#3c9a2c"/></linearGradient><rect fill="url(#a)" height="48" rx="24" width="48"/><path d="m24.0005 9.792c.6192-.00196 1.2266.16944 1.7534.4948.5268.3254.9521.7917 1.2276 1.3462l9.375 18.75c.2544.5082.3746 1.073.3492 1.6408-.0253.5677-.1955 1.1195-.4942 1.603s-.7161.8826-1.2124 1.1593c-.4964.2768-1.0553.422-1.6236.4219h-18.75c-.5682-.0001-1.127-.1454-1.6232-.4222-.4963-.2768-.9135-.6759-1.2121-1.1594s-.4686-1.0352-.4939-1.6029c-.0254-.5677.0949-1.1324.3492-1.6405l9.374-18.75c.2755-.5545.7008-1.0208 1.2276-1.3462.5268-.32536 1.1342-.49676 1.7534-.4948m0-2.292c-1.0445-.0001-2.0683.29059-2.9569.83952-.8885.54894-1.6067 1.33442-2.0741 2.26848l-9.37494 18.75c-.42912.8576-.63185 1.8107-.58892 2.7688.04292.958.33008 1.8892.83418 2.705.50408.8158 1.20838 1.4892 2.04598 1.9562s1.7807.7121 2.7397.712h18.75c.9589-.0001 1.9018-.2453 2.7393-.7124.8375-.467 1.5417-1.1404 2.0456-1.9562.504-.8158.7911-1.7469.834-2.7049.0429-.9579-.1599-1.9109-.589-2.7685l-9.3739-18.75c-.4674-.93406-1.1856-1.71954-2.0741-2.26848-.8886-.54893-1.9125-.83962-2.9569-.83952z" fill="#fff"/></svg>