<svg width="48" height="48" viewBox="0 0 48 48" fill="none" xmlns="http://www.w3.org/2000/svg">
<rect width="48" height="48" rx="24" fill="#111317"/>
<path d="M15.3386 12.9015L23.8303 8L32.322 12.9015L29.2 14.7122L23.8303 11.6215L18.4605 14.7122L15.3386 12.9015ZM32.322 19.0829L29.2 17.2722L23.8303 20.3629L18.4605 17.2722L15.3386 19.0829V22.7044L20.7083 25.7951V31.9765L23.8303 33.7873L26.9523 31.9765V25.7951L32.322 22.7044V19.0829ZM32.322 28.8859V25.2644L29.2 27.0751V30.6965L32.322 28.8859ZM34.5385 30.1659L29.1688 33.2565V36.878L37.6605 31.9765V22.1736L34.5385 23.9844V30.1659ZM31.4167 15.9922L34.5385 17.8029V21.4244L37.6605 19.6137V15.9922L34.5385 14.1815L31.4167 15.9922ZM20.7083 34.5679V38.1893L23.8303 40L26.9523 38.1893V34.5679L23.8303 36.3785L20.7083 34.5679ZM15.3386 28.8859L18.4605 30.6965V27.0751L15.3386 25.2644V28.8859ZM20.7083 15.9922L23.8303 17.8029L26.9523 15.9922L23.8303 14.1815L20.7083 15.9922ZM13.1219 17.8029L16.2439 15.9922L13.1219 14.1815L10 15.9922V19.6137L13.1219 21.4244V17.8029ZM13.1219 23.9844L10 22.1736V31.9765L18.4917 36.878V33.2565L13.1219 30.1659V23.9844Z" fill="#F0B90B"/>
</svg>
