<svg fill="none" height="48" viewBox="0 0 48 48" width="48" xmlns="http://www.w3.org/2000/svg"><path d="m11.0078 7.3522 12.7376-7.3522 12.7376 7.3522-4.683 2.7161-8.0546-4.6361-8.0546 4.6361zm25.4752 9.2722-4.683-2.7161-8.0546 4.6361-8.0546-4.6361-4.683 2.7161v5.4322l8.0547 4.636v9.2722l4.6829 2.7162 4.683-2.7162v-9.2722l8.0546-4.636zm0 14.7044v-5.4322l-4.683 2.716v5.4322zm3.3248 1.92-8.0546 4.636v5.4322l12.7376-7.3522v-14.7044l-4.683 2.7162zm-4.6828-21.2605 4.6828 2.7161v5.4322l4.683-2.7161v-5.4322l-4.683-2.7161zm-16.0625 27.8635v5.4322l4.6829 2.716 4.683-2.716v-5.4322l-4.683 2.716zm-8.0547-8.523 4.683 2.716v-5.4322l-4.683-2.716zm8.0547-19.3405 4.6829 2.7161 4.683-2.7161-4.683-2.7161zm-11.37958 2.7161 4.68298-2.7161-4.68298-2.7161-4.68292 2.7161v5.4322l4.68292 2.7161zm0 9.2722-4.68292-2.7162v14.7044l12.7375 7.3522v-5.4322l-8.05458-4.636z" fill="#f0b90b"/></svg>