<svg width="48" height="48" viewBox="0 0 48 48" fill="none" xmlns="http://www.w3.org/2000/svg">
<rect width="48" height="48" rx="24" fill="black"/>
<path d="M24.5508 20.8081C22.4717 20.8081 20.534 21.4338 18.9192 22.5036L19.3632 25.0974C20.756 23.8863 22.5727 23.1495 24.5609 23.1495C28.9309 23.1495 32.4835 26.7021 32.4835 31.0721C32.4835 35.4422 28.9309 38.9948 24.5609 38.9948C20.1908 38.9948 16.6383 35.4422 16.6383 31.0721C16.6383 30.4868 16.6988 29.9216 16.8199 29.3766L16.1134 25.2488C14.973 26.9039 14.2968 28.9124 14.2968 31.0721C14.2968 36.724 18.899 41.3261 24.5508 41.3261C30.2026 41.3261 34.8048 36.724 34.8048 31.0721C34.8048 25.4203 30.2127 20.8081 24.5508 20.8081Z" fill="#C8FF00"/>
<path d="M18.4549 30.6785C17.8191 30.6785 17.2741 30.2244 17.1631 29.5886L13.5197 8.19242C13.4591 7.84927 13.5399 7.50613 13.7417 7.21345C13.9436 6.92076 14.2463 6.7391 14.5895 6.67854C15.2959 6.55743 15.9721 7.04187 16.0933 7.74835L19.7367 29.1445C19.7972 29.4876 19.7165 29.8308 19.5146 30.1235C19.3128 30.406 19.01 30.5978 18.6669 30.6584C18.6063 30.6785 18.5256 30.6785 18.4549 30.6785Z" fill="#C8FF00"/>
<path d="M25.8628 27.8022C26.632 27.8022 27.2556 27.1786 27.2556 26.4094C27.2556 25.6402 26.632 25.0167 25.8628 25.0167C25.0936 25.0167 24.4701 25.6402 24.4701 26.4094C24.4701 27.1786 25.0936 27.8022 25.8628 27.8022Z" fill="#1CD7D1"/>
<path d="M30.6467 29.5987C30.6467 30.3679 30.0231 30.9914 29.2539 30.9914C28.4847 30.9914 27.8611 30.3679 27.8611 29.5987C27.8611 28.8295 28.4847 28.2059 29.2539 28.2059C30.0231 28.2059 30.6467 28.8295 30.6467 29.5987Z" fill="#1CD7D1"/>
<path d="M26.317 31.0317C26.317 31.8009 25.6934 32.4245 24.9242 32.4245C24.155 32.4245 23.5314 31.8009 23.5314 31.0317C23.5314 30.2625 24.155 29.639 24.9242 29.639C25.6934 29.639 26.317 30.2625 26.317 31.0317Z" fill="#1CD7D1"/>
<path d="M28.3557 35.422C29.1249 35.422 29.7484 34.7985 29.7484 34.0293C29.7484 33.2601 29.1249 32.6365 28.3557 32.6365C27.5865 32.6365 26.9629 33.2601 26.9629 34.0293C26.9629 34.7985 27.5865 35.422 28.3557 35.422Z" fill="#1CD7D1"/>
<path d="M23.9957 37.0469C24.7649 37.0469 25.3885 36.4234 25.3885 35.6541C25.3885 34.8849 24.7649 34.2614 23.9957 34.2614C23.2265 34.2614 22.6029 34.8849 22.6029 35.6541C22.6029 36.4234 23.2265 37.0469 23.9957 37.0469Z" fill="#1CD7D1"/>
<path d="M20.5945 33.8476C21.3637 33.8476 21.9873 33.224 21.9873 32.4548C21.9873 31.6856 21.3637 31.0621 20.5945 31.0621C19.8253 31.0621 19.2018 31.6856 19.2018 32.4548C19.2018 33.224 19.8253 33.8476 20.5945 33.8476Z" fill="#1CD7D1"/>
<path d="M22.8754 28.0343C22.8754 28.8035 22.2519 29.4271 21.4827 29.4271C20.7135 29.4271 20.0899 28.8035 20.0899 28.0343C20.0899 27.2651 20.7135 26.6415 21.4827 26.6415C22.2519 26.6415 22.8754 27.2651 22.8754 28.0343Z" fill="#1CD7D1"/>
</svg>
