<svg fill="none" height="48" viewBox="0 0 48 48" width="48" xmlns="http://www.w3.org/2000/svg"><path d="m24.7344 19.7441c-2.7721 0-5.3558.8343-7.5088 2.2607l.592 3.4584c1.8571-1.6148 4.2793-2.5971 6.9302-2.5971 5.8268 0 10.5635 4.7367 10.5635 10.5635 0 5.8267-4.7367 10.5635-10.5635 10.5635-5.8267 0-10.5635-4.7368-10.5635-10.5635 0-.7805.0808-1.5341.2423-2.2608l-.942-5.5037c-1.5206 2.2069-2.4222 4.8847-2.4222 7.7645 0 7.5357 6.1362 13.672 13.672 13.672 7.5357 0 13.672-6.1363 13.672-13.672 0-7.5358-6.1228-13.6855-13.672-13.6855z" fill="#c8ff00"/><path d="m16.6065 32.9048c-.8477 0-1.5744-.6056-1.7224-1.4534l-4.8579-28.52813c-.08072-.45753.0269-.91506.2961-1.3053.2691-.39025.6728-.632466 1.1303-.713206.942-.16148 1.8436.484436 2.0051 1.426406l4.8578 28.52813c.0808.4576-.0269.9151-.296 1.3053-.2691.3768-.6728.6325-1.1304.7132-.0807.027-.1884.027-.2826.027z" fill="#c8ff00"/><g fill="#1cd7d1"><path d="m26.4838 29.0696c1.0256 0 1.857-.8314 1.857-1.857s-.8314-1.857-1.857-1.857-1.8571.8314-1.8571 1.857.8315 1.857 1.8571 1.857z"/><path d="m32.8622 31.4649c0 1.0256-.8314 1.8571-1.857 1.8571s-1.857-.8315-1.857-1.8571.8314-1.857 1.857-1.857 1.857.8314 1.857 1.857z"/><path d="m27.0893 33.3757c0 1.0256-.8314 1.857-1.857 1.857s-1.8571-.8314-1.8571-1.857.8315-1.857 1.8571-1.857 1.857.8314 1.857 1.857z"/><path d="m29.8076 39.2294c1.0256 0 1.857-.8314 1.857-1.857s-.8314-1.857-1.857-1.857c-1.0257 0-1.8571.8314-1.8571 1.857s.8314 1.857 1.8571 1.857z"/><path d="m23.9943 41.3959c1.0256 0 1.857-.8314 1.857-1.857s-.8314-1.857-1.857-1.857-1.8571.8314-1.8571 1.857.8315 1.857 1.8571 1.857z"/><path d="m19.4593 37.1302c1.0257 0 1.8571-.8314 1.8571-1.857s-.8314-1.8571-1.8571-1.8571c-1.0256 0-1.857.8315-1.857 1.8571s.8314 1.857 1.857 1.857z"/><path d="m22.5006 29.3791c0 1.0256-.8314 1.857-1.857 1.857-1.0257 0-1.8571-.8314-1.8571-1.857s.8314-1.857 1.8571-1.857c1.0256 0 1.857.8314 1.857 1.857z"/></g></svg>