<svg width="48" height="48" viewBox="0 0 48 48" fill="none" xmlns="http://www.w3.org/2000/svg">
<rect width="48" height="48" rx="24" fill="black"/>
<g clip-path="url(#clip0_1275_22501)">
<path d="M31.6638 42.5H16.3362L5.5 31.6638V16.3362L16.3362 5.5H31.6621L42.5 16.3362V31.6621L31.6638 42.5ZM17.2955 40.1875H30.7062L40.1892 30.7045V17.2955L30.7045 7.8125H17.2955L7.8125 17.2955V30.7062L17.2955 40.1875Z" fill="#FFC629"/>
<path d="M34.8705 21.9034V28.5034L29.3873 33.9866L28.0888 30.8502L31.734 27.205V26.2303H29.4387H29.4215V26.2474L26.2457 29.4233H21.7543L18.5785 26.2474V21.7543L21.7543 18.5785H26.2457L29.4215 21.7543V21.7835H29.4507H31.734V20.7968L28.0888 17.1516L29.3873 14.0152L31.1088 15.7367C31.0283 15.9851 30.982 16.2506 30.982 16.5281C30.982 17.9379 32.1246 19.0804 33.5344 19.0804C34.9441 19.0804 36.0867 17.9379 36.0867 16.5281C36.0867 15.1183 34.9441 13.9758 33.5344 13.9758C33.2586 13.9758 32.9931 14.0203 32.743 14.1025L29.4592 10.8188H18.5391L10.817 18.5391V29.4592L18.5391 37.1813H29.4592L37.1813 29.4592V21.9034H34.8705ZM22.0472 31.7341H25.9511L27.2495 34.8705H20.7488L22.0472 31.7341ZM19.9112 30.8485L18.6127 33.9849L14.0151 29.3873L17.1516 28.0889L19.9112 30.8485ZM16.266 22.0473V25.9511L13.1295 27.2495V20.7488L16.266 22.0473ZM17.1499 19.9112L14.0134 18.6128L18.611 14.0152L19.9094 17.1516L17.1499 19.9112ZM20.7488 13.1296H27.2512L25.9528 16.266H22.0472L20.7488 13.1296Z" fill="url(#paint0_radial_1275_22501)"/>
<path fill-rule="evenodd" clip-rule="evenodd" d="M31.1088 15.7367C31.0283 15.9851 30.982 16.2506 30.982 16.5281C30.982 17.9379 32.1246 19.0804 33.5344 19.0804C34.9441 19.0804 36.0867 17.9379 36.0867 16.5281C36.0867 15.1183 34.9441 13.9758 33.5344 13.9758C33.2586 13.9758 32.9931 14.0203 32.743 14.1025L29.4592 10.8188H18.5391L10.817 18.5391V29.4592L18.5391 37.1813H29.4592L37.1813 29.4592V21.9034H34.8705V28.5034L29.3873 33.9866L28.0888 30.8502L31.734 27.205V26.2303H29.4215V26.2474L26.2457 29.4233H21.7543L18.5785 26.2474V21.7543L21.7543 18.5785H26.2457L29.4215 21.7543V21.7835H31.734V20.7968L28.0888 17.1516L29.3873 14.0152L31.1088 15.7367ZM31.3486 20.9564L27.6343 17.2421L29.2518 13.3347L31.5482 15.631L31.4754 15.8555C31.4065 16.0683 31.3675 16.2938 31.3675 16.5281C31.3675 17.725 32.3374 18.695 33.5344 18.695C34.7313 18.695 35.7013 17.725 35.7013 16.5281C35.7013 15.3312 34.7313 14.3612 33.5344 14.3612C33.3004 14.3612 33.0755 14.3989 32.8633 14.4687L32.6381 14.5427L29.2996 11.2042H18.6987L11.2025 18.6988V29.2996L18.6987 36.7959H29.2996L36.7958 29.2996V22.2888H35.2559V28.6631L29.2518 34.6671L27.6343 30.7597L31.3486 27.0453V26.6157H29.5983L26.4053 29.8087H21.5947L18.1931 26.4071V21.5947L21.5947 18.1931H26.4053L29.6103 21.398H31.3486V20.9564ZM21.7896 31.3486H26.2087L27.8262 35.2559H20.1721L21.7896 31.3486ZM20.3658 30.758L18.7482 34.6654L13.3347 29.2519L17.242 27.6343L20.3658 30.758ZM16.6514 21.7897V26.2087L12.7441 27.8262V20.1721L16.6514 21.7897ZM17.2403 20.3658L13.3329 18.7482L18.7464 13.3347L20.364 17.2421L17.2403 20.3658ZM20.1721 12.7442H27.8279L26.2104 16.6514H21.7896L20.1721 12.7442ZM22.0472 31.7341H25.9511L27.2495 34.8705H20.7488L22.0472 31.7341ZM14.0151 29.3873L17.1516 28.0889L19.9112 30.8485L18.6127 33.9849L14.0151 29.3873ZM13.1295 20.7488L16.266 22.0473V25.9511L13.1295 27.2495V20.7488ZM18.611 14.0152L19.9094 17.1516L17.1499 19.9112L14.0134 18.6128L18.611 14.0152ZM27.2512 13.1296L25.9528 16.266H22.0472L20.7488 13.1296H27.2512Z" fill="#7FBC03"/>
</g>
<defs>
<radialGradient id="paint0_radial_1275_22501" cx="0" cy="0" r="1" gradientUnits="userSpaceOnUse" gradientTransform="translate(23.9991 24) rotate(90) scale(13.1812 13.1821)">
<stop offset="0.556468" stop-color="#C2E76B"/>
<stop offset="0.850693" stop-color="#81BD00"/>
</radialGradient>
<clipPath id="clip0_1275_22501">
<rect width="37" height="37" fill="white" transform="translate(5.5 5.5)"/>
</clipPath>
</defs>
</svg>
