<svg fill="none" height="48" viewBox="0 0 48 48" width="48" xmlns="http://www.w3.org/2000/svg" xmlns:xlink="http://www.w3.org/1999/xlink"><radialGradient id="a" cx="0" cy="0" gradientTransform="matrix(0 17.1 -17.1011 0 23.9989 24)" gradientUnits="userSpaceOnUse" r="1"><stop offset=".556" stop-color="#c2e76b"/><stop offset=".851" stop-color="#81bd00"/></radialGradient><clipPath id="b"><path d="m0 0h48v48h-48z"/></clipPath><g clip-path="url(#b)"><path d="m33.9422 48h-19.8844l-14.0578-14.0578v-19.8844l14.0578-14.0578h19.8822l14.06 14.0578v19.8822zm-18.64-3h17.3978l12.3022-12.3022v-17.3956l-12.3044-12.3022h-17.3956l-12.3022 12.3022v17.3978z" fill="#ffc629"/><path d="m38.1022 21.28v8.5622l-7.1133 7.1134-1.6845-4.0689 4.7289-4.7289v-1.2644h-2.9777-.0223v.0222l-4.12 4.12h-5.8266l-4.12-4.12v-5.8289l4.12-4.12h5.8266l4.12 4.12v.0378h.0378 2.9622v-1.28l-4.7289-4.7289 1.6845-4.0689 2.2333 2.2333c-.1044.3222-.1644.6667-.1644 1.0267 0 1.8289 1.4822 3.3111 3.3111 3.3111s3.3111-1.4822 3.3111-3.3111-1.4822-3.3111-3.3111-3.3111c-.3578 0-.7022.0578-1.0267.1644l-4.26-4.25998h-14.1666l-10.01782 10.01558v14.1666l10.01782 10.0178h14.1666l10.0178-10.0178v-9.8022zm-16.6355 12.7534h5.0644l1.6845 4.0688h-8.4334zm-2.7711-1.1489-1.6845 4.0689-5.9644-5.9645 4.0689-1.6844zm-4.7289-11.4178v5.0644l-4.06892 1.6845v-8.4334zm1.1466-2.7711-4.0689-1.6845 5.9645-5.9644 1.6844 4.0689zm4.6689-8.7978h8.4356l-1.6845 4.0689h-5.0666z" fill="url(#a)"/><path clip-rule="evenodd" d="m33.2222 13.28c-.1044.3222-.1644.6667-.1644 1.0267 0 1.8289 1.4822 3.3111 3.3111 3.3111s3.3111-1.4822 3.3111-3.3111-1.4822-3.3111-3.3111-3.3111c-.3578 0-.7022.0578-1.0267.1644l-4.26-4.25998h-14.1666l-10.01782 10.01558v14.1666l10.01782 10.0178h14.1666l10.0178-10.0178v-9.8022h-2.9978v8.5622l-7.1133 7.1134-1.6845-4.0689 4.7289-4.7289v-1.2644h-3v.0222l-4.12 4.12h-5.8266l-4.12-4.12v-5.8289l4.12-4.12h5.8266l4.12 4.12v.0378h3v-1.28l-4.7289-4.7289 1.6845-4.0689zm.3111 6.7716-4.8186-4.8187 2.0985-5.069 2.9791 2.9791-.0944.2912c-.0895.276-.1401.5685-.1401.8725 0 1.5527 1.2583 2.8111 2.8111 2.8111 1.5527 0 2.8111-1.2584 2.8111-2.8111 0-1.5528-1.2584-2.8111-2.8111-2.8111-.3035 0-.5953.0489-.8705.1394l-.2922.0961-4.3311-4.33108h-13.7525l-9.72482 9.72268v13.7524l9.72492 9.7249h13.7524l9.7249-9.7249v-9.0951h-1.9978v8.2694l-7.789 7.789-2.0985-5.0691 4.8186-4.8186v-.5573h-2.2706l-4.1423 4.1422h-6.2408l-4.4129-4.4129v-6.2431l4.4129-4.4129h6.2408l4.1578 4.1578h2.2551zm-12.4008 13.4818h5.7328l2.0984 5.0688h-9.9296zm-1.8472-.7663-2.0985 5.0691-7.0229-7.023 5.069-2.0985zm-4.8186-11.6346v5.7328l-5.06892 2.0984v-9.9296zm.764-1.8472-5.069-2.0985 7.0229-7.0229 2.0985 5.069zm3.8034-9.8875h9.9318l-2.0984 5.0689h-5.735zm2.4326 24.6356h5.0644l1.6845 4.0688h-8.4334zm-10.42-3.0445 4.0689-1.6844 3.58 3.58-1.6845 4.0689zm-1.14892-11.2067 4.06892 1.6845v5.0644l-4.06892 1.6845zm7.11112-8.7355 1.6844 4.0689-3.58 3.58-4.0689-1.6845zm11.2089-1.1489-1.6845 4.0689h-5.0666l-1.6845-4.0689z" fill="#7fbc03" fill-rule="evenodd"/></g></svg>