<svg fill="none" height="48" viewBox="0 0 48 48" width="48" xmlns="http://www.w3.org/2000/svg"><path clip-rule="evenodd" d="m23.9965.00059328c.177-.00868635.3489.07842802.4452.23396872l14.7572 23.839338c.0707.1142.092.2522.059.3823-.033.1302-.1175.2414-.2341.3081l-14.7573 8.4445c-.0834.0477-.1772.0693-.27.0647-.0928.0046-.1866-.017-.2701-.0647l-14.75721-8.4445c-.11655-.0667-.20101-.1779-.23402-.3081-.03301-.1301-.01174-.2681.05894-.3823l14.75719-23.839338c.0963-.1555407.2683-.24265507.4452-.23396872zm14.9801 26.84460672c.1574.1729.1725.4322.0362.6221l-14.5899 20.3263c-.0996.1388-.2614.2139-.4264.2058-.165.0081-.3268-.067-.4264-.2058l-14.58992-20.3263c-.13631-.1899-.12123-.4492.03616-.6221.1574-.1728.41423-.212.61601-.094l14.36415 8.4 14.3641-8.4c.2018-.118.4586-.0788.616.094z" fill="#1616b4" fill-rule="evenodd"/><path d="m23.4772 45.966-12.3349-17.1846 12.3349 7.2133z" fill="#f0cdc2"/><path d="m24.5159 45.9659v-9.9712l12.3348-7.2133z" fill="#c9b3f5"/><path d="m23.4773 31.9252-13.171-7.5368 13.171-5.8978z" fill="#88aaf1"/><path d="m24.5158 31.9252v-13.4346l13.171 5.8978z" fill="#c9b3f5"/><path d="m23.4772 17.4055-12.9918 5.8176 12.9918-20.98757z" fill="#f0cdc2"/><path d="m24.5159 17.4055v-15.16997l12.9918 20.98757z" fill="#b8faf6"/></svg>