<svg fill="none" height="48" viewBox="0 0 48 48" width="48" xmlns="http://www.w3.org/2000/svg"><rect fill="#1969ff" height="48" rx="24" width="48"/><path d="m22.4425 6.34485c.8749-.4598 2.2063-.4598 3.0812 0l8.9283 4.69185c.527.2769.8164.6896.8682 1.1155h.0085v23.5837c-.0116.4647-.3037.9262-.8767 1.2274l-8.9283 4.6918c-.8749.4599-2.2063.4599-3.0812 0l-8.9283-4.6918c-.5706-.2998-.8444-.7647-.858-1.2274-.0013-.0455-.0015-.0835-.0002-.115v-23.3172c-.0009-.0255-.001-.051-.0003-.0764l.0005-.0751h.004c.0397-.4306.316-.8327.854-1.1155zm11.4807 18.96465-8.3995 4.4139c-.8749.4599-2.2063.4599-3.0812 0l-8.3811-4.4041v10.37l8.3811 4.381c.4732.2517.9644.4969 1.4447.5282l.0959.0031c.5005.0016.9864-.2512 1.4791-.4905l8.461-4.4595zm-22.7191 9.9137c0 .9034.1055 1.4974.3151 1.9159.1737.3468.4343.6117.9102.9343l.0272.0183c.1044.07.2194.1434.3595.2295l.1651.1007.5071.3046-.7273 1.1964-.5676-.3412-.0954-.0582c-.1641-.1009-.3001-.1873-.427-.2725-1.3563-.9098-1.86212-1.9015-1.8721-3.9651l-.00015-.0627zm12.0761-16.2349c-.065.0222-.1259.0479-.1814.0771l-8.9283 4.6919c-.0093.0049-.0183.0098-.0268.0146l-.0075.0044.014.0079.0203.011 8.9283 4.6919c.0555.0292.1164.0548.1814.0771zm1.4058 0v9.5759c.065-.0223.1259-.0479.1814-.0771l8.9283-4.6919c.0094-.0049.0183-.0098.0268-.0146l.0076-.0043-.0141-.008-.0203-.011-8.9283-4.6919c-.0555-.0292-.1164-.0549-.1814-.0771zm9.2372-5.1631-8.0091 4.2089 8.0091 4.2089zm-19.8618.0098v8.3982l7.9905-4.1991zm10.806-6.25377c-.4643-.24399-1.3043-.24399-1.7686 0l-8.9283 4.69187c-.0093.0049-.0183.0098-.0268.0146l-.0075.0044.014.0079.0203.011 8.9283 4.6919c.4643.244 1.3043.244 1.7686 0l8.9283-4.6919c.0094-.0049.0183-.0097.0268-.0146l.0076-.0043-.0141-.008-.0203-.011zm10.3753.51451.5676.34107.0954.05828c.1641.10079.3001.18738.427.27249 1.3563.90976 1.8621 1.90162 1.872 3.96502l.0002.0628h-1.4053c0-.9036-.1055-1.4974-.3151-1.9159-.1737-.3467-.4343-.6118-.9102-.93425l-.0272-.0183c-.1044-.07006-.2194-.14344-.3595-.2297l-.1651-.10063-.5072-.30448z" fill="#fff"/></svg>