<?xml version="1.0" encoding="UTF-8"?>
<svg xmlns:xodm="http://www.corel.com/coreldraw/odm/2003" xmlns="http://www.w3.org/2000/svg" xmlns:xlink="http://www.w3.org/1999/xlink" version="1.1" id="Layer_1" x="0px" y="0px" viewBox="0 0 2500 2500" style="enable-background:new 0 0 2500 2500;" xml:space="preserve">
<style type="text/css">
	.st0{fill-rule:evenodd;clip-rule:evenodd;fill:url(#SVGID_1_);}
</style>
<g id="Layer_x0020_1">
	
		<linearGradient id="SVGID_1_" gradientUnits="userSpaceOnUse" x1="686.1416" y1="130.1848" x2="1928.1416" y2="2300.1848" gradientTransform="matrix(1 0 0 -1 0 2497.8899)">
		<stop offset="0" style="stop-color:#850000"></stop>
		<stop offset="0.251" style="stop-color:#C70158"></stop>
		<stop offset="0.4824" style="stop-color:#DE1E41"></stop>
		<stop offset="0.6392" style="stop-color:#F63B2A"></stop>
		<stop offset="1" style="stop-color:#FF8700"></stop>
	</linearGradient>
	<path class="st0" d="M2042,2206l-789-798l-800,804c159,106,408,287,792,289s692-189,796-294L2042,2206z M2206,450l-800,798   c268,267,532,537,797,806c415-530,377-1076,3-1605V450z M290,2042L983,197L11,1175C-39,1460,109,1822,290,2042z M655,1679   c50-13,1152-1145,1389-1380C1921,135,1499-7,1288,0L655,1679z"></path>
</g>
</svg>
