<svg width="48" height="48" viewBox="0 0 48 48" fill="none" xmlns="http://www.w3.org/2000/svg">
<rect width="48" height="48" rx="24" fill="#313042"/>
<path d="M40.9973 23.9874C40.9314 20.9368 40.0456 17.9602 38.433 15.3699C36.8204 12.7796 34.5403 10.671 31.832 9.2654C29.1238 7.85981 26.0871 7.20903 23.0407 7.38131C19.9943 7.5536 17.0504 8.54262 14.5179 10.2446C11.9853 11.9466 9.95757 14.2988 8.64728 17.0544C7.33699 19.8101 6.7925 22.8675 7.07093 25.9061C7.34936 28.9447 8.44044 31.8523 10.2297 34.3239C12.019 36.7955 14.4405 38.7401 17.2401 39.9534C18.067 38.7105 18.7 37.349 19.1171 35.9156C19.458 35.0484 19.8282 34.1955 20.2118 33.3703C21.1374 33.6476 22.121 33.6683 23.0574 33.4303C23.9939 33.1923 24.8482 32.7044 25.5291 32.0189L25.5861 31.9618C24.7499 31.6508 23.8485 31.5566 22.9661 31.6879C22.0836 31.8192 21.2487 32.1717 20.5392 32.7126C21.0084 31.7313 21.5205 30.7793 22.0461 29.855C22.9547 30.1764 23.9337 30.2443 24.878 30.0515C25.8223 29.8586 26.6963 29.4123 27.4061 28.7603L27.4632 28.7033C26.6553 28.3615 25.7753 28.2255 24.902 28.3074C24.0286 28.3893 23.1892 28.6865 22.459 29.1725C22.9846 28.3053 23.5252 27.4524 24.0943 26.6558C25.0346 26.9028 26.0246 26.8876 26.9569 26.6119C27.8892 26.3362 28.7282 25.8105 29.383 25.0919L29.4258 25.0348C28.6492 24.7816 27.8241 24.714 27.0167 24.8375C26.2093 24.961 25.4421 25.2721 24.7768 25.7458C24.8196 25.6888 24.8766 25.6182 24.9187 25.5611C25.2595 25.1204 25.6154 24.6797 25.9698 24.2532C27.0519 23.8991 28.0169 23.2566 28.7609 22.3948C29.505 21.533 29.9999 20.4846 30.1924 19.3624L30.2066 19.2768H30.1924C29.0656 19.5699 28.0435 20.1727 27.2419 21.0169C26.4402 21.8612 25.8911 22.9131 25.6567 24.0535C25.3159 24.4657 24.9742 24.8794 24.6476 25.3044C24.9234 24.5835 25.0358 23.8105 24.9769 23.041C24.9179 22.2715 24.6891 21.5247 24.3068 20.8543V20.8543L24.264 20.9114C23.6839 21.7036 23.3344 22.6409 23.2541 23.6195C23.1738 24.5981 23.3658 25.5799 23.809 26.4561C23.2684 27.2242 22.7428 28.0058 22.245 28.8302C22.4054 28.0014 22.3637 27.1463 22.1236 26.3371C21.8836 25.5278 21.4521 24.7883 20.8658 24.1811L20.8373 24.2525C20.4746 25.1561 20.3676 26.1422 20.5281 27.1026C20.6886 28.063 21.1104 28.9607 21.7472 29.6974C21.2495 30.5645 20.7802 31.4603 20.3252 32.3845C20.4634 31.5213 20.3936 30.6376 20.1216 29.8068C19.8496 28.976 19.3832 28.2221 18.7613 27.6078V27.6078L18.7327 27.6792C18.4083 28.6264 18.3481 29.6441 18.5586 30.623C18.7691 31.6019 19.2422 32.505 19.9273 33.2352C19.6269 33.8749 19.3446 34.5116 19.0743 35.1828C19 35.1145 18.913 35.0615 18.8183 35.0266C18.3332 34.8857 17.8693 34.6801 17.4391 34.4155C17.0834 34.2044 16.7057 34.0327 16.3129 33.9034C14.7774 33.4056 15.0049 32.6668 14.2106 31.1734C13.9521 30.866 13.6774 30.5725 13.3877 30.2942C13.1189 30.1199 12.8988 29.8802 12.748 29.5975C12.5728 29.2445 12.462 28.8632 12.4207 28.4713C12.4159 28.2545 12.3435 28.0447 12.2134 27.8712C12.0833 27.6978 11.9021 27.5694 11.6954 27.5042C9.43467 26.7226 10.4445 23.7937 10.5294 23.4093C10.4946 22.9122 10.3842 22.4233 10.202 21.9595C10.183 21.8991 10.1687 21.8374 10.1592 21.7748C10.0989 21.4713 10.1099 21.158 10.1913 20.8595C10.2727 20.561 10.4224 20.2855 10.6285 20.0547C10.8988 19.7844 11.8373 19.3437 12.0362 19.0876C12.2352 18.8316 12.3771 18.547 12.5768 18.306C13.2085 17.6759 13.9383 17.1526 14.7377 16.7564C15.3916 16.4012 15.5057 15.4912 15.761 15.2067C16.1875 14.7232 16.8414 14.7232 17.325 14.2967C17.5667 14.0835 17.9256 13.9693 18.1509 13.7426C19.2865 12.7026 20.7176 12.0418 22.2458 11.8521C23.3055 11.7657 24.3721 11.8619 25.3992 12.1366C25.5479 12.1616 25.695 12.1949 25.8399 12.2365C28.1855 12.3221 31.001 12.8048 32.0244 13.8004C32.531 14.2872 32.9074 14.8934 33.119 15.5633C33.2853 16.0821 33.5145 16.5786 33.8015 17.0417L34.427 18.065C34.8255 18.7104 34.9531 19.4869 34.7821 20.2259C34.6669 20.5852 34.6569 20.97 34.7536 21.3348C35.0834 21.8328 35.4699 22.2908 35.9053 22.6998C36.0783 22.871 36.2688 23.0235 36.4737 23.1548C36.955 23.4419 37.4202 23.7552 37.8672 24.0933C37.8818 24.2303 37.8592 24.3688 37.8015 24.4939C37.7439 24.6191 37.6535 24.7264 37.5398 24.8043C37.1419 25.1594 36.3738 25.7143 36.3738 25.7143C36.4016 25.8714 36.4493 26.0243 36.5157 26.1693C36.6291 26.3683 36.8851 26.6813 36.8003 26.9509C36.7154 27.2204 36.1606 27.4487 36.3167 27.7467C36.4729 28.0598 36.8708 28.1447 36.7575 28.4292C36.6441 28.6995 36.0892 29.18 36.1463 29.382C36.2034 29.584 36.6584 31.4843 35.6057 31.8131C34.303 32.0708 32.9809 32.2182 31.6535 32.2539C31.4393 32.2662 31.2318 32.3327 31.0503 32.4471C30.8689 32.5614 30.7194 32.72 30.6158 32.9078C30.4143 33.2836 30.2842 33.6934 30.2322 34.1166C29.8481 35.63 29.3393 37.1089 28.711 38.5382C28.711 38.5382 28.6682 38.6238 28.6112 38.7514C28.4733 39.0324 28.3866 39.3357 28.3551 39.6471C28.4446 39.8759 28.58 40.0839 28.7531 40.2583C28.8442 40.3626 28.9636 40.4383 29.0969 40.4761C29.2301 40.514 29.3715 40.5124 29.5039 40.4715C32.9113 39.284 35.8569 37.0511 37.9207 34.0912C39.9845 31.1312 41.0612 27.5953 40.9973 23.9874Z" fill="#00DACC"/>
</svg>
