<svg width="48" height="48" viewBox="0 0 48 48" fill="none" xmlns="http://www.w3.org/2000/svg">
<path d="M47.9962 23.9822C47.9031 19.6755 46.6526 15.4733 44.376 11.8163C42.0993 8.15937 38.8804 5.18255 35.057 3.19819C31.2336 1.21383 26.9466 0.295066 22.6457 0.538297C18.3449 0.781527 14.1888 2.17779 10.6135 4.58058C7.03813 6.98337 4.17539 10.3041 2.32557 14.1944C0.475757 18.0848 -0.292934 22.4012 0.100138 26.691C0.493211 30.9807 2.03356 35.0856 4.55958 38.5749C7.0856 42.0643 10.5042 44.8095 14.4566 46.5225C15.6241 44.7678 16.5176 42.8456 17.1066 40.822C17.5878 39.5977 18.1103 38.3936 18.652 37.2287C19.9587 37.6201 21.3473 37.6494 22.6693 37.3133C23.9914 36.9773 25.1974 36.2886 26.1587 35.3207L26.2393 35.2402C25.0587 34.8012 23.7862 34.6681 22.5403 34.8535C21.2945 35.0388 20.1158 35.5365 19.1141 36.3001C19.7766 34.9148 20.4995 33.5707 21.2415 32.2659C22.5243 32.7196 23.9064 32.8155 25.2395 32.5432C26.5727 32.271 27.8065 31.6408 28.8086 30.7205L28.8892 30.6399C27.7487 30.1574 26.5063 29.9654 25.2734 30.081C24.0404 30.1966 22.8554 30.6163 21.8245 31.3024C22.5665 30.0781 23.3296 28.874 24.1331 27.7494C25.4606 28.098 26.8582 28.0766 28.1744 27.6874C29.4906 27.2982 30.6751 26.556 31.5995 25.5414L31.6599 25.4609C30.5636 25.1034 29.3988 25.008 28.2589 25.1823C27.1191 25.3566 26.0359 25.7959 25.0966 26.4647C25.157 26.3841 25.2376 26.2845 25.2969 26.2039C25.7782 25.5817 26.2806 24.9595 26.7809 24.3575C28.3085 23.8575 29.6709 22.9504 30.7213 21.7338C31.7717 20.5171 32.4704 19.037 32.7422 17.4528L32.7623 17.332H32.7422C31.1515 17.7457 29.7085 18.5967 28.5767 19.7886C27.445 20.9805 26.6698 22.4655 26.3389 24.0755C25.8577 24.6574 25.3754 25.2415 24.9143 25.8414C25.3036 24.8238 25.4623 23.7325 25.3791 22.6462C25.2959 21.5598 24.9728 20.5054 24.4331 19.559V19.559L24.3727 19.6395C23.5538 20.758 23.0603 22.0813 22.947 23.4628C22.8336 24.8444 23.1047 26.2304 23.7303 27.4674C22.9671 28.5518 22.2252 29.6552 21.5224 30.819C21.7487 29.6491 21.69 28.4418 21.351 27.2994C21.0121 26.1569 20.403 25.1129 19.5752 24.2557L19.5349 24.3564C19.0229 25.6322 18.8719 27.0243 19.0985 28.3801C19.3251 29.736 19.9206 31.0034 20.8196 32.0433C20.1169 33.2676 19.4544 34.5321 18.812 35.8369C19.0072 34.6183 18.9087 33.3707 18.5246 32.1978C18.1406 31.0249 17.4822 29.9606 16.6041 29.0934V29.0934L16.5639 29.1941C16.1059 30.5314 16.0209 31.9682 16.318 33.3501C16.6151 34.7321 17.2831 36.007 18.2503 37.0379C17.8263 37.941 17.4277 38.8398 17.0461 39.7874C16.9412 39.6911 16.8184 39.6162 16.6847 39.567C15.9999 39.368 15.3449 39.0778 14.7375 38.7041C14.2354 38.4062 13.7022 38.1638 13.1476 37.9812C10.9799 37.2785 11.3011 36.2355 10.1797 34.1272C9.81473 33.6931 9.42694 33.2788 9.01793 32.886C8.63847 32.6398 8.32773 32.3014 8.11484 31.9023C7.86755 31.404 7.71105 30.8656 7.65268 30.3124C7.64604 30.0064 7.54371 29.7101 7.36006 29.4652C7.17641 29.2204 6.92067 29.0392 6.62876 28.9471C3.43719 27.8437 4.86285 23.7088 4.98262 23.166C4.93357 22.4642 4.77772 21.774 4.52047 21.1192C4.49359 21.034 4.47339 20.9468 4.46005 20.8585C4.3749 20.4301 4.39042 19.9877 4.50538 19.5663C4.62034 19.1449 4.83161 18.7559 5.12253 18.4301C5.50412 18.0485 6.82909 17.4263 7.10998 17.0649C7.39087 16.7034 7.59121 16.3017 7.87316 15.9614C8.76492 15.0719 9.79519 14.333 10.9237 13.7737C11.847 13.2723 12.0081 11.9876 12.3685 11.5859C12.9706 10.9033 13.8938 10.9033 14.5764 10.3012C14.9177 10.0002 15.4244 9.83905 15.7424 9.51894C17.3456 8.05068 19.3661 7.11786 21.5234 6.84993C23.0195 6.72795 24.5253 6.86384 25.9753 7.25166C26.1852 7.28691 26.3929 7.33397 26.5975 7.39263C29.9089 7.51347 33.8838 8.19503 35.3285 9.60055C36.0437 10.2878 36.5751 11.1435 36.8739 12.0894C37.1086 12.8218 37.4322 13.5227 37.8375 14.1764L38.7204 15.6212C39.283 16.5322 39.4632 17.6286 39.2218 18.6718C39.0591 19.1791 39.0451 19.7224 39.1815 20.2374C39.6472 20.9404 40.1928 21.587 40.8075 22.1644C41.0517 22.406 41.3206 22.6213 41.6099 22.8067C42.2894 23.2121 42.9461 23.6544 43.5772 24.1317C43.5979 24.3251 43.5659 24.5206 43.4845 24.6973C43.4032 24.874 43.2755 25.0254 43.115 25.1355C42.5533 25.6368 41.4689 26.4202 41.4689 26.4202C41.5081 26.6419 41.5754 26.8578 41.6692 27.0625C41.8293 27.3434 42.1907 27.7854 42.071 28.1659C41.9512 28.5465 41.1679 28.8687 41.3884 29.2895C41.6088 29.7315 42.1706 29.8513 42.0106 30.253C41.8505 30.6346 41.0672 31.313 41.1477 31.5981C41.2283 31.8832 41.8706 34.566 40.3846 35.0303C38.5454 35.394 36.6789 35.6021 34.8049 35.6525C34.5026 35.6699 34.2096 35.7638 33.9534 35.9252C33.6972 36.0867 33.4862 36.3105 33.34 36.5757C33.0555 37.1062 32.8718 37.6848 32.7984 38.2823C32.2561 40.4187 31.5379 42.5066 30.6509 44.5244C30.6509 44.5244 30.5904 44.6453 30.5099 44.8255C30.3152 45.2222 30.1928 45.6504 30.1484 46.09C30.2747 46.413 30.4659 46.7067 30.7102 46.9528C30.8389 47.1001 31.0075 47.207 31.1956 47.2604C31.3837 47.3138 31.5833 47.3116 31.7702 47.2539C36.5807 45.5774 40.7391 42.4251 43.6528 38.2464C46.5664 34.0676 48.0864 29.0757 47.9962 23.9822Z" fill="#00DACC"/>
</svg>
