<svg width="48" height="48" viewBox="0 0 48 48" fill="#958FDC" xmlns="http://www.w3.org/2000/svg">
<circle cx="24" cy="24" r="24"/>
<path d="M40.0004 29.4612C40.5886 27.7562 40.9106 25.9262 40.9106 24.0207V23.8871H40.9057C40.8341 14.7039 33.3339 7.28394 24.096 7.28394C14.8582 7.28394 7.28387 14.7756 7.28387 24.0207C7.28387 25.9322 7.6059 27.7672 8.1977 29.4782L8.20013 29.4867V29.4891C8.20013 29.4891 8.20256 29.494 8.20499 29.4976C8.20863 29.5073 8.21228 29.5195 8.21714 29.5316C8.22079 29.5438 8.22565 29.5559 8.22808 29.5657L8.23172 29.5766V29.579C8.27911 29.7285 8.25603 29.8488 8.19527 29.9606C8.13086 30.0785 8.02271 30.1866 7.89268 30.296C7.85015 30.3312 7.80398 30.3689 7.75658 30.4066C7.66909 30.4771 7.57917 30.55 7.50747 30.618C7.3981 30.7237 7.2863 30.861 7.2863 31.0324C7.2863 31.1648 7.34585 31.273 7.43334 31.3581C7.51719 31.4407 7.63142 31.5063 7.75415 31.5598C7.97896 31.6594 8.27061 31.7372 8.55375 31.8125C8.57805 31.8186 8.60236 31.8259 8.62666 31.832C8.93896 31.9158 9.23547 31.9997 9.4542 32.1091C9.6778 32.2221 9.76772 32.3351 9.76772 32.459C9.76772 32.5064 9.74828 32.5575 9.69603 32.617C9.64256 32.6778 9.56114 32.7385 9.45177 32.8017C9.23304 32.9281 8.93775 33.0411 8.62666 33.159H8.62301C8.32043 33.2756 8.00448 33.3972 7.76387 33.5357C7.64236 33.6062 7.53299 33.6852 7.45279 33.7763C7.37137 33.8699 7.31425 33.9817 7.31425 34.1129C7.31425 34.3085 7.45036 34.4471 7.61441 34.5431C7.78089 34.6403 8.00813 34.7156 8.26818 34.7776C8.78828 34.9003 9.47851 34.9781 10.1602 35.0498C10.2149 35.0559 10.2696 35.062 10.3231 35.0668C10.9525 35.1324 11.565 35.1981 12.0365 35.2904C12.2929 35.3415 12.4983 35.3998 12.638 35.4666C12.7863 35.5371 12.8166 35.5966 12.8191 35.6258C12.8264 35.7121 12.7741 35.7984 12.6125 35.8992C12.4533 35.9989 12.2321 36.0827 11.9903 36.1739C11.7558 36.2638 11.503 36.3598 11.3086 36.4813C11.1166 36.6016 10.944 36.7705 10.9404 37.0172C10.9367 37.2432 11.1202 37.3951 11.328 37.4972C11.5455 37.6041 11.8481 37.688 12.1993 37.756C12.9029 37.8934 13.8374 37.976 14.7646 38.0477C14.9542 38.0623 15.1437 38.0756 15.3321 38.0902C16.0636 38.1437 16.7611 38.1959 17.3116 38.2652C17.658 38.309 17.9387 38.36 18.1307 38.4195C18.2267 38.4499 18.2911 38.4803 18.3287 38.507C18.3433 38.518 18.3506 38.5253 18.3543 38.5301C18.3543 38.5313 18.3518 38.535 18.3482 38.5386C18.3385 38.5508 18.3178 38.5678 18.2801 38.5884C18.2048 38.6298 18.0869 38.6674 17.9314 38.7027C17.647 38.7659 17.2752 38.812 16.8863 38.8594C16.8523 38.8631 16.817 38.8679 16.7818 38.8716C16.3613 38.9226 15.9287 38.9785 15.6018 39.0648C15.439 39.1085 15.2908 39.162 15.1802 39.2325C15.0708 39.303 14.9736 39.4087 14.9736 39.5582C14.9736 39.721 15.1048 39.8352 15.2409 39.9142C15.3868 39.9981 15.5933 40.0734 15.8437 40.1415C16.348 40.2776 17.0649 40.3954 17.9302 40.4902C19.663 40.681 22.0071 40.7867 24.463 40.7867C26.9189 40.7867 28.9993 40.6506 30.4661 40.4404C31.1988 40.3359 31.7845 40.2107 32.1892 40.0734C32.3909 40.0054 32.5562 39.9312 32.6728 39.8498C32.7846 39.772 32.8855 39.6651 32.8855 39.5229C32.8855 39.3807 32.7883 39.2823 32.6874 39.2203C32.5841 39.1559 32.4456 39.1061 32.2949 39.066C31.9899 38.9834 31.5889 38.9263 31.2 38.8716L31.1538 38.8655C30.7771 38.8133 30.4162 38.7622 30.1489 38.6954C30.0091 38.6601 29.9071 38.6225 29.8439 38.5848C29.8135 38.5666 29.8001 38.552 29.7953 38.5447C29.7953 38.5447 29.7953 38.5447 29.7953 38.5435C29.7977 38.5301 29.8062 38.507 29.8463 38.4754C29.8876 38.4414 29.9545 38.4049 30.0492 38.3685C30.2376 38.2968 30.5098 38.236 30.844 38.185C31.4589 38.0914 32.256 38.0331 33.0714 37.9723C33.1395 37.9675 33.2075 37.9626 33.2768 37.9578C34.1578 37.8921 35.0461 37.8217 35.7132 37.7001C36.0462 37.6394 36.3342 37.564 36.542 37.4644C36.7413 37.3696 36.9199 37.2274 36.9199 37.0087C36.9199 36.8969 36.8713 36.8021 36.8033 36.7268C36.7364 36.6526 36.6477 36.5907 36.5517 36.536C36.3731 36.4351 36.141 36.3476 35.921 36.265C35.9065 36.2601 35.8919 36.2541 35.8785 36.2492C35.6379 36.1581 35.4167 36.0718 35.2575 35.9734C35.0923 35.8701 35.0485 35.7886 35.0546 35.7206C35.0583 35.6902 35.0935 35.627 35.2563 35.548C35.4082 35.4751 35.6294 35.4083 35.9028 35.3475C36.4363 35.2297 37.1374 35.1397 37.8483 35.0474L37.9006 35.0401C38.6248 34.9465 39.3564 34.8517 39.9069 34.7229C40.1815 34.6585 40.4209 34.5844 40.5934 34.492C40.7575 34.4045 40.913 34.2757 40.913 34.0825C40.913 33.944 40.8413 33.8322 40.7478 33.7447C40.6542 33.6572 40.5278 33.5831 40.3893 33.5187C40.1183 33.3911 39.7623 33.2805 39.4171 33.1736L39.3892 33.1651C39.0295 33.0533 38.6832 32.9439 38.4268 32.8199C38.2992 32.758 38.202 32.696 38.1388 32.6352C38.0768 32.5757 38.0573 32.5259 38.0586 32.4833C38.0586 32.4384 38.0792 32.391 38.1388 32.3363C38.2007 32.2792 38.2967 32.2245 38.4243 32.171C38.6795 32.0629 39.0246 31.9778 39.3831 31.8915L39.4196 31.883C39.7598 31.8004 40.1098 31.7153 40.3771 31.6084C40.5145 31.5525 40.6408 31.4869 40.7344 31.4055C40.8292 31.3216 40.8997 31.211 40.896 31.0713C40.8912 30.8768 40.7696 30.7444 40.6469 30.6447C40.5849 30.5949 40.5145 30.5475 40.4476 30.5026L40.4403 30.4977C40.3747 30.454 40.3103 30.4102 40.2495 30.364C40.1244 30.268 40.026 30.1647 39.9749 30.0323C39.9263 29.9023 39.9166 29.7236 40.0077 29.4612H40.0004ZM35.3621 28.6579L35.3523 28.6822C35.0826 29.2898 34.6487 29.5316 34.2489 29.692C34.17 29.7236 34.0922 29.7516 34.0168 29.7795C33.9962 29.7868 33.9743 29.7953 33.9536 29.8026C33.8601 29.8366 33.7677 29.8719 33.6851 29.912C33.5223 29.9898 33.3691 30.1003 33.3169 30.2948C33.2877 30.4017 33.3047 30.5014 33.3558 30.5888C33.4032 30.6715 33.4785 30.7371 33.5575 30.7906C33.7155 30.8975 33.9366 30.985 34.142 31.0664L34.1529 31.0701C34.3632 31.1527 34.5612 31.2317 34.7095 31.3216C34.865 31.4176 34.9185 31.499 34.9185 31.5732C34.9185 31.5732 34.9185 31.5756 34.9173 31.5792C34.9149 31.5829 34.9112 31.5902 34.9003 31.6011C34.8772 31.623 34.8359 31.6497 34.7703 31.6777C34.639 31.7348 34.4422 31.7834 34.193 31.8283C33.7677 31.9037 33.2197 31.9596 32.6497 32.0167C32.5562 32.0264 32.4614 32.0361 32.3666 32.0459C31.7019 32.1139 31.0287 32.1905 30.5232 32.3108C30.2716 32.3703 30.0505 32.4444 29.8913 32.5392C29.7345 32.6328 29.6021 32.7701 29.613 32.9645C29.6215 33.1128 29.7406 33.2124 29.8524 33.2768C29.9727 33.3461 30.1355 33.4057 30.3166 33.4579C30.6666 33.5588 31.1223 33.6463 31.5707 33.7313L31.6266 33.7423C32.0981 33.8322 32.555 33.9209 32.8904 34.0242C33.0593 34.0764 33.1856 34.1299 33.2658 34.1822C33.306 34.2089 33.3266 34.2308 33.3375 34.2454C33.3461 34.2587 33.3461 34.2636 33.3448 34.2672C33.3412 34.3049 33.3011 34.3693 33.1419 34.4422C32.99 34.5115 32.7713 34.5686 32.4978 34.6172C31.9522 34.7144 31.2304 34.7691 30.5013 34.8238L30.4551 34.8274C29.7454 34.8809 29.0321 34.9344 28.4877 35.0267C28.2107 35.0741 27.9688 35.1337 27.7902 35.2126C27.6225 35.288 27.4585 35.4046 27.4463 35.5954C27.4378 35.7327 27.5095 35.8397 27.6018 35.9187C27.693 35.9952 27.8169 36.0572 27.9518 36.1095C28.224 36.214 28.5862 36.2966 28.9361 36.3756L28.9908 36.3877C29.3286 36.4631 29.6519 36.5348 29.8961 36.621C30.0249 36.666 30.1222 36.7122 30.1841 36.7584C30.2473 36.8045 30.2534 36.8337 30.2534 36.8459C30.2534 36.8459 30.2534 36.8714 30.2024 36.9115C30.1501 36.9516 30.0626 36.9965 29.9314 37.0415C29.6689 37.1302 29.2667 37.208 28.7223 37.2724C27.6359 37.3988 26.0112 37.4656 23.8688 37.4656C21.4287 37.4656 19.6217 37.4 18.4588 37.2675C17.8755 37.2007 17.466 37.1181 17.2217 37.0233C17.0977 36.9747 17.0346 36.9309 17.0078 36.8981C16.9969 36.8847 16.9957 36.8775 16.9957 36.875C16.9957 36.8738 16.9957 36.8665 17.0017 36.8519C17.0017 36.8519 17.0078 36.8398 17.0443 36.8179C17.0783 36.7973 17.1269 36.7754 17.1937 36.7535C17.3262 36.7085 17.5073 36.6697 17.726 36.632C18.048 36.5773 18.4369 36.5299 18.8415 36.4801C18.9849 36.4631 19.1308 36.4448 19.2754 36.4266C19.8283 36.3561 20.3812 36.2759 20.7944 36.1617C20.9997 36.1046 21.182 36.0365 21.3145 35.949C21.4445 35.864 21.5563 35.7388 21.5466 35.5675C21.5405 35.4593 21.4712 35.3816 21.3983 35.3281C21.3242 35.2734 21.2245 35.2297 21.1127 35.192C20.8879 35.1166 20.5744 35.0559 20.2098 35.0036C19.4795 34.9003 18.5086 34.8299 17.5389 34.7606L17.4745 34.7557C16.523 34.6877 15.5775 34.6208 14.8496 34.5236C14.4766 34.4738 14.1691 34.4167 13.948 34.3511C13.8374 34.317 13.756 34.2842 13.7001 34.2502C13.6733 34.2344 13.6551 34.2198 13.6454 34.2089C13.6345 34.198 13.6332 34.1931 13.6332 34.1931C13.6247 34.1639 13.6272 34.136 13.66 34.0971C13.6976 34.0521 13.7681 34.0011 13.8751 33.9476C14.0877 33.8407 14.3952 33.7483 14.7221 33.6511C14.7439 33.6451 14.7646 33.639 14.7865 33.6317C15.0878 33.543 15.4001 33.4518 15.6407 33.3461C15.7695 33.289 15.8874 33.2246 15.9749 33.1468C16.0624 33.069 16.1341 32.9645 16.1305 32.8333C16.1268 32.6851 16.0211 32.5854 15.9117 32.5198C15.7999 32.4529 15.6492 32.3995 15.4828 32.3557C15.179 32.2755 14.7865 32.2136 14.3927 32.1516C14.3526 32.1455 14.3125 32.1394 14.2736 32.1334C13.8362 32.0641 13.4084 31.9924 13.0852 31.8927C12.9236 31.8429 12.7984 31.7882 12.7133 31.7299C12.6283 31.6716 12.6015 31.6205 12.5979 31.5817C12.5967 31.5671 12.5991 31.5501 12.6246 31.5233C12.6538 31.4929 12.7036 31.4601 12.7802 31.4237C12.9163 31.3605 13.0961 31.307 13.293 31.2487C13.3197 31.2414 13.3465 31.2329 13.3732 31.2244C13.5931 31.1588 13.8301 31.0846 14.0075 30.9826C14.1825 30.8817 14.3453 30.7249 14.315 30.4843C14.2943 30.3264 14.2117 30.217 14.1084 30.1307C14.033 30.0675 13.937 30.0092 13.8423 29.9521C13.8155 29.9363 13.79 29.9205 13.7645 29.9047C13.5202 29.7528 13.242 29.5511 13.0317 29.1148C12.3111 27.5642 11.9065 25.8375 11.9065 24.0171C11.9065 17.3178 17.3639 11.8846 24.0948 11.8846C30.8257 11.8846 36.2832 17.3178 36.2832 24.0171C36.2832 25.66 35.9539 27.2264 35.3596 28.6555L35.3621 28.6579Z" fill="#2B1D3C"/>
</svg>
