<svg width="48" height="48" viewBox="0 0 48 48" fill="#95F921" xmlns="http://www.w3.org/2000/svg">
<circle cx="24" cy="24" r="24"/>
<path d="M37.9006 32.5342V32.5318C37.9115 31.7808 40.772 31.8124 40.7538 31.11C40.7429 30.692 39.981 30.6045 39.8218 30.054C39.7938 29.952 39.7865 29.8353 39.8035 29.6992C39.8157 29.6178 39.8363 29.5303 39.8692 29.4355C40.4561 27.7257 40.7769 25.8908 40.7769 23.9817C40.7757 14.7159 33.2646 7.20483 24 7.20483C14.7354 7.20483 7.22308 14.7171 7.22308 23.9817C7.22308 25.8799 7.53903 27.7027 8.11989 29.4039C8.12354 29.4197 8.12961 29.4367 8.13569 29.4537C8.1527 29.4987 8.16607 29.54 8.17822 29.5813C8.38602 30.325 7.22673 30.6215 7.22673 31.0699C7.22673 31.7808 9.72273 31.686 9.72273 32.5124C9.72273 33.233 7.25468 33.4554 7.25468 34.1845C7.25468 35.1894 12.7206 34.8395 12.7874 35.7022C12.8409 36.3694 10.9088 36.4095 10.8978 37.1216C10.8796 38.259 18.3567 37.8872 18.3567 38.6442C18.3567 39.2178 14.9566 39.01 14.9566 39.6881C14.9566 40.3661 19.4321 40.7927 24.367 40.7927C29.3019 40.7927 32.7044 40.2446 32.7044 39.6504C32.7044 39.0562 29.5279 39.1801 29.5923 38.6442C29.7065 37.711 36.7558 38.1873 36.7558 37.107C36.7558 36.5383 34.8164 36.4046 34.8796 35.7897C34.9683 34.9233 40.772 35.0509 40.772 34.1505C40.772 33.442 37.9006 33.2682 37.9006 32.5342ZM30.3834 36.774C30.3834 37.2711 28.1353 37.4959 23.8189 37.4959C20.29 37.4959 16.7842 37.2747 16.7842 36.6987C16.7842 36.1227 20.9657 36.0705 23.8408 36.0753C27.6687 36.0826 30.3846 36.26 30.3846 36.774H30.3834ZM35.4738 28.6785C35.2806 29.1038 35.0278 29.3249 34.7204 29.5096C33.2452 30.3299 30.5717 30.1829 30.5717 30.6774C30.5717 31.3956 35.0752 31.0894 35.0813 31.7128C35.091 32.6655 27.0465 32.1004 27.0465 32.9583C27.0465 33.8163 33.5186 33.4128 33.5186 34.306C33.5186 34.7544 31.4394 34.9209 29.1743 34.978C25.6539 35.0242 19.4309 34.9974 17.0856 34.916L17.0892 34.9185C15.5022 34.8613 14.1509 34.645 13.6211 34.4154C13.4752 34.3522 13.4692 34.176 13.6089 34.1031C15.2117 33.2779 24.9977 33.9354 24.9977 32.9766C24.9977 32.0178 15.3284 32.6813 15.3357 31.8501C15.3418 31.2583 19.5609 31.3106 22.9075 31.3106C27.2397 31.3106 28.5715 31.0942 28.5715 30.7819C28.5679 30.1537 23.2405 30.5219 23.2211 29.8171C23.2028 29.1329 31.652 29.6324 31.652 28.9628C31.652 28.5375 27.981 28.4974 24.3099 28.5108C20.6388 28.5241 16.9677 28.5302 16.9677 28.9859C16.9677 29.5011 21.312 29.3006 21.312 29.8171C21.312 30.2242 18.9241 30.3092 16.4318 30.3092C14.7864 30.3092 13.5105 30.1853 12.8859 29.4088C12.8348 29.3444 12.7826 29.252 12.7413 29.167C12.0146 27.5884 11.6063 25.8325 11.6063 23.9805C11.6063 17.1354 17.1548 11.5868 24 11.5868V11.5832C29.2909 11.5832 33.8066 14.8994 35.5844 19.567C35.7898 20.1721 35.0449 20.1357 34.5199 20.1357H33.0908C32.0701 20.1357 30.7856 20.2584 30.7856 20.5379C30.7856 20.8879 33.905 20.8684 34.2477 20.8684C35.2539 20.8684 36.0425 20.9438 36.158 21.5611C36.3135 22.3437 36.3949 23.1518 36.3949 23.9781C36.3949 25.6405 36.0656 27.2263 35.4726 28.6736V28.6785H35.4738ZM35.7594 23.424C35.7594 23.65 34.6949 23.7667 34.1359 23.7667C33.6535 23.7667 33.0957 23.7375 32.6594 23.6719C32.2244 23.6075 31.9084 23.5066 31.9084 23.362C31.9084 23.1153 33.1394 23.0448 34.001 23.0558H33.9998C34.6657 23.0655 35.7594 23.1506 35.7594 23.424ZM33.5939 21.9001C33.5939 22.2027 31.3908 22.2489 30.6386 22.2489H30.6374C28.5229 22.2489 26.7184 22.2064 26.7184 21.8649C26.7184 21.5234 29.0965 21.504 30.2631 21.504C31.9607 21.5003 33.5939 21.5975 33.5939 21.9001ZM32.4626 25.0377C32.4626 25.4606 30.7042 25.5019 27.1947 25.5019C23.6853 25.5019 18.4004 25.7037 18.4004 25.0377C18.4004 24.3354 26.575 24.8603 26.575 24.1324C26.575 23.6245 21.4226 23.9015 21.4226 23.4057C21.4226 23.0217 23.4349 22.9452 25.4789 22.9452C27.3223 22.9452 30.703 22.9027 30.703 23.3535C30.703 23.9258 27.6832 23.6257 27.6832 24.1592C27.6832 24.7655 32.4626 24.4265 32.4626 25.0377ZM34.2805 27.0343C34.2805 27.6297 29.0831 27.5532 23.7448 27.5532H23.7436C20.5416 27.5532 14.3757 27.6735 14.3757 26.9857C14.3757 26.2979 19.8829 26.3951 22.9549 26.3951H22.9525C26.8265 26.3951 34.2805 26.3125 34.2805 27.0343Z" fill="#06353D"/>
</svg>
