<svg width="64" height="64" viewBox="0 0 64 64" fill="none" xmlns="http://www.w3.org/2000/svg">
<path d="M53.2825 15.0313L36.0538 5.07921C34.8198 4.37205 33.4223 4 32 4C30.5777 4 29.1802 4.37205 27.9462 5.07921L10.7175 15.0313C9.48472 15.7431 8.46106 16.7668 7.74946 17.9997C7.03785 19.2325 6.66338 20.631 6.6637 22.0545V41.9993C6.674 43.4124 7.0535 44.7984 7.76458 46.0196C8.47566 47.2409 9.49361 48.2551 10.7175 48.9617L27.9462 58.9138C29.1787 59.6254 30.5768 60 32 60C33.4232 60 34.8213 59.6254 36.0538 58.9138L53.2825 48.9617C54.5153 48.2499 55.5389 47.2262 56.2505 45.9933C56.9622 44.7604 57.3366 43.362 57.3363 41.9385V21.9937C57.326 20.5806 56.9465 19.1946 56.2354 17.9733C55.5243 16.7521 54.5064 15.7379 53.2825 15.0313ZM10.7175 22.0545C10.7165 21.3419 10.9033 20.6416 11.2591 20.0242C11.615 19.4068 12.1273 18.8942 12.7444 18.5379L29.9731 8.59589C30.5885 8.23759 31.2879 8.04883 32 8.04883C32.7121 8.04883 33.4115 8.23759 34.0269 8.59589L51.2556 18.5379C51.8639 18.889 52.3705 19.3921 52.7258 19.9979C53.0811 20.6037 53.273 21.2915 53.2825 21.9937V24.0206C53.2771 25.5985 52.6473 27.1101 51.5306 28.2248C50.4139 29.3396 48.9013 29.9669 47.3234 29.9696H16.6766C14.5285 29.9645 12.4369 30.6581 10.7175 31.9458V22.0545ZM53.2825 41.9385C53.2835 42.6511 53.0967 43.3514 52.7409 43.9688C52.385 44.5861 51.8727 45.0988 51.2556 45.4551L34.0269 55.3971C33.4106 55.7529 32.7116 55.9402 32 55.9402C31.2884 55.9402 30.5894 55.7529 29.9731 55.3971L12.7444 45.4551C12.1361 45.104 11.6295 44.6009 11.2742 43.9951C10.9189 43.3893 10.727 42.7015 10.7175 41.9993V39.9724C10.7229 38.3945 11.3527 36.8829 12.4694 35.7681C13.5861 34.6534 15.0987 34.0261 16.6766 34.0234H47.3234C49.4715 34.0285 51.5631 33.3349 53.2825 32.0472V41.9385Z" fill="white"/>
<path d="M22.5749 21.0411H26.5071V26.9293H30.5609V21.0411C30.5609 19.966 30.1338 18.9349 29.3736 18.1746C28.6134 17.4144 27.5823 16.9873 26.5071 16.9873H22.5749C21.4998 16.9873 20.4687 17.4144 19.7084 18.1746C18.9482 18.9349 18.5211 19.966 18.5211 21.0411V26.9293H22.5749V21.0411Z" fill="white"/>
<path d="M26.5071 42.9516H22.5749V37.0635H18.5211V42.9516C18.5211 44.0268 18.9482 45.0579 19.7084 45.8181C20.4687 46.5783 21.4998 47.0054 22.5749 47.0054H26.5071C27.5823 47.0054 28.6134 46.5783 29.3736 45.8181C30.1338 45.0579 30.5609 44.0268 30.5609 42.9516V37.0635H26.5071V42.9516Z" fill="white"/>
<path d="M38.5469 21.0411H42.4892V26.9293H46.543V21.0411C46.543 19.966 46.1159 18.9349 45.3557 18.1746C44.5954 17.4144 43.5643 16.9873 42.4892 16.9873H38.5469C37.4717 16.9873 36.4406 17.4144 35.6804 18.1746C34.9201 18.9349 34.493 19.966 34.493 21.0411V26.9293H38.5469V21.0411Z" fill="white"/>
<path d="M42.4892 42.9516H38.5469V37.0635H34.493V42.9516C34.493 44.0268 34.9201 45.0579 35.6804 45.8181C36.4406 46.5783 37.4717 47.0054 38.5469 47.0054H42.4892C43.5643 47.0054 44.5954 46.5783 45.3557 45.8181C46.1159 45.0579 46.543 44.0268 46.543 42.9516V37.0635H42.4892V42.9516Z" fill="white"/>
</svg>
