<svg fill="none" height="48" viewBox="0 0 48 48" width="48" xmlns="http://www.w3.org/2000/svg" xmlns:xlink="http://www.w3.org/1999/xlink"><linearGradient id="a" gradientUnits="userSpaceOnUse" x1="0" x2="41.718" y1="0" y2="52.95"><stop offset=".145" stop-color="#982ecc"/><stop offset=".853" stop-color="#7c3fe4"/></linearGradient><rect fill="url(#a)" height="48" rx="24" width="48"/><path d="m30.7889 29.0525 6.6413-3.8236c.3513-.2025.5698-.5795.5698-.9845v-7.6485c0-.4043-.2185-.7819-.5698-.9844l-6.6413-3.8236c-.3512-.2025-.7882-.2019-1.1395 0l-6.6413 3.8236c-.3512.2025-.5697.5795-.5697.9844v13.6672l-4.657 2.6807-4.6569-2.6807v-5.3632l4.6569-2.6807 3.0721 1.7682v-3.5975l-2.5023-1.4404c-.1727-.0992-.3697-.1514-.5698-.1514-.2 0-.3971.0522-.5697.1514l-6.6419 3.8243c-.3513.2024-.5698.5795-.5698.9844v7.6479c0 .4043.2185.7819.5698.9845l6.6413 3.8241c.3512.2019.7876.2019 1.1395 0l6.6413-3.8235c.3512-.2026.5697-.5802.5697-.9845v-13.6672l.084-.0481 4.573-2.6326 4.6568 2.6813v5.3626l-4.6568 2.6813-3.0673-1.7658v3.5975l2.4975 1.4386c.3513.2019.7883.2019 1.1395 0z" fill="#fff"/></svg>