<svg width="20" height="20" viewBox="0 0 20 20" fill="none" xmlns="http://www.w3.org/2000/svg">
<path d="M17.7387 13.5158V1.91814C17.7229 0.947723 17.783 0.166656 16.8126 0.166656H4.71006C2.09862 0.206104 0 2.34417 0 4.9635C0 5.84713 0.236687 6.60453 0.599606 7.26725C0.907298 7.81952 1.38856 8.34023 1.86193 8.72681C1.99606 8.83727 1.93294 7.87257 2.3432 8.12503C2.91124 8.47217 3.55819 8.64574 3.55819 8.64574L3.5503 16.498C3.56607 16.8294 3.59763 17.145 3.68442 17.4369C3.95266 18.4152 4.63116 19.1647 5.55424 19.5276C5.94083 19.6775 6.37475 19.7801 6.84024 19.788L16.5049 19.8195C18.43 19.8195 19.9921 18.2574 19.9921 16.3244C20 15.1805 18.5986 14.1548 17.7387 13.5158Z" fill="#FFEEDA"/>
<path d="M18.8087 16.4112C18.7692 17.6499 17.7515 18.644 16.5049 18.644L9.85404 18.6203C10.3826 18.0049 10.7061 17.2081 10.7061 16.3402C10.7061 14.9753 9.89348 14.0365 9.89348 14.0365H16.5128C17.783 14.0365 18.8166 15.07 18.8166 16.3402L18.8087 16.4112Z" fill="#EBC28E"/>
<path d="M2.4931 7.74851C1.72781 7.02267 1.19132 6.08381 1.19132 4.97139V4.85304C1.25444 2.95166 2.81657 1.42109 4.71795 1.36587H16.8205C17.1361 1.38165 17.3886 1.60255 17.3886 1.92602V12.1667C17.6647 12.214 17.7988 12.2534 18.0671 12.3481C18.2801 12.427 18.572 12.5927 18.572 12.5927V1.92602C18.5562 0.955608 17.783 0.174545 16.8126 0.174545H4.71006C2.09862 0.213992 5.18856e-07 2.35206 5.18856e-07 4.97139C5.18856e-07 6.49407 0.694282 7.79584 1.83038 8.71103C1.90927 8.77415 1.98028 8.85305 2.18541 8.85305C2.54044 8.85305 2.7929 8.56902 2.77712 8.26133C2.76923 8.00097 2.65878 7.9063 2.4931 7.74851Z" fill="#190602"/>
<path d="M16.5049 12.8373H7.01381C6.37475 12.8451 5.86193 13.358 5.86193 13.997V15.3619C5.87771 15.9931 6.4142 16.5296 7.05326 16.5296H7.75542V15.3619H7.05326V14.0286C7.05326 14.0286 7.22682 14.0286 7.43984 14.0286C8.63905 14.0286 9.52268 15.141 9.52268 16.3323C9.52268 17.3895 8.56016 18.7386 6.95069 18.6282C5.52268 18.5335 4.74951 17.2633 4.74951 16.3323V4.76626C4.74951 4.24555 4.32347 3.81951 3.80276 3.81951H2.85602V5.00294H3.55819V16.3402C3.51874 18.644 5.19921 19.8037 6.95069 19.8037L16.5128 19.8353C18.4379 19.8353 20 18.2732 20 16.3402C20 14.4073 18.43 12.8373 16.5049 12.8373ZM18.8087 16.4112C18.7692 17.6499 17.7515 18.644 16.5049 18.644L9.85404 18.6203C10.3826 18.0049 10.7061 17.2081 10.7061 16.3402C10.7061 14.9753 9.89348 14.0365 9.89348 14.0365H16.5128C17.783 14.0365 18.8166 15.07 18.8166 16.3402L18.8087 16.4112Z" fill="#190602"/>
<path d="M13.9487 5.21597H6.79292V4.03254H13.9487C14.2722 4.03254 14.5405 4.2929 14.5405 4.62426C14.5405 4.94773 14.2801 5.21597 13.9487 5.21597Z" fill="#190602"/>
<path d="M13.9487 10.786H6.79292V9.60254H13.9487C14.2722 9.60254 14.5405 9.8629 14.5405 10.1943C14.5405 10.5177 14.2801 10.786 13.9487 10.786Z" fill="#190602"/>
<path d="M15.2111 8.00098H6.79292V6.81754H15.2032C15.5266 6.81754 15.7949 7.0779 15.7949 7.40926C15.8028 7.73273 15.5345 8.00098 15.2111 8.00098Z" fill="#190602"/>
</svg>
