<svg width="781" height="206" viewBox="0 0 781 206" fill="none" xmlns="http://www.w3.org/2000/svg">
<path opacity="0.5" fill-rule="evenodd" clip-rule="evenodd" d="M100.202 27L111.647 39.6791L48.506 96.4934H206L111.708 183L100.141 170.432L162.128 113.562H4L100.202 27Z" fill="url(#paint0_radial_334_94)"/>
<path d="M105 60C119.359 60 131 48.1355 131 33.5C131 18.8645 119.359 7 105 7C90.6407 7 79 18.8645 79 33.5C79 48.1355 90.6407 60 105 60Z" fill="url(#paint1_radial_334_94)"/>
<path d="M26 129C40.3594 129 52 117.135 52 102.5C52 87.8646 40.3594 76 26 76C11.6406 76 0 87.8646 0 102.5C0 117.135 11.6406 129 26 129Z" fill="url(#paint2_radial_334_94)"/>
<path d="M105 199C119.359 199 131 187.135 131 172.5C131 157.865 119.359 146 105 146C90.6407 146 79 157.865 79 172.5C79 187.135 90.6407 199 105 199Z" fill="url(#paint3_radial_334_94)"/>
<path d="M180 129C194.359 129 206 117.135 206 102.5C206 87.8646 194.359 76 180 76C165.641 76 154 87.8646 154 102.5C154 117.135 165.641 129 180 129Z" fill="url(#paint4_radial_334_94)"/>
<path d="M289.49 141.366C311.429 141.366 326.147 129.616 326.147 112.061C326.147 71.8539 274.216 85.1618 274.216 67.182C274.216 60.5281 279.909 56.4225 289.212 56.4225C299.349 56.4225 306.43 62.5101 308.374 72.1371L325.314 65.0584C322.259 50.0517 307.68 40 289.212 40C270.051 40 255.471 51.3258 255.471 67.182C255.471 103.142 306.985 91.1079 306.985 112.485C306.985 119.989 300.321 124.944 290.184 124.944C279.354 124.944 270.328 116.874 268.801 104.982L252 110.22C254.36 128.2 270.328 141.366 289.49 141.366ZM383.362 68.8809L366.006 114.751L349.204 68.8809H330.182L357.397 137.402L346.566 166H364.339L401.274 68.8809H383.362ZM410.899 140.234H428.394V108.946C428.394 92.9483 434.643 83.6045 445.334 83.6045C453.527 83.6045 458.664 89.409 458.664 97.7618V140.234H476.159V93.5146C476.159 77.9416 465.884 67.7483 450.611 67.7483C440.752 67.7483 432.838 72.7034 428.394 79.6404V68.8809H410.899V140.234ZM520.009 67.7483C505.151 67.7483 492.794 76.809 490.572 90.9663L506.123 93.7978C506.956 86.1528 512.372 81.3393 520.009 81.3393C528.479 81.3393 533.894 86.2944 533.894 94.3641V95.0719L520.842 96.3461C500.014 98.6112 489.6 106.115 489.6 120.13C489.6 132.306 499.181 141.366 512.927 141.366C521.536 141.366 530.006 136.836 533.894 129.899V140.234H550.834V96.7708C550.834 77.8 538.337 67.7483 520.009 67.7483ZM516.815 128.2C510.428 128.2 506.54 124.519 506.54 119.564C506.54 114.467 511.261 110.503 520.564 109.371L533.894 107.813V109.371C533.894 119.847 527.645 128.2 516.815 128.2ZM567.921 166H585.416V133.155C589.443 138.252 596.941 141.366 604.994 141.366C625.544 141.366 638.735 126.36 638.735 104.557C638.735 82.7551 626.377 67.7483 606.244 67.7483C596.941 67.7483 589.304 71.5708 585.416 77.0921V68.8809H567.921V166ZM602.911 125.935C591.664 125.935 584.305 117.44 584.305 104.557C584.305 91.6742 591.664 83.1798 602.911 83.1798C614.019 83.1798 621.379 91.6742 621.379 104.557C621.379 117.44 614.019 125.935 602.911 125.935ZM675.752 141.366C691.859 141.366 702.69 131.456 702.69 119.139C702.69 89.9753 664.228 100.027 664.228 87.427C664.228 83.3214 667.976 80.9146 673.531 80.9146C679.223 80.9146 685.333 84.4539 687.277 91.2494L701.44 85.1618C698.385 74.827 686.86 67.7483 673.253 67.7483C657.979 67.7483 648.398 76.5258 648.398 87.7101C648.398 114.751 686.583 105.973 686.583 119.422C686.583 123.953 682.278 127.492 675.752 127.492C667.005 127.492 661.589 121.546 659.507 114.326L645.205 120.272C648.676 130.748 658.812 141.366 675.752 141.366ZM781 102.151C781 85.5865 769.475 67.7483 745.87 67.7483C722.682 67.7483 711.296 86.0112 711.296 104.557C711.296 123.103 723.654 141.366 746.842 141.366C763.227 141.366 775.446 133.438 779.334 119.989L762.949 115.458C761.144 122.396 755.312 126.36 747.12 126.36C737.123 126.36 730.319 119.989 728.792 109.229H780.722C780.861 107.813 781 104.699 781 102.151ZM729.208 96.2045C731.152 86.5775 737.262 81.3393 745.87 81.3393C756.007 81.3393 761.422 87.7101 762.255 96.2045H729.208Z" fill="black"/>
<defs>
<radialGradient id="paint0_radial_334_94" cx="0" cy="0" r="1" gradientUnits="userSpaceOnUse" gradientTransform="translate(-237.619 179.736) scale(504.306 548.864)">
<stop stop-color="#FF00FF"/>
<stop offset="1" stop-color="#AC8FFF"/>
</radialGradient>
<radialGradient id="paint1_radial_334_94" cx="0" cy="0" r="1" gradientUnits="userSpaceOnUse" gradientTransform="translate(16.8011 58.8912) scale(129.821 186.473)">
<stop stop-color="#FF00FF"/>
<stop offset="1" stop-color="#AC8FFF"/>
</radialGradient>
<radialGradient id="paint2_radial_334_94" cx="0" cy="0" r="1" gradientUnits="userSpaceOnUse" gradientTransform="translate(-62.1989 127.891) scale(129.821 186.473)">
<stop stop-color="#FF00FF"/>
<stop offset="1" stop-color="#AC8FFF"/>
</radialGradient>
<radialGradient id="paint3_radial_334_94" cx="0" cy="0" r="1" gradientUnits="userSpaceOnUse" gradientTransform="translate(16.8011 197.891) scale(129.821 186.473)">
<stop stop-color="#FF00FF"/>
<stop offset="1" stop-color="#AC8FFF"/>
</radialGradient>
<radialGradient id="paint4_radial_334_94" cx="0" cy="0" r="1" gradientUnits="userSpaceOnUse" gradientTransform="translate(91.8011 127.891) scale(129.821 186.473)">
<stop stop-color="#FF00FF"/>
<stop offset="1" stop-color="#AC8FFF"/>
</radialGradient>
</defs>
</svg>
