<svg fill="none" height="48" viewBox="0 0 48 48" width="48" xmlns="http://www.w3.org/2000/svg"><path d="m29.7876 21.9938 3.5218-5.9813 9.5013 14.7991v2.8444l-.0311-19.5431c-.0113-.2356-.079-.4652-.1975-.6692s-.2843-.3766-.4834-.5032l-17.0987-9.84535c-.2043-.09681-.4278-.1465-.654-.14543-.2261.00108-.4492.0529-.6526.15165-.0527.02651-.1038.05619-.1529.08889l-.0596.03734-16.60441 9.6222-.064.0294c-.08608.0395-.16822.0871-.24533.1422-.17792.1273-.32521.2927-.43115.4842-.10594.1914-.16788.4041-.1813.6224l.02578 15.9263 8.85071-13.7174c1.1137-1.8186 3.5422-2.4053 5.7955-2.3724l2.6453.0693-15.58662 24.9947 1.83733 1.0578 15.77159-26.0267 6.9715-.0258-15.7333 26.6827 6.5547 3.7715.7831.4498c.3379.1343.7131.1416 1.056.0205l17.3466-10.0525-3.3164 1.9218zm1.3449 19.3707-6.6231-10.392 4.0418-6.8587 8.696 13.7058z" fill="#2d374b"/><path d="m24.5111 30.9698 6.6213 10.392 6.1165-3.5449-8.6978-13.7031z" fill="#28a0f0"/><path d="m42.8187 33.6506v-2.8444l-9.5014-14.7991-3.5253 5.9813 9.1724 14.8347 3.3165-1.9218c.1603-.1298.2914-.2918.385-.4756.0936-.1837.1474-.3851.1581-.5911z" fill="#28a0f0"/><path d="m3.0026 36.3298 4.68355 2.6987 15.58485-24.9938-2.6453-.0694c-2.2533-.032-4.6818.5538-5.7955 2.3734l-8.85071 13.7173-2.97778 4.5751v1.7005z" fill="#fff"/><path d="m32.2667 14.0338-6.9716.0258-15.77154 26.0258 5.51114 3.1742 1.4986-2.5422z" fill="#fff"/><path d="m45.7564 13.9982c-.0322-.7194-.2388-1.4201-.6019-2.042-.3631-.6218-.8719-1.1461-1.4825-1.5278l-17.3333-9.966181c-.6187-.303933-1.2988-.46197486-1.988-.46197486-.6893 0-1.3694.15804186-1.988.46197486-.1449.072889-16.85336 9.763581-16.85336 9.763581-.71744.3445-1.32898.8757-1.77048 1.5378-.4415.6622-.69671 1.431-.73886 2.2257v20.6382l2.97778-4.5751-.02578-15.9262c.00379-.0578.01091-.1154.02133-.1724.06765-.3771.28012-.7127.592-.9351.07912-.056 17.07287-9.89337 17.12707-9.92004.2035-.09875.4265-.15057.6527-.15165.2261-.00107.4496.04862.654.14543l17.1076 9.84626c.1991.1266.3648.2991.4833.5032.1185.204.1863.4335.1976.6692v19.7244c-.0048.2039-.0527.4045-.1409.5884-.0881.1839-.2143.3469-.3703.4783l-3.3164 1.9218-1.7111.992-6.1165 3.5449-6.2026 3.5973c-.3429.1212-.7181.1139-1.056-.0204l-7.3387-4.2214-1.4995 2.5423 6.5955 3.7973.5716.3235c.2471.1387.4151.2312.4746.2596.5519.2419 1.1486.3645 1.7511.36.5527.0008 1.1006-.1023 1.6152-.304l18.016-10.432c.5082-.3954.9235-.8975 1.2167-1.4708s.4571-1.2039.4801-1.8474z" fill="#96bedc"/></svg>