<svg fill="none" height="48" viewBox="0 0 48 48" width="48" xmlns="http://www.w3.org/2000/svg"><path d="m24 48c13.2548 0 24-10.7452 24-24s-10.7452-24-24-24-24 10.7452-24 24 10.7452 24 24 24z" fill="#ff0420"/><g clip-rule="evenodd" fill="#fff" fill-rule="evenodd"><path d="m13.486 29.3563c1.0302.7077 2.2624 1.0616 3.5111 1.0084 1.7285 0 3.1086-.4021 4.1402-1.2063 1.0327-.8163 1.7588-2.0466 2.1785-3.6909.2518-1.0083.4678-2.0466.648-3.1149.0538-.3153.0839-.6343.0901-.9541.0215-.7684-.1987-1.5242-.6295-2.1608-.4272-.6179-1.029-1.0943-1.7284-1.3684-.7879-.3228-1.6332-.4821-2.4846-.4682-3.3967 0-5.5032 1.6505-6.3195 4.9515-.288 1.211-.51 2.2493-.6661 3.1149-.0545.3213-.0846.6463-.0901.9722-.0287.5592.0792 1.1171.3145 1.6253.2353.5081.5908.9513 1.0358 1.2913zm5.474-2.1785c-.4787.4-1.0871.6113-1.7107.5941-1.1525 0-1.7288-.5522-1.7288-1.6564-.0009-.2538.0232-.5071.072-.7562.2159-1.1644.4319-2.1486.648-2.9528.1363-.6972.4892-1.3337 1.0084-1.8185.4865-.3984 1.0998-.6092 1.7284-.5941 1.1402-.0003 1.7103.5458 1.7103 1.6383.0004.2598-.0237.519-.072.7743-.1435.8406-.3533 1.8249-.6295 2.9528-.1372.7009-.4971 1.3387-1.0261 1.8185z"/><path d="m24.7159 30.1569c.053.0218.1102.0314.1674.028l2.4496.0004c.1249-.0019.2455-.0463.3419-.1259.1043-.0791.1747-.195.1967-.3242l.8282-3.943h2.4303c1.5724 0 2.8088-.3301 3.709-.9903.9704-.7546 1.6199-1.8479 1.8185-3.061.0701-.3073.1064-.6213.1082-.9364.0215-.4712-.0801-.9398-.2948-1.3598-.2147-.4199-.5351-.7767-.9296-1.0351-.9597-.5947-2.0774-.8835-3.205-.8282h-4.7894c-.1251.0019-.2458.0463-.3423.1259-.1044.0791-.1747.1951-.1967.3242l-2.4846 11.7033c-.0254.111-.006.2275.0539.3242.0383.0427.0857.0761.1387.0979zm7.8557-7.264c-.3807.2788-.8428.4243-1.3145.4139h-2.0703l.6842-3.2227h2.1604c.3717-.0365.7437.0661 1.0441.288.1061.1015.1885.2251.2414.3621.0529.1369.075.2838.0647.4303-.0024.1813-.0204.362-.0539.5402-.0947.4766-.3645.9005-.7561 1.1882z"/></g></svg>