<svg width="2880" height="4800" viewBox="0 0 1440 2400" fill="none" xmlns="http://www.w3.org/2000/svg">
<g transform="translate(0,110) scale(1 0.5)">
<path opacity="0.2" d="M1440 1C960.346 1 480.693 1 1.03915 1" stroke="url(#paint0_linear_213_53)" stroke-opacity="0.25" stroke-miterlimit="10"/>
<path opacity="0.2" d="M1440 11.567C1197.12 11.4889 954.351 13.3779 711.526 15.5155C606.462 16.4458 500.678 16.1405 395.624 14.1804C264.119 11.7304 132.554 14.0384 1.07908 11.567" stroke="url(#paint1_linear_213_53)" stroke-opacity="0.25" stroke-miterlimit="10"/>
<path opacity="0.2" d="M1440 21.9785C1371.18 21.9785 1302.34 21.6021 1233.53 21.7867C1172.03 21.9501 1110.68 25.4938 1049.2 26.1045C934.685 27.2408 820.188 25.9199 705.68 27.2621C604.044 28.4552 501.358 31.6154 399.791 26.7934C340.594 23.9528 282.006 22.6603 222.759 21.4885C148.812 20.0255 74.9558 23.9954 1.03915 21.9785" stroke="url(#paint2_linear_213_53)" stroke-opacity="0.25" stroke-miterlimit="10"/>
<path opacity="0.5" d="M1440 32.247C1372.17 32.247 1304.16 31.4374 1236.35 32.3109C1172.62 33.1347 1109.27 38.9084 1045.59 40.3926C930.858 43.07 817.02 35.4215 702.403 36.785C601.545 37.9639 502.117 47.5369 401.15 38.9723C342.133 33.9656 284.944 30.0455 225.497 28.9021C150.551 27.4818 75.975 34.3917 1.03915 32.247" stroke="url(#paint3_linear_213_53)" stroke-opacity="0.25" stroke-miterlimit="10"/>
<path opacity="0.5" d="M1440 42.3177C1373.4 42.3177 1306.31 41.0252 1239.75 42.8077C1173.2 44.5902 1107.6 52.7926 1041.25 55.4415C980.932 57.849 921.464 57.2027 861.468 51.9617C807.697 47.2604 755.464 43.8658 701.253 44.3771C653.738 44.8316 609.22 49.959 562.294 54.7385C508.593 60.2138 453.303 57.6572 400.101 50.6834C341.543 42.9994 286.313 35.6492 226.516 34.8112C151.091 33.746 76.5146 44.157 1.03915 42.3177" stroke="url(#paint4_linear_213_53)" stroke-opacity="0.25" stroke-miterlimit="10"/>
<path opacity="0.5" d="M1440 52.2454C1374.84 52.2454 1308.68 50.5055 1243.63 53.2894C1174.12 56.2579 1105.79 67.0098 1036.43 71.0435C976.879 74.5517 916.929 72.1471 858.31 63.8993C805.978 56.6414 755.384 50.1576 701.893 50.4558C652.359 50.7328 607.541 59.6454 559.456 66.8536C504.875 75.0347 450.864 71.9313 397.113 62.0102C339.505 51.3577 286.323 39.8814 226.117 39.5761C150.561 39.1855 76.7245 53.4385 1.03915 52.2383" stroke="url(#paint5_linear_213_53)" stroke-opacity="0.25" stroke-miterlimit="10"/>
<path opacity="0.5" d="M1440 62.0177C1376.38 62.0603 1311.19 59.8871 1247.79 63.6865C1175 68.0114 1103.89 81.3555 1031.38 86.9303C970.519 91.6032 914.28 87.2569 855.582 75.5179C805.328 65.4619 756.653 55.3918 703.942 55.3705C651.819 55.3705 605.453 68.7571 555.988 78.529C499.639 89.6573 447.677 86.419 392.616 72.9755C336.577 59.2977 285.124 43.1485 224.588 43.5036C149.142 43.9865 76.6945 62.3443 1.03915 62.0177" stroke="url(#paint6_linear_213_53)" stroke-opacity="0.25" stroke-miterlimit="10"/>
<path d="M1440 71.633C1377.98 71.6969 1313.78 69.2824 1252.14 73.9553C1176.01 79.7218 1102.24 95.6437 1026.39 102.831C964.683 108.675 911.122 102.426 853.374 86.7879C805.728 73.8842 758.932 59.9011 707.079 59.4608C652.279 58.9921 602.875 77.3783 552.191 89.7564C493.663 104.052 443.69 101.013 387.13 83.5922C333.269 67.0027 283.046 45.7049 222.249 46.898C147.074 48.3751 76.5347 70.9512 1.05924 71.633" stroke="url(#paint7_linear_213_53)" stroke-opacity="0.25" stroke-miterlimit="10"/>
<path opacity="0.5" d="M1440 81.0926C1379.57 81.1778 1316.37 78.6071 1256.39 84.054C1177.01 91.2622 1100.58 109.684 1021.56 118.476C958.608 125.485 908.084 117.46 851.555 97.7034C806.847 82.0798 761.94 64.0345 710.807 63.0828C653.328 62.0247 599.957 85.9076 548.104 100.587C520.944 108.235 492.314 115.401 462.706 113.753C433.727 112.134 406.286 103.463 380.945 93.8685C329.862 74.5733 280.098 48.0131 219.312 50.0442C144.466 52.5511 76.2847 79.3314 1.02906 81.0713" stroke="url(#paint8_linear_213_53)" stroke-opacity="0.25" stroke-miterlimit="10"/>
<path d="M1439.95 90.3888C1380.99 90.4953 1318.82 87.8606 1260.48 93.9396C1178.07 102.504 1099.25 123.305 1017.31 133.617C952.912 141.727 905.306 132.076 850.306 108.249C808.606 90.1828 765.577 68.1038 714.904 66.6053C654.947 64.837 596.989 94.3373 544.147 111.033C516.467 119.783 485.939 129.008 455.021 126.977C426.042 125.073 398.892 114.676 374.659 103.896C326.344 82.3923 277.09 50.4704 216.154 53.3181C141.628 56.8121 76.0751 87.6617 1.01927 90.3888" stroke="url(#paint9_linear_213_53)" stroke-opacity="0.25" stroke-miterlimit="10"/>
<path opacity="0.5" d="M1439.94 99.5212C1382.39 99.6491 1321.14 97.0143 1264.29 103.541C1179.19 113.32 1098.25 136.315 1013.77 148.004C981.6 152.45 951.112 155.021 919.605 147.223C893.934 140.867 871.35 129.71 849.566 118.433C810.594 98.2713 769.454 72.4142 718.9 70.3902C656.745 67.8975 594.13 102.745 540.429 121.146C512.269 130.797 479.863 141.975 447.766 139.61C418.657 137.48 391.866 125.499 368.673 113.668C322.926 90.3459 274.261 53.4314 212.996 57.0036C138.739 61.3427 75.9045 96.013 0.978605 99.5567" stroke="url(#paint10_linear_213_53)" stroke-opacity="0.25" stroke-miterlimit="10"/>
<path opacity="0.5" d="M1439.93 108.505C1383.59 108.64 1323.16 106.019 1267.62 112.844C1180.37 123.568 1097.89 148.537 1011.28 161.327C979.003 166.092 948.605 169.047 917.257 160.198C891.826 152.976 870.151 140.583 849.426 128.198C812.743 106.304 773.321 77.201 722.518 74.7509C690.051 73.1814 657.405 85.2187 629.365 95.4096C598.258 106.715 568.349 119.598 537.252 130.918C508.672 141.315 474.697 154.069 441.521 151.406C412.202 149.056 385.831 135.854 363.467 123.142C319.818 98.2858 272.073 57.1956 210.218 61.3572C136.091 66.3283 75.8847 104.45 0.96884 108.533" stroke="url(#paint11_linear_213_53)" stroke-opacity="0.25" stroke-miterlimit="10"/>
<path opacity="0.5" d="M1439.92 117.326C1384.59 117.461 1324.8 114.833 1270.33 121.786C1181.54 133.113 1098.1 159.787 1010.04 173.372C977.913 178.343 947.285 181.518 916.257 172.037C890.855 164.275 869.831 150.817 849.855 137.58C814.7 114.293 776.768 82.7762 725.345 80.0562C691.989 78.3092 658.393 91.3479 629.914 102.128C597.767 114.308 566.959 128.17 534.813 140.363C505.833 151.364 470.859 165.12 436.793 162.315C407.165 159.872 381.243 145.846 359.489 132.403C317.19 106.276 270.903 62.2382 208.059 66.6767C133.932 71.9106 76.0239 113.093 0.958097 117.297" stroke="url(#paint12_linear_213_53)" stroke-opacity="0.25" stroke-miterlimit="10"/>
<path opacity="0.5" d="M1439.9 125.989C1385.35 126.103 1325.93 123.425 1272.26 130.321C1182.72 141.826 1099.05 169.899 1010.31 183.853C978.624 188.825 947.426 192.063 916.838 182.518C891.227 174.529 870.492 160.347 850.886 146.548C816.291 122.161 779.477 89.3801 726.975 86.7383C692.88 85.0197 659.194 98.1933 630.315 109.464C597.489 122.247 566.111 136.819 533.295 149.616C503.946 161.064 468.822 175.04 434.057 172.256C404.078 169.856 378.597 155.575 357.112 141.556C315.143 114.179 271.065 69.0268 206.751 73.4227C132.435 78.5004 76.2752 122.218 0.899618 125.975" stroke="url(#paint13_linear_213_53)" stroke-opacity="0.25" stroke-miterlimit="10"/>
<path d="M1439.89 134.511C1385.54 134.753 1326.31 131.742 1272.87 138.772C1183.93 150.497 1101.33 179.408 1013.3 193.69C981.701 198.81 950.523 201.878 919.955 192.447C893.974 184.415 872.829 170.062 852.934 156.093C817.699 131.351 780.496 98.151 727.304 95.0547C692.969 93.0592 659.483 106.069 630.474 117.517C597.598 130.499 566.281 145.356 533.414 158.345C503.926 170.006 468.981 183.79 433.956 180.807C403.778 178.236 378.446 163.927 356.922 149.752C314.782 121.991 271.543 77.4355 206.72 81.5758C132.194 86.3197 76.6141 131.231 0.928801 134.511" stroke="url(#paint14_linear_213_53)" stroke-opacity="0.25" stroke-miterlimit="10"/>
<path d="M1439.88 142.842C1385.3 143.282 1326.25 139.483 1272.62 147.003C1185.26 159.254 1104.52 188.64 1018.09 203.426C986.118 208.901 955.759 211.749 924.752 202.254C898.301 194.165 876.407 179.962 855.782 166.114C819.378 141.641 780.606 108.107 727.414 103.882C693.289 101.169 659.683 114.215 630.924 125.656C598.447 138.574 567.6 153.444 535.133 166.377C505.704 178.101 470.76 191.779 435.785 188.235C405.697 185.189 379.995 170.673 358.171 156.654C315.812 129.455 271.324 85.7372 207.28 89.7568C132.574 94.451 76.8142 139.617 0.948957 142.842" stroke="url(#paint15_linear_213_53)" stroke-opacity="0.25" stroke-miterlimit="10"/>
<path d="M1439.86 151.029C1384.97 151.555 1326.08 146.697 1272.12 154.658C1186.54 167.285 1107.91 197.055 1023.3 212.182C991.053 217.963 961.404 220.54 930.047 211.166C903.186 203.134 880.412 189.3 859.018 175.559C821.395 151.413 780.834 118 727.693 112.752C693.877 109.407 660.531 122.183 632.032 133.574C600.105 146.357 569.907 161.135 538 173.911C508.661 185.657 474.046 198.944 439.231 194.896C409.113 191.388 382.952 176.808 360.638 162.939C317.719 136.308 271.772 93.6836 208.218 97.6463C133.182 102.319 77.1126 147.777 0.917641 150.987" stroke="url(#paint16_linear_213_53)" stroke-opacity="0.25" stroke-miterlimit="10"/>
<path d="M1439.84 159.062C1384.57 159.566 1325.71 153.423 1271.37 161.789C1187.75 174.65 1111.41 204.725 1028.79 220.114C996.41 226.144 967.321 228.409 935.704 219.305C908.364 211.436 884.741 198 862.517 184.507C823.325 160.794 781.345 127.864 728.054 121.65C694.638 117.758 661.882 129.98 633.662 141.293C602.435 153.82 573.006 168.471 541.798 181.013C512.569 192.766 478.624 205.393 444.019 200.897C413.761 196.956 387.06 182.433 364.077 168.755C320.298 142.714 272.713 101.396 209.498 105.337C134.003 110.046 77.5037 155.809 0.849024 159.04" stroke="url(#paint17_linear_213_53)" stroke-opacity="0.25" stroke-miterlimit="10"/>
<path d="M1439.83 166.937C1384.11 167.335 1325.27 159.715 1270.44 168.443C1188.92 181.417 1115 211.763 1034.51 227.237C1002.16 233.472 973.466 235.411 941.689 226.705C913.859 219.077 889.407 206.11 866.273 193.029C825.303 169.856 782.044 137.714 728.553 130.605C663.999 122.019 598.766 166.703 546.454 187.766C517.335 199.498 484.309 211.251 450.004 206.33C419.506 201.948 392.246 187.567 368.473 174.095C323.585 148.664 274.221 108.824 211.166 112.787C135.111 117.559 78.0725 163.656 0.868254 166.937" stroke="url(#paint18_linear_213_53)" stroke-opacity="0.25" stroke-miterlimit="10"/>
<path d="M1439.81 174.65C1383.6 174.87 1324.75 165.617 1269.35 174.65C1190.02 187.632 1118.65 218.119 1040.4 233.643C1008.15 240.035 979.743 241.626 947.876 233.423C919.536 226.116 894.235 213.723 870.192 201.054C827.443 178.542 782.895 147.472 729.134 139.483C665.56 130.052 603.135 173.443 551.792 194.165C523.402 205.606 490.306 217.139 456.94 211.245C425.963 205.777 398.672 192.518 373.551 179.025C327.374 154.24 276.111 116.012 213.056 120.017C136.352 124.882 78.7035 171.326 0.849699 174.7" stroke="url(#paint19_linear_213_53)" stroke-opacity="0.25" stroke-miterlimit="10"/>
<path d="M1439.79 182.213C1383.05 182.213 1324.14 171.184 1268.12 180.551C1191.05 193.441 1122.3 224.056 1046.35 239.495C914.449 266.332 845.639 167.257 729.773 148.296C667.318 138.062 608.051 179.891 557.637 200.195C529.377 211.557 497.56 221.904 464.614 215.676C433.247 209.746 405.317 196.779 379.186 183.541C331.57 159.396 278.319 122.907 215.134 126.977C137.72 131.948 79.3924 178.755 0.819103 182.213" stroke="url(#paint20_linear_213_53)" stroke-opacity="0.25" stroke-miterlimit="10"/>
<path d="M1439.77 189.613C1382.48 189.315 1323.47 176.475 1266.79 186.119C1192.01 198.838 1125.89 229.524 1052.31 244.828C923.134 271.687 844.46 177.363 730.463 157.045C669.087 146.094 613.377 186.069 563.883 205.982C535.743 217.302 505.315 226.286 472.839 219.774C441.052 213.382 412.412 200.741 385.232 187.781C336.088 164.345 280.808 129.611 217.353 133.773C139.18 138.893 80.1225 186.041 0.789827 189.613" stroke="url(#paint21_linear_213_53)" stroke-opacity="0.25" stroke-miterlimit="10"/>
<path d="M1439.75 196.857C1381.89 196.253 1322.76 181.538 1265.37 191.424C1192.88 203.909 1129.46 234.63 1058.17 249.728C931.727 276.509 843.321 187.34 731.172 165.666C670.895 154.019 618.973 192.027 570.348 211.55C542.308 222.806 513.389 230.348 481.412 223.623C449.185 216.812 419.807 204.448 391.547 191.807C340.824 169.082 283.505 136.159 219.731 140.413C140.788 145.689 80.9512 193.192 0.829076 196.885" stroke="url(#paint22_linear_213_53)" stroke-opacity="0.25" stroke-miterlimit="10"/>
<path d="M1439.73 203.944C1381.31 203.028 1322.01 186.431 1263.86 196.523C1193.61 208.723 1132.81 239.459 1063.81 254.302C940.06 280.926 842.201 197.112 731.891 174.138C672.703 161.81 624.678 197.794 576.883 216.94C548.963 228.125 521.453 234.183 490.005 227.216C457.329 219.972 427.181 207.921 397.862 195.592C345.55 173.577 286.213 142.472 222.039 146.833C142.267 152.258 81.6902 200.095 0.768644 203.944" stroke="url(#paint23_linear_213_53)" stroke-opacity="0.25" stroke-miterlimit="10"/>
<path d="M1439.71 210.868C1380.75 209.647 1321.26 191.211 1262.43 201.473C1194.34 213.354 1136.11 244.083 1069.31 258.634C948.005 285.052 841.072 206.692 732.551 182.433C674.443 169.437 630.324 203.397 583.308 222.202C555.508 233.316 529.347 237.89 498.5 230.724C465.374 223.04 434.466 211.266 404.098 199.278C350.247 178.016 288.931 148.665 224.318 153.117C143.746 158.692 82.4202 206.92 0.709225 210.854" stroke="url(#paint24_linear_213_53)" stroke-opacity="0.25" stroke-miterlimit="10"/>
<path d="M1439.69 217.643C1380.14 216.131 1320.51 195.927 1260.96 206.331C1194.92 217.871 1139.15 248.578 1074.42 262.817C955.45 288.994 839.964 216.074 733.261 190.529C676.122 176.852 635.951 208.93 589.584 227.359C561.874 238.366 537.082 241.562 506.754 234.19C473.198 226.066 441.541 214.526 410.184 202.886C354.854 182.355 291.65 154.73 226.587 159.296C145.255 165.013 83.2101 213.588 0.749673 217.643" stroke="url(#paint25_linear_213_53)" stroke-opacity="0.25" stroke-miterlimit="10"/>
<path d="M1439.67 224.255C1379.56 222.494 1319.76 200.628 1259.54 211.138C1195.39 222.33 1141.92 253.038 1079.14 266.943C1018.23 280.436 953.441 265.203 896.552 248.926C841.692 233.224 789.539 212.63 733.86 198.391C677.44 183.96 641.456 214.526 595.44 232.479C534.334 256.305 471.749 226.087 415.819 206.494C359.15 186.666 294.167 160.688 228.674 165.354C146.624 171.191 83.899 220.108 0.709074 224.262" stroke="url(#paint26_linear_213_53)" stroke-opacity="0.25" stroke-miterlimit="10"/>
<path d="M1439.65 230.717C1378.98 228.75 1319.17 205.372 1258.18 215.96C1195.74 226.812 1144.4 257.498 1083.31 271.098C1022.96 284.548 956.458 269.94 899.3 255.034C843.33 240.433 790.059 221.152 734.389 205.982C678.719 190.813 646.202 219.88 600.775 237.578C541.058 260.836 475.865 228.346 420.905 210.13C363.047 190.955 296.415 166.554 230.563 171.284C147.872 177.228 84.528 226.471 0.72854 230.717" stroke="url(#paint27_linear_213_53)" stroke-opacity="0.25" stroke-miterlimit="10"/>
<path d="M1439.63 237.016C1378.39 234.886 1318.63 210.201 1256.93 220.853C1195.98 231.371 1146.53 262.043 1087.05 275.38C1027.17 288.766 959.147 274.755 901.728 261.084C844.769 247.513 790.429 229.389 734.849 213.29C708.628 205.698 689.412 205.386 664.06 215.179C643.455 223.14 626.027 234.701 605.452 242.719C578.002 253.428 556.138 253.13 527.389 245.169C492.844 235.589 459.188 224.574 425.292 213.872C366.465 195.351 298.384 172.37 232.232 177.142C148.972 183.15 85.098 232.72 0.698957 237.016" stroke="url(#paint28_linear_213_53)" stroke-opacity="0.25" stroke-miterlimit="10"/>
<path d="M1439.61 243.167C1377.8 241.036 1318.22 215.172 1255.8 225.86C1196.06 236.094 1148.3 266.879 1090.02 279.875C1030.44 293.163 961.175 279.733 903.527 267.092C845.878 254.451 790.528 237.265 735.128 220.221C709.527 212.346 690.81 211.231 665.678 220.974C645.753 228.701 629.125 240.106 609.249 247.89C581.949 258.585 560.424 257.448 532.175 249.225C497.46 239.119 463.284 228.126 428.749 217.722C369.182 199.783 299.772 178.08 233.52 182.867C149.801 188.91 85.4972 238.778 0.688451 243.103" stroke="url(#paint29_linear_213_53)" stroke-opacity="0.25" stroke-miterlimit="10"/>
<path d="M1439.59 249.146C1377.2 247.073 1317.96 220.314 1254.84 231.03C1195.99 241.036 1149.72 272.056 1092.25 284.669C1032.75 297.743 962.734 284.924 904.726 273.185C846.248 261.361 790.419 244.892 735.248 226.911C710.167 218.744 691.66 217.026 666.718 226.769C647.332 234.332 631.373 245.667 612.047 253.301C584.877 264.031 563.373 262.292 535.553 253.755C500.788 243.103 466.213 232.081 431.148 221.897C371.191 204.477 300.622 183.896 234.42 188.647C150.371 194.684 85.7576 244.836 0.589108 249.146" stroke="url(#paint30_linear_213_53)" stroke-opacity="0.25" stroke-miterlimit="10"/>
<path d="M1439.57 254.977C1376.61 253.095 1317.88 225.689 1254.06 236.434C1195.82 246.242 1150.55 277.397 1093.77 289.86C1034.46 302.87 963.523 290.329 905.365 279.321C846.288 268.136 790.208 252.115 735.298 233.16C710.626 224.638 692.019 222.579 667.207 232.386C648.221 239.893 632.762 251.234 613.806 258.811C586.735 269.634 564.931 267.589 537.441 258.662C502.746 247.399 467.911 236.299 432.457 226.286C372.32 209.306 300.932 189.648 234.999 194.328C150.75 200.301 85.9768 250.723 0.608488 254.977" stroke="url(#paint31_linear_213_53)" stroke-opacity="0.25" stroke-miterlimit="10"/>
<path d="M1439.54 260.658C1376.26 258.968 1317.94 231.264 1253.73 242.108C1195.69 251.908 1150.69 283.035 1094.09 295.427C1034.84 308.395 963.583 295.598 905.405 284.825C846.118 273.845 790.218 257.945 735.238 238.905C710.655 230.383 691.789 228.608 667.147 238.351C648.291 245.808 632.932 257.05 614.075 264.528C587.095 275.223 564.891 273.235 537.66 264.052C503.115 252.406 468.24 241.22 432.636 231.307C372.789 214.639 300.472 195.202 235.049 200.059C150.92 206.295 85.7267 255.864 0.578215 260.636" stroke="url(#paint32_linear_213_53)" stroke-opacity="0.25" stroke-miterlimit="10"/>
<path d="M1439.52 266.247C1376.11 264.642 1317.95 236.754 1253.59 247.726C1195.64 257.611 1150.41 288.475 1093.77 300.789C1034.52 313.672 963.423 300.314 905.335 289.469C846.238 278.433 790.578 262.561 735.218 244.424C682.816 227.259 656.845 253.656 613.686 270.117C586.705 280.408 564.361 278.533 537.381 269.315C502.986 257.562 468.171 246.405 432.577 236.605C373.08 220.228 299.823 200.699 234.869 205.968C151.1 212.771 85.1076 260.324 0.528676 266.14" stroke="url(#paint33_linear_213_53)" stroke-opacity="0.25" stroke-miterlimit="10"/>
<path d="M1439.5 271.751C1375.9 270.203 1317.88 242.108 1253.33 253.173C1195.37 263.115 1149.96 293.652 1093.29 305.853C1034.04 318.636 963.155 304.766 905.157 293.887C846.289 282.843 790.839 267.042 735.16 249.821C683.197 233.743 656.297 259.671 613.108 275.387C586.127 285.23 563.584 283.412 536.843 274.179C502.608 262.362 467.893 251.291 432.308 241.661C373.051 225.618 299.065 206.295 234.651 211.919C151.301 219.191 84.4995 264.677 0.540129 271.417" stroke="url(#paint34_linear_213_53)" stroke-opacity="0.25" stroke-miterlimit="10"/>
<path d="M1439.48 277.155C1375.66 275.649 1317.73 247.328 1252.94 258.442C1195.05 268.37 1149.37 298.559 1092.66 310.632C1033.41 323.202 962.755 308.984 904.867 298.098C846.279 287.09 790.949 271.41 735.069 255.14C683.476 240.134 655.657 265.487 612.358 280.471C585.307 289.824 562.594 288.006 536.053 278.781C502.008 266.943 467.362 255.999 431.838 246.596C372.731 230.937 298.295 212.089 234.321 218.005C151.381 225.668 83.8094 269.016 0.489613 276.587" stroke="url(#paint35_linear_213_53)" stroke-opacity="0.25" stroke-miterlimit="10"/>
<path d="M1439.46 282.467C1375.37 280.975 1317.55 252.434 1252.43 263.555C1194.59 273.426 1148.63 303.275 1091.87 315.106C1032.64 327.456 962.345 312.919 904.477 302.067C846.209 291.131 791.049 275.614 734.94 260.324C683.737 246.369 654.937 271.054 611.439 285.229C584.299 294.078 561.405 292.196 535.034 282.999C501.255 271.101 466.592 260.513 431.199 251.283C372.142 236.058 297.496 217.906 233.892 224.091C151.491 232.066 83.0904 273.228 0.50009 281.515" stroke="url(#paint36_linear_213_53)" stroke-opacity="0.25" stroke-miterlimit="10"/>
<path d="M1439.43 287.68C1375.05 286.188 1317.25 257.398 1251.81 268.505C1194.02 278.298 1147.75 307.749 1090.92 319.339C1031.72 331.412 961.716 316.647 903.957 305.846C845.999 295.023 790.989 279.719 734.75 265.423C683.926 252.498 654.088 276.452 610.329 289.768C583.059 298.069 559.996 296.081 533.775 286.927C500.199 275.107 465.662 264.718 430.349 255.815C371.262 241.064 296.626 223.9 233.362 230.249C151.491 238.465 82.3107 277.375 0.439809 286.309" stroke="url(#paint37_linear_213_53)" stroke-opacity="0.25" stroke-miterlimit="10"/>
<path d="M1439.41 292.778C1374.7 291.28 1316.91 262.241 1251.1 273.263C1193.35 282.936 1146.75 311.96 1089.9 323.273C1030.73 335.048 961.097 320.106 903.388 309.396C845.86 298.744 790.87 283.681 734.57 270.401C684.107 258.492 653.169 281.629 609.111 294.043C581.691 301.769 558.447 299.632 532.336 290.492C498.99 278.785 464.609 268.629 429.411 260.089C370.223 245.886 295.817 229.865 232.822 236.363C151.521 244.743 81.5917 281.359 0.460288 290.84" stroke="url(#paint38_linear_213_53)" stroke-opacity="0.25" stroke-miterlimit="10"/>
<path d="M1439.39 297.778C1374.32 296.244 1316.48 266.929 1250.29 277.894C1192.58 287.396 1145.64 315.959 1088.73 326.966C1029.6 338.4 960.347 323.351 902.768 312.763C845.639 302.252 790.709 287.531 734.39 275.273C684.276 264.372 652.179 286.636 607.791 298.098C580.201 305.2 556.778 302.899 530.747 293.837C497.621 282.269 463.384 272.385 428.291 264.258C368.914 250.602 294.927 235.937 232.162 242.549C151.451 251.071 80.8017 285.308 0.429777 295.278" stroke="url(#paint39_linear_213_53)" stroke-opacity="0.25" stroke-miterlimit="10"/>
<path d="M1439.37 302.664C1373.91 301.088 1316.08 271.488 1249.4 282.304C1191.73 291.664 1144.42 319.744 1087.46 330.411C1028.37 341.468 959.548 326.37 902.049 315.916C845.32 305.597 790.44 291.245 734.17 280.024C684.396 270.082 651.07 291.437 606.333 301.912C578.553 308.41 554.95 305.86 528.979 296.94C496.085 285.548 462.009 275.966 427.052 268.278C367.445 255.247 294.058 242.094 231.473 248.784C151.361 257.306 80.0428 289.193 0.430337 299.575" stroke="url(#paint40_linear_213_53)" stroke-opacity="0.25" stroke-miterlimit="10"/>
<path d="M1439.35 307.429C1373.48 305.796 1315.59 275.912 1248.49 286.579C1190.79 295.719 1143.11 323.316 1086.08 333.613C1027.05 344.266 958.708 329.175 901.209 318.877C844.9 308.779 790.06 294.838 733.85 284.662C684.416 275.706 649.791 296.067 604.683 305.505C576.704 311.357 552.931 308.559 526.979 299.682C494.325 288.489 460.42 279.242 425.613 272.035C365.776 259.671 293.128 248.138 230.684 254.906C151.201 263.477 79.2428 292.878 0.389738 303.616" stroke="url(#paint41_linear_213_53)" stroke-opacity="0.25" stroke-miterlimit="10"/>
<path d="M1439.33 312.052C1373.05 310.369 1315.09 280.201 1247.4 290.69C1189.79 299.624 1141.72 326.682 1084.62 336.588C1025.66 346.822 957.788 331.766 900.419 321.675C844.52 311.818 789.719 298.339 733.63 289.199C684.505 281.188 648.511 300.562 603.054 308.913C574.874 314.105 550.912 311.044 524.95 302.231C492.543 291.262 458.819 282.375 424.183 275.677C363.957 264.031 292.209 254.301 229.864 261.055C151 269.577 78.4728 296.507 0.36923 307.55" stroke="url(#paint42_linear_213_53)" stroke-opacity="0.25" stroke-miterlimit="10"/>
<path d="M1439.31 316.598C1372.55 314.815 1314.48 284.356 1246.31 294.647C1188.71 303.332 1140.22 329.85 1083.08 339.344C1024.17 349.123 956.809 334.153 899.52 324.232C844.04 314.624 789.28 301.656 733.34 293.553C684.506 286.451 647.093 304.781 601.296 312.017C572.906 316.527 548.764 313.139 522.762 304.447C490.601 293.724 457.064 285.222 422.615 279.058C362.019 268.179 291.27 260.317 229.005 267.078C150.761 275.564 77.7138 299.923 0.349699 311.222" stroke="url(#paint43_linear_213_53)" stroke-opacity="0.25" stroke-miterlimit="10"/>
<path d="M1439.29 320.994C1372.05 319.119 1313.88 288.369 1245.14 298.432C1187.59 306.861 1138.71 332.818 1081.47 341.88C1022.64 351.197 955.8 336.333 898.602 326.633C843.521 317.294 788.831 304.873 733.071 297.807C684.486 291.65 645.624 308.871 599.478 315.028C570.888 318.842 546.576 315.121 520.485 306.506C488.574 296.05 455.231 287.959 420.986 282.361C360.03 272.305 290.361 266.396 228.126 273.129C150.492 281.516 76.9848 303.304 0.330168 314.83" stroke="url(#paint44_linear_213_53)" stroke-opacity="0.25" stroke-miterlimit="10"/>
<path d="M1439.27 325.255C1371.56 323.28 1313.24 292.239 1243.97 302.061C1186.41 310.22 1137.12 335.602 1079.81 344.216C1021.06 353.043 954.75 338.329 897.592 328.855C842.901 319.786 788.291 307.962 732.711 301.926C684.336 296.678 643.995 312.777 597.518 317.798C568.719 320.916 544.237 316.839 518.046 308.353C486.383 298.167 453.237 290.494 419.207 285.471C357.841 276.289 289.361 272.397 227.146 279.08C150.201 287.36 76.2548 306.521 0.30966 318.238" stroke="url(#paint45_linear_213_53)" stroke-opacity="0.25" stroke-miterlimit="10"/>
<path d="M1439.25 329.38C1371.05 327.3 1312.58 296.003 1242.74 305.526C1185.18 313.402 1135.48 338.208 1078.1 346.353C1019.43 354.662 953.662 340.132 896.573 330.9C842.252 322.115 787.742 310.923 732.401 305.91C684.196 301.542 642.386 316.498 595.61 320.383C566.631 322.79 541.959 318.345 515.668 309.965C484.251 300.069 451.305 292.834 417.509 288.411C355.754 280.152 288.482 278.312 226.267 284.945C149.882 293.084 75.6457 309.595 0.36011 321.483" stroke="url(#paint46_linear_213_53)" stroke-opacity="0.25" stroke-miterlimit="10"/>
<path d="M1439.23 333.357C1370.53 331.17 1311.89 299.554 1241.49 308.828C1183.94 316.42 1133.8 340.629 1076.35 348.271C1017.78 356.083 952.562 341.716 895.483 332.74C841.522 324.218 787.131 313.714 732.021 309.716C683.906 306.222 640.667 320.013 593.531 322.755C564.342 324.452 539.57 319.616 513.029 311.349C481.855 301.748 449.11 294.963 415.56 291.152C274.661 274.613 136.591 302.515 0.21973 324.53" stroke="url(#paint47_linear_213_53)" stroke-opacity="0.25" stroke-miterlimit="10"/>
<path d="M1439.21 337.207C1370 334.899 1311.19 303.006 1240.21 311.989C1182.67 319.276 1132.09 342.881 1074.57 350.075C1016.11 357.39 951.433 343.201 894.474 334.487C840.823 326.256 786.592 316.435 731.732 313.473C683.627 310.853 639.029 323.416 591.543 325.049C562.184 326.043 537.202 320.788 510.512 312.643C479.694 303.176 446.968 297.14 413.742 293.802C276.431 280.003 133.214 305.619 0.25009 327.485" stroke="url(#paint48_linear_213_53)" stroke-opacity="0.25" stroke-miterlimit="10"/>
<path d="M1439.19 340.9C1369.47 338.471 1310.48 306.3 1238.93 314.986C1181.37 321.995 1130.37 344.969 1072.79 351.68C1014.42 358.476 950.303 344.479 893.405 336.056C840.043 328.138 786.002 319.012 731.392 317.017C683.196 315.256 637.339 326.632 589.494 327.108C559.965 327.399 534.824 321.732 507.923 313.686C477.305 304.532 444.799 299.014 411.852 296.273C349.088 291.053 285.444 295.499 223.199 301.883C148.513 309.546 73.7165 317.954 0.229582 330.29" stroke="url(#paint49_linear_213_53)" stroke-opacity="0.25" stroke-miterlimit="10"/>
<path d="M1439.17 344.444C1369.54 341.937 1310.63 309.71 1239.15 317.649C1181.82 324.041 1130.72 346.12 1073.58 352.817C1015.83 359.585 953.002 346.155 896.603 338.045C842.082 330.233 786.852 321.506 731.042 320.412C681.498 319.439 633.223 330.191 583.789 328.934C553.95 328.174 529.078 321.243 501.728 313.545C473.318 305.548 443.32 300.968 412.982 298.802C348.409 294.193 284.365 300.989 220.561 307.402C146.914 314.802 72.6077 320.497 0.180043 332.868" stroke="url(#paint50_linear_213_53)" stroke-opacity="0.25" stroke-miterlimit="10"/>
<path d="M1439.16 347.831C1369.05 345.203 1309.9 312.706 1237.89 320.34C1180.55 326.419 1129.05 347.916 1071.82 354.123C1014.18 360.344 951.853 347.106 895.534 339.259C841.273 331.689 786.253 323.635 730.733 323.635C680.899 323.635 631.554 332.96 581.71 330.581C551.832 329.16 526.75 321.832 499.19 314.297C470.97 306.584 441.172 302.487 411.093 300.867C346.31 297.38 283.376 306.35 219.582 312.585C146.415 319.737 72.1184 322.783 0.200285 335.311" stroke="url(#paint51_linear_213_53)" stroke-opacity="0.25" stroke-miterlimit="10"/>
<path d="M1439.14 351.055C1368.5 348.307 1309.23 315.547 1236.61 322.883C1179.25 328.678 1127.35 349.571 1070.04 355.295C1012.52 361.055 950.683 347.909 894.394 340.318C840.433 333.024 785.622 325.695 730.392 326.732C680.199 327.677 629.885 335.602 579.621 332.115C549.703 330.035 524.421 322.315 496.681 314.943C468.701 307.508 439.043 303.893 409.244 302.821C344.291 300.47 282.396 311.57 218.622 317.635C145.914 324.552 71.7279 324.936 0.229496 337.619" stroke="url(#paint52_linear_213_53)" stroke-opacity="0.25" stroke-miterlimit="10"/>
<path d="M1439.12 354.115C1367.99 351.275 1308.48 318.238 1235.34 325.268C1177.97 330.786 1125.67 351.111 1068.27 356.324C1010.87 361.537 949.535 348.569 893.395 341.24C839.564 334.209 785.013 327.569 730.083 329.65C679.45 331.568 628.277 338.073 577.593 333.492C547.615 330.786 522.153 322.648 494.153 315.447C466.154 308.246 436.875 305.149 407.356 304.61C342.403 303.41 281.327 316.59 217.623 322.485C145.335 329.174 71.2089 326.902 0.190168 339.77" stroke="url(#paint53_linear_213_53)" stroke-opacity="0.25" stroke-miterlimit="10"/>
<path d="M1439.11 357.013C1367.49 354.03 1307.77 320.795 1234.11 327.499C1176.71 332.747 1124.03 352.454 1066.55 357.226C1009.31 361.977 948.356 349.095 892.316 342.014C838.645 335.239 784.394 329.295 729.734 332.399C678.6 335.303 626.668 340.395 575.535 334.742C545.646 331.433 519.885 322.868 491.685 315.831C464.005 308.928 434.727 306.272 405.528 306.25C340.575 306.194 280.278 321.391 216.664 327.129C144.716 333.62 70.7694 328.699 0.190405 341.773" stroke="url(#paint54_linear_213_53)" stroke-opacity="0.25" stroke-miterlimit="10"/>
<path d="M1439.1 359.733C1367 356.651 1307.1 323.138 1232.91 329.587C1175.48 334.558 1122.42 353.732 1064.87 357.993C1007.69 362.254 947.346 349.471 891.296 342.639C837.735 336.134 783.754 330.858 729.413 334.97C677.731 338.876 625.128 342.554 573.526 335.85C543.647 331.98 517.666 322.982 489.257 316.108C461.707 309.446 432.677 307.266 403.748 307.749C338.895 308.821 279.228 325.965 215.704 331.568C144.166 337.874 70.4091 330.304 0.159829 343.641" stroke="url(#paint55_linear_213_53)" stroke-opacity="0.25" stroke-miterlimit="10"/>
<path d="M1439.08 362.283C1366.53 359.094 1306.42 325.354 1231.74 331.518C1174.28 336.269 1120.82 354.826 1063.24 358.682C1006.18 362.503 946.327 349.741 890.307 343.165C836.846 336.909 783.135 332.292 729.104 337.391C676.842 342.32 623.59 344.607 571.627 336.873C541.779 332.435 515.578 323.011 486.919 316.278C459.538 309.887 430.659 308.126 401.98 309.098C337.297 311.279 278.139 330.283 214.725 335.765C143.527 341.922 69.9898 331.724 0.0803186 345.324" stroke="url(#paint56_linear_213_53)" stroke-opacity="0.25" stroke-miterlimit="10"/>
<path d="M1439.07 364.654C1366.12 361.366 1305.79 327.385 1230.63 333.3C1173.14 337.831 1119.38 355.827 1061.67 359.257C1004.71 362.637 945.297 349.897 889.367 343.548C835.976 337.476 782.534 333.556 728.823 339.621C675.951 345.586 622.22 346.51 569.808 337.775C540.02 332.803 513.569 322.953 484.72 316.377C457.479 310.17 428.76 308.885 400.38 310.32C335.927 313.579 277.179 334.337 213.885 339.749C142.936 345.792 69.6993 332.981 0.0995841 346.907" stroke="url(#paint57_linear_213_53)" stroke-opacity="0.25" stroke-miterlimit="10"/>
<path d="M1439.06 366.834C1365.65 363.468 1305.16 329.26 1229.58 334.941C1172.04 339.259 1117.95 356.722 1060.18 359.733C1003.32 362.694 944.358 349.954 888.478 343.804C835.137 337.931 781.955 334.664 728.544 341.673C675.132 348.683 620.871 348.271 568.05 338.57C538.331 333.109 511.62 322.946 482.611 316.399C455.631 310.298 426.871 309.531 398.842 311.427C334.648 315.688 276.23 338.122 213.066 343.463C142.427 349.435 69.3997 334.032 0.099699 348.335" stroke="url(#paint58_linear_213_53)" stroke-opacity="0.25" stroke-miterlimit="10"/>
<path d="M1439 368.866C1365.19 365.429 1304.57 330.993 1228.54 336.454C1171.02 340.566 1116.61 357.503 1058.78 360.124C1002.04 362.694 943.459 349.911 887.639 343.939C834.328 338.258 781.396 335.609 728.294 343.541C674.193 351.616 619.613 349.933 566.411 339.28C536.753 333.358 509.812 322.812 480.633 316.356C453.763 310.412 425.153 310.071 397.413 312.351C367.145 314.844 337.636 320.553 308.577 326.888C277.22 333.713 244.953 344.124 212.287 346.879C141.888 352.823 69.1104 334.863 0.0902272 349.592" stroke="url(#paint59_linear_213_53)" stroke-opacity="0.25" stroke-miterlimit="10"/>
<path d="M1439 370.641C1364.83 367.147 1304.1 332.491 1227.63 337.768C1170.07 341.745 1115.36 358.213 1057.46 360.443C1000.81 362.652 942.649 349.791 886.88 343.967C833.568 338.414 780.846 336.39 728.054 345.217C673.364 354.364 618.424 351.46 564.832 339.884C535.304 333.493 508.133 322.627 478.804 316.264C452.044 310.462 423.564 310.504 396.094 313.175C365.886 316.101 336.547 322.307 307.658 329.047C276.53 336.305 244.214 347.256 211.557 350.032C141.378 355.991 68.8304 335.509 0.080053 350.742" stroke="url(#paint60_linear_213_53)" stroke-opacity="0.25" stroke-miterlimit="10"/>
<path d="M1439 372.253C1364.49 368.703 1303.6 333.84 1226.8 338.961C1169.2 342.81 1114.24 358.782 1056.28 360.692C999.708 362.56 941.94 349.549 886.21 343.875C832.889 338.457 780.357 337.001 727.875 346.716C672.554 356.921 617.364 352.873 563.393 340.41C533.975 333.62 506.604 322.421 477.126 316.129C450.475 310.448 422.165 310.845 394.895 313.863C364.757 317.201 335.568 323.877 306.829 330.986C275.911 338.634 243.554 350.068 210.898 352.887C140.948 358.924 68.5706 335.95 0.0501313 351.73" stroke="url(#paint61_linear_213_53)" stroke-opacity="0.25" stroke-miterlimit="10"/>
<path d="M1439 373.667C1364.19 370.116 1303.19 335.012 1226.06 340.012C1168.39 343.755 1113.15 359.286 1055.13 360.884C998.619 362.446 941.21 349.244 885.541 343.684C832.199 338.364 779.817 337.448 727.655 347.994C671.765 359.293 616.435 354.18 562.084 340.893C532.765 333.713 505.215 322.222 475.617 315.987C449.056 310.398 420.846 311.108 393.836 314.446C363.737 318.167 334.708 325.269 306.099 332.719C275.351 340.736 242.975 352.561 210.278 355.444C140.469 361.608 68.2709 336.198 0.0501313 352.603" stroke="url(#paint62_linear_213_53)" stroke-opacity="0.25" stroke-miterlimit="10"/>
<path d="M1439 374.874C1363.9 371.323 1302.84 335.999 1225.42 340.921C1167.73 344.585 1112.24 359.705 1054.17 361.054C997.72 362.34 940.691 348.903 885.021 343.421C831.65 338.165 779.367 337.739 727.505 349.102C671.036 361.48 615.676 355.401 560.925 341.29C531.736 333.762 504.026 322.009 474.318 315.816C447.837 310.291 419.767 311.271 392.946 314.893C362.888 318.962 333.989 326.448 305.5 334.21C274.892 342.554 242.545 354.684 209.759 357.645C140.099 364.001 67.9911 336.198 0.0401287 353.328" stroke="url(#paint63_linear_213_53)" stroke-opacity="0.25" stroke-miterlimit="10"/>
<path d="M1439 375.883C1364.26 372.332 1303.41 337.008 1226.43 341.589C1165.61 345.204 1106.81 361.53 1045.44 361.197C992.963 360.913 940.311 348.662 888.479 343.393C833.408 337.797 780.696 337.953 727.365 349.933C668.228 363.185 612.818 356.218 555.819 340.46C530.267 333.401 505.925 323.771 480.183 317.159C452.943 310.164 423.035 310.846 395.005 314.73C363.198 319.134 332.75 327.513 302.752 336.035C272.513 344.657 240.367 356.794 207.76 359.634C138.81 365.607 67.1017 336.121 0.0501313 353.903" stroke="url(#paint64_linear_213_53)" stroke-opacity="0.25" stroke-miterlimit="10"/>
<path d="M1439 376.677C1364.06 373.176 1303.2 337.618 1226.01 342.206C1165.17 345.828 1106.1 361.771 1044.75 361.238C992.314 360.777 939.931 348.185 888.129 342.909C833.019 337.299 780.317 337.853 727.245 350.614C667.508 364.988 612.388 357.205 554.919 340.672C529.488 333.357 505.075 323.642 479.264 317.023C452.084 310.021 422.305 310.845 394.435 314.95C362.648 319.63 332.32 328.372 302.412 337.121C272.214 345.955 240.077 358.227 207.39 361.21C138.57 367.445 66.7819 335.75 0.0401287 354.392" stroke="url(#paint65_linear_213_53)" stroke-opacity="0.25" stroke-miterlimit="10"/>
<path d="M1439 377.246C1363.91 373.802 1303.1 338.031 1225.7 342.689C1164.84 346.354 1105.64 361.956 1044.21 361.253C991.794 360.657 939.662 347.661 887.879 342.341C832.739 336.66 779.957 337.562 727.225 351.091C666.909 366.558 612.228 358.121 554.27 340.893C528.898 333.358 504.426 323.543 478.595 316.846C451.434 309.809 421.916 310.696 394.066 314.993C329.722 324.935 272.074 356.062 207.111 362.34C138.41 368.98 66.4322 335.147 0.0401287 354.727" stroke="url(#paint66_linear_213_53)" stroke-opacity="0.25" stroke-miterlimit="10"/>
<path d="M1439 377.607C1363.79 374.234 1303 338.25 1225.51 343.022C1164.64 346.779 1105.24 362.076 1043.84 361.259C991.414 360.549 939.512 347.099 887.749 341.687C832.589 335.921 779.627 337.086 727.195 351.346C666.349 367.899 612.278 358.973 553.77 341.048C528.608 333.357 504.076 323.166 478.185 316.732C450.685 309.908 422.055 310.461 393.906 314.95C329.452 325.233 272.124 356.388 206.931 363.12C138.32 370.222 66.0324 334.323 0.080053 354.939" stroke="url(#paint67_linear_213_53)" stroke-opacity="0.25" stroke-miterlimit="10"/>
<path d="M1439 377.743C1363.71 374.469 1303.03 338.272 1225.46 343.222C1164.59 347.107 1105.11 362.148 1043.59 361.267C991.154 360.515 939.452 346.496 887.699 340.956C832.539 335.055 779.297 336.411 727.175 351.389C665.859 369.022 612.548 359.776 553.481 341.17C499.52 324.182 455.062 304.844 393.956 314.801C329.332 325.333 272.274 356.225 206.851 363.497C138.32 371.117 65.6528 333.28 0.000204372 354.975" stroke="url(#paint68_linear_213_53)" stroke-opacity="0.25" stroke-miterlimit="10"/>
</g>
<defs>
<linearGradient id="paint0_linear_213_53" x1="849.864" y1="0.875" x2="223.351" y2="0.913369" gradientUnits="userSpaceOnUse">
<stop stop-color="#2563EB"/>
<stop offset="0.576389" stop-color="#9333EA"/>
</linearGradient>
<linearGradient id="paint1_linear_213_53" x1="849.881" y1="15.4634" x2="223.384" y2="15.472" gradientUnits="userSpaceOnUse">
<stop stop-color="#2563EB"/>
<stop offset="0.576389" stop-color="#9333EA"/>
</linearGradient>
<linearGradient id="paint2_linear_213_53" x1="849.864" y1="28.3567" x2="223.351" y2="28.3613" gradientUnits="userSpaceOnUse">
<stop stop-color="#2563EB"/>
<stop offset="0.576389" stop-color="#9333EA"/>
</linearGradient>
<linearGradient id="paint3_linear_213_53" x1="849.864" y1="40.776" x2="223.351" y2="40.7788" gradientUnits="userSpaceOnUse">
<stop stop-color="#2563EB"/>
<stop offset="0.576389" stop-color="#9333EA"/>
</linearGradient>
<linearGradient id="paint4_linear_213_53" x1="849.864" y1="54.8298" x2="223.351" y2="54.8315" gradientUnits="userSpaceOnUse">
<stop stop-color="#2563EB"/>
<stop offset="0.576389" stop-color="#9333EA"/>
</linearGradient>
<linearGradient id="paint5_linear_213_53" x1="849.864" y1="68.4767" x2="223.351" y2="68.4778" gradientUnits="userSpaceOnUse">
<stop stop-color="#2563EB"/>
<stop offset="0.576389" stop-color="#9333EA"/>
</linearGradient>
<linearGradient id="paint6_linear_213_53" x1="849.864" y1="83.1157" x2="223.351" y2="83.1165" gradientUnits="userSpaceOnUse">
<stop stop-color="#2563EB"/>
<stop offset="0.576389" stop-color="#9333EA"/>
</linearGradient>
<linearGradient id="paint7_linear_213_53" x1="849.873" y1="97.7214" x2="223.367" y2="97.7221" gradientUnits="userSpaceOnUse">
<stop stop-color="#2563EB"/>
<stop offset="0.576389" stop-color="#9333EA"/>
</linearGradient>
<linearGradient id="paint8_linear_213_53" x1="849.86" y1="112.091" x2="223.342" y2="112.091" gradientUnits="userSpaceOnUse">
<stop stop-color="#2563EB"/>
<stop offset="0.576389" stop-color="#9333EA"/>
</linearGradient>
<linearGradient id="paint9_linear_213_53" x1="849.827" y1="126.026" x2="223.326" y2="126.026" gradientUnits="userSpaceOnUse">
<stop stop-color="#2563EB"/>
<stop offset="0.576389" stop-color="#9333EA"/>
</linearGradient>
<linearGradient id="paint10_linear_213_53" x1="849.804" y1="140.296" x2="223.29" y2="140.296" gradientUnits="userSpaceOnUse">
<stop stop-color="#2563EB"/>
<stop offset="0.576389" stop-color="#9333EA"/>
</linearGradient>
<linearGradient id="paint11_linear_213_53" x1="849.794" y1="152.787" x2="223.28" y2="152.787" gradientUnits="userSpaceOnUse">
<stop stop-color="#2563EB"/>
<stop offset="0.576389" stop-color="#9333EA"/>
</linearGradient>
<linearGradient id="paint12_linear_213_53" x1="849.783" y1="164.173" x2="223.269" y2="164.173" gradientUnits="userSpaceOnUse">
<stop stop-color="#2563EB"/>
<stop offset="0.576389" stop-color="#9333EA"/>
</linearGradient>
<linearGradient id="paint13_linear_213_53" x1="849.748" y1="174.211" x2="223.217" y2="174.212" gradientUnits="userSpaceOnUse">
<stop stop-color="#2563EB"/>
<stop offset="0.576389" stop-color="#9333EA"/>
</linearGradient>
<linearGradient id="paint14_linear_213_53" x1="849.754" y1="183.891" x2="223.24" y2="183.891" gradientUnits="userSpaceOnUse">
<stop stop-color="#2563EB"/>
<stop offset="0.576389" stop-color="#9333EA"/>
</linearGradient>
<linearGradient id="paint15_linear_213_53" x1="849.757" y1="193.6" x2="223.256" y2="193.6" gradientUnits="userSpaceOnUse">
<stop stop-color="#2563EB"/>
<stop offset="0.576389" stop-color="#9333EA"/>
</linearGradient>
<linearGradient id="paint16_linear_213_53" x1="849.731" y1="202.374" x2="223.226" y2="202.374" gradientUnits="userSpaceOnUse">
<stop stop-color="#2563EB"/>
<stop offset="0.576389" stop-color="#9333EA"/>
</linearGradient>
<linearGradient id="paint17_linear_213_53" x1="849.692" y1="210.357" x2="223.165" y2="210.358" gradientUnits="userSpaceOnUse">
<stop stop-color="#2563EB"/>
<stop offset="0.576389" stop-color="#9333EA"/>
</linearGradient>
<linearGradient id="paint18_linear_213_53" x1="849.693" y1="217.577" x2="223.18" y2="217.577" gradientUnits="userSpaceOnUse">
<stop stop-color="#2563EB"/>
<stop offset="0.576389" stop-color="#9333EA"/>
</linearGradient>
<linearGradient id="paint19_linear_213_53" x1="849.675" y1="224.107" x2="223.161" y2="224.107" gradientUnits="userSpaceOnUse">
<stop stop-color="#2563EB"/>
<stop offset="0.576389" stop-color="#9333EA"/>
</linearGradient>
<linearGradient id="paint20_linear_213_53" x1="849.65" y1="229.398" x2="223.132" y2="229.398" gradientUnits="userSpaceOnUse">
<stop stop-color="#2563EB"/>
<stop offset="0.576389" stop-color="#9333EA"/>
</linearGradient>
<linearGradient id="paint21_linear_213_53" x1="849.627" y1="235.081" x2="223.104" y2="235.081" gradientUnits="userSpaceOnUse">
<stop stop-color="#2563EB"/>
<stop offset="0.576389" stop-color="#9333EA"/>
</linearGradient>
<linearGradient id="paint22_linear_213_53" x1="849.631" y1="240.365" x2="223.134" y2="240.366" gradientUnits="userSpaceOnUse">
<stop stop-color="#2563EB"/>
<stop offset="0.576389" stop-color="#9333EA"/>
</linearGradient>
<linearGradient id="paint23_linear_213_53" x1="849.594" y1="245.337" x2="223.08" y2="245.337" gradientUnits="userSpaceOnUse">
<stop stop-color="#2563EB"/>
<stop offset="0.576389" stop-color="#9333EA"/>
</linearGradient>
<linearGradient id="paint24_linear_213_53" x1="849.558" y1="250.087" x2="223.027" y2="250.088" gradientUnits="userSpaceOnUse">
<stop stop-color="#2563EB"/>
<stop offset="0.576389" stop-color="#9333EA"/>
</linearGradient>
<linearGradient id="paint25_linear_213_53" x1="849.563" y1="254.702" x2="223.058" y2="254.702" gradientUnits="userSpaceOnUse">
<stop stop-color="#2563EB"/>
<stop offset="0.576389" stop-color="#9333EA"/>
</linearGradient>
<linearGradient id="paint26_linear_213_53" x1="849.534" y1="258.719" x2="223.02" y2="258.719" gradientUnits="userSpaceOnUse">
<stop stop-color="#2563EB"/>
<stop offset="0.576389" stop-color="#9333EA"/>
</linearGradient>
<linearGradient id="paint27_linear_213_53" x1="849.53" y1="263.191" x2="223.034" y2="263.192" gradientUnits="userSpaceOnUse">
<stop stop-color="#2563EB"/>
<stop offset="0.576389" stop-color="#9333EA"/>
</linearGradient>
<linearGradient id="paint28_linear_213_53" x1="849.507" y1="267.755" x2="223.006" y2="267.756" gradientUnits="userSpaceOnUse">
<stop stop-color="#2563EB"/>
<stop offset="0.576389" stop-color="#9333EA"/>
</linearGradient>
<linearGradient id="paint29_linear_213_53" x1="849.49" y1="272.469" x2="222.994" y2="272.47" gradientUnits="userSpaceOnUse">
<stop stop-color="#2563EB"/>
<stop offset="0.576389" stop-color="#9333EA"/>
</linearGradient>
<linearGradient id="paint30_linear_213_53" x1="849.438" y1="277.395" x2="222.907" y2="277.396" gradientUnits="userSpaceOnUse">
<stop stop-color="#2563EB"/>
<stop offset="0.576389" stop-color="#9333EA"/>
</linearGradient>
<linearGradient id="paint31_linear_213_53" x1="849.434" y1="282.68" x2="222.92" y2="282.681" gradientUnits="userSpaceOnUse">
<stop stop-color="#2563EB"/>
<stop offset="0.576389" stop-color="#9333EA"/>
</linearGradient>
<linearGradient id="paint32_linear_213_53" x1="849.403" y1="288.193" x2="222.89" y2="288.194" gradientUnits="userSpaceOnUse">
<stop stop-color="#2563EB"/>
<stop offset="0.576389" stop-color="#9333EA"/>
</linearGradient>
<linearGradient id="paint33_linear_213_53" x1="849.372" y1="293.455" x2="222.845" y2="293.455" gradientUnits="userSpaceOnUse">
<stop stop-color="#2563EB"/>
<stop offset="0.576389" stop-color="#9333EA"/>
</linearGradient>
<linearGradient id="paint34_linear_213_53" x1="849.365" y1="298.468" x2="222.851" y2="298.468" gradientUnits="userSpaceOnUse">
<stop stop-color="#2563EB"/>
<stop offset="0.576389" stop-color="#9333EA"/>
</linearGradient>
<linearGradient id="paint35_linear_213_53" x1="849.333" y1="303.219" x2="222.806" y2="303.22" gradientUnits="userSpaceOnUse">
<stop stop-color="#2563EB"/>
<stop offset="0.576389" stop-color="#9333EA"/>
</linearGradient>
<linearGradient id="paint36_linear_213_53" x1="849.325" y1="307.708" x2="222.811" y2="307.709" gradientUnits="userSpaceOnUse">
<stop stop-color="#2563EB"/>
<stop offset="0.576389" stop-color="#9333EA"/>
</linearGradient>
<linearGradient id="paint37_linear_213_53" x1="849.283" y1="311.985" x2="222.756" y2="311.986" gradientUnits="userSpaceOnUse">
<stop stop-color="#2563EB"/>
<stop offset="0.576389" stop-color="#9333EA"/>
</linearGradient>
<linearGradient id="paint38_linear_213_53" x1="849.28" y1="315.994" x2="222.77" y2="315.995" gradientUnits="userSpaceOnUse">
<stop stop-color="#2563EB"/>
<stop offset="0.576389" stop-color="#9333EA"/>
</linearGradient>
<linearGradient id="paint39_linear_213_53" x1="849.255" y1="319.792" x2="222.741" y2="319.792" gradientUnits="userSpaceOnUse">
<stop stop-color="#2563EB"/>
<stop offset="0.576389" stop-color="#9333EA"/>
</linearGradient>
<linearGradient id="paint40_linear_213_53" x1="849.244" y1="323.369" x2="222.739" y2="323.369" gradientUnits="userSpaceOnUse">
<stop stop-color="#2563EB"/>
<stop offset="0.576389" stop-color="#9333EA"/>
</linearGradient>
<linearGradient id="paint41_linear_213_53" x1="849.215" y1="326.712" x2="222.701" y2="326.713" gradientUnits="userSpaceOnUse">
<stop stop-color="#2563EB"/>
<stop offset="0.576389" stop-color="#9333EA"/>
</linearGradient>
<linearGradient id="paint42_linear_213_53" x1="849.194" y1="329.859" x2="222.681" y2="329.86" gradientUnits="userSpaceOnUse">
<stop stop-color="#2563EB"/>
<stop offset="0.576389" stop-color="#9333EA"/>
</linearGradient>
<linearGradient id="paint43_linear_213_53" x1="849.175" y1="332.782" x2="222.661" y2="332.782" gradientUnits="userSpaceOnUse">
<stop stop-color="#2563EB"/>
<stop offset="0.576389" stop-color="#9333EA"/>
</linearGradient>
<linearGradient id="paint44_linear_213_53" x1="849.155" y1="335.509" x2="222.642" y2="335.509" gradientUnits="userSpaceOnUse">
<stop stop-color="#2563EB"/>
<stop offset="0.576389" stop-color="#9333EA"/>
</linearGradient>
<linearGradient id="paint45_linear_213_53" x1="849.135" y1="338.03" x2="222.621" y2="338.031" gradientUnits="userSpaceOnUse">
<stop stop-color="#2563EB"/>
<stop offset="0.576389" stop-color="#9333EA"/>
</linearGradient>
<linearGradient id="paint46_linear_213_53" x1="849.144" y1="340.338" x2="222.661" y2="340.339" gradientUnits="userSpaceOnUse">
<stop stop-color="#2563EB"/>
<stop offset="0.576389" stop-color="#9333EA"/>
</linearGradient>
<linearGradient id="paint47_linear_213_53" x1="849.074" y1="342.471" x2="222.539" y2="342.471" gradientUnits="userSpaceOnUse">
<stop stop-color="#2563EB"/>
<stop offset="0.576389" stop-color="#9333EA"/>
</linearGradient>
<linearGradient id="paint48_linear_213_53" x1="849.075" y1="344.327" x2="222.561" y2="344.328" gradientUnits="userSpaceOnUse">
<stop stop-color="#2563EB"/>
<stop offset="0.576389" stop-color="#9333EA"/>
</linearGradient>
<linearGradient id="paint49_linear_213_53" x1="849.055" y1="346.045" x2="222.541" y2="346.046" gradientUnits="userSpaceOnUse">
<stop stop-color="#2563EB"/>
<stop offset="0.576389" stop-color="#9333EA"/>
</linearGradient>
<linearGradient id="paint50_linear_213_53" x1="849.023" y1="347.49" x2="222.496" y2="347.491" gradientUnits="userSpaceOnUse">
<stop stop-color="#2563EB"/>
<stop offset="0.576389" stop-color="#9333EA"/>
</linearGradient>
<linearGradient id="paint51_linear_213_53" x1="849.026" y1="348.78" x2="222.512" y2="348.78" gradientUnits="userSpaceOnUse">
<stop stop-color="#2563EB"/>
<stop offset="0.576389" stop-color="#9333EA"/>
</linearGradient>
<linearGradient id="paint52_linear_213_53" x1="849.025" y1="349.937" x2="222.533" y2="349.938" gradientUnits="userSpaceOnUse">
<stop stop-color="#2563EB"/>
<stop offset="0.576389" stop-color="#9333EA"/>
</linearGradient>
<linearGradient id="paint53_linear_213_53" x1="848.998" y1="350.903" x2="222.497" y2="350.904" gradientUnits="userSpaceOnUse">
<stop stop-color="#2563EB"/>
<stop offset="0.576389" stop-color="#9333EA"/>
</linearGradient>
<linearGradient id="paint54_linear_213_53" x1="848.992" y1="351.753" x2="222.496" y2="351.753" gradientUnits="userSpaceOnUse">
<stop stop-color="#2563EB"/>
<stop offset="0.576389" stop-color="#9333EA"/>
</linearGradient>
<linearGradient id="paint55_linear_213_53" x1="848.973" y1="353.227" x2="222.468" y2="353.228" gradientUnits="userSpaceOnUse">
<stop stop-color="#2563EB"/>
<stop offset="0.576389" stop-color="#9333EA"/>
</linearGradient>
<linearGradient id="paint56_linear_213_53" x1="848.929" y1="355.603" x2="222.398" y2="355.604" gradientUnits="userSpaceOnUse">
<stop stop-color="#2563EB"/>
<stop offset="0.576389" stop-color="#9333EA"/>
</linearGradient>
<linearGradient id="paint57_linear_213_53" x1="848.931" y1="357.796" x2="222.412" y2="357.797" gradientUnits="userSpaceOnUse">
<stop stop-color="#2563EB"/>
<stop offset="0.576389" stop-color="#9333EA"/>
</linearGradient>
<linearGradient id="paint58_linear_213_53" x1="848.925" y1="359.794" x2="222.411" y2="359.795" gradientUnits="userSpaceOnUse">
<stop stop-color="#2563EB"/>
<stop offset="0.576389" stop-color="#9333EA"/>
</linearGradient>
<linearGradient id="paint59_linear_213_53" x1="848.886" y1="361.638" x2="222.394" y2="361.639" gradientUnits="userSpaceOnUse">
<stop stop-color="#2563EB"/>
<stop offset="0.576389" stop-color="#9333EA"/>
</linearGradient>
<linearGradient id="paint60_linear_213_53" x1="848.882" y1="363.241" x2="222.385" y2="363.241" gradientUnits="userSpaceOnUse">
<stop stop-color="#2563EB"/>
<stop offset="0.576389" stop-color="#9333EA"/>
</linearGradient>
<linearGradient id="paint61_linear_213_53" x1="848.869" y1="364.684" x2="222.36" y2="364.684" gradientUnits="userSpaceOnUse">
<stop stop-color="#2563EB"/>
<stop offset="0.576389" stop-color="#9333EA"/>
</linearGradient>
<linearGradient id="paint62_linear_213_53" x1="848.869" y1="365.941" x2="222.36" y2="365.942" gradientUnits="userSpaceOnUse">
<stop stop-color="#2563EB"/>
<stop offset="0.576389" stop-color="#9333EA"/>
</linearGradient>
<linearGradient id="paint63_linear_213_53" x1="848.865" y1="367.005" x2="222.351" y2="367.006" gradientUnits="userSpaceOnUse">
<stop stop-color="#2563EB"/>
<stop offset="0.576389" stop-color="#9333EA"/>
</linearGradient>
<linearGradient id="paint64_linear_213_53" x1="848.869" y1="367.877" x2="222.36" y2="367.878" gradientUnits="userSpaceOnUse">
<stop stop-color="#2563EB"/>
<stop offset="0.576389" stop-color="#9333EA"/>
</linearGradient>
<linearGradient id="paint65_linear_213_53" x1="848.865" y1="368.569" x2="222.351" y2="368.569" gradientUnits="userSpaceOnUse">
<stop stop-color="#2563EB"/>
<stop offset="0.576389" stop-color="#9333EA"/>
</linearGradient>
<linearGradient id="paint66_linear_213_53" x1="848.865" y1="369.048" x2="222.351" y2="369.049" gradientUnits="userSpaceOnUse">
<stop stop-color="#2563EB"/>
<stop offset="0.576389" stop-color="#9333EA"/>
</linearGradient>
<linearGradient id="paint67_linear_213_53" x1="848.882" y1="369.355" x2="222.385" y2="369.355" gradientUnits="userSpaceOnUse">
<stop stop-color="#2563EB"/>
<stop offset="0.576389" stop-color="#9333EA"/>
</linearGradient>
<linearGradient id="paint68_linear_213_53" x1="848.849" y1="369.535" x2="222.318" y2="369.536" gradientUnits="userSpaceOnUse">
<stop stop-color="#2563EB"/>
<stop offset="0.576389" stop-color="#9333EA"/>
</linearGradient>
</defs>
</svg>
