<svg width="384" height="96" viewBox="0 0 384 96" fill="white" xmlns="http://www.w3.org/2000/svg">
    <path d="M48 84 84 48 H12 L48 12" stroke="white" stroke-width="11" stroke-linejoin="bevel" opacity=".5" fill="none" />
    <circle cx="48" cy="84" r="12" />
    <circle cx="84" cy="48" r="12" />
    <circle cx="12" cy="48" r="12" />
    <circle cx="48" cy="12" r="12" />
    <path d="M383.858 51.632C383.858 52.928 383.786 54.512 383.714 55.232H356.786C357.578 60.704 361.106 63.944 366.29 63.944C370.538 63.944 373.562 61.928 374.498 58.4L382.994 60.704C380.978 67.544 374.642 71.576 366.146 71.576C354.122 71.576 347.714 62.288 347.714 52.856C347.714 43.424 353.618 34.136 365.642 34.136C377.882 34.136 383.858 43.208 383.858 51.632ZM357.002 48.608H374.138C373.706 44.288 370.898 41.048 365.642 41.048C361.178 41.048 358.01 43.712 357.002 48.608Z" />
    <path d="M330.003 71.576C321.219 71.576 315.963 66.176 314.163 60.848L321.579 57.824C322.659 61.496 325.467 64.52 330.003 64.52C333.387 64.52 335.619 62.72 335.619 60.416C335.619 53.576 315.819 58.04 315.819 44.288C315.819 38.6 320.787 34.136 328.707 34.136C335.763 34.136 341.739 37.736 343.323 42.992L335.979 46.088C334.971 42.632 331.803 40.832 328.851 40.832C325.971 40.832 324.027 42.056 324.027 44.144C324.027 50.552 343.971 45.44 343.971 60.272C343.971 66.536 338.355 71.576 330.003 71.576Z" />
    <path d="M274.809 84.104V34.712H283.881V38.888C285.897 36.08 289.857 34.136 294.681 34.136C305.121 34.136 311.529 41.768 311.529 52.856C311.529 63.944 304.689 71.576 294.033 71.576C289.857 71.576 285.969 69.992 283.881 67.4V84.104H274.809ZM292.953 63.728C298.713 63.728 302.529 59.408 302.529 52.856C302.529 46.304 298.713 41.984 292.953 41.984C287.121 41.984 283.305 46.304 283.305 52.856C283.305 59.408 287.121 63.728 292.953 63.728Z" />
    <path d="M250.685 34.136C260.189 34.136 266.669 39.248 266.669 48.896V71H257.884V65.744C255.868 69.272 251.477 71.576 247.013 71.576C239.885 71.576 234.917 66.968 234.917 60.776C234.917 53.648 240.317 49.832 251.117 48.68L257.884 48.032V47.672C257.884 43.568 255.077 41.048 250.685 41.048C246.725 41.048 243.917 43.496 243.485 47.384L235.421 45.944C236.573 38.744 242.981 34.136 250.685 34.136ZM249.028 64.88C254.644 64.88 257.884 60.632 257.884 55.304V54.512L250.972 55.304C246.148 55.88 243.701 57.896 243.701 60.488C243.701 63.008 245.716 64.88 249.028 64.88Z" />
    <path d="M194.827 71V34.712H203.899V40.184C206.203 36.656 210.307 34.136 215.419 34.136C223.339 34.136 228.667 39.32 228.667 47.24V71H219.595V49.4C219.595 45.152 216.931 42.2 212.683 42.2C207.139 42.2 203.899 46.952 203.899 55.088V71H194.827Z" />
    <path d="M181.268 34.712H190.556L171.404 84.104H162.188L167.804 69.56L153.692 34.712H163.556L172.268 58.04L181.268 34.712Z" />
    <path d="M133.312 71.576C123.376 71.576 115.096 64.88 113.872 55.736L122.584 53.072C123.376 59.12 128.056 63.224 133.672 63.224C138.928 63.224 142.384 60.704 142.384 56.888C142.384 46.016 115.672 52.136 115.672 33.848C115.672 25.784 123.232 20.024 133.168 20.024C142.744 20.024 150.304 25.136 151.888 32.768L143.104 36.368C142.096 31.472 138.424 28.376 133.168 28.376C128.344 28.376 125.392 30.464 125.392 33.848C125.392 42.992 152.32 36.224 152.32 56.672C152.32 65.6 144.688 71.576 133.312 71.576Z" />
</svg>
