<svg xmlns="http://www.w3.org/2000/svg" viewBox="50 50 430 430" xml:space="preserve"><path fill="#2D374B" d="m357.303 200.838 23.665-40.154 63.785 99.348.03 19.065-.208-131.197a9.882 9.882 0 0 0-4.571-7.871L325.167 73.973c-2.686-1.32-6.093-1.306-8.774.041a9.987 9.987 0 0 0-1.028.594l-.4.252-111.468 64.595-.433.196c-.556.256-1.118.581-1.646.959a9.85 9.85 0 0 0-3.971 6.271 10.15 10.15 0 0 0-.142 1.16l.175 106.913 59.413-92.087c7.48-12.211 23.778-16.144 38.907-15.93l17.757.469-104.624 167.787 12.333 7.101 105.878-174.718 46.798-.17-105.605 179.127 44.008 25.312 5.258 3.024c2.224.904 4.846.949 7.089.14l116.451-67.485-22.264 12.901-61.576-99.587zm9.029 130.039-44.449-69.762 27.133-46.042 58.375 92.009-41.059 23.795z"/><path fill="#28A0F0" d="m321.883 261.115 44.449 69.762 41.06-23.795-58.375-92.009zM444.783 279.097l-.03-19.065-63.785-99.348-23.665 40.154 61.576 99.587 22.264-12.901a9.867 9.867 0 0 0 3.644-7.185l-.004-1.242z"/><path fill="#FFF" d="m177.492 297.077 31.44 18.116 104.624-167.787-17.757-.469c-15.129-.214-31.426 3.719-38.907 15.93l-59.413 92.087-19.988 30.711v11.412zM373.941 147.406l-46.797.17-105.878 174.718 37.007 21.308 10.064-17.069z"/><path fill="#96BEDC" d="M464.504 147.165c-.391-9.787-5.69-18.747-13.991-23.963L334.171 56.297c-8.211-4.135-18.469-4.14-26.693-.003-.972.49-113.141 65.544-113.141 65.544a29.892 29.892 0 0 0-4.454 2.637c-7.41 5.311-11.927 13.563-12.391 22.63v138.561l19.988-30.711-.175-106.913a9.82 9.82 0 0 1 .142-1.155 9.837 9.837 0 0 1 3.971-6.276c.528-.378 114.612-66.414 114.975-66.596 2.682-1.347 6.089-1.361 8.774-.041l114.837 66.056a9.882 9.882 0 0 1 4.571 7.871V280.34c-.139 2.809-1.249 5.411-3.433 7.185l-22.264 12.901-11.487 6.657-41.06 23.795-41.64 24.132c-2.243.81-4.865.765-7.089-.14l-49.266-28.336-10.064 17.068 44.274 25.491c1.464.832 2.769 1.57 3.839 2.172 1.658.93 2.787 1.551 3.186 1.744 3.147 1.528 7.674 2.418 11.754 2.418 3.741 0 7.388-.687 10.84-2.039l120.945-70.043c6.942-5.378 11.026-13.489 11.394-22.276V147.165z"/></svg>