<svg viewBox="0 0 4091.27 4091.73" shape-rendering="geometricPrecision" text-rendering="geometricPrecision" image-rendering="optimizeQuality" fill-rule="evenodd" clip-rule="evenodd" xmlns="http://www.w3.org/2000/svg"><g fill-rule="nonzero"><path fill="#F7931A" d="M4030.06 2540.77C3756.82 3636.78 2646.74 4303.79 1550.6 4030.48 454.92 3757.24-212.09 2647.09 61.27 1551.17c273.12-1096.13 1383.2-1763.19 2479-1489.95C3636.33 334.46 4303.3 1444.73 4030.03 2540.79l.02-.02z"/><path fill="#fff" d="M2947.77 1754.38c40.72-272.26-166.56-418.61-450-516.24l91.95-368.8-224.5-55.94-89.51 359.09c-59.02-14.72-119.63-28.59-179.87-42.34L2186 768.69l-224.36-55.94-92 368.68c-48.84-11.12-96.81-22.11-143.35-33.69l.26-1.16-309.59-77.31-59.72 239.78s166.56 38.18 163.05 40.53c90.91 22.69 107.35 82.87 104.62 130.57l-104.74 420.15c6.26 1.59 14.38 3.89 23.34 7.49-7.49-1.86-15.46-3.89-23.73-5.87l-146.81 588.57c-11.11 27.62-39.31 69.07-102.87 53.33 2.25 3.26-163.17-40.72-163.17-40.72l-111.46 256.98 292.15 72.83c54.35 13.63 107.61 27.89 160.06 41.3l-92.9 373.03 224.24 55.94 92-369.07c61.26 16.63 120.71 31.97 178.91 46.43l-91.69 367.33 224.51 55.94 92.89-372.33c382.82 72.45 670.67 43.24 791.83-303.02 97.63-278.78-4.86-439.58-206.26-544.44 146.69-33.83 257.18-130.31 286.64-329.61l-.07-.05zm-512.93 719.26c-69.38 278.78-538.76 128.08-690.94 90.29l123.28-494.2c152.17 37.99 640.17 113.17 567.67 403.91zm69.43-723.3c-63.29 253.58-453.96 124.75-580.69 93.16l111.77-448.21c126.73 31.59 534.85 90.55 468.94 355.05h-.02z"/></g><rect style="fill:#f3ba2f" y="3238.905" width="4091.27" height="852.825" rx="426.413" ry="426.413"/><path d="M1013.825 3921.72h-211.96v-523.64h200.45c37.84 0 69.333 5.923 94.48 17.77 25.14 11.847 43.973 28 56.5 48.46 12.533 20.453 18.8 43.633 18.8 69.54 0 21.307-4.093 39.503-12.28 54.59-8.18 15.087-19.173 27.317-32.98 36.69-13.807 9.373-29.233 16.107-46.28 20.2v5.11c18.58 1.027 36.437 6.693 53.57 17 17.127 10.313 31.147 24.847 42.06 43.6 10.907 18.747 16.36 41.417 16.36 68.01 0 27.1-6.563 51.433-19.69 73-13.127 21.56-32.9 38.563-59.32 51.01-26.42 12.44-59.657 18.66-99.71 18.66Zm-117.1-232.67v153.41h102.01c34.433 0 59.277-6.607 74.53-19.82 15.26-13.207 22.89-30.21 22.89-51.01 0-15.507-3.837-29.523-11.51-42.05-7.667-12.533-18.577-22.42-32.73-29.66-14.147-7.247-31.02-10.87-50.62-10.87h-104.57Zm0-212.73v144.46h93.83c16.367 0 31.11-3.023 44.23-9.07 13.127-6.053 23.483-14.663 31.07-25.83 7.587-11.167 11.38-24.42 11.38-39.76 0-20.28-7.117-36.983-21.35-50.11-14.233-13.127-35.327-19.69-63.28-19.69h-95.88Zm721.017 445.4h-342.61v-523.64h340.57v79.52h-245.71v142.16h228.06v79.52h-228.06v142.92h247.75v79.52Zm189.722 0h-94.86v-523.64h196.36c40.226 0 74.02 7.5 101.38 22.5s48.07 35.583 62.13 61.75c14.06 26.167 21.09 55.87 21.09 89.11 0 33.58-7.074 63.407-21.22 89.48-14.147 26.08-35.027 46.58-62.64 61.5-27.614 14.913-61.62 22.37-102.02 22.37h-130.14v-77.98h117.36c23.52 0 42.78-4.093 57.78-12.28 15-8.18 26.123-19.43 33.37-33.75 7.246-14.313 10.87-30.76 10.87-49.34 0-18.58-3.624-34.947-10.87-49.1-7.247-14.147-18.41-25.183-33.49-33.11-15.087-7.927-34.477-11.89-58.17-11.89h-86.93v444.38Zm346.958-256.19h235.74v76.19h-235.74v-76.19Zm673.206 256.19h-358.98v-68.52l181.79-178.21c17.387-17.56 31.877-33.157 43.47-46.79 11.594-13.64 20.287-26.85 26.08-39.63 5.794-12.787 8.69-26.423 8.69-40.91 0-16.533-3.75-30.723-11.25-42.57-7.5-11.847-17.81-21.01-30.93-27.49-13.126-6.48-28.043-9.72-44.75-9.72-17.213 0-32.296 3.54-45.25 10.62-12.96 7.073-22.976 17.087-30.05 30.04-7.073 12.953-10.61 28.38-10.61 46.28h-90.25c0-33.24 7.584-62.133 22.75-86.68 15.174-24.547 36.097-43.553 62.77-57.02 26.68-13.467 57.32-20.2 91.92-20.2 35.114 0 65.967 6.563 92.56 19.69 26.587 13.127 47.254 31.11 62 53.95 14.747 22.84 22.12 48.92 22.12 78.24 0 19.6-3.75 38.86-11.25 57.78s-20.67 39.887-39.51 62.9c-18.833 23.013-45.21 50.883-79.13 83.61l-90.26 91.79v3.58h228.07v79.26Zm282.024 9.97c-42.107 0-78.204-10.697-108.29-32.09-30.08-21.387-53.177-52.323-69.29-92.81-16.107-40.48-24.16-89.273-24.16-146.38.173-57.1 8.313-105.72 24.42-145.86 16.106-40.147 39.203-70.787 69.29-91.92 30.086-21.14 66.096-31.71 108.03-31.71 41.926 0 77.976 10.57 108.15 31.71 30.166 21.133 53.306 51.813 69.42 92.04 16.106 40.233 24.16 88.813 24.16 145.74 0 57.273-8.054 106.153-24.16 146.64-16.114 40.48-39.21 71.373-69.29 92.68-30.087 21.307-66.18 31.96-108.28 31.96Zm0-80.03c32.726 0 58.59-16.15 77.59-48.45 19.006-32.3 28.51-79.9 28.51-142.8 0-41.587-4.347-76.53-13.04-104.83-8.694-28.293-20.964-49.64-36.81-64.04-15.854-14.407-34.604-21.61-56.25-21.61-32.56 0-58.3 16.15-77.22 48.45-18.92 32.3-28.467 79.643-28.64 142.03-.167 41.767 4.053 76.88 12.66 105.34 8.606 28.467 20.836 49.903 36.69 64.31 15.853 14.4 34.69 21.6 56.51 21.6Z" style="fill:#fff;white-space:pre"/></svg>