<?xml version="1.0" standalone="no"?>
<!DOCTYPE svg PUBLIC "-//W3C//DTD SVG 20010904//EN"
 "http://www.w3.org/TR/2001/REC-SVG-20010904/DTD/svg10.dtd">
<svg version="1.0" xmlns="http://www.w3.org/2000/svg"
 width="183.000000pt" height="183.000000pt" viewBox="0 0 183.000000 183.000000"
 preserveAspectRatio="xMidYMid meet">

<g transform="translate(0.000000,183.000000) scale(0.100000,-0.100000)"
fill="#000000" stroke="none">
<path d="M727 1804 c-131 -29 -278 -100 -385 -187 -135 -109 -256 -297 -303
-472 -29 -106 -32 -334 -6 -438 86 -345 358 -610 700 -683 114 -24 292 -20
408 10 318 81 574 333 660 651 32 118 33 337 1 453 -74 273 -250 483 -506 602
-126 59 -182 71 -351 76 -110 3 -168 -1 -218 -12z m-151 -200 c21 -15 57 -46
79 -70 58 -61 119 -87 193 -79 31 4 83 2 114 -3 l57 -9 38 40 c80 83 149 118
170 85 4 -7 10 -60 14 -118 6 -106 30 -181 61 -193 25 -9 -18 -16 -377 -57
-473 -54 -435 -47 -435 -78 l0 -25 79 7 c78 6 79 6 85 -19 5 -21 11 -24 31
-19 22 5 25 3 25 -20 0 -22 4 -26 30 -26 26 0 30 -4 30 -26 0 -19 4 -24 18
-20 9 2 47 8 84 11 63 7 67 9 70 34 2 18 10 27 26 29 12 2 22 7 22 12 0 23
-15 40 -35 40 -18 0 -24 -6 -27 -27 -2 -20 -9 -29 -25 -31 -19 -3 -23 1 -23
22 0 18 6 25 23 28 16 2 22 10 22 28 0 20 5 25 25 25 18 0 26 -6 28 -23 5 -34
46 -26 50 9 3 23 9 27 45 32 48 7 57 3 57 -24 0 -13 7 -19 24 -19 18 0 25 -6
28 -22 2 -19 8 -22 31 -20 23 3 27 0 27 -22 0 -30 -4 -29 95 -15 68 10 75 13
75 35 0 17 -6 23 -27 26 -20 2 -29 9 -31 26 -3 18 1 22 22 22 20 0 25 6 28 28
4 34 41 39 46 6 2 -16 -4 -23 -22 -28 -33 -8 -33 -32 -2 -61 32 -29 51 -138
37 -210 -11 -59 -71 -211 -107 -272 -98 -168 -309 -264 -509 -233 -192 29
-350 174 -439 400 -27 69 -32 211 -11 290 14 49 18 94 16 180 -4 176 33 324
91 364 29 21 28 21 74 -10z"/>
<path d="M513 1535 c-10 -26 -10 -191 0 -229 l8 -29 22 21 c12 11 38 28 57 37
19 10 37 19 38 21 2 1 -14 27 -37 56 -22 29 -49 73 -60 98 -17 39 -21 42 -28
25z"/>
<path d="M1152 973 c-18 -8 -35 -26 -38 -38 -12 -48 47 -112 118 -130 23 -6
34 -1 62 27 56 56 61 123 11 146 -37 17 -114 14 -153 -5z"/>
<path d="M1376 922 c-4 -6 -4 -29 0 -51 6 -36 3 -44 -24 -71 -20 -20 -40 -30
-60 -30 -16 0 -37 -9 -47 -20 -9 -10 -37 -27 -62 -36 -59 -23 -116 -7 -144 40
-19 33 -63 61 -80 51 -16 -10 -10 -33 10 -40 11 -3 31 -22 46 -41 36 -47 65
-57 163 -55 87 2 126 16 137 50 3 9 18 22 34 28 40 15 66 58 66 110 0 43 -26
86 -39 65z"/>
<path d="M1312 659 c-39 -48 -76 -62 -154 -57 -37 3 -68 2 -68 -2 0 -4 15 -15
34 -24 88 -42 195 3 221 92 9 30 -5 27 -33 -9z"/>
</g>
</svg>
