<svg xmlns="http://www.w3.org/2000/svg" width="104" height="104"><path style="stroke:none;fill-rule:nonzero;fill:#ccc;fill-opacity:1" d="M52 4.75C25.906 4.75 4.75 25.906 4.75 52S25.906 99.25 52 99.25 99.25 78.094 99.25 52 78.094 4.75 52 4.75Zm9.844 73.234c-2.438.954-4.375 1.688-5.828 2.188-1.453.5-3.125.75-5.047.75-2.938 0-5.235-.719-6.875-2.156-1.625-1.422-2.438-3.25-2.438-5.47 0-.859.063-1.734.188-2.624.11-.906.312-1.906.578-3.047l3.047-10.75c.265-1.031.5-2 .687-2.922.188-.922.266-1.766.266-2.531 0-1.36-.281-2.328-.844-2.86-.578-.546-1.656-.812-3.25-.812a8.92 8.92 0 0 0-2.422.36 37.77 37.77 0 0 0-2.125.703l.813-3.313c1.984-.813 3.89-1.5 5.718-2.078 1.813-.578 3.547-.875 5.157-.875 2.922 0 5.187.719 6.765 2.125 1.578 1.406 2.375 3.25 2.375 5.5 0 .469-.047 1.297-.156 2.469a16.901 16.901 0 0 1-.61 3.25l-3.03 10.718c-.25.86-.47 1.844-.672 2.938-.188 1.094-.282 1.937-.282 2.5 0 1.422.313 2.406.953 2.922.626.515 1.735.765 3.313.765.734 0 1.563-.125 2.5-.375.922-.265 1.594-.484 2.016-.687Zm-.547-43.515c-1.406 1.312-3.11 1.968-5.094 1.968-1.984 0-3.703-.656-5.125-1.968-1.422-1.313-2.125-2.907-2.125-4.766 0-1.86.719-3.469 2.125-4.797 1.422-1.328 3.14-1.984 5.125-1.984 1.984 0 3.688.656 5.094 1.984 1.422 1.328 2.125 2.938 2.125 4.797 0 1.86-.703 3.453-2.125 4.766Zm0 0"/></svg>