<svg width="378" height="436" fill="none" xmlns="http://www.w3.org/2000/svg"><circle cx="276.5" cy="369.5" r="14.5" fill="#734CE2"/><circle cx="102.5" cy="368.5" r="14.5" fill="#734CE2"/><circle cx="188.5" cy="421.5" r="14.5" fill="#734CE2"/><circle cx="14.5" cy="318.5" r="14.5" fill="#734CE2"/><circle cx="14.5" cy="217.5" r="14.5" fill="#734CE2"/><circle cx="14.5" cy="116.5" r="14.5" fill="#734CE2"/><circle cx="188.5" cy="14.5" r="14.5" fill="#734CE2"/><circle cx="102.5" cy="267.5" r="17.5" fill="#734CE2"/><circle cx="188.5" cy="317.5" r="17.5" fill="#734CE2"/><circle cx="276.5" cy="267.5" r="17.5" fill="#734CE2"/><circle cx="276.5" cy="166.5" r="17.5" fill="#734CE2"/><circle cx="99.5" cy="166.5" r="17.5" fill="#734CE2"/><circle cx="188.5" cy="116.5" r="17.5" fill="#734CE2"/><circle cx="189.5" cy="217.5" r="22.5" fill="#734CE2"/><circle cx="102.5" cy="67.5" r="14.5" fill="#734CE2"/><circle cx="276.5" cy="68.5" r="14.5" fill="#734CE2"/><circle cx="363.5" cy="116.5" r="14.5" fill="#734CE2"/><circle cx="363.5" cy="217.5" r="14.5" fill="#734CE2"/><circle cx="363.5" cy="318.5" r="14.5" fill="#734CE2"/><path stroke="#734CE2" stroke-width="12" stroke-linejoin="round" d="m25.834 313.903 66-41M25.834 212.903l66-41M108.892 266.868l71-43M281.892 365.868l71-43M207.892 206.868l71-43M287.892 160.868l71-43M193.892 115.868l71-43M113.892 362.868l71-43M288.892 262.868l71-43M105.23 65.944l72 46M105.23 166.944l72 46M207.23 228.944l72 46M197.23 319.944l72 46M25.834 110.903l66-41"/></svg>