<svg id="Layer_1" data-name="Layer 1" xmlns="http://www.w3.org/2000/svg" viewBox="0 0 460.59998 376.24165">
    <g id="noun_Elephant_1201412_Image" fill="white" data-name="noun Elephant 1201412 Image">
        <path d="M104,384v-1a30.20119,30.20119,0,0,0,1.14-4.29q6.39-55.86,12.79-111.7a13.16,13.16,0,0,1,2.34-6.37q21.92-27.9,44.18-55.51a8.86,8.86,0,0,1,5.31-2.95q24.53-2.93,49.13-5.35a43.37986,43.37986,0,0,0,17.41-5.33c16.68-9.37,33.61-18.31,50.37-27.55a7,7,0,0,1,7.34-.18c24.47,12.08,49,24,73.52,36,1.58.78,3.1,1.68,6,3.23l-20,19.42c1.42.38,2.32.71,3.25.86,22.84,3.64,45.73,7,68.5,11,24.7,4.31,50,6.94,72.13,20.19,16.26,9.74,32,20.36,48.15,30.26,7.63,4.67,10.51,11.5,10,19.79-.83,14.27-1.89,28.55-3.46,42.77-1.43,12.85-4.68,25.21-13,35.68-.75.95-.75,2.83-.51,4.18q11.71994,66.17,23.52,132.3c1.14,6.48,1.68,13.07,2.49,19.61H504.63c3-3.45,5.73-7.17,9-10.27,2.75-2.57,3.18-4.56,1.47-8.08q-25.45-52.31-50.43-104.82c-2-4.12-4.14-4.93-8.43-4.3-18.92,2.78-37.9,5.16-56.86,7.68q-41.79,5.56-83.59,11.12c-3.14.41-5.34,1.43-6.94,4.6Q282.53,487,255.86,539H194.92a29.47963,29.47963,0,0,1,1.91-5c5.23-8.71,10.63-17.32,15.87-26a27.78,27.78,0,0,0,2.9-6.32Q235.27,434.57,254.69,367.39a7.31,7.31,0,0,0-1.5-6c-7.28-7.55-14.8-14.88-22.47-22a7.31,7.31,0,0,0-5.63-1.54c-18.25,3.77-36.42,7.89-54.67,11.66-3.13.64-4,2.16-4.38,4.93-1.92,15.38-4,30.73-5.87,46.11-.18,1.5,0,3.58.92,4.6,5.82,6.59,11.89,13,18.23,19.78l21.62-20.75c2.39,16.18,4.61,31.24,6.94,47-11.75,2.24-23.12,4.43-34.52,6.53a7.70994,7.70994,0,0,1-2.92-.52c-6.79-1.65-13.66-3.06-20.32-5.11a12.58,12.58,0,0,1-6.42-4.71c-7.47-11.63-14.52-23.52-21.83-35.26C116,402.7,110,393.35,104,384Z" transform="translate(-104 -162.81833)"/>
        <path d="M416.71,539c3.05-5.09,5.83-10.37,9.25-15.19a20.12014,20.12014,0,0,0,3.77-12.51c-.18-23.3,0-46.61-.16-69.92,0-3.42,1-5.53,3.92-7.29,5.51-3.36,10.83-7,16.6-10.81,1.11,1.68,2,3,2.87,4.4,9.86,16.59,19.78,33.15,29.45,49.85a12.92012,12.92012,0,0,1,1.53,7.42c-1.94,18-4.16,36-6.29,54.05Z" transform="translate(-104 -162.81833)"/>
        <path d="M298.82,539c2.78-1.75,5.42-3.81,8.38-5.17,3.15-1.44,4-3,2.94-6.49q-6-19.83-11.23-39.85a11.79011,11.79011,0,0,1,.54-7.45q8.1-17.13995,16.94-33.92A10.48994,10.48994,0,0,1,322,441.4c7.44-2.28,15.07-3.95,23.39-6.05.91,4,1.85,7.79,2.61,11.59q8.75,43.8,17.42,87.61a36.40637,36.40637,0,0,1,.34,4.45Z"  transform="translate(-104 -162.81833)"/>
    </g>
</svg>